<svg id="Layer_1" data-name="Layer 1" xmlns="http://www.w3.org/2000/svg" viewBox="0 0 724.65 682.81"><defs><style>.cls-1,.cls-4,.cls-6,.cls-7,.cls-8{fill:none}.cls-2{clip-path:url(#clip-path)}.cls-3{fill:#fff}.cls-4{stroke:#0030fd;stroke-width:2px}.cls-4,.cls-6,.cls-7,.cls-8{stroke-linecap:round;stroke-linejoin:round}.cls-5,.cls-9{font-size:16px;font-family:SourceCodePro-Regular,Source Code Pro}.cls-6{stroke:#000;stroke-width:3px}.cls-7{stroke:#fd1c00;stroke-dasharray:4 4}.cls-8{stroke:#901b90}.cls-9{fill:#932191}</style><clipPath id="clip-path"><path class="cls-1" d="M0-.19h724.88v683H0z"/></clipPath></defs><title>final-layout</title><g class="cls-2"><path class="cls-3" d="M-.12-.19h725v683h-725z"/></g><path class="cls-3" d="M21.88 18.31h549.5v644H21.88zm0 0"/><path class="cls-4" d="M51.88 16v107.3M21.88 17v106.3m548-107.3v107.3m-30-106.3v106.3m-518-106.8v-1.05h30v.06m-.25-.06h8l240.13.06 240.13.06m.6 1v-.77h30.4v-.78"/><path class="cls-3" d="M198 0h164v31H198zm0 0"/><text class="cls-5" transform="translate(203.17 21.5)">edges.all.inline</text><path class="cls-4" d="M647.18 124.31h-107.3m106.3-50h-106.3m107.3 587.5h-107.3m106.3-15.2h-106.3m108.2 15.8l-.9-588.7v.86"/><path class="cls-3" d="M570.65 366.35h154v31h-154zm0 0"/><text class="cls-5" transform="translate(575.65 387.85)">edges.all.block</text><path class="cls-6" d="M22.38 74.31h548.5v587.5H22.38zm0 0"/><text class="cls-5" transform="translate(210.23 72.3)">layout(block-like)</text><path class="cls-7" d="M50.88 123.31h489v524.5h-489zm0 0"/><text class="cls-5" transform="translate(223.38 122.3)">ConstraintSpace</text><path class="cls-8" d="M152.38 123.31h288.5v107.3h-288.5zm0 0"/><text class="cls-9" transform="translate(258.23 182.96)">fragment</text><path class="cls-8" d="M237.38 230.61h116v116h-116zm0 0"/><text class="cls-9" transform="translate(256.98 294.61)">fragment</text><path class="cls-8" d="M101.63 346.61h387.5v84h-387.5zm0 0"/><text class="cls-9" transform="translate(256.98 394.61)">fragment</text><path class="cls-8" d="M198.63 430.61h196v90h-196zm0 0"/><text class="cls-9" transform="translate(258.23 481.61)">fragment</text><path class="cls-8" d="M140.88 520.61h309v65h-309zm0 0"/><text class="cls-9" transform="translate(256.98 559.11)">fragment</text><path class="cls-8" d="M140.88 585.61h309v62.2h-309zm0 0"/><text class="cls-9" transform="translate(256.98 622.7)">fragment</text></svg>