<svg id="Layer_1" data-name="Layer 1" xmlns="http://www.w3.org/2000/svg" xmlns:xlink="http://www.w3.org/1999/xlink" viewBox="0 0 724.65 682.81"><defs><style>.cls-1,.cls-4,.cls-6,.cls-7,.cls-8{fill:none;}.cls-2{clip-path:url(#clip-path);}.cls-3{fill:#fff;}.cls-4{stroke:#0030fd;stroke-width:2px;}.cls-4,.cls-6,.cls-7,.cls-8{stroke-linecap:round;stroke-linejoin:round;}.cls-5,.cls-9{font-size:16px;font-family:SourceCodePro-Regular, Source Code Pro;}.cls-6{stroke:#000;stroke-width:3px;}.cls-7{stroke:#fd1c00;stroke-dasharray:4 4;}.cls-8{stroke:#901b90;}.cls-9{fill:#932191;}</style><clipPath id="clip-path"><rect class="cls-1" y="-0.19" width="724.88" height="683"/></clipPath></defs><title>final-layout</title><g class="cls-2"><rect class="cls-3" x="-0.12" y="-0.19" width="725" height="683"/></g><path class="cls-3" d="M21.88,18.31h549.5v644H21.88Zm0,0"/><path class="cls-4" d="M51.88,16v107.3M21.88,17v106.3M569.88,16v107.3M539.88,17v106.3m-518-106.8V15.45h30v.06m-.25-.06h8l240.13.06,240.13.06m.6,1v-.77h30.4v-.78"/><path class="cls-3" d="M198,0H362V31H198Zm0,0"/><text class="cls-5" transform="translate(203.17 21.5)">edges.all.inline</text><path class="cls-4" d="M647.18,124.31H539.88m106.3-50H539.88m107.3,587.5H539.88m106.3-15.2H539.88m108.2,15.8-.9-588.7v.86"/><path class="cls-3" d="M570.65,366.35h154v31h-154Zm0,0"/><text class="cls-5" transform="translate(575.65 387.85)">edges.all.block</text><path class="cls-6" d="M22.38,74.31h548.5v587.5H22.38Zm0,0"/><text class="cls-5" transform="translate(210.23 72.3)">layout(centered-stacked)</text><path class="cls-7" d="M50.88,123.31h489v524.5h-489Zm0,0"/><text class="cls-5" transform="translate(223.38 122.3)">ConstraintSpace</text><path class="cls-8" d="M152.38,123.31h288.5v107.3H152.38Zm0,0"/><text class="cls-9" transform="translate(258.23 182.96)">fragment</text><path class="cls-8" d="M237.38,230.61h116v116h-116Zm0,0"/><text class="cls-9" transform="translate(256.98 294.61)">fragment</text><path class="cls-8" d="M101.63,346.61h387.5v84H101.63Zm0,0"/><text class="cls-9" transform="translate(256.98 394.61)">fragment</text><path class="cls-8" d="M198.63,430.61h196v90h-196Zm0,0"/><text class="cls-9" transform="translate(258.23 481.61)">fragment</text><path class="cls-8" d="M140.88,520.61h309v65h-309Zm0,0"/><text class="cls-9" transform="translate(256.98 559.11)">fragment</text><path class="cls-8" d="M140.88,585.61h309v62.2h-309Zm0,0"/><text class="cls-9" transform="translate(256.98 622.7)">fragment</text></svg>
