<?xml version="1.0" encoding="utf-8"?>
<!-- Generator: Adobe Illustrator 22.1.0, SVG Export Plug-In . SVG Version: 6.00 Build 0)  -->
<svg version="1.1" id="Layer_1" xmlns="http://www.w3.org/2000/svg" xmlns:xlink="http://www.w3.org/1999/xlink" x="0px" y="0px"
	 viewBox="0 0 598.9 252" style="enable-background:new 0 0 598.9 252;" xml:space="preserve">
<style type="text/css">
	.st0{font-family:'ArialMT';}
	.st1{font-size:16px;}
	.st2{fill:none;stroke:#000000;stroke-linecap:round;stroke-linejoin:round;}
	.st3{fill:#FFFFFF;}
	.st4{clip-path:url(#SVGID_2_);}
	.st5{clip-path:url(#SVGID_4_);}
	.st6{clip-path:url(#SVGID_6_);}
	.st7{fill:none;}
	.st8{fill:#FF9200;}
</style>
<text transform="matrix(1 0 0 1 326.65 203.24)" class="st0 st1">Fragment</text>
<path class="st2" d="M218.8,142.6v-34h292.5v34.2"/>
<path class="st3" d="M310.6,93.1H388v31h-77.4V93.1z"/>
<text transform="matrix(1 0 0 1 315.61 114.6)" class="st0 st1">inlineSize</text>
<g>
	<defs>
		<rect id="SVGID_1_" width="598.9" height="252"/>
	</defs>
	<clipPath id="SVGID_2_">
		<use xlink:href="#SVGID_1_"  style="overflow:visible;"/>
	</clipPath>
	<g class="st4">
		<path class="st2" d="M511.9,251h38.5V143.5h-39.1"/>
	</g>
</g>
<path class="st3" d="M521.9,175.1H599v31h-77.1V175.1z"/>
<text transform="matrix(1 0 0 1 527.17 196.56)" class="st0 st1">blockSize</text>
<g>
	<defs>
		<rect id="SVGID_3_" width="598.9" height="252"/>
	</defs>
	<clipPath id="SVGID_4_">
		<use xlink:href="#SVGID_3_"  style="overflow:visible;"/>
	</clipPath>
	<g class="st5">
		<path class="st2" d="M0.5,122.2v21.3h218.3"/>
	</g>
</g>
<path class="st3" d="M44.6,128H134v31H44.6V128z"/>
<text transform="matrix(1 0 0 1 50.03 149.49)" class="st0 st1">inlineOffset</text>
<g>
	<g>
		<defs>
			<rect id="SVGID_5_" width="598.9" height="252"/>
		</defs>
		<clipPath id="SVGID_6_">
			<use xlink:href="#SVGID_5_"  style="overflow:visible;"/>
		</clipPath>
		<g class="st6">
			<path class="st2" d="M193.6,0.5h25.2v132.6"/>
		</g>
	</g>
</g>
<path class="st3" d="M160.8,37.9h90.9v31h-90.9L160.8,37.9L160.8,37.9z"/>
<text transform="matrix(1 0 0 1 166 59.36)" class="st0 st1">blockOffset</text>
<path class="st7" d="M211.3,221.1h15v23.4h-15V221.1z"/>
<path class="st8" d="M217.8,237h2v6.2h-2V237z M217.8,231.3h2v3.1h-2V231.3z M217.8,222.4h2v6.2h-2V222.4z"/>
<path class="st7" d="M211.3,197.8h15v23.4h-15V197.8z"/>
<path class="st8" d="M217.8,213.6h2v6.2h-2V213.6z M217.8,207.9h2v3.1h-2V207.9z M217.8,199.1h2v6.2h-2V199.1z"/>
<path class="st7" d="M211.3,174.4h15v23.4h-15V174.4z"/>
<path class="st8" d="M217.8,190.2h2v6.2h-2V190.2z M217.8,184.5h2v3.1h-2V184.5z M217.8,175.7h2v6.2h-2V175.7z"/>
<path class="st7" d="M211.3,151h15v23.4h-15V151z"/>
<path class="st8" d="M217.8,166.8h2v6.2h-2V166.8z M217.8,161.1h2v3.1h-2V161.1z M217.8,152.3h2v6.2h-2V152.3z"/>
<path class="st7" d="M226.3,136h23.1v15h-23.1V136z"/>
<path class="st8" d="M227.6,142.5h6.2v2h-6.2V142.5z M236.3,142.5h3.1v2h-3.1V142.5z M242,142.5h6.2v2H242V142.5z"/>
<path class="st7" d="M249.4,136h23.1v15h-23.1V136z"/>
<path class="st8" d="M250.7,142.5h6.2v2h-6.2V142.5z M259.4,142.5h3.1v2h-3.1V142.5z M265.1,142.5h6.2v2h-6.2V142.5z"/>
<path class="st7" d="M272.6,136h23.1v15h-23.1V136z"/>
<path class="st8" d="M273.8,142.5h6.2v2h-6.2V142.5z M282.6,142.5h3.1v2h-3.1V142.5z M288.2,142.5h6.2v2h-6.2V142.5z"/>
<path class="st7" d="M295.7,136h23.1v15h-23.1V136z"/>
<path class="st8" d="M297,142.5h6.2v2H297V142.5z M305.7,142.5h3.1v2h-3.1V142.5z M311.3,142.5h6.2v2h-6.2V142.5z"/>
<path class="st7" d="M318.8,136h23.1v15h-23.1V136z"/>
<path class="st8" d="M320.1,142.5h6.2v2h-6.2V142.5z M328.8,142.5h3.1v2h-3.1V142.5z M334.5,142.5h6.2v2h-6.2V142.5z"/>
<path class="st7" d="M341.9,136H365v15h-23.1V136z"/>
<path class="st8" d="M343.2,142.5h6.2v2h-6.2V142.5z M351.9,142.5h3.1v2h-3.1V142.5z M357.6,142.5h6.2v2h-6.2V142.5z"/>
<path class="st7" d="M365,136h23.1v15H365V136z"/>
<path class="st8" d="M366.3,142.5h6.2v2h-6.2V142.5z M375.1,142.5h3.1v2h-3.1V142.5z M380.7,142.5h6.2v2h-6.2V142.5z"/>
<path class="st7" d="M388.2,136h23.1v15h-23.1V136z"/>
<path class="st8" d="M389.5,142.5h6.2v2h-6.2V142.5z M398.2,142.5h3.1v2h-3.1V142.5z M403.8,142.5h6.2v2h-6.2V142.5z"/>
<path class="st7" d="M411.3,136h23.1v15h-23.1V136z"/>
<path class="st8" d="M412.6,142.5h6.2v2h-6.2V142.5z M421.3,142.5h3.1v2h-3.1V142.5z M427,142.5h6.2v2H427V142.5z"/>
<path class="st7" d="M434.4,136h23.1v15h-23.1V136z"/>
<path class="st8" d="M435.7,142.5h6.2v2h-6.2V142.5z M444.4,142.5h3.1v2h-3.1V142.5z M450.1,142.5h6.2v2h-6.2V142.5z"/>
<path class="st7" d="M457.5,136h23.1v15h-23.1V136z"/>
<path class="st8" d="M458.8,142.5h6.2v2h-6.2V142.5z M467.6,142.5h3.1v2h-3.1V142.5z M473.2,142.5h6.2v2h-6.2V142.5z"/>
<path class="st7" d="M480.7,136h23.1v15h-23.1V136z"/>
<path class="st8" d="M482,142.5h6.2v2H482V142.5z M490.7,142.5h3.1v2h-3.1V142.5z M496.3,142.5h6.2v2h-6.2V142.5z"/>
<path class="st7" d="M503.8,151h15v23.4h-15V151z"/>
<path class="st8" d="M510.3,152.3h2v6.2h-2V152.3z M510.3,161.1h2v3.1h-2V161.1z M510.3,166.8h2v6.2h-2V166.8z"/>
<path class="st7" d="M503.8,174.4h15v23.4h-15V174.4z"/>
<path class="st8" d="M510.3,175.7h2v6.2h-2V175.7z M510.3,184.5h2v3.1h-2V184.5z M510.3,190.2h2v6.2h-2V190.2z"/>
<path class="st7" d="M503.8,197.8h15v23.4h-15V197.8z"/>
<path class="st8" d="M510.3,199.1h2v6.2h-2V199.1z M510.3,207.9h2v3.1h-2V207.9z M510.3,213.6h2v6.2h-2V213.6z"/>
<path class="st7" d="M503.8,221.1h15v23.4h-15V221.1z"/>
<path class="st8" d="M510.3,222.4h2v6.2h-2V222.4z M510.3,231.2h2v3.1h-2V231.2z M510.3,237h2v6.2h-2V237z"/>
<path class="st7" d="M480.7,244.5h23.1v15h-23.1V244.5z"/>
<path class="st8" d="M496.4,251h6.2v2h-6.2V251z M490.7,251h3.1v2h-3.1V251z M482,251h6.2v2H482V251z"/>
<path class="st7" d="M457.5,244.5h23.1v15h-23.1V244.5z"/>
<path class="st8" d="M473.2,251h6.2v2h-6.2V251z M467.6,251h3.1v2h-3.1V251z M458.9,251h6.2v2h-6.2V251z"/>
<path class="st7" d="M434.4,244.5h23.1v15h-23.1V244.5z"/>
<path class="st8" d="M450.1,251h6.2v2h-6.2V251z M444.5,251h3.1v2h-3.1V251z M435.7,251h6.2v2h-6.2V251z"/>
<path class="st7" d="M411.3,244.5h23.1v15h-23.1V244.5z"/>
<path class="st8" d="M427,251h6.2v2H427V251z M421.3,251h3.1v2h-3.1V251z M412.6,251h6.2v2h-6.2V251z"/>
<path class="st7" d="M388.2,244.5h23.1v15h-23.1V244.5z"/>
<path class="st8" d="M403.9,251h6.2v2h-6.2V251z M398.2,251h3.1v2h-3.1V251z M389.5,251h6.2v2h-6.2V251z"/>
<path class="st7" d="M365,244.5h23.1v15H365V244.5z"/>
<path class="st8" d="M380.7,251h6.2v2h-6.2V251z M375.1,251h3.1v2h-3.1V251z M366.4,251h6.2v2h-6.2V251z"/>
<path class="st7" d="M341.9,244.5H365v15h-23.1V244.5z"/>
<path class="st8" d="M357.6,251h6.2v2h-6.2V251z M352,251h3.1v2H352V251z M343.2,251h6.2v2h-6.2V251z"/>
<path class="st7" d="M318.8,244.5h23.1v15h-23.1V244.5z"/>
<path class="st8" d="M334.5,251h6.2v2h-6.2V251z M328.8,251h3.1v2h-3.1V251z M320.1,251h6.2v2h-6.2V251z"/>
<path class="st7" d="M295.7,244.5h23.1v15h-23.1V244.5z"/>
<path class="st8" d="M311.4,251h6.2v2h-6.2V251z M305.7,251h3.1v2h-3.1V251z M297,251h6.2v2H297V251z"/>
<path class="st7" d="M272.6,244.5h23.1v15h-23.1V244.5z"/>
<path class="st8" d="M288.2,251h6.2v2h-6.2V251z M282.6,251h3.1v2h-3.1V251z M273.9,251h6.2v2h-6.2V251z"/>
<path class="st7" d="M249.4,244.5h23.1v15h-23.1V244.5z"/>
<path class="st8" d="M265.1,251h6.2v2h-6.2V251z M259.5,251h3.1v2h-3.1V251z M250.7,251h6.2v2h-6.2V251z"/>
<path class="st7" d="M226.3,244.5h23.1v15h-23.1V244.5z"/>
<path class="st8" d="M242,251h6.2v2H242V251z M236.3,251h3.1v2h-3.1V251z M227.6,251h6.2v2h-6.2V251z"/>
<g>
	<path class="st8" d="M225.1,144.5v-2h-7.3v7.2h2v-5.2H225.1z"/>
</g>
<g>
	<path class="st8" d="M510.3,149.8h2v-7.3h-7.2v2h5.2V149.8z"/>
</g>
<g>
	<path class="st8" d="M505,251v2h7.3v-7.2h-2v5.2H505z"/>
</g>
<g>
	<path class="st8" d="M219.8,245.7h-2v7.3h7.2v-2h-5.2V245.7z"/>
</g>
</svg>
