<svg id="Layer_1" data-name="Layer 1" xmlns="http://www.w3.org/2000/svg" xmlns:xlink="http://www.w3.org/1999/xlink" viewBox="0 0 598.87 252"><defs><style>.cls-1,.cls-4,.cls-6{fill:none;}.cls-2{clip-path:url(#clip-path);}.cls-3{fill:#fff;}.cls-4{stroke:#ff9200;stroke-width:2px;stroke-dasharray:16 8 2 8;}.cls-4,.cls-6{stroke-linecap:round;stroke-linejoin:round;}.cls-5{font-size:16px;font-family:SourceCodePro-Regular, Source Code Pro;}.cls-6{stroke:#000;}</style><clipPath id="clip-path"><rect class="cls-1" width="598.87" height="252"/></clipPath></defs><title>Fragment</title><g class="cls-2"><rect class="cls-3" width="598.87" height="252"/><path class="cls-3" d="M-1187.7-880h3296V1358h-3296Zm0,0"/><path class="cls-4" d="M218.8,143.5H511.3V251H218.8Zm0,0"/></g><text class="cls-5" transform="translate(326.65 203.24)">Fragment</text><polyline class="cls-6" points="218.8 142.63 218.8 108.6 450.28 108.6 511.3 108.6 511.3 142.75"/><path class="cls-3" d="M310.6,93.1h106v31h-106Zm0,0"/><text class="cls-5" transform="translate(315.61 114.6)">inlineSize</text><g class="cls-2"><polyline class="cls-6" points="511.9 251 550.37 251 550.37 143.5 511.3 143.5"/></g><path class="cls-3" d="M501.87,175.06h97v31h-97Zm0,0"/><text class="cls-5" transform="translate(507.17 196.56)">blockSize</text><g class="cls-2"><polyline class="cls-6" points="0.5 122.2 0.5 143.5 218.8 143.5"/></g><path class="cls-3" d="M44.62,128h126v31h-126Zm0,0"/><text class="cls-5" transform="translate(50.03 149.49)">inlineOffset</text><g class="cls-2"><polyline class="cls-6" points="193.55 0.5 218.8 0.5 218.8 21.4 218.8 126.14 218.8 133.13"/></g><path class="cls-3" d="M160.8,37.86h116v31h-116Zm0,0"/><text class="cls-5" transform="translate(166 59.36)">blockOffset</text></svg>