<svg id="Layer_1" data-name="Layer 1" xmlns="http://www.w3.org/2000/svg" viewBox="0 0 598.87 252"><defs><style>.cls-1,.cls-4,.cls-6{fill:none}.cls-2{clip-path:url(#clip-path)}.cls-3{fill:#fff}.cls-4{stroke:#ff9200;stroke-width:2px;stroke-dasharray:16 8 2 8}.cls-4,.cls-6{stroke-linecap:round;stroke-linejoin:round}.cls-5{font-size:16px;font-family:SourceCodePro-Regular,Source Code Pro}.cls-6{stroke:#000}</style><clipPath id="clip-path"><path class="cls-1" d="M0 0h598.87v252H0z"/></clipPath></defs><title>Fragment</title><g class="cls-2"><path class="cls-3" d="M0 0h598.87v252H0z"/><path class="cls-3" d="M-1187.7-880h3296v2238h-3296zm0 0"/><path class="cls-4" d="M218.8 143.5h292.5V251H218.8zm0 0"/></g><text class="cls-5" transform="translate(326.65 203.24)">Fragment</text><path class="cls-6" d="M218.8 142.63V108.6h292.5v34.15"/><path class="cls-3" d="M310.6 93.1h106v31h-106zm0 0"/><text class="cls-5" transform="translate(315.61 114.6)">inlineSize</text><g class="cls-2"><path class="cls-6" d="M511.9 251h38.47V143.5H511.3"/></g><path class="cls-3" d="M501.87 175.06h97v31h-97zm0 0"/><text class="cls-5" transform="translate(507.17 196.56)">blockSize</text><g class="cls-2"><path class="cls-6" d="M.5 122.2v21.3h218.3"/></g><path class="cls-3" d="M44.62 128h126v31h-126zm0 0"/><text class="cls-5" transform="translate(50.03 149.49)">inlineOffset</text><g class="cls-2"><path class="cls-6" d="M193.55.5h25.25v132.63"/></g><path class="cls-3" d="M160.8 37.86h116v31h-116zm0 0"/><text class="cls-5" transform="translate(166 59.36)">blockOffset</text></svg>