<svg id="Layer_1" data-name="Layer 1" xmlns="http://www.w3.org/2000/svg" viewBox="0 0 1001.38 615"><defs><style>.cls-1,.cls-10,.cls-3,.cls-4,.cls-6,.cls-7,.cls-8,.cls-9{fill:none}.cls-2{clip-path:url(#clip-path)}.cls-3,.cls-8{stroke:#000}.cls-10,.cls-3,.cls-4,.cls-6,.cls-7,.cls-9{stroke-linecap:round;stroke-linejoin:round}.cls-4{stroke:#ff5050;stroke-dasharray:8 8}.cls-10,.cls-4,.cls-6,.cls-7,.cls-9{stroke-width:2px}.cls-5{font-size:16px;font-family:SourceCodePro-Regular,Source Code Pro}.cls-6{stroke:#ff3eff}.cls-10,.cls-7,.cls-9{stroke:#ff9200}.cls-8{stroke-miterlimit:10}.cls-9{stroke-dasharray:40 10 8 10}.cls-10{stroke-dasharray:40 10 8 10 8 10}</style><clipPath id="clip-path"><path class="cls-1" d="M0 0h1001.38v615H0z"/></clipPath></defs><title>Artboard 1</title><g class="cls-2"><path class="cls-3" d="M.38.5h475v614H.38zm0 0"/></g><path d="M193.83 14.55a2.71 2.71 0 0 0 1.9-.53 2 2 0 0 0 .6-1.57 2 2 0 0 0-.6-1.56 2.8 2.8 0 0 0-1.9-.54h-3v4.19zm.51-5.47A3.55 3.55 0 0 1 197 10a3.36 3.36 0 0 1 .89 2.49 3.39 3.39 0 0 1-.89 2.5 3.48 3.48 0 0 1-2.62.88h-3.49v4.63h-1.52V9.08zm12.46 10.34a1.64 1.64 0 0 1-.42.06q-.32 0-.38-.22a3.16 3.16 0 0 1-.06-.7V14.3a2.22 2.22 0 0 0-.27-1.17 1.92 1.92 0 0 0-.72-.69 2.91 2.91 0 0 0-1-.33 7.75 7.75 0 0 0-1.11-.08 5.79 5.79 0 0 0-1.32.14 3.22 3.22 0 0 0-1.1.47 2.43 2.43 0 0 0-.77.86 2.94 2.94 0 0 0-.32 1.3h1.36a1.39 1.39 0 0 1 .62-1.24 2.88 2.88 0 0 1 1.44-.33 4.47 4.47 0 0 1 .65 0 1.76 1.76 0 0 1 .59.19 1.15 1.15 0 0 1 .43.42 1.36 1.36 0 0 1 .17.72.74.74 0 0 1-.22.58 1.48 1.48 0 0 1-.61.3 5.9 5.9 0 0 1-.89.16q-.5.06-1.06.17t-1 .24a2.9 2.9 0 0 0-.9.42 2.09 2.09 0 0 0-.63.73 2.43 2.43 0 0 0-.24 1.15 2.4 2.4 0 0 0 .22 1.06 1.92 1.92 0 0 0 .58.71 2.47 2.47 0 0 0 .87.4 4.5 4.5 0 0 0 2.67-.17 3.25 3.25 0 0 0 1.3-1 1.29 1.29 0 0 0 .31 1 1.17 1.17 0 0 0 .84.3 1.93 1.93 0 0 0 1-.21v-.99zm-2.21-1.8a1.52 1.52 0 0 1-.14.61 1.83 1.83 0 0 1-.45.6 2.42 2.42 0 0 1-.78.46 3.24 3.24 0 0 1-1.15.18 2.8 2.8 0 0 1-.61-.06 1.48 1.48 0 0 1-.5-.21 1.13 1.13 0 0 1-.35-.37 1.1 1.1 0 0 1-.14-.57 1.27 1.27 0 0 1 .23-.8 1.51 1.51 0 0 1 .6-.45 3.4 3.4 0 0 1 .83-.23l.92-.13q.46-.06.87-.14a1.7 1.7 0 0 0 .67-.28v1.39zm4.7-5.39V14a3.68 3.68 0 0 1 1.22-1.49 3.06 3.06 0 0 1 1.82-.45v1.44a3.85 3.85 0 0 0-1.39.22 2.19 2.19 0 0 0-.93.66 2.71 2.71 0 0 0-.51 1 5.65 5.65 0 0 0-.16 1.42v3.7H208v-8.27zm9.35 2.43a2.33 2.33 0 0 0-.5-.74 2.36 2.36 0 0 0-.74-.5 2.33 2.33 0 0 0-.94-.18 2.37 2.37 0 0 0-1 .18 2.2 2.2 0 0 0-.73.5 2.41 2.41 0 0 0-.48.74 2.83 2.83 0 0 0-.21.9h4.75a2.79 2.79 0 0 0-.22-.91zM219 20a3.75 3.75 0 0 1-2.34.7 4.25 4.25 0 0 1-1.72-.32 3.39 3.39 0 0 1-1.22-.9 3.8 3.8 0 0 1-.74-1.38 6.62 6.62 0 0 1-.28-1.74 5 5 0 0 1 .29-1.73 4.13 4.13 0 0 1 .81-1.36 3.67 3.67 0 0 1 1.23-.9 3.76 3.76 0 0 1 1.56-.32 3.39 3.39 0 0 1 1.83.46 3.63 3.63 0 0 1 1.17 1.16 4.59 4.59 0 0 1 .61 1.54 6.59 6.59 0 0 1 .14 1.58h-6.24a3.28 3.28 0 0 0 .13 1 2.33 2.33 0 0 0 .46.86 2.29 2.29 0 0 0 .82.6 2.81 2.81 0 0 0 1.17.22 2.35 2.35 0 0 0 1.42-.4 1.93 1.93 0 0 0 .73-1.22h1.34A3.31 3.31 0 0 1 219 20zm4-7.74v1.31a2.86 2.86 0 0 1 2.7-1.57 3.59 3.59 0 0 1 1.36.22 2.24 2.24 0 0 1 .88.62 2.32 2.32 0 0 1 .47 1 5.13 5.13 0 0 1 .14 1.22v5.44h-1.36v-5.6a1.64 1.64 0 0 0-.45-1.22 1.67 1.67 0 0 0-1.23-.45 2.77 2.77 0 0 0-1.08.19 2 2 0 0 0-.76.54 2.34 2.34 0 0 0-.46.82 3.35 3.35 0 0 0-.15 1v4.72h-1.36v-8.27zm11.15 0v1.2h-1.65v5.14a1.48 1.48 0 0 0 0 .38.39.39 0 0 0 .15.22.67.67 0 0 0 .31.1h1.14v1.2h-1a4.88 4.88 0 0 1-.9-.07 1.33 1.33 0 0 1-.61-.26 1.13 1.13 0 0 1-.34-.54 3.14 3.14 0 0 1-.11-.93v-5.27h-1.41v-1.2h1.41V9.75h1.36v2.48zm7.7-3.15v10.11h6v1.28h-7.57V9.08zm14.48 10.34a1.64 1.64 0 0 1-.42.06q-.32 0-.38-.22a3.16 3.16 0 0 1-.06-.7V14.3a2.22 2.22 0 0 0-.27-1.17 1.92 1.92 0 0 0-.72-.69 2.91 2.91 0 0 0-1-.33 7.75 7.75 0 0 0-1.11-.08 5.79 5.79 0 0 0-1.32.14 3.22 3.22 0 0 0-1.1.47 2.43 2.43 0 0 0-.77.86 2.94 2.94 0 0 0-.32 1.3h1.36a1.39 1.39 0 0 1 .62-1.24 2.88 2.88 0 0 1 1.44-.33 4.47 4.47 0 0 1 .65 0 1.76 1.76 0 0 1 .59.19 1.15 1.15 0 0 1 .43.42 1.36 1.36 0 0 1 .17.72.74.74 0 0 1-.22.58 1.48 1.48 0 0 1-.61.3 5.9 5.9 0 0 1-.89.16q-.5.06-1.06.17t-1 .24a2.9 2.9 0 0 0-.9.42 2.09 2.09 0 0 0-.63.73 2.43 2.43 0 0 0-.24 1.15 2.4 2.4 0 0 0 .22 1.06 1.92 1.92 0 0 0 .58.71 2.47 2.47 0 0 0 .87.4 4.5 4.5 0 0 0 2.67-.17 3.25 3.25 0 0 0 1.3-1 1.29 1.29 0 0 0 .31 1 1.17 1.17 0 0 0 .84.3 1.93 1.93 0 0 0 1-.21v-.99zm-2.21-1.8a1.52 1.52 0 0 1-.14.61 1.83 1.83 0 0 1-.45.6 2.42 2.42 0 0 1-.78.46 3.24 3.24 0 0 1-1.15.18 2.8 2.8 0 0 1-.61-.06 1.48 1.48 0 0 1-.5-.21 1.13 1.13 0 0 1-.35-.37 1.1 1.1 0 0 1-.14-.57 1.27 1.27 0 0 1 .23-.8 1.51 1.51 0 0 1 .6-.45 3.4 3.4 0 0 1 .83-.23l.92-.13q.46-.06.87-.14a1.7 1.7 0 0 0 .67-.28v1.39zm10.32-5.39H263L260.66 19l-2.42-6.77h-1.54l3.3 8.22-.56 1.39a1.23 1.23 0 0 1-.42.57 1.17 1.17 0 0 1-.7.2 1.72 1.72 0 0 1-.39-.06 2.3 2.3 0 0 1-.41-.14v1.25a2.28 2.28 0 0 0 .46.11 3.64 3.64 0 0 0 .48 0 2.4 2.4 0 0 0 .79-.12 1.74 1.74 0 0 0 .62-.38 2.81 2.81 0 0 0 .51-.68 8.69 8.69 0 0 0 .47-1l3.6-9.38zm2.34 5.48a2.79 2.79 0 0 0 .55 1 2.39 2.39 0 0 0 .82.6 2.51 2.51 0 0 0 2 0 2.39 2.39 0 0 0 .82-.6 2.8 2.8 0 0 0 .55-1 4.56 4.56 0 0 0 0-2.67 2.89 2.89 0 0 0-.55-1 2.36 2.36 0 0 0-.82-.61 2.51 2.51 0 0 0-2 0 2.35 2.35 0 0 0-.82.61 2.88 2.88 0 0 0-.55 1 4.56 4.56 0 0 0 0 2.67zm-1.38-3a3.86 3.86 0 0 1 .77-1.38 3.62 3.62 0 0 1 1.26-.92 4.63 4.63 0 0 1 3.46 0 3.64 3.64 0 0 1 1.26.92 3.86 3.86 0 0 1 .77 1.38 5.51 5.51 0 0 1 .26 1.7 5.44 5.44 0 0 1-.26 1.7 3.87 3.87 0 0 1-.77 1.37 3.55 3.55 0 0 1-1.26.91 4.74 4.74 0 0 1-3.46 0 3.53 3.53 0 0 1-1.26-.91 3.86 3.86 0 0 1-.77-1.37 5.43 5.43 0 0 1-.26-1.7 5.51 5.51 0 0 1 .26-1.7zm14.94 5.83v-1.38a2.78 2.78 0 0 1-1.1 1.13 3.31 3.31 0 0 1-1.58.36 3.71 3.71 0 0 1-1.36-.22 2.17 2.17 0 0 1-.88-.62 2.31 2.31 0 0 1-.47-1 5.11 5.11 0 0 1-.14-1.22v-5.39h1.36v5.6a1.64 1.64 0 0 0 .45 1.22 1.66 1.66 0 0 0 1.23.45 2.77 2.77 0 0 0 1.08-.19 2 2 0 0 0 .76-.54 2.35 2.35 0 0 0 .46-.82 3.35 3.35 0 0 0 .15-1v-4.72h1.36v8.27zm6.86-8.27v1.2h-1.65v5.14a1.48 1.48 0 0 0 0 .38.39.39 0 0 0 .15.22.67.67 0 0 0 .31.1h1.14v1.2h-1a4.88 4.88 0 0 1-.9-.07 1.33 1.33 0 0 1-.61-.26 1.13 1.13 0 0 1-.34-.54 3.14 3.14 0 0 1-.11-.93v-5.31h-1.41v-1.2h1.41V9.75h1.36v2.48z"/><path class="cls-4" d="M46.88 114h404.5v480H46.88zm0 0"/><text class="cls-5" transform="translate(177.13 135)">ConstraintSpace</text><path class="cls-6" d="M54.88 152.5h188a5 5 0 0 1 5 5V247a5 5 0 0 1-5 5h-188a5 5 0 0 1-5-5v-89.5a5 5 0 0 1 5-5zm0 0"/><path d="M103.83 198.22a3.53 3.53 0 0 0-2.07-.61 3.71 3.71 0 0 0-1.76.39 3.46 3.46 0 0 0-1.2 1 4.45 4.45 0 0 0-.7 1.48 6.61 6.61 0 0 0-.22 1.73 7.39 7.39 0 0 0 .22 1.85 4.42 4.42 0 0 0 .7 1.52 3.43 3.43 0 0 0 1.21 1 3.76 3.76 0 0 0 1.76.38 3.39 3.39 0 0 0 1.34-.25 3 3 0 0 0 1-.69 3.17 3.17 0 0 0 .66-1 4.36 4.36 0 0 0 .29-1.31h1.52a5.19 5.19 0 0 1-1.49 3.36 4.81 4.81 0 0 1-3.46 1.2 5.51 5.51 0 0 1-2.32-.46 4.55 4.55 0 0 1-1.65-1.26 5.39 5.39 0 0 1-1-1.89 8.05 8.05 0 0 1-.33-2.34 7.62 7.62 0 0 1 .35-2.34 5.64 5.64 0 0 1 1-1.91 4.81 4.81 0 0 1 1.7-1.29 5.47 5.47 0 0 1 2.33-.47 5.87 5.87 0 0 1 1.7.24 4.56 4.56 0 0 1 1.42.7 4 4 0 0 1 1 1.16 4.25 4.25 0 0 1 .54 1.61H105a2.83 2.83 0 0 0-1.13-1.82zm10 9.81v-1.31a2.78 2.78 0 0 1-1.1 1.13 3.31 3.31 0 0 1-1.58.36 3.71 3.71 0 0 1-1.36-.22 2.17 2.17 0 0 1-.88-.62 2.32 2.32 0 0 1-.47-1 5.11 5.11 0 0 1-.14-1.22v-5.44h1.36v5.6a1.64 1.64 0 0 0 .45 1.22 1.66 1.66 0 0 0 1.23.45 2.77 2.77 0 0 0 1.08-.19 2 2 0 0 0 .76-.54 2.35 2.35 0 0 0 .46-.82 3.35 3.35 0 0 0 .15-1v-4.67h1.36V208zm4.56-8.27v1.74a3.68 3.68 0 0 1 1.22-1.49 3.06 3.06 0 0 1 1.82-.45V201a3.85 3.85 0 0 0-1.39.22 2.2 2.2 0 0 0-.93.66 2.71 2.71 0 0 0-.51 1 5.65 5.65 0 0 0-.16 1.42v3.7h-1.34v-8.27zm5.33 0v1.74A3.68 3.68 0 0 1 125 200a3.06 3.06 0 0 1 1.82-.45V201a3.85 3.85 0 0 0-1.39.22 2.2 2.2 0 0 0-.93.66 2.71 2.71 0 0 0-.51 1 5.65 5.65 0 0 0-.16 1.42v3.7h-1.36v-8.27zm9.28 2.43a2.33 2.33 0 0 0-.5-.74 2.36 2.36 0 0 0-.74-.5 2.33 2.33 0 0 0-.94-.18 2.37 2.37 0 0 0-1 .18 2.2 2.2 0 0 0-.73.5 2.41 2.41 0 0 0-.48.74 2.83 2.83 0 0 0-.21.9h4.75a2.79 2.79 0 0 0-.22-.91zm.33 5.31a3.75 3.75 0 0 1-2.34.7 4.25 4.25 0 0 1-1.72-.32 3.39 3.39 0 0 1-1.22-.9 3.8 3.8 0 0 1-.74-1.38 6.62 6.62 0 0 1-.28-1.74 5 5 0 0 1 .29-1.73 4.13 4.13 0 0 1 .81-1.36 3.67 3.67 0 0 1 1.23-.9 3.76 3.76 0 0 1 1.56-.32 3.39 3.39 0 0 1 1.83.46 3.63 3.63 0 0 1 1.17 1.16 4.59 4.59 0 0 1 .61 1.54 6.59 6.59 0 0 1 .14 1.58h-6.19a3.28 3.28 0 0 0 .13 1 2.33 2.33 0 0 0 .46.86 2.29 2.29 0 0 0 .82.6 2.81 2.81 0 0 0 1.17.22 2.35 2.35 0 0 0 1.42-.4 1.93 1.93 0 0 0 .73-1.22h1.34a3.31 3.31 0 0 1-1.2 2.1zm4-7.74v1.31a2.86 2.86 0 0 1 2.69-1.5 3.59 3.59 0 0 1 1.36.22 2.24 2.24 0 0 1 .88.62 2.32 2.32 0 0 1 .47 1 5.13 5.13 0 0 1 .14 1.22V208h-1.27v-5.6a1.64 1.64 0 0 0-.45-1.22 1.67 1.67 0 0 0-1.23-.45 2.77 2.77 0 0 0-1.08.19 2 2 0 0 0-.76.54 2.34 2.34 0 0 0-.46.82 3.35 3.35 0 0 0-.15 1V208h-1.36v-8.27zm11.15 0V201h-1.58v5.14a1.48 1.48 0 0 0 0 .38.39.39 0 0 0 .15.22.67.67 0 0 0 .31.1h1.14V208h-1a4.88 4.88 0 0 1-.9-.07 1.33 1.33 0 0 1-.61-.26 1.13 1.13 0 0 1-.34-.54 3.14 3.14 0 0 1-.11-.93V201h-1.41v-1.2h1.41v-2.48h1.36v2.48zm7.7-3.15v10.14h6V208h-7.57v-11.4zm14.48 10.34a1.65 1.65 0 0 1-.42.06q-.32 0-.38-.22a3.16 3.16 0 0 1-.06-.7v-4.25a2.22 2.22 0 0 0-.27-1.17 1.92 1.92 0 0 0-.72-.69 2.91 2.91 0 0 0-1-.33 7.76 7.76 0 0 0-1.11-.08 5.79 5.79 0 0 0-1.32.14 3.22 3.22 0 0 0-1.1.47 2.43 2.43 0 0 0-.77.86 2.94 2.94 0 0 0-.32 1.3h1.36a1.39 1.39 0 0 1 .62-1.24 2.88 2.88 0 0 1 1.44-.33 4.47 4.47 0 0 1 .65 0 1.76 1.76 0 0 1 .59.19 1.15 1.15 0 0 1 .43.42 1.36 1.36 0 0 1 .17.72.74.74 0 0 1-.22.58 1.48 1.48 0 0 1-.61.3 5.9 5.9 0 0 1-.89.16q-.5.06-1.06.17t-1 .24a2.9 2.9 0 0 0-.9.42 2.09 2.09 0 0 0-.63.73 2.43 2.43 0 0 0-.24 1.15 2.4 2.4 0 0 0 .22 1.06 1.92 1.92 0 0 0 .58.71 2.47 2.47 0 0 0 .87.4 4.5 4.5 0 0 0 2.67-.17 3.25 3.25 0 0 0 1.3-1 1.29 1.29 0 0 0 .31 1 1.17 1.17 0 0 0 .84.3 1.93 1.93 0 0 0 1-.21v-1.06zm-2.21-1.8a1.52 1.52 0 0 1-.14.61 1.83 1.83 0 0 1-.45.61 2.43 2.43 0 0 1-.78.46 3.24 3.24 0 0 1-1.08.17 2.81 2.81 0 0 1-.61-.06 1.48 1.48 0 0 1-.5-.21 1.13 1.13 0 0 1-.35-.37 1.1 1.1 0 0 1-.14-.57 1.27 1.27 0 0 1 .23-.8 1.51 1.51 0 0 1 .6-.45 3.4 3.4 0 0 1 .83-.23l.92-.13q.46-.06.87-.14a1.7 1.7 0 0 0 .67-.28v1.39zm10.32-5.39h-1.44l-2.32 6.77-2.42-6.77h-1.54l3.28 8.22-.56 1.39a1.23 1.23 0 0 1-.42.57 1.17 1.17 0 0 1-.7.2 1.72 1.72 0 0 1-.39-.06 2.3 2.3 0 0 1-.41-.14v1.25a2.28 2.28 0 0 0 .46.11 3.64 3.64 0 0 0 .48 0 2.4 2.4 0 0 0 .79-.12 1.74 1.74 0 0 0 .62-.38 2.81 2.81 0 0 0 .51-.68 8.69 8.69 0 0 0 .47-1l3.6-9.38zm2.34 5.48a2.79 2.79 0 0 0 .55 1 2.39 2.39 0 0 0 .82.6 2.51 2.51 0 0 0 2 0 2.39 2.39 0 0 0 .82-.6 2.8 2.8 0 0 0 .55-1 4.56 4.56 0 0 0 0-2.67 2.89 2.89 0 0 0-.55-1 2.36 2.36 0 0 0-.82-.61 2.51 2.51 0 0 0-2 0 2.35 2.35 0 0 0-.82.61 2.88 2.88 0 0 0-.55 1 4.56 4.56 0 0 0 0 2.67zm-1.38-3a3.86 3.86 0 0 1 .77-1.38 3.62 3.62 0 0 1 1.26-.92 4.63 4.63 0 0 1 3.46 0 3.64 3.64 0 0 1 1.26.92 3.86 3.86 0 0 1 .77 1.38 5.51 5.51 0 0 1 .26 1.7 5.44 5.44 0 0 1-.26 1.7 3.87 3.87 0 0 1-.77 1.37 3.55 3.55 0 0 1-1.26.91 4.74 4.74 0 0 1-3.46 0 3.53 3.53 0 0 1-1.26-.91 3.86 3.86 0 0 1-.77-1.37 5.43 5.43 0 0 1-.26-1.7 5.51 5.51 0 0 1 .26-1.7zm15.01 5.76v-1.31a2.78 2.78 0 0 1-1.1 1.13 3.31 3.31 0 0 1-1.58.36 3.71 3.71 0 0 1-1.36-.22 2.17 2.17 0 0 1-.88-.62 2.32 2.32 0 0 1-.47-1 5.11 5.11 0 0 1-.14-1.22v-5.44h1.36v5.6a1.64 1.64 0 0 0 .45 1.22 1.66 1.66 0 0 0 1.23.45 2.77 2.77 0 0 0 1.08-.19 2 2 0 0 0 .76-.54 2.35 2.35 0 0 0 .46-.82 3.35 3.35 0 0 0 .15-1v-4.67h1.3V208zm6.86-8.27V201H200v5.14a1.48 1.48 0 0 0 0 .38.39.39 0 0 0 .15.22.67.67 0 0 0 .31.1h1.14V208h-1a4.88 4.88 0 0 1-.9-.07 1.33 1.33 0 0 1-.61-.26 1.13 1.13 0 0 1-.34-.54 3.14 3.14 0 0 1-.11-.93V201h-1.41v-1.2h1.41v-2.48H200v2.48z"/><path class="cls-7" d="M255.38 152.5h188a5 5 0 0 1 5 5V247a5 5 0 0 1-5 5h-188a5 5 0 0 1-5-5v-89.5a5 5 0 0 1 5-5zm0 0"/><path d="M304.33 198.22a3.53 3.53 0 0 0-2.07-.61 3.71 3.71 0 0 0-1.75.38 3.46 3.46 0 0 0-1.2 1 4.45 4.45 0 0 0-.7 1.48 6.61 6.61 0 0 0-.22 1.73 7.4 7.4 0 0 0 .22 1.85 4.42 4.42 0 0 0 .7 1.52 3.43 3.43 0 0 0 1.21 1 3.76 3.76 0 0 0 1.76.38 3.39 3.39 0 0 0 1.34-.25 3 3 0 0 0 1-.69 3.17 3.17 0 0 0 .66-1 4.36 4.36 0 0 0 .29-1.31h1.52a5.19 5.19 0 0 1-1.49 3.36 4.81 4.81 0 0 1-3.46 1.2 5.51 5.51 0 0 1-2.32-.46 4.55 4.55 0 0 1-1.65-1.26 5.39 5.39 0 0 1-1-1.89 8.05 8.05 0 0 1-.33-2.34 7.62 7.62 0 0 1 .35-2.34 5.64 5.64 0 0 1 1-1.91 4.81 4.81 0 0 1 1.7-1.29 5.47 5.47 0 0 1 2.33-.47 5.87 5.87 0 0 1 1.7.24 4.56 4.56 0 0 1 1.42.7 4 4 0 0 1 1 1.16 4.26 4.26 0 0 1 .66 1.6h-1.52a2.83 2.83 0 0 0-1.13-1.82zm10 9.81v-1.31a2.78 2.78 0 0 1-1.1 1.13 3.31 3.31 0 0 1-1.58.36 3.71 3.71 0 0 1-1.36-.22 2.17 2.17 0 0 1-.88-.62 2.31 2.31 0 0 1-.47-1 5.11 5.11 0 0 1-.14-1.22v-5.44h1.36v5.6a1.64 1.64 0 0 0 .45 1.22 1.66 1.66 0 0 0 1.23.45 2.77 2.77 0 0 0 1.08-.19 2 2 0 0 0 .76-.54 2.35 2.35 0 0 0 .46-.82 3.35 3.35 0 0 0 .15-1v-4.67h1.36V208zm4.56-8.27v1.74a3.68 3.68 0 0 1 1.22-1.49 3.06 3.06 0 0 1 1.82-.45V201a3.85 3.85 0 0 0-1.39.22 2.19 2.19 0 0 0-.93.66 2.71 2.71 0 0 0-.51 1 5.65 5.65 0 0 0-.16 1.42v3.7h-1.34v-8.27zm5.33 0v1.74a3.68 3.68 0 0 1 1.22-1.49 3.06 3.06 0 0 1 1.82-.45V201a3.85 3.85 0 0 0-1.39.22 2.19 2.19 0 0 0-.93.66 2.71 2.71 0 0 0-.51 1 5.65 5.65 0 0 0-.16 1.42v3.7h-1.36v-8.27zm9.33 2.43a2.33 2.33 0 0 0-.5-.74 2.36 2.36 0 0 0-.74-.5 2.33 2.33 0 0 0-.94-.18 2.37 2.37 0 0 0-1 .18 2.2 2.2 0 0 0-.73.5 2.41 2.41 0 0 0-.48.74 2.83 2.83 0 0 0-.21.9h4.75a2.79 2.79 0 0 0-.22-.91zm.33 5.31a3.75 3.75 0 0 1-2.34.7 4.25 4.25 0 0 1-1.72-.32 3.39 3.39 0 0 1-1.22-.9 3.8 3.8 0 0 1-.74-1.38 6.62 6.62 0 0 1-.28-1.74 5 5 0 0 1 .29-1.73 4.13 4.13 0 0 1 .81-1.36 3.67 3.67 0 0 1 1.23-.9 3.76 3.76 0 0 1 1.56-.32 3.39 3.39 0 0 1 1.83.46 3.63 3.63 0 0 1 1.17 1.16 4.59 4.59 0 0 1 .61 1.54 6.59 6.59 0 0 1 .14 1.58H329a3.28 3.28 0 0 0 .13 1 2.33 2.33 0 0 0 .46.86 2.29 2.29 0 0 0 .82.6 2.81 2.81 0 0 0 1.17.22 2.35 2.35 0 0 0 1.42-.4 1.93 1.93 0 0 0 .73-1.22h1.34a3.31 3.31 0 0 1-1.2 2.1zm4-7.74v1.31a2.86 2.86 0 0 1 2.69-1.5 3.59 3.59 0 0 1 1.36.22 2.24 2.24 0 0 1 .88.62 2.32 2.32 0 0 1 .47 1 5.13 5.13 0 0 1 .14 1.22V208h-1.32v-5.6a1.64 1.64 0 0 0-.45-1.22 1.67 1.67 0 0 0-1.23-.45 2.77 2.77 0 0 0-1.08.19 2 2 0 0 0-.76.54 2.34 2.34 0 0 0-.46.82 3.35 3.35 0 0 0-.15 1V208h-1.36v-8.27zm11.15 0V201h-1.63v5.14a1.48 1.48 0 0 0 0 .38.39.39 0 0 0 .15.22.67.67 0 0 0 .31.1H349V208h-1a4.88 4.88 0 0 1-.9-.07 1.33 1.33 0 0 1-.61-.26 1.13 1.13 0 0 1-.34-.54 3.14 3.14 0 0 1-.11-.93V201h-1.41v-1.2H346v-2.48h1.36v2.48zm7.7-3.15v10.14h6V208h-7.57v-11.4zm14.48 10.34a1.65 1.65 0 0 1-.42.06q-.32 0-.38-.22a3.16 3.16 0 0 1-.06-.7v-4.25a2.22 2.22 0 0 0-.27-1.17 1.92 1.92 0 0 0-.72-.69 2.91 2.91 0 0 0-1-.33 7.76 7.76 0 0 0-1.11-.08 5.79 5.79 0 0 0-1.32.14 3.22 3.22 0 0 0-1.1.47 2.43 2.43 0 0 0-.77.86 2.94 2.94 0 0 0-.32 1.3h1.36a1.39 1.39 0 0 1 .62-1.24 2.88 2.88 0 0 1 1.44-.33 4.47 4.47 0 0 1 .65 0 1.76 1.76 0 0 1 .59.19 1.15 1.15 0 0 1 .43.42 1.36 1.36 0 0 1 .17.72.74.74 0 0 1-.22.58 1.48 1.48 0 0 1-.61.3 5.9 5.9 0 0 1-.89.16q-.5.06-1.06.17t-1 .24a2.9 2.9 0 0 0-.9.42 2.09 2.09 0 0 0-.63.73 2.43 2.43 0 0 0-.24 1.15 2.4 2.4 0 0 0 .22 1.06 1.92 1.92 0 0 0 .58.71 2.47 2.47 0 0 0 .87.4 4.5 4.5 0 0 0 2.67-.17 3.25 3.25 0 0 0 1.3-1 1.29 1.29 0 0 0 .31 1 1.17 1.17 0 0 0 .84.3 1.93 1.93 0 0 0 1-.21v-1.06zm-2.21-1.8a1.52 1.52 0 0 1-.14.61 1.83 1.83 0 0 1-.45.61 2.43 2.43 0 0 1-.78.46 3.24 3.24 0 0 1-1.15.18 2.81 2.81 0 0 1-.61-.06 1.48 1.48 0 0 1-.5-.21 1.13 1.13 0 0 1-.35-.37 1.1 1.1 0 0 1-.14-.57 1.27 1.27 0 0 1 .23-.8 1.51 1.51 0 0 1 .6-.45 3.4 3.4 0 0 1 .83-.23l.92-.13q.46-.06.87-.14a1.7 1.7 0 0 0 .67-.28v1.39zm10.32-5.39h-1.44l-2.32 6.77-2.42-6.77h-1.54l3.28 8.22-.56 1.39a1.23 1.23 0 0 1-.42.57 1.17 1.17 0 0 1-.7.2 1.72 1.72 0 0 1-.39-.06 2.3 2.3 0 0 1-.41-.14v1.25a2.28 2.28 0 0 0 .46.11 3.64 3.64 0 0 0 .48 0 2.4 2.4 0 0 0 .79-.12 1.74 1.74 0 0 0 .62-.38 2.81 2.81 0 0 0 .51-.68 8.69 8.69 0 0 0 .47-1l3.6-9.38zm2.34 5.48a2.79 2.79 0 0 0 .55 1 2.39 2.39 0 0 0 .82.6 2.51 2.51 0 0 0 2 0 2.39 2.39 0 0 0 .82-.6 2.8 2.8 0 0 0 .55-1 4.56 4.56 0 0 0 0-2.67 2.89 2.89 0 0 0-.55-1 2.36 2.36 0 0 0-.82-.61 2.51 2.51 0 0 0-2 0 2.35 2.35 0 0 0-.82.61 2.88 2.88 0 0 0-.55 1 4.56 4.56 0 0 0 0 2.67zm-1.38-3a3.86 3.86 0 0 1 .77-1.38 3.62 3.62 0 0 1 1.26-.92 4.63 4.63 0 0 1 3.46 0 3.64 3.64 0 0 1 1.26.92 3.86 3.86 0 0 1 .77 1.38 5.51 5.51 0 0 1 .26 1.7 5.44 5.44 0 0 1-.26 1.7 3.87 3.87 0 0 1-.8 1.36 3.55 3.55 0 0 1-1.26.91 4.74 4.74 0 0 1-3.46 0 3.53 3.53 0 0 1-1.26-.91 3.87 3.87 0 0 1-.77-1.37 5.43 5.43 0 0 1-.26-1.7 5.51 5.51 0 0 1 .26-1.7zm14.96 5.76v-1.31a2.78 2.78 0 0 1-1.1 1.13 3.31 3.31 0 0 1-1.58.36 3.71 3.71 0 0 1-1.36-.22 2.17 2.17 0 0 1-.88-.62 2.32 2.32 0 0 1-.47-1 5.12 5.12 0 0 1-.14-1.22v-5.44H391v5.6a1.64 1.64 0 0 0 .45 1.22 1.66 1.66 0 0 0 1.23.45 2.77 2.77 0 0 0 1.08-.19 2 2 0 0 0 .76-.54 2.35 2.35 0 0 0 .46-.82 3.35 3.35 0 0 0 .15-1v-4.67h1.36V208zm6.86-8.27V201h-1.65v5.14a1.48 1.48 0 0 0 0 .38.39.39 0 0 0 .15.22.67.67 0 0 0 .31.1h1.14V208h-1a4.88 4.88 0 0 1-.9-.07 1.33 1.33 0 0 1-.61-.26 1.13 1.13 0 0 1-.34-.54 3.14 3.14 0 0 1-.11-.93V201h-1.41v-1.2h1.41v-2.48h1.36v2.48z"/><path class="cls-6" d="M54.88 254.5h188a5 5 0 0 1 5 5V349a5 5 0 0 1-5 5h-188a5 5 0 0 1-5-5v-89.5a5 5 0 0 1 5-5zm0 0"/><path d="M103.83 300.22a3.53 3.53 0 0 0-2.07-.61 3.71 3.71 0 0 0-1.76.39 3.45 3.45 0 0 0-1.2 1 4.45 4.45 0 0 0-.7 1.48 6.61 6.61 0 0 0-.22 1.73 7.39 7.39 0 0 0 .22 1.85 4.42 4.42 0 0 0 .7 1.52 3.44 3.44 0 0 0 1.21 1 3.76 3.76 0 0 0 1.76.38 3.39 3.39 0 0 0 1.34-.25 3 3 0 0 0 1-.69 3.17 3.17 0 0 0 .66-1 4.36 4.36 0 0 0 .29-1.31h1.52a5.19 5.19 0 0 1-1.49 3.36 4.81 4.81 0 0 1-3.46 1.2 5.51 5.51 0 0 1-2.32-.46 4.55 4.55 0 0 1-1.65-1.26 5.39 5.39 0 0 1-1-1.89 8.05 8.05 0 0 1-.33-2.34 7.62 7.62 0 0 1 .35-2.34 5.64 5.64 0 0 1 1-1.91 4.81 4.81 0 0 1 1.7-1.29 5.47 5.47 0 0 1 2.33-.47 5.87 5.87 0 0 1 1.7.24 4.56 4.56 0 0 1 1.42.7 4 4 0 0 1 1 1.16 4.25 4.25 0 0 1 .54 1.61H105a2.83 2.83 0 0 0-1.13-1.82zm10 9.81v-1.31a2.78 2.78 0 0 1-1.1 1.13 3.31 3.31 0 0 1-1.58.36 3.71 3.71 0 0 1-1.36-.22 2.17 2.17 0 0 1-.88-.62 2.31 2.31 0 0 1-.47-1 5.12 5.12 0 0 1-.14-1.22v-5.44h1.36v5.6a1.64 1.64 0 0 0 .45 1.22 1.66 1.66 0 0 0 1.23.45 2.77 2.77 0 0 0 1.08-.19 2 2 0 0 0 .76-.54 2.35 2.35 0 0 0 .46-.82 3.35 3.35 0 0 0 .15-1v-4.67h1.36V310zm4.56-8.27v1.74a3.68 3.68 0 0 1 1.22-1.49 3.06 3.06 0 0 1 1.82-.45V303a3.85 3.85 0 0 0-1.39.22 2.19 2.19 0 0 0-.93.66 2.71 2.71 0 0 0-.51 1 5.65 5.65 0 0 0-.16 1.42v3.7h-1.34v-8.27zm5.33 0v1.74A3.68 3.68 0 0 1 125 302a3.06 3.06 0 0 1 1.82-.45V303a3.85 3.85 0 0 0-1.39.22 2.19 2.19 0 0 0-.93.66 2.71 2.71 0 0 0-.51 1 5.65 5.65 0 0 0-.16 1.42v3.7h-1.36v-8.27zm9.28 2.43a2.33 2.33 0 0 0-.5-.74 2.36 2.36 0 0 0-.74-.5 2.33 2.33 0 0 0-.94-.18 2.37 2.37 0 0 0-1 .18 2.2 2.2 0 0 0-.73.5 2.41 2.41 0 0 0-.48.74 2.83 2.83 0 0 0-.21.9h4.75a2.79 2.79 0 0 0-.22-.91zm.33 5.31a3.75 3.75 0 0 1-2.34.7 4.25 4.25 0 0 1-1.72-.32 3.39 3.39 0 0 1-1.22-.9 3.8 3.8 0 0 1-.74-1.38 6.62 6.62 0 0 1-.28-1.74 5 5 0 0 1 .29-1.73 4.13 4.13 0 0 1 .81-1.36 3.67 3.67 0 0 1 1.23-.9 3.76 3.76 0 0 1 1.56-.32 3.39 3.39 0 0 1 1.83.46 3.63 3.63 0 0 1 1.17 1.16 4.59 4.59 0 0 1 .61 1.54 6.59 6.59 0 0 1 .14 1.58h-6.19a3.28 3.28 0 0 0 .13 1 2.33 2.33 0 0 0 .46.86 2.29 2.29 0 0 0 .82.6 2.81 2.81 0 0 0 1.17.22 2.35 2.35 0 0 0 1.42-.4 1.93 1.93 0 0 0 .73-1.22h1.34a3.31 3.31 0 0 1-1.2 2.1zm4-7.74v1.31a2.86 2.86 0 0 1 2.69-1.5 3.59 3.59 0 0 1 1.36.22 2.24 2.24 0 0 1 .88.62 2.32 2.32 0 0 1 .47 1 5.13 5.13 0 0 1 .14 1.22V310h-1.27v-5.6a1.64 1.64 0 0 0-.45-1.22 1.67 1.67 0 0 0-1.23-.45 2.77 2.77 0 0 0-1.08.19 2 2 0 0 0-.76.54 2.34 2.34 0 0 0-.46.82 3.35 3.35 0 0 0-.15 1V310h-1.36v-8.27zm11.15 0V303h-1.58v5.14a1.48 1.48 0 0 0 0 .38.39.39 0 0 0 .15.22.67.67 0 0 0 .31.1h1.14V310h-1a4.88 4.88 0 0 1-.9-.07 1.33 1.33 0 0 1-.61-.26 1.13 1.13 0 0 1-.34-.54 3.14 3.14 0 0 1-.11-.93V303h-1.41v-1.2h1.41v-2.48h1.36v2.48zm7.7-3.15v10.14h6V310h-7.57v-11.4zm14.48 10.34a1.64 1.64 0 0 1-.42.06q-.32 0-.38-.22a3.16 3.16 0 0 1-.06-.7v-4.25a2.22 2.22 0 0 0-.27-1.17 1.92 1.92 0 0 0-.72-.69 2.91 2.91 0 0 0-1-.33 7.75 7.75 0 0 0-1.11-.08 5.79 5.79 0 0 0-1.32.14 3.22 3.22 0 0 0-1.1.47 2.43 2.43 0 0 0-.77.86 2.94 2.94 0 0 0-.32 1.3h1.36a1.39 1.39 0 0 1 .62-1.24 2.88 2.88 0 0 1 1.44-.33 4.47 4.47 0 0 1 .65 0 1.76 1.76 0 0 1 .59.19 1.15 1.15 0 0 1 .43.42 1.36 1.36 0 0 1 .17.72.74.74 0 0 1-.22.58 1.48 1.48 0 0 1-.61.3 5.9 5.9 0 0 1-.89.16q-.5.06-1.06.17t-1 .24a2.9 2.9 0 0 0-.9.42 2.09 2.09 0 0 0-.63.73 2.43 2.43 0 0 0-.24 1.15 2.4 2.4 0 0 0 .22 1.06 1.92 1.92 0 0 0 .58.71 2.47 2.47 0 0 0 .87.4 4.5 4.5 0 0 0 2.67-.17 3.25 3.25 0 0 0 1.3-1 1.29 1.29 0 0 0 .31 1 1.17 1.17 0 0 0 .84.3 1.93 1.93 0 0 0 1-.21v-1.06zm-2.21-1.8a1.52 1.52 0 0 1-.14.61 1.83 1.83 0 0 1-.45.6 2.42 2.42 0 0 1-.78.46 3.24 3.24 0 0 1-1.08.18 2.81 2.81 0 0 1-.61-.06 1.48 1.48 0 0 1-.5-.21 1.13 1.13 0 0 1-.35-.37 1.1 1.1 0 0 1-.14-.57 1.27 1.27 0 0 1 .23-.8 1.51 1.51 0 0 1 .6-.45 3.4 3.4 0 0 1 .83-.23l.92-.13q.46-.06.87-.14a1.7 1.7 0 0 0 .67-.28v1.39zm10.32-5.39h-1.44l-2.32 6.77-2.42-6.77h-1.54l3.28 8.22-.56 1.39a1.23 1.23 0 0 1-.42.57 1.17 1.17 0 0 1-.7.2 1.72 1.72 0 0 1-.39-.06 2.3 2.3 0 0 1-.41-.14v1.25a2.28 2.28 0 0 0 .46.11 3.64 3.64 0 0 0 .48 0 2.4 2.4 0 0 0 .79-.12 1.74 1.74 0 0 0 .62-.38 2.81 2.81 0 0 0 .51-.68 8.69 8.69 0 0 0 .47-1l3.6-9.38zm2.34 5.48a2.79 2.79 0 0 0 .55 1 2.39 2.39 0 0 0 .82.6 2.51 2.51 0 0 0 2 0 2.39 2.39 0 0 0 .82-.6 2.8 2.8 0 0 0 .55-1 4.56 4.56 0 0 0 0-2.67 2.89 2.89 0 0 0-.55-1 2.36 2.36 0 0 0-.82-.61 2.51 2.51 0 0 0-2 0 2.35 2.35 0 0 0-.82.61 2.88 2.88 0 0 0-.55 1 4.56 4.56 0 0 0 0 2.67zm-1.38-3a3.86 3.86 0 0 1 .77-1.38 3.62 3.62 0 0 1 1.26-.92 4.63 4.63 0 0 1 3.46 0 3.64 3.64 0 0 1 1.26.92 3.86 3.86 0 0 1 .77 1.38 5.51 5.51 0 0 1 .26 1.7 5.44 5.44 0 0 1-.26 1.7 3.87 3.87 0 0 1-.77 1.37 3.55 3.55 0 0 1-1.26.91 4.74 4.74 0 0 1-3.46 0 3.53 3.53 0 0 1-1.26-.91 3.86 3.86 0 0 1-.77-1.37 5.43 5.43 0 0 1-.26-1.7 5.51 5.51 0 0 1 .26-1.7zm15.01 5.76v-1.31a2.78 2.78 0 0 1-1.1 1.13 3.31 3.31 0 0 1-1.58.36 3.71 3.71 0 0 1-1.36-.22 2.17 2.17 0 0 1-.88-.62 2.31 2.31 0 0 1-.47-1 5.12 5.12 0 0 1-.14-1.22v-5.44h1.36v5.6a1.64 1.64 0 0 0 .45 1.22 1.66 1.66 0 0 0 1.23.45 2.77 2.77 0 0 0 1.08-.19 2 2 0 0 0 .76-.54 2.35 2.35 0 0 0 .46-.82 3.35 3.35 0 0 0 .15-1v-4.67h1.3V310zm6.86-8.27V303H200v5.14a1.48 1.48 0 0 0 0 .38.39.39 0 0 0 .15.22.67.67 0 0 0 .31.1h1.14V310h-1a4.88 4.88 0 0 1-.9-.07 1.33 1.33 0 0 1-.61-.26 1.13 1.13 0 0 1-.34-.54 3.14 3.14 0 0 1-.11-.93V303h-1.41v-1.2h1.41v-2.48H200v2.48z"/><path class="cls-6" d="M255.38 254.5h188a5 5 0 0 1 5 5V349a5 5 0 0 1-5 5h-188a5 5 0 0 1-5-5v-89.5a5 5 0 0 1 5-5zm0 0"/><path d="M304.33 300.22a3.53 3.53 0 0 0-2.07-.61 3.71 3.71 0 0 0-1.75.38 3.45 3.45 0 0 0-1.2 1 4.45 4.45 0 0 0-.7 1.48 6.61 6.61 0 0 0-.22 1.73 7.4 7.4 0 0 0 .22 1.85 4.42 4.42 0 0 0 .7 1.52 3.43 3.43 0 0 0 1.21 1 3.76 3.76 0 0 0 1.76.38 3.39 3.39 0 0 0 1.34-.25 3 3 0 0 0 1-.69 3.17 3.17 0 0 0 .66-1 4.36 4.36 0 0 0 .29-1.31h1.52a5.19 5.19 0 0 1-1.49 3.36 4.81 4.81 0 0 1-3.46 1.2 5.51 5.51 0 0 1-2.32-.46 4.55 4.55 0 0 1-1.65-1.26 5.39 5.39 0 0 1-1-1.89 8.05 8.05 0 0 1-.33-2.34 7.62 7.62 0 0 1 .35-2.34 5.64 5.64 0 0 1 1-1.91 4.81 4.81 0 0 1 1.7-1.29 5.47 5.47 0 0 1 2.33-.47 5.87 5.87 0 0 1 1.7.24 4.56 4.56 0 0 1 1.42.7 4 4 0 0 1 1 1.16 4.26 4.26 0 0 1 .66 1.6h-1.52a2.83 2.83 0 0 0-1.13-1.82zm10 9.81v-1.31a2.78 2.78 0 0 1-1.1 1.13 3.31 3.31 0 0 1-1.58.36 3.71 3.71 0 0 1-1.36-.22 2.17 2.17 0 0 1-.88-.62 2.31 2.31 0 0 1-.47-1 5.11 5.11 0 0 1-.14-1.22v-5.44h1.36v5.6a1.64 1.64 0 0 0 .45 1.22 1.66 1.66 0 0 0 1.23.45 2.77 2.77 0 0 0 1.08-.19 2 2 0 0 0 .76-.54 2.35 2.35 0 0 0 .46-.82 3.35 3.35 0 0 0 .15-1v-4.67h1.36V310zm4.56-8.27v1.74a3.68 3.68 0 0 1 1.22-1.49 3.06 3.06 0 0 1 1.82-.45V303a3.85 3.85 0 0 0-1.39.22 2.19 2.19 0 0 0-.93.66 2.71 2.71 0 0 0-.51 1 5.65 5.65 0 0 0-.16 1.42v3.7h-1.34v-8.27zm5.33 0v1.74a3.68 3.68 0 0 1 1.22-1.49 3.06 3.06 0 0 1 1.82-.45V303a3.85 3.85 0 0 0-1.39.22 2.19 2.19 0 0 0-.93.66 2.71 2.71 0 0 0-.51 1 5.65 5.65 0 0 0-.16 1.42v3.7h-1.36v-8.27zm9.33 2.43a2.33 2.33 0 0 0-.5-.74 2.36 2.36 0 0 0-.74-.5 2.33 2.33 0 0 0-.94-.18 2.37 2.37 0 0 0-1 .18 2.2 2.2 0 0 0-.73.5 2.41 2.41 0 0 0-.48.74 2.83 2.83 0 0 0-.21.9h4.75a2.79 2.79 0 0 0-.22-.91zm.33 5.31a3.75 3.75 0 0 1-2.34.7 4.25 4.25 0 0 1-1.72-.32 3.39 3.39 0 0 1-1.22-.9 3.8 3.8 0 0 1-.74-1.38 6.62 6.62 0 0 1-.28-1.74 5 5 0 0 1 .29-1.73 4.13 4.13 0 0 1 .81-1.36 3.67 3.67 0 0 1 1.23-.9 3.76 3.76 0 0 1 1.56-.32 3.39 3.39 0 0 1 1.83.46 3.63 3.63 0 0 1 1.17 1.16 4.59 4.59 0 0 1 .61 1.54 6.59 6.59 0 0 1 .14 1.58H329a3.28 3.28 0 0 0 .13 1 2.33 2.33 0 0 0 .46.86 2.29 2.29 0 0 0 .82.6 2.81 2.81 0 0 0 1.17.22 2.35 2.35 0 0 0 1.42-.4 1.93 1.93 0 0 0 .73-1.22h1.34a3.31 3.31 0 0 1-1.2 2.1zm4-7.74v1.31a2.86 2.86 0 0 1 2.69-1.5 3.59 3.59 0 0 1 1.36.22 2.24 2.24 0 0 1 .88.62 2.32 2.32 0 0 1 .47 1 5.13 5.13 0 0 1 .14 1.22V310h-1.32v-5.6a1.64 1.64 0 0 0-.45-1.22 1.67 1.67 0 0 0-1.23-.45 2.77 2.77 0 0 0-1.08.19 2 2 0 0 0-.76.54 2.34 2.34 0 0 0-.46.82 3.35 3.35 0 0 0-.15 1V310h-1.36v-8.27zm11.15 0V303h-1.63v5.14a1.48 1.48 0 0 0 0 .38.39.39 0 0 0 .15.22.67.67 0 0 0 .31.1H349V310h-1a4.88 4.88 0 0 1-.9-.07 1.33 1.33 0 0 1-.61-.26 1.13 1.13 0 0 1-.34-.54 3.14 3.14 0 0 1-.11-.93V303h-1.41v-1.2H346v-2.48h1.36v2.48zm7.7-3.15v10.14h6V310h-7.57v-11.4zm14.48 10.34a1.64 1.64 0 0 1-.42.06q-.32 0-.38-.22a3.16 3.16 0 0 1-.06-.7v-4.25a2.22 2.22 0 0 0-.27-1.17 1.92 1.92 0 0 0-.72-.69 2.91 2.91 0 0 0-1-.33 7.75 7.75 0 0 0-1.11-.08 5.79 5.79 0 0 0-1.32.14 3.22 3.22 0 0 0-1.1.47 2.43 2.43 0 0 0-.77.86 2.94 2.94 0 0 0-.32 1.3h1.36a1.39 1.39 0 0 1 .62-1.24 2.88 2.88 0 0 1 1.44-.33 4.47 4.47 0 0 1 .65 0 1.76 1.76 0 0 1 .59.19 1.15 1.15 0 0 1 .43.42 1.36 1.36 0 0 1 .17.72.74.74 0 0 1-.22.58 1.48 1.48 0 0 1-.61.3 5.9 5.9 0 0 1-.89.16q-.5.06-1.06.17t-1 .24a2.9 2.9 0 0 0-.9.42 2.09 2.09 0 0 0-.63.73 2.43 2.43 0 0 0-.24 1.15 2.4 2.4 0 0 0 .22 1.06 1.92 1.92 0 0 0 .58.71 2.47 2.47 0 0 0 .87.4 4.5 4.5 0 0 0 2.67-.17 3.25 3.25 0 0 0 1.3-1 1.29 1.29 0 0 0 .31 1 1.17 1.17 0 0 0 .84.3 1.93 1.93 0 0 0 1-.21v-1.06zm-2.21-1.8a1.52 1.52 0 0 1-.14.61 1.83 1.83 0 0 1-.45.6 2.42 2.42 0 0 1-.78.46 3.24 3.24 0 0 1-1.15.18 2.81 2.81 0 0 1-.61-.06 1.48 1.48 0 0 1-.5-.21 1.13 1.13 0 0 1-.35-.37 1.1 1.1 0 0 1-.14-.57 1.27 1.27 0 0 1 .23-.8 1.51 1.51 0 0 1 .6-.45 3.4 3.4 0 0 1 .83-.23l.92-.13q.46-.06.87-.14a1.7 1.7 0 0 0 .67-.28v1.39zm10.32-5.39h-1.44l-2.32 6.77-2.42-6.77h-1.54l3.28 8.22-.56 1.39a1.23 1.23 0 0 1-.42.57 1.17 1.17 0 0 1-.7.2 1.72 1.72 0 0 1-.39-.06 2.3 2.3 0 0 1-.41-.14v1.25a2.28 2.28 0 0 0 .46.11 3.64 3.64 0 0 0 .48 0 2.4 2.4 0 0 0 .79-.12 1.74 1.74 0 0 0 .62-.38 2.81 2.81 0 0 0 .51-.68 8.69 8.69 0 0 0 .47-1l3.6-9.38zm2.34 5.48a2.79 2.79 0 0 0 .55 1 2.39 2.39 0 0 0 .82.6 2.51 2.51 0 0 0 2 0 2.39 2.39 0 0 0 .82-.6 2.8 2.8 0 0 0 .55-1 4.56 4.56 0 0 0 0-2.67 2.89 2.89 0 0 0-.55-1 2.36 2.36 0 0 0-.82-.61 2.51 2.51 0 0 0-2 0 2.35 2.35 0 0 0-.82.61 2.88 2.88 0 0 0-.55 1 4.56 4.56 0 0 0 0 2.67zm-1.38-3a3.86 3.86 0 0 1 .77-1.38 3.62 3.62 0 0 1 1.26-.92 4.63 4.63 0 0 1 3.46 0 3.64 3.64 0 0 1 1.26.92 3.86 3.86 0 0 1 .77 1.38 5.51 5.51 0 0 1 .26 1.7 5.44 5.44 0 0 1-.26 1.7 3.87 3.87 0 0 1-.8 1.36 3.55 3.55 0 0 1-1.26.91 4.74 4.74 0 0 1-3.46 0 3.53 3.53 0 0 1-1.26-.91 3.87 3.87 0 0 1-.77-1.37 5.43 5.43 0 0 1-.26-1.7 5.51 5.51 0 0 1 .26-1.7zm14.96 5.76v-1.31a2.78 2.78 0 0 1-1.1 1.13 3.31 3.31 0 0 1-1.58.36 3.71 3.71 0 0 1-1.36-.22 2.17 2.17 0 0 1-.88-.62 2.32 2.32 0 0 1-.47-1 5.12 5.12 0 0 1-.14-1.22v-5.44H391v5.6a1.64 1.64 0 0 0 .45 1.22 1.66 1.66 0 0 0 1.23.45 2.77 2.77 0 0 0 1.08-.19 2 2 0 0 0 .76-.54 2.35 2.35 0 0 0 .46-.82 3.35 3.35 0 0 0 .15-1v-4.67h1.36V310zm6.86-8.27V303h-1.65v5.14a1.48 1.48 0 0 0 0 .38.39.39 0 0 0 .15.22.67.67 0 0 0 .31.1h1.14V310h-1a4.88 4.88 0 0 1-.9-.07 1.33 1.33 0 0 1-.61-.26 1.13 1.13 0 0 1-.34-.54 3.14 3.14 0 0 1-.11-.93V303h-1.41v-1.2h1.41v-2.48h1.36v2.48z"/><path class="cls-6" d="M54.88 356.5h188a5 5 0 0 1 5 5V451a5 5 0 0 1-5 5h-188a5 5 0 0 1-5-5v-89.5a5 5 0 0 1 5-5zm0 0"/><path d="M103.83 402.22a3.53 3.53 0 0 0-2.07-.61 3.71 3.71 0 0 0-1.76.39 3.46 3.46 0 0 0-1.2 1 4.45 4.45 0 0 0-.7 1.48 6.61 6.61 0 0 0-.22 1.73 7.39 7.39 0 0 0 .22 1.85 4.42 4.42 0 0 0 .7 1.52 3.43 3.43 0 0 0 1.21 1 3.76 3.76 0 0 0 1.76.38 3.39 3.39 0 0 0 1.34-.25 3 3 0 0 0 1-.69 3.17 3.17 0 0 0 .66-1 4.36 4.36 0 0 0 .29-1.31h1.52a5.19 5.19 0 0 1-1.49 3.36 4.81 4.81 0 0 1-3.46 1.2 5.51 5.51 0 0 1-2.32-.46 4.55 4.55 0 0 1-1.65-1.26 5.39 5.39 0 0 1-1-1.89 8.05 8.05 0 0 1-.33-2.34 7.62 7.62 0 0 1 .35-2.34 5.64 5.64 0 0 1 1-1.91 4.81 4.81 0 0 1 1.7-1.29 5.47 5.47 0 0 1 2.33-.47 5.87 5.87 0 0 1 1.7.24 4.56 4.56 0 0 1 1.42.7 4 4 0 0 1 1 1.16 4.25 4.25 0 0 1 .54 1.61H105a2.83 2.83 0 0 0-1.13-1.82zm10 9.81v-1.31a2.78 2.78 0 0 1-1.1 1.13 3.31 3.31 0 0 1-1.58.36 3.71 3.71 0 0 1-1.36-.22 2.17 2.17 0 0 1-.88-.62 2.31 2.31 0 0 1-.47-1 5.11 5.11 0 0 1-.14-1.22v-5.44h1.36v5.6a1.64 1.64 0 0 0 .45 1.22 1.66 1.66 0 0 0 1.23.45 2.77 2.77 0 0 0 1.08-.19 2 2 0 0 0 .76-.54 2.35 2.35 0 0 0 .46-.82 3.35 3.35 0 0 0 .15-1v-4.67h1.36V412zm4.56-8.27v1.74a3.68 3.68 0 0 1 1.22-1.49 3.06 3.06 0 0 1 1.82-.45V405a3.85 3.85 0 0 0-1.39.22 2.19 2.19 0 0 0-.93.66 2.71 2.71 0 0 0-.51 1 5.65 5.65 0 0 0-.16 1.42v3.7h-1.34v-8.27zm5.33 0v1.74A3.68 3.68 0 0 1 125 404a3.06 3.06 0 0 1 1.82-.45V405a3.85 3.85 0 0 0-1.39.22 2.19 2.19 0 0 0-.93.66 2.71 2.71 0 0 0-.51 1 5.65 5.65 0 0 0-.16 1.42v3.7h-1.36v-8.27zm9.28 2.43a2.33 2.33 0 0 0-.5-.74 2.36 2.36 0 0 0-.74-.5 2.33 2.33 0 0 0-.94-.18 2.37 2.37 0 0 0-1 .18 2.2 2.2 0 0 0-.73.5 2.41 2.41 0 0 0-.48.74 2.83 2.83 0 0 0-.21.9h4.75a2.79 2.79 0 0 0-.22-.91zm.33 5.31a3.75 3.75 0 0 1-2.34.7 4.25 4.25 0 0 1-1.72-.32 3.39 3.39 0 0 1-1.22-.9 3.8 3.8 0 0 1-.74-1.38 6.62 6.62 0 0 1-.28-1.74 5 5 0 0 1 .29-1.73 4.13 4.13 0 0 1 .81-1.36 3.67 3.67 0 0 1 1.23-.9 3.76 3.76 0 0 1 1.56-.32 3.39 3.39 0 0 1 1.83.46 3.63 3.63 0 0 1 1.17 1.16 4.59 4.59 0 0 1 .61 1.54 6.59 6.59 0 0 1 .14 1.58h-6.19a3.28 3.28 0 0 0 .13 1 2.33 2.33 0 0 0 .46.86 2.29 2.29 0 0 0 .82.6 2.81 2.81 0 0 0 1.17.22 2.35 2.35 0 0 0 1.42-.4 1.93 1.93 0 0 0 .73-1.22h1.34a3.31 3.31 0 0 1-1.2 2.1zm4-7.74v1.31a2.86 2.86 0 0 1 2.69-1.5 3.59 3.59 0 0 1 1.36.22 2.24 2.24 0 0 1 .88.62 2.32 2.32 0 0 1 .47 1 5.13 5.13 0 0 1 .14 1.22V412h-1.27v-5.6a1.64 1.64 0 0 0-.45-1.22 1.67 1.67 0 0 0-1.23-.45 2.77 2.77 0 0 0-1.08.19 2 2 0 0 0-.76.54 2.34 2.34 0 0 0-.46.82 3.35 3.35 0 0 0-.15 1V412h-1.36v-8.27zm11.15 0V405h-1.58v5.14a1.48 1.48 0 0 0 0 .38.39.39 0 0 0 .15.22.67.67 0 0 0 .31.1h1.14V412h-1a4.88 4.88 0 0 1-.9-.07 1.33 1.33 0 0 1-.61-.26 1.13 1.13 0 0 1-.34-.54 3.14 3.14 0 0 1-.11-.93V405h-1.41v-1.2h1.41v-2.48h1.36v2.48zm7.7-3.15v10.14h6V412h-7.57v-11.4zm14.48 10.34a1.65 1.65 0 0 1-.42.06q-.32 0-.38-.22a3.16 3.16 0 0 1-.06-.7v-4.25a2.22 2.22 0 0 0-.27-1.17 1.92 1.92 0 0 0-.72-.69 2.91 2.91 0 0 0-1-.33 7.76 7.76 0 0 0-1.11-.08 5.79 5.79 0 0 0-1.32.14 3.22 3.22 0 0 0-1.1.47 2.43 2.43 0 0 0-.77.86 2.94 2.94 0 0 0-.32 1.3h1.36a1.39 1.39 0 0 1 .62-1.24 2.88 2.88 0 0 1 1.44-.33 4.47 4.47 0 0 1 .65 0 1.76 1.76 0 0 1 .59.19 1.15 1.15 0 0 1 .43.42 1.36 1.36 0 0 1 .17.72.74.74 0 0 1-.22.58 1.48 1.48 0 0 1-.61.3 5.9 5.9 0 0 1-.89.16q-.5.06-1.06.17t-1 .24a2.9 2.9 0 0 0-.9.42 2.09 2.09 0 0 0-.63.73 2.43 2.43 0 0 0-.24 1.15 2.4 2.4 0 0 0 .22 1.06 1.92 1.92 0 0 0 .58.71 2.47 2.47 0 0 0 .87.4 4.5 4.5 0 0 0 2.67-.17 3.25 3.25 0 0 0 1.3-1 1.29 1.29 0 0 0 .31 1 1.17 1.17 0 0 0 .84.3 1.93 1.93 0 0 0 1-.21v-1.06zm-2.21-1.8a1.52 1.52 0 0 1-.14.61 1.83 1.83 0 0 1-.45.6 2.43 2.43 0 0 1-.78.46 3.24 3.24 0 0 1-1.08.18 2.81 2.81 0 0 1-.61-.06 1.48 1.48 0 0 1-.5-.21 1.13 1.13 0 0 1-.35-.37 1.1 1.1 0 0 1-.14-.57 1.27 1.27 0 0 1 .23-.8 1.51 1.51 0 0 1 .6-.45 3.4 3.4 0 0 1 .83-.23l.92-.13q.46-.06.87-.14a1.7 1.7 0 0 0 .67-.28v1.39zm10.32-5.39h-1.44l-2.32 6.77-2.42-6.77h-1.54l3.28 8.22-.56 1.39a1.23 1.23 0 0 1-.42.57 1.17 1.17 0 0 1-.7.2 1.72 1.72 0 0 1-.39-.06 2.3 2.3 0 0 1-.41-.14v1.25a2.28 2.28 0 0 0 .46.11 3.64 3.64 0 0 0 .48 0 2.4 2.4 0 0 0 .79-.12 1.74 1.74 0 0 0 .62-.38 2.81 2.81 0 0 0 .51-.68 8.69 8.69 0 0 0 .47-1l3.6-9.38zm2.34 5.48a2.79 2.79 0 0 0 .55 1 2.39 2.39 0 0 0 .82.6 2.51 2.51 0 0 0 2 0 2.39 2.39 0 0 0 .82-.6 2.8 2.8 0 0 0 .55-1 4.56 4.56 0 0 0 0-2.67 2.89 2.89 0 0 0-.55-1 2.36 2.36 0 0 0-.82-.61 2.51 2.51 0 0 0-2 0 2.35 2.35 0 0 0-.82.61 2.88 2.88 0 0 0-.55 1 4.56 4.56 0 0 0 0 2.67zm-1.38-3a3.86 3.86 0 0 1 .77-1.38 3.62 3.62 0 0 1 1.26-.92 4.63 4.63 0 0 1 3.46 0 3.64 3.64 0 0 1 1.26.92 3.86 3.86 0 0 1 .77 1.38 5.51 5.51 0 0 1 .26 1.7 5.44 5.44 0 0 1-.26 1.7 3.87 3.87 0 0 1-.77 1.37 3.55 3.55 0 0 1-1.26.91 4.74 4.74 0 0 1-3.46 0 3.53 3.53 0 0 1-1.26-.91 3.86 3.86 0 0 1-.77-1.37 5.43 5.43 0 0 1-.26-1.7 5.51 5.51 0 0 1 .26-1.7zm15.01 5.76v-1.31a2.78 2.78 0 0 1-1.1 1.13 3.31 3.31 0 0 1-1.58.36 3.71 3.71 0 0 1-1.36-.22 2.17 2.17 0 0 1-.88-.62 2.31 2.31 0 0 1-.47-1 5.11 5.11 0 0 1-.14-1.22v-5.44h1.36v5.6a1.64 1.64 0 0 0 .45 1.22 1.66 1.66 0 0 0 1.23.45 2.77 2.77 0 0 0 1.08-.19 2 2 0 0 0 .76-.54 2.35 2.35 0 0 0 .46-.82 3.35 3.35 0 0 0 .15-1v-4.67h1.3V412zm6.86-8.27V405H200v5.14a1.48 1.48 0 0 0 0 .38.39.39 0 0 0 .15.22.67.67 0 0 0 .31.1h1.14V412h-1a4.88 4.88 0 0 1-.9-.07 1.33 1.33 0 0 1-.61-.26 1.13 1.13 0 0 1-.34-.54 3.14 3.14 0 0 1-.11-.93V405h-1.41v-1.2h1.41v-2.48H200v2.48z"/><path class="cls-6" d="M255.38 356.5h188a5 5 0 0 1 5 5V451a5 5 0 0 1-5 5h-188a5 5 0 0 1-5-5v-89.5a5 5 0 0 1 5-5zm0 0"/><path d="M304.33 402.22a3.53 3.53 0 0 0-2.07-.61 3.71 3.71 0 0 0-1.75.38 3.46 3.46 0 0 0-1.2 1 4.45 4.45 0 0 0-.7 1.48 6.61 6.61 0 0 0-.22 1.73 7.4 7.4 0 0 0 .22 1.85 4.42 4.42 0 0 0 .7 1.52 3.43 3.43 0 0 0 1.21 1 3.76 3.76 0 0 0 1.76.38 3.39 3.39 0 0 0 1.34-.25 3 3 0 0 0 1-.69 3.17 3.17 0 0 0 .66-1 4.36 4.36 0 0 0 .29-1.31h1.52a5.19 5.19 0 0 1-1.49 3.36 4.81 4.81 0 0 1-3.46 1.2 5.51 5.51 0 0 1-2.32-.46 4.55 4.55 0 0 1-1.65-1.26 5.39 5.39 0 0 1-1-1.89 8.05 8.05 0 0 1-.33-2.34 7.62 7.62 0 0 1 .35-2.34 5.64 5.64 0 0 1 1-1.91 4.81 4.81 0 0 1 1.7-1.29 5.47 5.47 0 0 1 2.33-.47 5.87 5.87 0 0 1 1.7.24 4.56 4.56 0 0 1 1.42.7 4 4 0 0 1 1 1.16 4.26 4.26 0 0 1 .66 1.6h-1.52a2.83 2.83 0 0 0-1.13-1.82zm10 9.81v-1.31a2.78 2.78 0 0 1-1.1 1.13 3.31 3.31 0 0 1-1.58.36 3.71 3.71 0 0 1-1.36-.22 2.17 2.17 0 0 1-.88-.62 2.31 2.31 0 0 1-.47-1 5.11 5.11 0 0 1-.14-1.22v-5.44h1.36v5.6a1.64 1.64 0 0 0 .45 1.22 1.66 1.66 0 0 0 1.23.45 2.77 2.77 0 0 0 1.08-.19 2 2 0 0 0 .76-.54 2.35 2.35 0 0 0 .46-.82 3.35 3.35 0 0 0 .15-1v-4.67h1.36V412zm4.56-8.27v1.74a3.68 3.68 0 0 1 1.22-1.49 3.06 3.06 0 0 1 1.82-.45V405a3.85 3.85 0 0 0-1.39.22 2.19 2.19 0 0 0-.93.66 2.71 2.71 0 0 0-.51 1 5.65 5.65 0 0 0-.16 1.42v3.7h-1.34v-8.27zm5.33 0v1.74a3.68 3.68 0 0 1 1.22-1.49 3.06 3.06 0 0 1 1.82-.45V405a3.85 3.85 0 0 0-1.39.22 2.19 2.19 0 0 0-.93.66 2.71 2.71 0 0 0-.51 1 5.65 5.65 0 0 0-.16 1.42v3.7h-1.36v-8.27zm9.33 2.43a2.33 2.33 0 0 0-.5-.74 2.36 2.36 0 0 0-.74-.5 2.33 2.33 0 0 0-.94-.18 2.37 2.37 0 0 0-1 .18 2.2 2.2 0 0 0-.73.5 2.41 2.41 0 0 0-.48.74 2.83 2.83 0 0 0-.21.9h4.75a2.79 2.79 0 0 0-.22-.91zm.33 5.31a3.75 3.75 0 0 1-2.34.7 4.25 4.25 0 0 1-1.72-.32 3.39 3.39 0 0 1-1.22-.9 3.8 3.8 0 0 1-.74-1.38 6.62 6.62 0 0 1-.28-1.74 5 5 0 0 1 .29-1.73 4.13 4.13 0 0 1 .81-1.36 3.67 3.67 0 0 1 1.23-.9 3.76 3.76 0 0 1 1.56-.32 3.39 3.39 0 0 1 1.83.46 3.63 3.63 0 0 1 1.17 1.16 4.59 4.59 0 0 1 .61 1.54 6.59 6.59 0 0 1 .14 1.58H329a3.28 3.28 0 0 0 .13 1 2.33 2.33 0 0 0 .46.86 2.29 2.29 0 0 0 .82.6 2.81 2.81 0 0 0 1.17.22 2.35 2.35 0 0 0 1.42-.4 1.93 1.93 0 0 0 .73-1.22h1.34a3.31 3.31 0 0 1-1.2 2.1zm4-7.74v1.31a2.86 2.86 0 0 1 2.69-1.5 3.59 3.59 0 0 1 1.36.22 2.24 2.24 0 0 1 .88.62 2.32 2.32 0 0 1 .47 1 5.13 5.13 0 0 1 .14 1.22V412h-1.32v-5.6a1.64 1.64 0 0 0-.45-1.22 1.67 1.67 0 0 0-1.23-.45 2.77 2.77 0 0 0-1.08.19 2 2 0 0 0-.76.54 2.34 2.34 0 0 0-.46.82 3.35 3.35 0 0 0-.15 1V412h-1.36v-8.27zm11.15 0V405h-1.63v5.14a1.48 1.48 0 0 0 0 .38.39.39 0 0 0 .15.22.67.67 0 0 0 .31.1H349V412h-1a4.88 4.88 0 0 1-.9-.07 1.33 1.33 0 0 1-.61-.26 1.13 1.13 0 0 1-.34-.54 3.14 3.14 0 0 1-.11-.93V405h-1.41v-1.2H346v-2.48h1.36v2.48zm7.7-3.15v10.14h6V412h-7.57v-11.4zm14.48 10.34a1.65 1.65 0 0 1-.42.06q-.32 0-.38-.22a3.16 3.16 0 0 1-.06-.7v-4.25a2.22 2.22 0 0 0-.27-1.17 1.92 1.92 0 0 0-.72-.69 2.91 2.91 0 0 0-1-.33 7.76 7.76 0 0 0-1.11-.08 5.79 5.79 0 0 0-1.32.14 3.22 3.22 0 0 0-1.1.47 2.43 2.43 0 0 0-.77.86 2.94 2.94 0 0 0-.32 1.3h1.36a1.39 1.39 0 0 1 .62-1.24 2.88 2.88 0 0 1 1.44-.33 4.47 4.47 0 0 1 .65 0 1.76 1.76 0 0 1 .59.19 1.15 1.15 0 0 1 .43.42 1.36 1.36 0 0 1 .17.72.74.74 0 0 1-.22.58 1.48 1.48 0 0 1-.61.3 5.9 5.9 0 0 1-.89.16q-.5.06-1.06.17t-1 .24a2.9 2.9 0 0 0-.9.42 2.09 2.09 0 0 0-.63.73 2.43 2.43 0 0 0-.24 1.15 2.4 2.4 0 0 0 .22 1.06 1.92 1.92 0 0 0 .58.71 2.47 2.47 0 0 0 .87.4 4.5 4.5 0 0 0 2.67-.17 3.25 3.25 0 0 0 1.3-1 1.29 1.29 0 0 0 .31 1 1.17 1.17 0 0 0 .84.3 1.93 1.93 0 0 0 1-.21v-1.06zm-2.21-1.8a1.52 1.52 0 0 1-.14.61 1.83 1.83 0 0 1-.45.6 2.43 2.43 0 0 1-.78.46 3.24 3.24 0 0 1-1.15.18 2.81 2.81 0 0 1-.61-.06 1.48 1.48 0 0 1-.5-.21 1.13 1.13 0 0 1-.35-.37 1.1 1.1 0 0 1-.14-.57 1.27 1.27 0 0 1 .23-.8 1.51 1.51 0 0 1 .6-.45 3.4 3.4 0 0 1 .83-.23l.92-.13q.46-.06.87-.14a1.7 1.7 0 0 0 .67-.28v1.39zm10.32-5.39h-1.44l-2.32 6.77-2.42-6.77h-1.54l3.28 8.22-.56 1.39a1.23 1.23 0 0 1-.42.57 1.17 1.17 0 0 1-.7.2 1.72 1.72 0 0 1-.39-.06 2.3 2.3 0 0 1-.41-.14v1.25a2.28 2.28 0 0 0 .46.11 3.64 3.64 0 0 0 .48 0 2.4 2.4 0 0 0 .79-.12 1.74 1.74 0 0 0 .62-.38 2.81 2.81 0 0 0 .51-.68 8.69 8.69 0 0 0 .47-1l3.6-9.38zm2.34 5.48a2.79 2.79 0 0 0 .55 1 2.39 2.39 0 0 0 .82.6 2.51 2.51 0 0 0 2 0 2.39 2.39 0 0 0 .82-.6 2.8 2.8 0 0 0 .55-1 4.56 4.56 0 0 0 0-2.67 2.89 2.89 0 0 0-.55-1 2.36 2.36 0 0 0-.82-.61 2.51 2.51 0 0 0-2 0 2.35 2.35 0 0 0-.82.61 2.88 2.88 0 0 0-.55 1 4.56 4.56 0 0 0 0 2.67zm-1.38-3a3.86 3.86 0 0 1 .77-1.38 3.62 3.62 0 0 1 1.26-.92 4.63 4.63 0 0 1 3.46 0 3.64 3.64 0 0 1 1.26.92 3.86 3.86 0 0 1 .77 1.38 5.51 5.51 0 0 1 .26 1.7 5.44 5.44 0 0 1-.26 1.7 3.87 3.87 0 0 1-.8 1.36 3.55 3.55 0 0 1-1.26.91 4.74 4.74 0 0 1-3.46 0 3.53 3.53 0 0 1-1.26-.91 3.87 3.87 0 0 1-.77-1.37 5.43 5.43 0 0 1-.26-1.7 5.51 5.51 0 0 1 .26-1.7zm14.96 5.76v-1.31a2.78 2.78 0 0 1-1.1 1.13 3.31 3.31 0 0 1-1.58.36 3.71 3.71 0 0 1-1.36-.22 2.17 2.17 0 0 1-.88-.62 2.32 2.32 0 0 1-.47-1 5.12 5.12 0 0 1-.14-1.22v-5.44H391v5.6a1.64 1.64 0 0 0 .45 1.22 1.66 1.66 0 0 0 1.23.45 2.77 2.77 0 0 0 1.08-.19 2 2 0 0 0 .76-.54 2.35 2.35 0 0 0 .46-.82 3.35 3.35 0 0 0 .15-1v-4.67h1.36V412zm6.86-8.27V405h-1.65v5.14a1.48 1.48 0 0 0 0 .38.39.39 0 0 0 .15.22.67.67 0 0 0 .31.1h1.14V412h-1a4.88 4.88 0 0 1-.9-.07 1.33 1.33 0 0 1-.61-.26 1.13 1.13 0 0 1-.34-.54 3.14 3.14 0 0 1-.11-.93V405h-1.41v-1.2h1.41v-2.48h1.36v2.48z"/><path class="cls-6" d="M54.88 458.5h188a5 5 0 0 1 5 5V553a5 5 0 0 1-5 5h-188a5 5 0 0 1-5-5v-89.5a5 5 0 0 1 5-5zm0 0"/><path d="M103.83 504.22a3.53 3.53 0 0 0-2.07-.61 3.71 3.71 0 0 0-1.76.39 3.46 3.46 0 0 0-1.2 1 4.45 4.45 0 0 0-.7 1.48 6.61 6.61 0 0 0-.22 1.73 7.39 7.39 0 0 0 .22 1.85 4.42 4.42 0 0 0 .7 1.52 3.43 3.43 0 0 0 1.21 1 3.76 3.76 0 0 0 1.76.38 3.39 3.39 0 0 0 1.34-.25 3 3 0 0 0 1-.69 3.17 3.17 0 0 0 .66-1 4.36 4.36 0 0 0 .29-1.31h1.52a5.19 5.19 0 0 1-1.49 3.36 4.81 4.81 0 0 1-3.46 1.2 5.51 5.51 0 0 1-2.32-.46 4.55 4.55 0 0 1-1.65-1.26 5.39 5.39 0 0 1-1-1.89 8.05 8.05 0 0 1-.33-2.34 7.62 7.62 0 0 1 .35-2.34 5.64 5.64 0 0 1 1-1.91 4.81 4.81 0 0 1 1.7-1.29 5.47 5.47 0 0 1 2.33-.47 5.87 5.87 0 0 1 1.7.24 4.56 4.56 0 0 1 1.42.7 4 4 0 0 1 1 1.16 4.25 4.25 0 0 1 .54 1.61H105a2.83 2.83 0 0 0-1.13-1.82zm10 9.81v-1.31a2.78 2.78 0 0 1-1.1 1.13 3.31 3.31 0 0 1-1.58.36 3.71 3.71 0 0 1-1.36-.22 2.17 2.17 0 0 1-.88-.62 2.31 2.31 0 0 1-.47-1 5.11 5.11 0 0 1-.14-1.22v-5.44h1.36v5.6a1.64 1.64 0 0 0 .45 1.22 1.66 1.66 0 0 0 1.23.45 2.77 2.77 0 0 0 1.08-.19 2 2 0 0 0 .76-.54 2.35 2.35 0 0 0 .46-.82 3.35 3.35 0 0 0 .15-1v-4.67h1.36V514zm4.56-8.27v1.74a3.68 3.68 0 0 1 1.22-1.49 3.06 3.06 0 0 1 1.82-.45V507a3.85 3.85 0 0 0-1.39.22 2.19 2.19 0 0 0-.93.66 2.71 2.71 0 0 0-.51 1 5.65 5.65 0 0 0-.16 1.42v3.7h-1.34v-8.27zm5.33 0v1.74A3.68 3.68 0 0 1 125 506a3.06 3.06 0 0 1 1.82-.45V507a3.85 3.85 0 0 0-1.39.22 2.19 2.19 0 0 0-.93.66 2.71 2.71 0 0 0-.51 1 5.65 5.65 0 0 0-.16 1.42v3.7h-1.36v-8.27zm9.28 2.43a2.33 2.33 0 0 0-.5-.74 2.36 2.36 0 0 0-.74-.5 2.33 2.33 0 0 0-.94-.18 2.37 2.37 0 0 0-1 .18 2.2 2.2 0 0 0-.73.5 2.41 2.41 0 0 0-.48.74 2.83 2.83 0 0 0-.21.9h4.75a2.79 2.79 0 0 0-.22-.91zm.33 5.31a3.75 3.75 0 0 1-2.34.7 4.25 4.25 0 0 1-1.72-.32 3.39 3.39 0 0 1-1.22-.9 3.8 3.8 0 0 1-.74-1.38 6.62 6.62 0 0 1-.28-1.74 5 5 0 0 1 .29-1.73 4.13 4.13 0 0 1 .81-1.36 3.67 3.67 0 0 1 1.23-.9 3.76 3.76 0 0 1 1.56-.32 3.39 3.39 0 0 1 1.83.46 3.63 3.63 0 0 1 1.17 1.16 4.59 4.59 0 0 1 .61 1.54 6.59 6.59 0 0 1 .14 1.58h-6.19a3.28 3.28 0 0 0 .13 1 2.33 2.33 0 0 0 .46.86 2.29 2.29 0 0 0 .82.6 2.81 2.81 0 0 0 1.17.22 2.35 2.35 0 0 0 1.42-.4 1.93 1.93 0 0 0 .73-1.22h1.34a3.31 3.31 0 0 1-1.2 2.1zm4-7.74v1.31a2.86 2.86 0 0 1 2.69-1.5 3.59 3.59 0 0 1 1.36.22 2.24 2.24 0 0 1 .88.62 2.32 2.32 0 0 1 .47 1 5.13 5.13 0 0 1 .14 1.22V514h-1.27v-5.6a1.64 1.64 0 0 0-.45-1.22 1.67 1.67 0 0 0-1.23-.45 2.77 2.77 0 0 0-1.08.19 2 2 0 0 0-.76.54 2.34 2.34 0 0 0-.46.82 3.35 3.35 0 0 0-.15 1V514h-1.36v-8.27zm11.15 0V507h-1.58v5.14a1.48 1.48 0 0 0 0 .38.39.39 0 0 0 .15.22.67.67 0 0 0 .31.1h1.14V514h-1a4.88 4.88 0 0 1-.9-.07 1.33 1.33 0 0 1-.61-.26 1.13 1.13 0 0 1-.34-.54 3.14 3.14 0 0 1-.11-.93V507h-1.41v-1.2h1.41v-2.48h1.36v2.48zm7.7-3.15v10.14h6V514h-7.57v-11.4zm14.48 10.34a1.65 1.65 0 0 1-.42.06q-.32 0-.38-.22a3.16 3.16 0 0 1-.06-.7v-4.25a2.22 2.22 0 0 0-.27-1.17 1.92 1.92 0 0 0-.72-.69 2.91 2.91 0 0 0-1-.33 7.76 7.76 0 0 0-1.11-.08 5.79 5.79 0 0 0-1.32.14 3.22 3.22 0 0 0-1.1.47 2.43 2.43 0 0 0-.77.86 2.94 2.94 0 0 0-.32 1.3h1.36a1.39 1.39 0 0 1 .62-1.24 2.88 2.88 0 0 1 1.44-.33 4.47 4.47 0 0 1 .65 0 1.76 1.76 0 0 1 .59.19 1.15 1.15 0 0 1 .43.42 1.36 1.36 0 0 1 .17.72.74.74 0 0 1-.22.58 1.48 1.48 0 0 1-.61.3 5.9 5.9 0 0 1-.89.16q-.5.06-1.06.17t-1 .24a2.9 2.9 0 0 0-.9.42 2.09 2.09 0 0 0-.63.73 2.43 2.43 0 0 0-.24 1.15 2.4 2.4 0 0 0 .22 1.06 1.92 1.92 0 0 0 .58.71 2.47 2.47 0 0 0 .87.4 4.5 4.5 0 0 0 2.67-.17 3.25 3.25 0 0 0 1.3-1 1.29 1.29 0 0 0 .31 1 1.17 1.17 0 0 0 .84.3 1.93 1.93 0 0 0 1-.21v-1.06zm-2.21-1.8a1.52 1.52 0 0 1-.14.61 1.83 1.83 0 0 1-.45.6 2.43 2.43 0 0 1-.78.46 3.24 3.24 0 0 1-1.08.18 2.81 2.81 0 0 1-.61-.06 1.48 1.48 0 0 1-.5-.21 1.13 1.13 0 0 1-.35-.37 1.1 1.1 0 0 1-.14-.57 1.27 1.27 0 0 1 .23-.8 1.51 1.51 0 0 1 .6-.45 3.4 3.4 0 0 1 .83-.23l.92-.13q.46-.06.87-.14a1.7 1.7 0 0 0 .67-.28v1.39zm10.32-5.39h-1.44l-2.32 6.77-2.42-6.77h-1.54l3.28 8.22-.56 1.39a1.23 1.23 0 0 1-.42.57 1.17 1.17 0 0 1-.7.2 1.72 1.72 0 0 1-.39-.06 2.3 2.3 0 0 1-.41-.14v1.25a2.28 2.28 0 0 0 .46.11 3.64 3.64 0 0 0 .48 0 2.4 2.4 0 0 0 .79-.12 1.74 1.74 0 0 0 .62-.38 2.81 2.81 0 0 0 .51-.68 8.69 8.69 0 0 0 .47-1l3.6-9.38zm2.34 5.48a2.79 2.79 0 0 0 .55 1 2.39 2.39 0 0 0 .82.6 2.51 2.51 0 0 0 2 0 2.39 2.39 0 0 0 .82-.6 2.8 2.8 0 0 0 .55-1 4.56 4.56 0 0 0 0-2.67 2.89 2.89 0 0 0-.55-1 2.36 2.36 0 0 0-.82-.61 2.51 2.51 0 0 0-2 0 2.35 2.35 0 0 0-.82.61 2.88 2.88 0 0 0-.55 1 4.56 4.56 0 0 0 0 2.67zm-1.38-3a3.86 3.86 0 0 1 .77-1.38 3.62 3.62 0 0 1 1.26-.92 4.63 4.63 0 0 1 3.46 0 3.64 3.64 0 0 1 1.26.92 3.86 3.86 0 0 1 .77 1.38 5.51 5.51 0 0 1 .26 1.7 5.44 5.44 0 0 1-.26 1.7 3.87 3.87 0 0 1-.77 1.37 3.55 3.55 0 0 1-1.26.91 4.74 4.74 0 0 1-3.46 0 3.53 3.53 0 0 1-1.26-.91 3.86 3.86 0 0 1-.77-1.37 5.43 5.43 0 0 1-.26-1.7 5.51 5.51 0 0 1 .26-1.7zm15.01 5.76v-1.31a2.78 2.78 0 0 1-1.1 1.13 3.31 3.31 0 0 1-1.58.36 3.71 3.71 0 0 1-1.36-.22 2.17 2.17 0 0 1-.88-.62 2.31 2.31 0 0 1-.47-1 5.11 5.11 0 0 1-.14-1.22v-5.44h1.36v5.6a1.64 1.64 0 0 0 .45 1.22 1.66 1.66 0 0 0 1.23.45 2.77 2.77 0 0 0 1.08-.19 2 2 0 0 0 .76-.54 2.35 2.35 0 0 0 .46-.82 3.35 3.35 0 0 0 .15-1v-4.67h1.3V514zm6.86-8.27V507H200v5.14a1.48 1.48 0 0 0 0 .38.39.39 0 0 0 .15.22.67.67 0 0 0 .31.1h1.14V514h-1a4.88 4.88 0 0 1-.9-.07 1.33 1.33 0 0 1-.61-.26 1.13 1.13 0 0 1-.34-.54 3.14 3.14 0 0 1-.11-.93V507h-1.41v-1.2h1.41v-2.48H200v2.48z"/><path class="cls-6" d="M255.38 458.5h188a5 5 0 0 1 5 5V553a5 5 0 0 1-5 5h-188a5 5 0 0 1-5-5v-89.5a5 5 0 0 1 5-5zm0 0"/><path d="M304.33 504.22a3.53 3.53 0 0 0-2.07-.61 3.71 3.71 0 0 0-1.75.38 3.46 3.46 0 0 0-1.2 1 4.45 4.45 0 0 0-.7 1.48 6.61 6.61 0 0 0-.22 1.73 7.4 7.4 0 0 0 .22 1.85 4.42 4.42 0 0 0 .7 1.52 3.43 3.43 0 0 0 1.21 1 3.76 3.76 0 0 0 1.76.38 3.39 3.39 0 0 0 1.34-.25 3 3 0 0 0 1-.69 3.17 3.17 0 0 0 .66-1 4.36 4.36 0 0 0 .29-1.31h1.52a5.19 5.19 0 0 1-1.49 3.36 4.81 4.81 0 0 1-3.46 1.2 5.51 5.51 0 0 1-2.32-.46 4.55 4.55 0 0 1-1.65-1.26 5.39 5.39 0 0 1-1-1.89 8.05 8.05 0 0 1-.33-2.34 7.62 7.62 0 0 1 .35-2.34 5.64 5.64 0 0 1 1-1.91 4.81 4.81 0 0 1 1.7-1.29 5.47 5.47 0 0 1 2.33-.47 5.87 5.87 0 0 1 1.7.24 4.56 4.56 0 0 1 1.42.7 4 4 0 0 1 1 1.16 4.26 4.26 0 0 1 .66 1.6h-1.52a2.83 2.83 0 0 0-1.13-1.82zm10 9.81v-1.31a2.78 2.78 0 0 1-1.1 1.13 3.31 3.31 0 0 1-1.58.36 3.71 3.71 0 0 1-1.36-.22 2.17 2.17 0 0 1-.88-.62 2.31 2.31 0 0 1-.47-1 5.11 5.11 0 0 1-.14-1.22v-5.44h1.36v5.6a1.64 1.64 0 0 0 .45 1.22 1.66 1.66 0 0 0 1.23.45 2.77 2.77 0 0 0 1.08-.19 2 2 0 0 0 .76-.54 2.35 2.35 0 0 0 .46-.82 3.35 3.35 0 0 0 .15-1v-4.67h1.36V514zm4.56-8.27v1.74a3.68 3.68 0 0 1 1.22-1.49 3.06 3.06 0 0 1 1.82-.45V507a3.85 3.85 0 0 0-1.39.22 2.19 2.19 0 0 0-.93.66 2.71 2.71 0 0 0-.51 1 5.65 5.65 0 0 0-.16 1.42v3.7h-1.34v-8.27zm5.33 0v1.74a3.68 3.68 0 0 1 1.22-1.49 3.06 3.06 0 0 1 1.82-.45V507a3.85 3.85 0 0 0-1.39.22 2.19 2.19 0 0 0-.93.66 2.71 2.71 0 0 0-.51 1 5.65 5.65 0 0 0-.16 1.42v3.7h-1.36v-8.27zm9.33 2.43a2.33 2.33 0 0 0-.5-.74 2.36 2.36 0 0 0-.74-.5 2.33 2.33 0 0 0-.94-.18 2.37 2.37 0 0 0-1 .18 2.2 2.2 0 0 0-.73.5 2.41 2.41 0 0 0-.48.74 2.83 2.83 0 0 0-.21.9h4.75a2.79 2.79 0 0 0-.22-.91zm.33 5.31a3.75 3.75 0 0 1-2.34.7 4.25 4.25 0 0 1-1.72-.32 3.39 3.39 0 0 1-1.22-.9 3.8 3.8 0 0 1-.74-1.38 6.62 6.62 0 0 1-.28-1.74 5 5 0 0 1 .29-1.73 4.13 4.13 0 0 1 .81-1.36 3.67 3.67 0 0 1 1.23-.9 3.76 3.76 0 0 1 1.56-.32 3.39 3.39 0 0 1 1.83.46 3.63 3.63 0 0 1 1.17 1.16 4.59 4.59 0 0 1 .61 1.54 6.59 6.59 0 0 1 .14 1.58H329a3.28 3.28 0 0 0 .13 1 2.33 2.33 0 0 0 .46.86 2.29 2.29 0 0 0 .82.6 2.81 2.81 0 0 0 1.17.22 2.35 2.35 0 0 0 1.42-.4 1.93 1.93 0 0 0 .73-1.22h1.34a3.31 3.31 0 0 1-1.2 2.1zm4-7.74v1.31a2.86 2.86 0 0 1 2.69-1.5 3.59 3.59 0 0 1 1.36.22 2.24 2.24 0 0 1 .88.62 2.32 2.32 0 0 1 .47 1 5.13 5.13 0 0 1 .14 1.22V514h-1.32v-5.6a1.64 1.64 0 0 0-.45-1.22 1.67 1.67 0 0 0-1.23-.45 2.77 2.77 0 0 0-1.08.19 2 2 0 0 0-.76.54 2.34 2.34 0 0 0-.46.82 3.35 3.35 0 0 0-.15 1V514h-1.36v-8.27zm11.15 0V507h-1.63v5.14a1.48 1.48 0 0 0 0 .38.39.39 0 0 0 .15.22.67.67 0 0 0 .31.1H349V514h-1a4.88 4.88 0 0 1-.9-.07 1.33 1.33 0 0 1-.61-.26 1.13 1.13 0 0 1-.34-.54 3.14 3.14 0 0 1-.11-.93V507h-1.41v-1.2H346v-2.48h1.36v2.48zm7.7-3.15v10.14h6V514h-7.57v-11.4zm14.48 10.34a1.65 1.65 0 0 1-.42.06q-.32 0-.38-.22a3.16 3.16 0 0 1-.06-.7v-4.25a2.22 2.22 0 0 0-.27-1.17 1.92 1.92 0 0 0-.72-.69 2.91 2.91 0 0 0-1-.33 7.76 7.76 0 0 0-1.11-.08 5.79 5.79 0 0 0-1.32.14 3.22 3.22 0 0 0-1.1.47 2.43 2.43 0 0 0-.77.86 2.94 2.94 0 0 0-.32 1.3h1.36a1.39 1.39 0 0 1 .62-1.24 2.88 2.88 0 0 1 1.44-.33 4.47 4.47 0 0 1 .65 0 1.76 1.76 0 0 1 .59.19 1.15 1.15 0 0 1 .43.42 1.36 1.36 0 0 1 .17.72.74.74 0 0 1-.22.58 1.48 1.48 0 0 1-.61.3 5.9 5.9 0 0 1-.89.16q-.5.06-1.06.17t-1 .24a2.9 2.9 0 0 0-.9.42 2.09 2.09 0 0 0-.63.73 2.43 2.43 0 0 0-.24 1.15 2.4 2.4 0 0 0 .22 1.06 1.92 1.92 0 0 0 .58.71 2.47 2.47 0 0 0 .87.4 4.5 4.5 0 0 0 2.67-.17 3.25 3.25 0 0 0 1.3-1 1.29 1.29 0 0 0 .31 1 1.17 1.17 0 0 0 .84.3 1.93 1.93 0 0 0 1-.21v-1.06zm-2.21-1.8a1.52 1.52 0 0 1-.14.61 1.83 1.83 0 0 1-.45.6 2.43 2.43 0 0 1-.78.46 3.24 3.24 0 0 1-1.15.18 2.81 2.81 0 0 1-.61-.06 1.48 1.48 0 0 1-.5-.21 1.13 1.13 0 0 1-.35-.37 1.1 1.1 0 0 1-.14-.57 1.27 1.27 0 0 1 .23-.8 1.51 1.51 0 0 1 .6-.45 3.4 3.4 0 0 1 .83-.23l.92-.13q.46-.06.87-.14a1.7 1.7 0 0 0 .67-.28v1.39zm10.32-5.39h-1.44l-2.32 6.77-2.42-6.77h-1.54l3.28 8.22-.56 1.39a1.23 1.23 0 0 1-.42.57 1.17 1.17 0 0 1-.7.2 1.72 1.72 0 0 1-.39-.06 2.3 2.3 0 0 1-.41-.14v1.25a2.28 2.28 0 0 0 .46.11 3.64 3.64 0 0 0 .48 0 2.4 2.4 0 0 0 .79-.12 1.74 1.74 0 0 0 .62-.38 2.81 2.81 0 0 0 .51-.68 8.69 8.69 0 0 0 .47-1l3.6-9.38zm2.34 5.48a2.79 2.79 0 0 0 .55 1 2.39 2.39 0 0 0 .82.6 2.51 2.51 0 0 0 2 0 2.39 2.39 0 0 0 .82-.6 2.8 2.8 0 0 0 .55-1 4.56 4.56 0 0 0 0-2.67 2.89 2.89 0 0 0-.55-1 2.36 2.36 0 0 0-.82-.61 2.51 2.51 0 0 0-2 0 2.35 2.35 0 0 0-.82.61 2.88 2.88 0 0 0-.55 1 4.56 4.56 0 0 0 0 2.67zm-1.38-3a3.86 3.86 0 0 1 .77-1.38 3.62 3.62 0 0 1 1.26-.92 4.63 4.63 0 0 1 3.46 0 3.64 3.64 0 0 1 1.26.92 3.86 3.86 0 0 1 .77 1.38 5.51 5.51 0 0 1 .26 1.7 5.44 5.44 0 0 1-.26 1.7 3.87 3.87 0 0 1-.8 1.36 3.55 3.55 0 0 1-1.26.91 4.74 4.74 0 0 1-3.46 0 3.53 3.53 0 0 1-1.26-.91 3.87 3.87 0 0 1-.77-1.37 5.43 5.43 0 0 1-.26-1.7 5.51 5.51 0 0 1 .26-1.7zm14.96 5.76v-1.31a2.78 2.78 0 0 1-1.1 1.13 3.31 3.31 0 0 1-1.58.36 3.71 3.71 0 0 1-1.36-.22 2.17 2.17 0 0 1-.88-.62 2.32 2.32 0 0 1-.47-1 5.12 5.12 0 0 1-.14-1.22v-5.44H391v5.6a1.64 1.64 0 0 0 .45 1.22 1.66 1.66 0 0 0 1.23.45 2.77 2.77 0 0 0 1.08-.19 2 2 0 0 0 .76-.54 2.35 2.35 0 0 0 .46-.82 3.35 3.35 0 0 0 .15-1v-4.67h1.36V514zm6.86-8.27V507h-1.65v5.14a1.48 1.48 0 0 0 0 .38.39.39 0 0 0 .15.22.67.67 0 0 0 .31.1h1.14V514h-1a4.88 4.88 0 0 1-.9-.07 1.33 1.33 0 0 1-.61-.26 1.13 1.13 0 0 1-.34-.54 3.14 3.14 0 0 1-.11-.93V507h-1.41v-1.2h1.41v-2.48h1.36v2.48z"/><path class="cls-7" d="M675.38 53.5h188a5 5 0 0 1 5 5V148a5 5 0 0 1-5 5h-188a5 5 0 0 1-5-5V58.5a5 5 0 0 1 5-5zm0 0"/><path d="M732.48 99.22a3.53 3.53 0 0 0-2.07-.61 3.71 3.71 0 0 0-1.75.38 3.45 3.45 0 0 0-1.2 1 4.45 4.45 0 0 0-.7 1.48 6.61 6.61 0 0 0-.22 1.73 7.39 7.39 0 0 0 .22 1.85 4.41 4.41 0 0 0 .7 1.52 3.44 3.44 0 0 0 1.21 1 3.76 3.76 0 0 0 1.76.38 3.39 3.39 0 0 0 1.34-.25 3 3 0 0 0 1-.69 3.17 3.17 0 0 0 .66-1 4.36 4.36 0 0 0 .29-1.31h1.52a5.19 5.19 0 0 1-1.49 3.36 4.82 4.82 0 0 1-3.46 1.2 5.51 5.51 0 0 1-2.32-.46 4.55 4.55 0 0 1-1.65-1.26 5.39 5.39 0 0 1-1-1.89 8.05 8.05 0 0 1-.33-2.34 7.62 7.62 0 0 1 .35-2.34 5.64 5.64 0 0 1 1-1.91 4.81 4.81 0 0 1 1.7-1.29 5.47 5.47 0 0 1 2.33-.47 5.87 5.87 0 0 1 1.7.24 4.56 4.56 0 0 1 1.42.7 4 4 0 0 1 1 1.16 4.25 4.25 0 0 1 .54 1.61h-1.52a2.83 2.83 0 0 0-1.13-1.82zm5.78-1.62v4.4a1.81 1.81 0 0 1 .45-.65 2.54 2.54 0 0 1 .65-.43 3.37 3.37 0 0 1 .75-.25 3.8 3.8 0 0 1 .76-.08 3.59 3.59 0 0 1 1.36.22 2.24 2.24 0 0 1 .88.62 2.32 2.32 0 0 1 .47 1 5.13 5.13 0 0 1 .14 1.22V109h-1.32v-5.6a1.64 1.64 0 0 0-.45-1.22 1.67 1.67 0 0 0-1.23-.45 2.77 2.77 0 0 0-1.08.19 2 2 0 0 0-.76.54 2.34 2.34 0 0 0-.46.82 3.35 3.35 0 0 0-.15 1V109h-1.36V97.6zm7.62 1.66V97.6h1.36v1.66zm1.36 1.49V109h-1.36v-8.27zm3.55-3.15V109h-1.36V97.6zm3.26 8.49a3 3 0 0 0 .46 1 2.27 2.27 0 0 0 .8.69 2.43 2.43 0 0 0 1.14.26 2.25 2.25 0 0 0 2-1 3 3 0 0 0 .44-1 4.84 4.84 0 0 0 0-2.31 2.91 2.91 0 0 0-.46-1 2.33 2.33 0 0 0-.81-.7 2.52 2.52 0 0 0-1.2-.26 2.34 2.34 0 0 0-1.17.27 2.17 2.17 0 0 0-.77.72 3.13 3.13 0 0 0-.42 1 5.43 5.43 0 0 0-.13 1.18 4.22 4.22 0 0 0 .15 1.13zm4.89 2.94v-1.12a2 2 0 0 1-1.06 1 4 4 0 0 1-1.58.3 3.73 3.73 0 0 1-1.67-.35 3.43 3.43 0 0 1-1.18-.94 4.11 4.11 0 0 1-.71-1.38 5.65 5.65 0 0 1-.24-1.66 5.83 5.83 0 0 1 .23-1.66 3.92 3.92 0 0 1 .7-1.37 3.4 3.4 0 0 1 1.18-.93 3.77 3.77 0 0 1 1.66-.34 4 4 0 0 1 .69.06 3.51 3.51 0 0 1 .74.22 3.15 3.15 0 0 1 .7.4 2.2 2.2 0 0 1 .55.62V97.6h1.36V109zm9.65-11.42v10.14h6V109h-7.57V97.6zm14.48 10.34a1.64 1.64 0 0 1-.42.06q-.32 0-.38-.22a3.16 3.16 0 0 1-.06-.7v-4.25a2.22 2.22 0 0 0-.27-1.17 1.92 1.92 0 0 0-.72-.69 2.91 2.91 0 0 0-1-.33 7.75 7.75 0 0 0-1.11-.08 5.79 5.79 0 0 0-1.32.14 3.22 3.22 0 0 0-1.1.47 2.43 2.43 0 0 0-.77.86 2.94 2.94 0 0 0-.32 1.3h1.4a1.39 1.39 0 0 1 .62-1.24 2.88 2.88 0 0 1 1.44-.33 4.47 4.47 0 0 1 .65 0 1.76 1.76 0 0 1 .59.19 1.15 1.15 0 0 1 .43.42 1.36 1.36 0 0 1 .17.72.74.74 0 0 1-.22.58 1.48 1.48 0 0 1-.61.3 5.9 5.9 0 0 1-.89.16q-.5.06-1.06.17t-1 .24a2.9 2.9 0 0 0-.9.42 2.09 2.09 0 0 0-.63.73 2.43 2.43 0 0 0-.24 1.15 2.4 2.4 0 0 0 .22 1.06 1.92 1.92 0 0 0 .58.71 2.47 2.47 0 0 0 .87.4 4.5 4.5 0 0 0 2.67-.17 3.25 3.25 0 0 0 1.3-1 1.29 1.29 0 0 0 .31 1 1.17 1.17 0 0 0 .84.3 1.93 1.93 0 0 0 1-.21v-1.06zm-2.21-1.8a1.52 1.52 0 0 1-.14.61 1.83 1.83 0 0 1-.45.6 2.42 2.42 0 0 1-.78.46 3.24 3.24 0 0 1-1.15.18 2.81 2.81 0 0 1-.61-.06 1.48 1.48 0 0 1-.5-.21 1.13 1.13 0 0 1-.35-.37 1.1 1.1 0 0 1-.14-.57 1.27 1.27 0 0 1 .23-.8 1.51 1.51 0 0 1 .6-.45 3.4 3.4 0 0 1 .83-.23l.92-.13q.46-.06.87-.14a1.7 1.7 0 0 0 .67-.28v1.39zm10.32-5.39h-1.44l-2.32 6.77-2.42-6.78h-1.54l3.28 8.22-.56 1.39a1.23 1.23 0 0 1-.42.57 1.17 1.17 0 0 1-.7.2 1.72 1.72 0 0 1-.39-.06 2.3 2.3 0 0 1-.41-.14v1.25a2.28 2.28 0 0 0 .46.11 3.64 3.64 0 0 0 .48 0 2.4 2.4 0 0 0 .79-.12 1.74 1.74 0 0 0 .62-.38 2.81 2.81 0 0 0 .51-.68 8.69 8.69 0 0 0 .47-1l3.6-9.38zm2.34 5.48a2.79 2.79 0 0 0 .55 1 2.39 2.39 0 0 0 .82.6 2.51 2.51 0 0 0 2 0 2.39 2.39 0 0 0 .82-.6 2.8 2.8 0 0 0 .55-1 4.56 4.56 0 0 0 0-2.67 2.89 2.89 0 0 0-.55-1 2.36 2.36 0 0 0-.82-.61 2.51 2.51 0 0 0-2 0 2.35 2.35 0 0 0-.82.61 2.88 2.88 0 0 0-.55 1 4.56 4.56 0 0 0 0 2.67zm-1.38-3a3.86 3.86 0 0 1 .77-1.38 3.62 3.62 0 0 1 1.26-.92 4.63 4.63 0 0 1 3.46 0 3.64 3.64 0 0 1 1.26.92 3.87 3.87 0 0 1 .77 1.38 5.51 5.51 0 0 1 .26 1.7 5.44 5.44 0 0 1-.26 1.7 3.87 3.87 0 0 1-.77 1.37 3.55 3.55 0 0 1-1.26.91 4.74 4.74 0 0 1-3.46 0 3.53 3.53 0 0 1-1.26-.91 3.87 3.87 0 0 1-.77-1.37 5.43 5.43 0 0 1-.26-1.7 5.51 5.51 0 0 1 .26-1.7zm14.94 5.76v-1.31a2.78 2.78 0 0 1-1.1 1.13 3.31 3.31 0 0 1-1.58.36 3.71 3.71 0 0 1-1.4-.18 2.17 2.17 0 0 1-.88-.62 2.32 2.32 0 0 1-.47-1 5.12 5.12 0 0 1-.14-1.22v-5.44h1.36v5.6a1.64 1.64 0 0 0 .45 1.22 1.66 1.66 0 0 0 1.23.45 2.77 2.77 0 0 0 1.08-.19 2 2 0 0 0 .76-.54 2.35 2.35 0 0 0 .46-.82 3.35 3.35 0 0 0 .15-1v-4.67h1.36V109zm6.86-8.27V102h-1.64v5.14a1.48 1.48 0 0 0 0 .38.39.39 0 0 0 .15.22.67.67 0 0 0 .31.1h1.14V109h-1a4.88 4.88 0 0 1-.9-.07 1.33 1.33 0 0 1-.61-.26 1.13 1.13 0 0 1-.34-.54 3.14 3.14 0 0 1-.11-.93V102h-1.41v-1.2h1.41v-2.53h1.36v2.48z"/><path class="cls-3" d="M448.88 178.8l211.36-49.83"/><path d="M668 127.14l-8.47-1.08 1.38 5.84zm0 0"/><path class="cls-8" d="M668 127.14l-8.47-1.08 1.38 5.84zm0 0"/><path class="cls-9" d="M532.88 219h188a5 5 0 0 1 5 5v54.5a5 5 0 0 1-5 5h-188a5 5 0 0 1-5-5V224a5 5 0 0 1 5-5zm0 0"/><text class="cls-5" transform="translate(574.08 257.24)">LayoutChild</text><g class="cls-2"><path class="cls-9" d="M807.38 219h188a5 5 0 0 1 5 5v54.5a5 5 0 0 1-5 5h-188a5 5 0 0 1-5-5V224a5 5 0 0 1 5-5zm0 0"/></g><text class="cls-5" transform="translate(848.58 257.24)">LayoutEdges</text><path class="cls-10" d="M569.63 349.5h114.5a5 5 0 0 1 5 5V409a5 5 0 0 1-5 5h-114.5a5 5 0 0 1-5-5v-54.5a5 5 0 0 1 5-5zm0 0"/><text class="cls-5" transform="translate(588.48 387.75)">Fragment</text><path class="cls-3" d="M721 153.5l-55.72 57.87"/><path d="M659.73 217.13l7.71-3.68-4.32-4.16zm0 0"/><path class="cls-8" d="M659.73 217.13l7.71-3.68-4.32-4.16zm0 0"/><path class="cls-3" d="M814.2 153.5l51.38 57.61"/><path d="M870.91 217.08l-3.09-8-4.48 4zm0 0"/><path class="cls-8" d="M870.91 217.08l-3.09-8-4.48 4zm0 0"/><path class="cls-3" d="M626.88 284v55.1"/><path d="M626.88 347.1l3-8h-6zm0 0"/><path class="cls-8" d="M626.88 347.1l3-8h-6zm0 0"/></svg>