<svg id="Layer_1" data-name="Layer 1" xmlns="http://www.w3.org/2000/svg" viewBox="0 0 761.38 615.5"><defs><style>.cls-1,.cls-10,.cls-11,.cls-12,.cls-13,.cls-4,.cls-5,.cls-7,.cls-8,.cls-9{fill:none}.cls-2{clip-path:url(#clip-path)}.cls-3{fill:#fff}.cls-10,.cls-4{stroke:#000}.cls-11,.cls-12,.cls-13,.cls-4,.cls-5,.cls-7,.cls-8,.cls-9{stroke-linecap:round;stroke-linejoin:round}.cls-5{stroke:#ff5050;stroke-dasharray:8 8}.cls-11,.cls-12,.cls-13,.cls-5,.cls-7,.cls-8,.cls-9{stroke-width:2px}.cls-6{font-size:16px;font-family:SourceCodePro-Regular,Source Code Pro}.cls-7{stroke:#ff3eff}.cls-11,.cls-13,.cls-8,.cls-9{stroke:#ff9200}.cls-9{stroke-dasharray:80 18 16 18}.cls-10{stroke-miterlimit:10}.cls-11{stroke-dasharray:40 10 8 10}.cls-12{stroke:#0030fd;stroke-dasharray:32 18 2 18}.cls-13{stroke-dasharray:40 10 8 10 8 10}</style><clipPath id="clip-path"><path class="cls-1" d="M0 0h762.88v616H0z"/></clipPath></defs><title>layout</title><g class="cls-2"><path class="cls-3" d="M-.12 0h763v616h-763z"/><path class="cls-3" d="M-343.12-317.5h549.5v644h-549.5zm0 0"/><path class="cls-4" d="M.88 1.5h475v614H.88zm0 0"/></g><path d="M194.33 15.55a2.71 2.71 0 0 0 1.9-.53 2 2 0 0 0 .6-1.57 2 2 0 0 0-.6-1.56 2.8 2.8 0 0 0-1.9-.54h-3v4.19zm.51-5.47a3.55 3.55 0 0 1 2.62.89 3.36 3.36 0 0 1 .89 2.49 3.39 3.39 0 0 1-.89 2.5 3.48 3.48 0 0 1-2.62.88h-3.49v4.66h-1.52V10.08zm12.46 10.34a1.64 1.64 0 0 1-.42.06q-.32 0-.38-.22a3.16 3.16 0 0 1-.06-.7V15.3a2.22 2.22 0 0 0-.27-1.17 1.92 1.92 0 0 0-.72-.69 2.91 2.91 0 0 0-1-.33 7.75 7.75 0 0 0-1.11-.08 5.79 5.79 0 0 0-1.32.14 3.22 3.22 0 0 0-1.1.47 2.43 2.43 0 0 0-.77.86 2.94 2.94 0 0 0-.32 1.3h1.36a1.39 1.39 0 0 1 .62-1.24 2.88 2.88 0 0 1 1.44-.33 4.47 4.47 0 0 1 .65 0 1.76 1.76 0 0 1 .59.19 1.15 1.15 0 0 1 .43.42 1.36 1.36 0 0 1 .17.72.74.74 0 0 1-.22.58 1.48 1.48 0 0 1-.61.3 5.9 5.9 0 0 1-.89.16q-.5.06-1.06.17t-1 .24a2.9 2.9 0 0 0-.9.42 2.09 2.09 0 0 0-.63.73 2.43 2.43 0 0 0-.24 1.15 2.4 2.4 0 0 0 .22 1.06 1.92 1.92 0 0 0 .58.71 2.47 2.47 0 0 0 .87.4 4.5 4.5 0 0 0 2.67-.17 3.25 3.25 0 0 0 1.3-1 1.29 1.29 0 0 0 .31 1 1.17 1.17 0 0 0 .84.3 1.93 1.93 0 0 0 1-.21v-.99zm-2.21-1.8a1.52 1.52 0 0 1-.14.61 1.83 1.83 0 0 1-.45.6 2.42 2.42 0 0 1-.78.46 3.24 3.24 0 0 1-1.15.18 2.8 2.8 0 0 1-.61-.06 1.48 1.48 0 0 1-.5-.21 1.13 1.13 0 0 1-.35-.37 1.1 1.1 0 0 1-.14-.57 1.27 1.27 0 0 1 .23-.8 1.51 1.51 0 0 1 .6-.45 3.4 3.4 0 0 1 .83-.23l.92-.13q.46-.06.87-.14a1.7 1.7 0 0 0 .67-.28v1.39zm4.7-5.39V15a3.68 3.68 0 0 1 1.22-1.49 3.06 3.06 0 0 1 1.82-.45v1.44a3.85 3.85 0 0 0-1.39.22 2.19 2.19 0 0 0-.93.66 2.71 2.71 0 0 0-.51 1 5.65 5.65 0 0 0-.16 1.42v3.7h-1.36v-8.27zm9.35 2.43a2.33 2.33 0 0 0-.5-.74 2.36 2.36 0 0 0-.74-.5 2.33 2.33 0 0 0-.94-.18 2.37 2.37 0 0 0-1 .18 2.2 2.2 0 0 0-.73.5 2.41 2.41 0 0 0-.48.74 2.83 2.83 0 0 0-.21.9h4.75a2.79 2.79 0 0 0-.22-.91zm.33 5.31a3.75 3.75 0 0 1-2.34.7 4.25 4.25 0 0 1-1.72-.32 3.39 3.39 0 0 1-1.22-.9 3.8 3.8 0 0 1-.74-1.38 6.62 6.62 0 0 1-.28-1.74 5 5 0 0 1 .29-1.73 4.13 4.13 0 0 1 .81-1.36 3.67 3.67 0 0 1 1.23-.9 3.76 3.76 0 0 1 1.56-.32 3.39 3.39 0 0 1 1.83.46 3.63 3.63 0 0 1 1.17 1.16 4.59 4.59 0 0 1 .61 1.54 6.59 6.59 0 0 1 .14 1.58h-6.21a3.28 3.28 0 0 0 .13 1 2.33 2.33 0 0 0 .46.86 2.29 2.29 0 0 0 .82.6 2.81 2.81 0 0 0 1.17.22 2.35 2.35 0 0 0 1.42-.4 1.93 1.93 0 0 0 .73-1.22h1.34a3.31 3.31 0 0 1-1.2 2.1zm4-7.74v1.31A2.86 2.86 0 0 1 226.2 13a3.59 3.59 0 0 1 1.36.22 2.24 2.24 0 0 1 .88.62 2.32 2.32 0 0 1 .47 1 5.13 5.13 0 0 1 .14 1.22v5.44h-1.36v-5.6a1.64 1.64 0 0 0-.45-1.22 1.67 1.67 0 0 0-1.23-.45 2.77 2.77 0 0 0-1.08.19 2 2 0 0 0-.76.54 2.34 2.34 0 0 0-.46.82 3.35 3.35 0 0 0-.15 1v4.72h-1.36v-8.27zm11.15 0v1.2H233v5.14a1.48 1.48 0 0 0 0 .38.39.39 0 0 0 .15.22.67.67 0 0 0 .31.1h1.14v1.2h-1a4.88 4.88 0 0 1-.9-.07 1.33 1.33 0 0 1-.61-.26 1.13 1.13 0 0 1-.34-.54 3.14 3.14 0 0 1-.11-.93v-5.24h-1.41v-1.2h1.41v-2.48H233v2.48zm7.7-3.15v10.14h6v1.28h-7.57V10.08zm14.48 10.34a1.64 1.64 0 0 1-.42.06q-.32 0-.38-.22a3.16 3.16 0 0 1-.06-.7V15.3a2.22 2.22 0 0 0-.27-1.17 1.92 1.92 0 0 0-.72-.69 2.91 2.91 0 0 0-1-.33 7.75 7.75 0 0 0-1.11-.08 5.79 5.79 0 0 0-1.32.14 3.22 3.22 0 0 0-1.1.47 2.43 2.43 0 0 0-.77.86 2.94 2.94 0 0 0-.32 1.3h1.36a1.39 1.39 0 0 1 .62-1.24 2.88 2.88 0 0 1 1.44-.33 4.47 4.47 0 0 1 .65 0 1.76 1.76 0 0 1 .59.19 1.15 1.15 0 0 1 .43.42 1.36 1.36 0 0 1 .17.72.74.74 0 0 1-.22.58 1.48 1.48 0 0 1-.61.3 5.9 5.9 0 0 1-.89.16q-.5.06-1.06.17t-1 .24a2.9 2.9 0 0 0-.9.42 2.09 2.09 0 0 0-.63.73 2.43 2.43 0 0 0-.24 1.15 2.4 2.4 0 0 0 .22 1.06 1.92 1.92 0 0 0 .58.71 2.47 2.47 0 0 0 .87.4 4.5 4.5 0 0 0 2.67-.17 3.25 3.25 0 0 0 1.3-1 1.29 1.29 0 0 0 .31 1 1.17 1.17 0 0 0 .84.3 1.93 1.93 0 0 0 1-.21v-.99zm-2.21-1.8a1.52 1.52 0 0 1-.14.61 1.83 1.83 0 0 1-.45.6 2.42 2.42 0 0 1-.78.46 3.24 3.24 0 0 1-1.15.18 2.8 2.8 0 0 1-.61-.06 1.48 1.48 0 0 1-.5-.21 1.13 1.13 0 0 1-.35-.37 1.1 1.1 0 0 1-.14-.57 1.27 1.27 0 0 1 .23-.8 1.51 1.51 0 0 1 .6-.45 3.4 3.4 0 0 1 .83-.23l.92-.13q.46-.06.87-.14a1.7 1.7 0 0 0 .67-.28v1.39zm10.32-5.39h-1.44L261.16 20l-2.42-6.77h-1.54l3.28 8.22-.56 1.39a1.23 1.23 0 0 1-.42.57 1.17 1.17 0 0 1-.7.2 1.72 1.72 0 0 1-.39-.06 2.3 2.3 0 0 1-.41-.14v1.25a2.28 2.28 0 0 0 .46.11 3.64 3.64 0 0 0 .48 0 2.4 2.4 0 0 0 .79-.12 1.74 1.74 0 0 0 .62-.38 2.81 2.81 0 0 0 .51-.68 8.69 8.69 0 0 0 .47-1l3.6-9.38zm2.34 5.48a2.79 2.79 0 0 0 .55 1 2.39 2.39 0 0 0 .82.6 2.51 2.51 0 0 0 2 0 2.39 2.39 0 0 0 .82-.6 2.8 2.8 0 0 0 .55-1A4.56 4.56 0 0 0 272 16a2.89 2.89 0 0 0-.55-1 2.36 2.36 0 0 0-.82-.61 2.51 2.51 0 0 0-2 0 2.35 2.35 0 0 0-.82.61 2.88 2.88 0 0 0-.55 1 4.56 4.56 0 0 0 0 2.67zm-1.38-3a3.86 3.86 0 0 1 .77-1.38 3.62 3.62 0 0 1 1.26-.92 4.63 4.63 0 0 1 3.46 0 3.64 3.64 0 0 1 1.26.92 3.86 3.86 0 0 1 .77 1.38 5.51 5.51 0 0 1 .26 1.7 5.44 5.44 0 0 1-.26 1.7 3.87 3.87 0 0 1-.77 1.37 3.55 3.55 0 0 1-1.26.91 4.74 4.74 0 0 1-3.46 0 3.53 3.53 0 0 1-1.26-.91 3.87 3.87 0 0 1-.77-1.37 5.43 5.43 0 0 1-.26-1.7 5.51 5.51 0 0 1 .26-1.7zm14.94 5.83v-1.35a2.78 2.78 0 0 1-1.1 1.13 3.31 3.31 0 0 1-1.58.36 3.71 3.71 0 0 1-1.36-.22 2.17 2.17 0 0 1-.88-.62 2.32 2.32 0 0 1-.47-1 5.12 5.12 0 0 1-.14-1.22v-5.39h1.36v5.6a1.64 1.64 0 0 0 .45 1.22 1.66 1.66 0 0 0 1.23.45 2.77 2.77 0 0 0 1.08-.19 2 2 0 0 0 .76-.54 2.35 2.35 0 0 0 .46-.82 3.35 3.35 0 0 0 .15-1v-4.72h1.36v8.27zm6.86-8.27v1.2H286v5.14a1.48 1.48 0 0 0 0 .38.39.39 0 0 0 .15.22.67.67 0 0 0 .31.1h1.14v1.2h-1a4.88 4.88 0 0 1-.9-.07 1.33 1.33 0 0 1-.61-.26 1.13 1.13 0 0 1-.34-.54 3.14 3.14 0 0 1-.11-.93v-5.28h-1.41v-1.2h1.41v-2.48H286v2.48z"/><path class="cls-5" d="M47.38 115h404.5v480H47.38zm0 0"/><text class="cls-6" transform="translate(177.63 136)">ConstraintSpace</text><path class="cls-7" d="M55.38 153.5h188a5 5 0 0 1 5 5V248a5 5 0 0 1-5 5h-188a5 5 0 0 1-5-5v-89.5a5 5 0 0 1 5-5zm0 0"/><path d="M104.33 199.22a3.53 3.53 0 0 0-2.07-.61 3.71 3.71 0 0 0-1.75.38 3.46 3.46 0 0 0-1.2 1 4.45 4.45 0 0 0-.7 1.48 6.61 6.61 0 0 0-.22 1.73 7.39 7.39 0 0 0 .22 1.85 4.42 4.42 0 0 0 .7 1.52 3.43 3.43 0 0 0 1.21 1 3.76 3.76 0 0 0 1.76.38 3.39 3.39 0 0 0 1.34-.25 3 3 0 0 0 1-.69 3.17 3.17 0 0 0 .66-1 4.36 4.36 0 0 0 .29-1.31h1.52a5.19 5.19 0 0 1-1.49 3.36 4.81 4.81 0 0 1-3.46 1.2 5.51 5.51 0 0 1-2.32-.46 4.55 4.55 0 0 1-1.65-1.26 5.39 5.39 0 0 1-1-1.89 8.05 8.05 0 0 1-.33-2.34 7.62 7.62 0 0 1 .35-2.34 5.64 5.64 0 0 1 1-1.91 4.81 4.81 0 0 1 1.7-1.29 5.47 5.47 0 0 1 2.33-.47 5.87 5.87 0 0 1 1.7.24 4.56 4.56 0 0 1 1.42.7 4 4 0 0 1 1 1.16 4.25 4.25 0 0 1 .66 1.6h-1.52a2.83 2.83 0 0 0-1.13-1.82zm10 9.81v-1.31a2.78 2.78 0 0 1-1.1 1.13 3.31 3.31 0 0 1-1.58.36 3.71 3.71 0 0 1-1.36-.22 2.17 2.17 0 0 1-.88-.62 2.32 2.32 0 0 1-.47-1 5.11 5.11 0 0 1-.14-1.22v-5.44h1.36v5.6a1.64 1.64 0 0 0 .45 1.22 1.66 1.66 0 0 0 1.23.45 2.77 2.77 0 0 0 1.08-.19 2 2 0 0 0 .76-.54 2.35 2.35 0 0 0 .46-.82 3.35 3.35 0 0 0 .15-1v-4.67h1.36V209zm4.56-8.27v1.74a3.68 3.68 0 0 1 1.22-1.49 3.06 3.06 0 0 1 1.82-.45V202a3.85 3.85 0 0 0-1.39.22 2.2 2.2 0 0 0-.93.66 2.71 2.71 0 0 0-.51 1 5.65 5.65 0 0 0-.16 1.42v3.7h-1.34v-8.27zm5.33 0v1.74a3.68 3.68 0 0 1 1.22-1.49 3.06 3.06 0 0 1 1.82-.45V202a3.85 3.85 0 0 0-1.39.22 2.2 2.2 0 0 0-.93.66 2.71 2.71 0 0 0-.51 1 5.65 5.65 0 0 0-.16 1.42v3.7h-1.36v-8.27zm9.33 2.43a2.33 2.33 0 0 0-.5-.74 2.36 2.36 0 0 0-.74-.5 2.33 2.33 0 0 0-.94-.18 2.37 2.37 0 0 0-1 .18 2.2 2.2 0 0 0-.73.5 2.41 2.41 0 0 0-.48.74 2.83 2.83 0 0 0-.21.9h4.75a2.79 2.79 0 0 0-.22-.91zm.33 5.31a3.75 3.75 0 0 1-2.34.7 4.25 4.25 0 0 1-1.72-.32 3.39 3.39 0 0 1-1.22-.9 3.8 3.8 0 0 1-.74-1.38 6.62 6.62 0 0 1-.28-1.74 5 5 0 0 1 .29-1.73 4.13 4.13 0 0 1 .81-1.36 3.67 3.67 0 0 1 1.23-.9 3.76 3.76 0 0 1 1.56-.32 3.39 3.39 0 0 1 1.83.46 3.63 3.63 0 0 1 1.17 1.16 4.59 4.59 0 0 1 .61 1.54 6.59 6.59 0 0 1 .14 1.58H129a3.28 3.28 0 0 0 .13 1 2.33 2.33 0 0 0 .46.86 2.29 2.29 0 0 0 .82.6 2.81 2.81 0 0 0 1.17.22 2.35 2.35 0 0 0 1.42-.4 1.93 1.93 0 0 0 .73-1.22h1.34a3.31 3.31 0 0 1-1.2 2.1zm4-7.74v1.31a2.86 2.86 0 0 1 2.69-1.5 3.59 3.59 0 0 1 1.36.22 2.24 2.24 0 0 1 .88.62 2.32 2.32 0 0 1 .47 1 5.13 5.13 0 0 1 .14 1.22V209h-1.32v-5.6a1.64 1.64 0 0 0-.45-1.22 1.67 1.67 0 0 0-1.23-.45 2.77 2.77 0 0 0-1.08.19 2 2 0 0 0-.76.54 2.34 2.34 0 0 0-.46.82 3.35 3.35 0 0 0-.15 1V209h-1.36v-8.27zm11.15 0V202h-1.63v5.14a1.48 1.48 0 0 0 0 .38.39.39 0 0 0 .15.22.67.67 0 0 0 .31.1H149V209h-1a4.88 4.88 0 0 1-.9-.07 1.33 1.33 0 0 1-.61-.26 1.13 1.13 0 0 1-.34-.54 3.14 3.14 0 0 1-.11-.93V202h-1.41v-1.2H146v-2.48h1.36v2.48zm7.7-3.15v10.14h6V209h-7.57v-11.4zm14.48 10.34a1.65 1.65 0 0 1-.42.06q-.32 0-.38-.22a3.16 3.16 0 0 1-.06-.7v-4.25a2.22 2.22 0 0 0-.27-1.17 1.92 1.92 0 0 0-.72-.69 2.91 2.91 0 0 0-1-.33 7.76 7.76 0 0 0-1.11-.08 5.79 5.79 0 0 0-1.32.14 3.22 3.22 0 0 0-1.1.47 2.43 2.43 0 0 0-.77.86 2.94 2.94 0 0 0-.32 1.3h1.36a1.39 1.39 0 0 1 .62-1.24 2.88 2.88 0 0 1 1.44-.33 4.47 4.47 0 0 1 .65 0 1.76 1.76 0 0 1 .59.19 1.15 1.15 0 0 1 .43.42 1.36 1.36 0 0 1 .17.72.74.74 0 0 1-.22.58 1.48 1.48 0 0 1-.61.3 5.9 5.9 0 0 1-.89.16q-.5.06-1.06.17t-1 .24a2.9 2.9 0 0 0-.9.42 2.09 2.09 0 0 0-.63.73 2.43 2.43 0 0 0-.24 1.15 2.4 2.4 0 0 0 .22 1.06 1.92 1.92 0 0 0 .58.71 2.47 2.47 0 0 0 .87.4 4.5 4.5 0 0 0 2.67-.17 3.25 3.25 0 0 0 1.3-1 1.29 1.29 0 0 0 .31 1 1.17 1.17 0 0 0 .84.3 1.93 1.93 0 0 0 1-.21v-1.06zm-2.21-1.8a1.52 1.52 0 0 1-.14.61 1.83 1.83 0 0 1-.45.61 2.43 2.43 0 0 1-.78.46 3.24 3.24 0 0 1-1.15.18 2.81 2.81 0 0 1-.61-.06 1.48 1.48 0 0 1-.5-.21 1.13 1.13 0 0 1-.35-.37 1.1 1.1 0 0 1-.14-.57 1.27 1.27 0 0 1 .23-.8 1.51 1.51 0 0 1 .6-.45 3.4 3.4 0 0 1 .83-.23l.92-.13q.46-.06.87-.14a1.7 1.7 0 0 0 .67-.28v1.39zm10.32-5.39h-1.44l-2.32 6.77-2.42-6.77h-1.54l3.28 8.22-.56 1.39a1.23 1.23 0 0 1-.42.57 1.17 1.17 0 0 1-.7.2 1.72 1.72 0 0 1-.39-.06 2.3 2.3 0 0 1-.41-.14v1.25a2.28 2.28 0 0 0 .46.11 3.64 3.64 0 0 0 .48 0 2.4 2.4 0 0 0 .79-.12 1.74 1.74 0 0 0 .62-.38 2.81 2.81 0 0 0 .51-.68 8.69 8.69 0 0 0 .47-1l3.6-9.38zm2.34 5.48a2.79 2.79 0 0 0 .55 1 2.39 2.39 0 0 0 .82.6 2.51 2.51 0 0 0 2 0 2.39 2.39 0 0 0 .82-.6 2.8 2.8 0 0 0 .55-1 4.56 4.56 0 0 0 0-2.67 2.89 2.89 0 0 0-.55-1 2.36 2.36 0 0 0-.82-.61 2.51 2.51 0 0 0-2 0 2.35 2.35 0 0 0-.82.61 2.88 2.88 0 0 0-.55 1 4.56 4.56 0 0 0 0 2.67zm-1.38-3a3.86 3.86 0 0 1 .77-1.38 3.62 3.62 0 0 1 1.26-.92 4.63 4.63 0 0 1 3.46 0 3.64 3.64 0 0 1 1.26.92 3.86 3.86 0 0 1 .77 1.38 5.51 5.51 0 0 1 .26 1.7 5.44 5.44 0 0 1-.26 1.7 3.87 3.87 0 0 1-.8 1.36 3.55 3.55 0 0 1-1.26.91 4.74 4.74 0 0 1-3.46 0 3.53 3.53 0 0 1-1.26-.91 3.86 3.86 0 0 1-.77-1.37 5.43 5.43 0 0 1-.26-1.7 5.51 5.51 0 0 1 .26-1.7zm14.96 5.76v-1.31a2.78 2.78 0 0 1-1.1 1.13 3.31 3.31 0 0 1-1.58.36 3.71 3.71 0 0 1-1.36-.22 2.17 2.17 0 0 1-.88-.62 2.32 2.32 0 0 1-.47-1 5.11 5.11 0 0 1-.14-1.22v-5.44H191v5.6a1.64 1.64 0 0 0 .45 1.22 1.66 1.66 0 0 0 1.23.45 2.77 2.77 0 0 0 1.08-.19 2 2 0 0 0 .76-.54 2.35 2.35 0 0 0 .46-.82 3.35 3.35 0 0 0 .15-1v-4.67h1.36V209zm6.86-8.27V202h-1.65v5.14a1.48 1.48 0 0 0 0 .38.39.39 0 0 0 .15.22.67.67 0 0 0 .31.1h1.14V209h-1a4.88 4.88 0 0 1-.9-.07 1.33 1.33 0 0 1-.61-.26 1.13 1.13 0 0 1-.34-.54 3.14 3.14 0 0 1-.11-.93V202h-1.41v-1.2h1.41v-2.48h1.36v2.48z"/><path class="cls-8" d="M255.88 153.5h188a5 5 0 0 1 5 5V248a5 5 0 0 1-5 5h-188a5 5 0 0 1-5-5v-89.5a5 5 0 0 1 5-5zm0 0"/><path d="M304.83 199.22a3.53 3.53 0 0 0-2.07-.61 3.71 3.71 0 0 0-1.76.39 3.46 3.46 0 0 0-1.2 1 4.45 4.45 0 0 0-.7 1.48 6.61 6.61 0 0 0-.22 1.73 7.39 7.39 0 0 0 .22 1.85 4.42 4.42 0 0 0 .7 1.52 3.43 3.43 0 0 0 1.21 1 3.76 3.76 0 0 0 1.76.38 3.39 3.39 0 0 0 1.34-.25 3 3 0 0 0 1-.69 3.17 3.17 0 0 0 .66-1 4.36 4.36 0 0 0 .29-1.31h1.52a5.19 5.19 0 0 1-1.49 3.36 4.82 4.82 0 0 1-3.46 1.2 5.51 5.51 0 0 1-2.32-.46 4.55 4.55 0 0 1-1.65-1.26 5.39 5.39 0 0 1-1-1.89 8.05 8.05 0 0 1-.33-2.34 7.62 7.62 0 0 1 .35-2.34 5.64 5.64 0 0 1 1-1.91 4.81 4.81 0 0 1 1.7-1.29 5.47 5.47 0 0 1 2.33-.47 5.87 5.87 0 0 1 1.7.24 4.56 4.56 0 0 1 1.42.7 4 4 0 0 1 1 1.16 4.25 4.25 0 0 1 .54 1.61H306a2.83 2.83 0 0 0-1.13-1.82zm10 9.81v-1.31a2.78 2.78 0 0 1-1.1 1.13 3.31 3.31 0 0 1-1.58.36 3.71 3.71 0 0 1-1.36-.22 2.17 2.17 0 0 1-.88-.62 2.32 2.32 0 0 1-.47-1 5.12 5.12 0 0 1-.14-1.22v-5.44h1.36v5.6a1.64 1.64 0 0 0 .45 1.22 1.66 1.66 0 0 0 1.23.45 2.77 2.77 0 0 0 1.08-.19 2 2 0 0 0 .76-.54 2.35 2.35 0 0 0 .46-.82 3.35 3.35 0 0 0 .15-1v-4.67h1.36V209zm4.56-8.27v1.74a3.68 3.68 0 0 1 1.22-1.49 3.06 3.06 0 0 1 1.82-.45V202a3.85 3.85 0 0 0-1.39.22 2.2 2.2 0 0 0-.93.66 2.71 2.71 0 0 0-.51 1 5.65 5.65 0 0 0-.16 1.42v3.7h-1.34v-8.27zm5.33 0v1.74A3.68 3.68 0 0 1 326 201a3.06 3.06 0 0 1 1.82-.45V202a3.85 3.85 0 0 0-1.39.22 2.2 2.2 0 0 0-.93.66 2.71 2.71 0 0 0-.51 1 5.65 5.65 0 0 0-.16 1.42v3.7h-1.36v-8.27zm9.28 2.43a2.33 2.33 0 0 0-.5-.74 2.36 2.36 0 0 0-.74-.5 2.33 2.33 0 0 0-.94-.18 2.37 2.37 0 0 0-1 .18 2.2 2.2 0 0 0-.73.5 2.41 2.41 0 0 0-.48.74 2.83 2.83 0 0 0-.21.9h4.75a2.79 2.79 0 0 0-.22-.91zm.33 5.31a3.75 3.75 0 0 1-2.34.7 4.25 4.25 0 0 1-1.72-.32 3.39 3.39 0 0 1-1.22-.9 3.8 3.8 0 0 1-.74-1.38 6.62 6.62 0 0 1-.28-1.74 5 5 0 0 1 .29-1.73 4.13 4.13 0 0 1 .81-1.36 3.67 3.67 0 0 1 1.23-.9 3.76 3.76 0 0 1 1.56-.32 3.39 3.39 0 0 1 1.83.46 3.63 3.63 0 0 1 1.17 1.16 4.59 4.59 0 0 1 .61 1.54 6.59 6.59 0 0 1 .14 1.58h-6.19a3.28 3.28 0 0 0 .13 1 2.33 2.33 0 0 0 .46.86 2.29 2.29 0 0 0 .82.6 2.81 2.81 0 0 0 1.17.22 2.35 2.35 0 0 0 1.42-.4 1.93 1.93 0 0 0 .73-1.22h1.34a3.31 3.31 0 0 1-1.2 2.1zm4-7.74v1.31a2.86 2.86 0 0 1 2.69-1.5 3.59 3.59 0 0 1 1.36.22 2.24 2.24 0 0 1 .88.62 2.32 2.32 0 0 1 .47 1 5.13 5.13 0 0 1 .14 1.22V209h-1.27v-5.6a1.64 1.64 0 0 0-.45-1.22 1.67 1.67 0 0 0-1.23-.45 2.77 2.77 0 0 0-1.08.19 2 2 0 0 0-.76.54 2.34 2.34 0 0 0-.46.82 3.35 3.35 0 0 0-.15 1V209h-1.36v-8.27zm11.15 0V202h-1.58v5.14a1.48 1.48 0 0 0 0 .38.39.39 0 0 0 .15.22.67.67 0 0 0 .31.1h1.14V209h-1a4.88 4.88 0 0 1-.9-.07 1.33 1.33 0 0 1-.61-.26 1.13 1.13 0 0 1-.34-.54 3.14 3.14 0 0 1-.11-.93V202h-1.41v-1.2h1.41v-2.48h1.36v2.48zm7.7-3.15v10.14h6V209h-7.57v-11.4zm14.48 10.34a1.65 1.65 0 0 1-.42.06q-.32 0-.38-.22a3.16 3.16 0 0 1-.06-.7v-4.25a2.22 2.22 0 0 0-.27-1.17 1.92 1.92 0 0 0-.72-.69 2.91 2.91 0 0 0-1-.33 7.76 7.76 0 0 0-1.11-.08 5.79 5.79 0 0 0-1.32.14 3.22 3.22 0 0 0-1.1.47 2.43 2.43 0 0 0-.77.86 2.94 2.94 0 0 0-.32 1.3h1.36a1.39 1.39 0 0 1 .62-1.24 2.88 2.88 0 0 1 1.44-.33 4.47 4.47 0 0 1 .65 0 1.76 1.76 0 0 1 .59.19 1.15 1.15 0 0 1 .43.42 1.36 1.36 0 0 1 .17.72.74.74 0 0 1-.22.58 1.48 1.48 0 0 1-.61.3 5.9 5.9 0 0 1-.89.16q-.5.06-1.06.17t-1 .24a2.9 2.9 0 0 0-.9.42 2.09 2.09 0 0 0-.63.73 2.43 2.43 0 0 0-.24 1.15 2.4 2.4 0 0 0 .22 1.06 1.92 1.92 0 0 0 .58.71 2.47 2.47 0 0 0 .87.4 4.5 4.5 0 0 0 2.67-.17 3.25 3.25 0 0 0 1.3-1 1.29 1.29 0 0 0 .31 1 1.17 1.17 0 0 0 .84.3 1.93 1.93 0 0 0 1-.21v-1.06zm-2.21-1.8a1.52 1.52 0 0 1-.14.61 1.83 1.83 0 0 1-.45.61 2.43 2.43 0 0 1-.78.46 3.24 3.24 0 0 1-1.08.17 2.81 2.81 0 0 1-.61-.06 1.48 1.48 0 0 1-.5-.21 1.13 1.13 0 0 1-.35-.37 1.1 1.1 0 0 1-.14-.57 1.27 1.27 0 0 1 .23-.8 1.51 1.51 0 0 1 .6-.45 3.4 3.4 0 0 1 .83-.23l.92-.13q.46-.06.87-.14a1.7 1.7 0 0 0 .67-.28v1.39zm10.32-5.39h-1.44l-2.32 6.77-2.42-6.77h-1.54l3.28 8.22-.56 1.39a1.23 1.23 0 0 1-.42.57 1.17 1.17 0 0 1-.7.2 1.72 1.72 0 0 1-.39-.06 2.3 2.3 0 0 1-.41-.14v1.25a2.28 2.28 0 0 0 .46.11 3.64 3.64 0 0 0 .48 0 2.4 2.4 0 0 0 .79-.12 1.74 1.74 0 0 0 .62-.38 2.81 2.81 0 0 0 .51-.68 8.69 8.69 0 0 0 .47-1l3.6-9.38zm2.34 5.48a2.79 2.79 0 0 0 .55 1 2.39 2.39 0 0 0 .82.6 2.51 2.51 0 0 0 2 0 2.39 2.39 0 0 0 .82-.6 2.8 2.8 0 0 0 .55-1 4.56 4.56 0 0 0 0-2.67 2.89 2.89 0 0 0-.55-1 2.36 2.36 0 0 0-.82-.61 2.51 2.51 0 0 0-2 0 2.35 2.35 0 0 0-.82.61 2.88 2.88 0 0 0-.55 1 4.56 4.56 0 0 0 0 2.67zm-1.38-3a3.86 3.86 0 0 1 .77-1.38 3.62 3.62 0 0 1 1.26-.92 4.63 4.63 0 0 1 3.46 0 3.64 3.64 0 0 1 1.26.92 3.86 3.86 0 0 1 .77 1.38 5.51 5.51 0 0 1 .26 1.7 5.44 5.44 0 0 1-.26 1.7 3.87 3.87 0 0 1-.77 1.37 3.55 3.55 0 0 1-1.26.91 4.74 4.74 0 0 1-3.46 0 3.53 3.53 0 0 1-1.26-.91 3.87 3.87 0 0 1-.77-1.37 5.43 5.43 0 0 1-.26-1.7 5.51 5.51 0 0 1 .26-1.7zm15.01 5.76v-1.31a2.78 2.78 0 0 1-1.1 1.13 3.31 3.31 0 0 1-1.58.36 3.71 3.71 0 0 1-1.36-.22 2.17 2.17 0 0 1-.88-.62 2.32 2.32 0 0 1-.47-1 5.12 5.12 0 0 1-.14-1.22v-5.44h1.36v5.6a1.64 1.64 0 0 0 .45 1.22 1.66 1.66 0 0 0 1.23.45 2.77 2.77 0 0 0 1.08-.19 2 2 0 0 0 .76-.54 2.35 2.35 0 0 0 .46-.82 3.35 3.35 0 0 0 .15-1v-4.67h1.3V209zm6.86-8.27V202H401v5.14a1.48 1.48 0 0 0 0 .38.39.39 0 0 0 .15.22.67.67 0 0 0 .31.1h1.14V209h-1a4.88 4.88 0 0 1-.9-.07 1.33 1.33 0 0 1-.61-.26 1.13 1.13 0 0 1-.34-.54 3.14 3.14 0 0 1-.11-.93V202h-1.41v-1.2h1.41v-2.48H401v2.48z"/><path class="cls-7" d="M55.38 255.5h188a5 5 0 0 1 5 5V350a5 5 0 0 1-5 5h-188a5 5 0 0 1-5-5v-89.5a5 5 0 0 1 5-5zm0 0"/><path d="M104.33 301.22a3.53 3.53 0 0 0-2.07-.61 3.71 3.71 0 0 0-1.75.38 3.45 3.45 0 0 0-1.2 1 4.45 4.45 0 0 0-.7 1.48 6.61 6.61 0 0 0-.22 1.73 7.39 7.39 0 0 0 .22 1.85 4.42 4.42 0 0 0 .7 1.52 3.44 3.44 0 0 0 1.21 1 3.76 3.76 0 0 0 1.76.38 3.39 3.39 0 0 0 1.34-.25 3 3 0 0 0 1-.69 3.17 3.17 0 0 0 .66-1 4.36 4.36 0 0 0 .29-1.31h1.52a5.19 5.19 0 0 1-1.49 3.36 4.81 4.81 0 0 1-3.46 1.2 5.51 5.51 0 0 1-2.32-.46 4.55 4.55 0 0 1-1.65-1.26 5.39 5.39 0 0 1-1-1.89 8.05 8.05 0 0 1-.33-2.34 7.62 7.62 0 0 1 .35-2.34 5.64 5.64 0 0 1 1-1.91 4.81 4.81 0 0 1 1.7-1.29 5.47 5.47 0 0 1 2.33-.47 5.87 5.87 0 0 1 1.7.24 4.56 4.56 0 0 1 1.42.7 4 4 0 0 1 1 1.16 4.25 4.25 0 0 1 .66 1.6h-1.52a2.83 2.83 0 0 0-1.13-1.82zm10 9.81v-1.31a2.78 2.78 0 0 1-1.1 1.13 3.31 3.31 0 0 1-1.58.36 3.71 3.71 0 0 1-1.36-.22 2.17 2.17 0 0 1-.88-.62 2.31 2.31 0 0 1-.47-1 5.12 5.12 0 0 1-.14-1.22v-5.44h1.36v5.6a1.64 1.64 0 0 0 .45 1.22 1.66 1.66 0 0 0 1.23.45 2.77 2.77 0 0 0 1.08-.19 2 2 0 0 0 .76-.54 2.35 2.35 0 0 0 .46-.82 3.35 3.35 0 0 0 .15-1v-4.67h1.36V311zm4.56-8.27v1.74a3.68 3.68 0 0 1 1.22-1.49 3.06 3.06 0 0 1 1.82-.45V304a3.85 3.85 0 0 0-1.39.22 2.19 2.19 0 0 0-.93.66 2.71 2.71 0 0 0-.51 1 5.65 5.65 0 0 0-.16 1.42v3.7h-1.34v-8.27zm5.33 0v1.74a3.68 3.68 0 0 1 1.22-1.49 3.06 3.06 0 0 1 1.82-.45V304a3.85 3.85 0 0 0-1.39.22 2.19 2.19 0 0 0-.93.66 2.71 2.71 0 0 0-.51 1 5.65 5.65 0 0 0-.16 1.42v3.7h-1.36v-8.27zm9.33 2.43a2.33 2.33 0 0 0-.5-.74 2.36 2.36 0 0 0-.74-.5 2.33 2.33 0 0 0-.94-.18 2.37 2.37 0 0 0-1 .18 2.2 2.2 0 0 0-.73.5 2.41 2.41 0 0 0-.48.74 2.83 2.83 0 0 0-.21.9h4.75a2.79 2.79 0 0 0-.22-.91zm.33 5.31a3.75 3.75 0 0 1-2.34.7 4.25 4.25 0 0 1-1.72-.32 3.39 3.39 0 0 1-1.22-.9 3.8 3.8 0 0 1-.74-1.38 6.62 6.62 0 0 1-.28-1.74 5 5 0 0 1 .29-1.73 4.13 4.13 0 0 1 .81-1.36 3.67 3.67 0 0 1 1.23-.9 3.76 3.76 0 0 1 1.56-.32 3.39 3.39 0 0 1 1.83.46 3.63 3.63 0 0 1 1.17 1.16 4.59 4.59 0 0 1 .61 1.54 6.59 6.59 0 0 1 .14 1.58H129a3.28 3.28 0 0 0 .13 1 2.33 2.33 0 0 0 .46.86 2.29 2.29 0 0 0 .82.6 2.81 2.81 0 0 0 1.17.22 2.35 2.35 0 0 0 1.42-.4 1.93 1.93 0 0 0 .73-1.22h1.34a3.31 3.31 0 0 1-1.2 2.1zm4-7.74v1.31a2.86 2.86 0 0 1 2.69-1.5 3.59 3.59 0 0 1 1.36.22 2.24 2.24 0 0 1 .88.62 2.32 2.32 0 0 1 .47 1 5.13 5.13 0 0 1 .14 1.22V311h-1.32v-5.6a1.64 1.64 0 0 0-.45-1.22 1.67 1.67 0 0 0-1.23-.45 2.77 2.77 0 0 0-1.08.19 2 2 0 0 0-.76.54 2.34 2.34 0 0 0-.46.82 3.35 3.35 0 0 0-.15 1V311h-1.36v-8.27zm11.15 0V304h-1.63v5.14a1.48 1.48 0 0 0 0 .38.39.39 0 0 0 .15.22.67.67 0 0 0 .31.1H149V311h-1a4.88 4.88 0 0 1-.9-.07 1.33 1.33 0 0 1-.61-.26 1.13 1.13 0 0 1-.34-.54 3.14 3.14 0 0 1-.11-.93V304h-1.41v-1.2H146v-2.48h1.36v2.48zm7.7-3.15v10.14h6V311h-7.57v-11.4zm14.48 10.34a1.64 1.64 0 0 1-.42.06q-.32 0-.38-.22a3.16 3.16 0 0 1-.06-.7v-4.25a2.22 2.22 0 0 0-.27-1.17 1.92 1.92 0 0 0-.72-.69 2.91 2.91 0 0 0-1-.33 7.75 7.75 0 0 0-1.11-.08 5.79 5.79 0 0 0-1.32.14 3.22 3.22 0 0 0-1.1.47 2.43 2.43 0 0 0-.77.86 2.94 2.94 0 0 0-.32 1.3h1.36a1.39 1.39 0 0 1 .62-1.24 2.88 2.88 0 0 1 1.44-.33 4.47 4.47 0 0 1 .65 0 1.76 1.76 0 0 1 .59.19 1.15 1.15 0 0 1 .43.42 1.36 1.36 0 0 1 .17.72.74.74 0 0 1-.22.58 1.48 1.48 0 0 1-.61.3 5.9 5.9 0 0 1-.89.16q-.5.06-1.06.17t-1 .24a2.9 2.9 0 0 0-.9.42 2.09 2.09 0 0 0-.63.73 2.43 2.43 0 0 0-.24 1.15 2.4 2.4 0 0 0 .22 1.06 1.92 1.92 0 0 0 .58.71 2.47 2.47 0 0 0 .87.4 4.5 4.5 0 0 0 2.67-.17 3.25 3.25 0 0 0 1.3-1 1.29 1.29 0 0 0 .31 1 1.17 1.17 0 0 0 .84.3 1.93 1.93 0 0 0 1-.21v-1.06zm-2.21-1.8a1.52 1.52 0 0 1-.14.61 1.83 1.83 0 0 1-.45.6 2.42 2.42 0 0 1-.78.46 3.24 3.24 0 0 1-1.15.18 2.81 2.81 0 0 1-.61-.06 1.48 1.48 0 0 1-.5-.21 1.13 1.13 0 0 1-.35-.37 1.1 1.1 0 0 1-.14-.57 1.27 1.27 0 0 1 .23-.8 1.51 1.51 0 0 1 .6-.45 3.4 3.4 0 0 1 .83-.23l.92-.13q.46-.06.87-.14a1.7 1.7 0 0 0 .67-.28v1.39zm10.32-5.39h-1.44l-2.32 6.77-2.42-6.77h-1.54l3.28 8.22-.56 1.39a1.23 1.23 0 0 1-.42.57 1.17 1.17 0 0 1-.7.2 1.72 1.72 0 0 1-.39-.06 2.3 2.3 0 0 1-.41-.14v1.25a2.28 2.28 0 0 0 .46.11 3.64 3.64 0 0 0 .48 0 2.4 2.4 0 0 0 .79-.12 1.74 1.74 0 0 0 .62-.38 2.81 2.81 0 0 0 .51-.68 8.69 8.69 0 0 0 .47-1l3.6-9.38zm2.34 5.48a2.79 2.79 0 0 0 .55 1 2.39 2.39 0 0 0 .82.6 2.51 2.51 0 0 0 2 0 2.39 2.39 0 0 0 .82-.6 2.8 2.8 0 0 0 .55-1 4.56 4.56 0 0 0 0-2.67 2.89 2.89 0 0 0-.55-1 2.36 2.36 0 0 0-.82-.61 2.51 2.51 0 0 0-2 0 2.35 2.35 0 0 0-.82.61 2.88 2.88 0 0 0-.55 1 4.56 4.56 0 0 0 0 2.67zm-1.38-3a3.86 3.86 0 0 1 .77-1.38 3.62 3.62 0 0 1 1.26-.92 4.63 4.63 0 0 1 3.46 0 3.64 3.64 0 0 1 1.26.92 3.86 3.86 0 0 1 .77 1.38 5.51 5.51 0 0 1 .26 1.7 5.44 5.44 0 0 1-.26 1.7 3.87 3.87 0 0 1-.8 1.36 3.55 3.55 0 0 1-1.26.91 4.74 4.74 0 0 1-3.46 0 3.53 3.53 0 0 1-1.26-.91 3.86 3.86 0 0 1-.77-1.37 5.43 5.43 0 0 1-.26-1.7 5.51 5.51 0 0 1 .26-1.7zm14.96 5.76v-1.31a2.78 2.78 0 0 1-1.1 1.13 3.31 3.31 0 0 1-1.58.36 3.71 3.71 0 0 1-1.36-.22 2.17 2.17 0 0 1-.88-.62 2.31 2.31 0 0 1-.47-1 5.12 5.12 0 0 1-.14-1.22v-5.44H191v5.6a1.64 1.64 0 0 0 .45 1.22 1.66 1.66 0 0 0 1.23.45 2.77 2.77 0 0 0 1.08-.19 2 2 0 0 0 .76-.54 2.35 2.35 0 0 0 .46-.82 3.35 3.35 0 0 0 .15-1v-4.67h1.36V311zm6.86-8.27V304h-1.65v5.14a1.48 1.48 0 0 0 0 .38.39.39 0 0 0 .15.22.67.67 0 0 0 .31.1h1.14V311h-1a4.88 4.88 0 0 1-.9-.07 1.33 1.33 0 0 1-.61-.26 1.13 1.13 0 0 1-.34-.54 3.14 3.14 0 0 1-.11-.93V304h-1.41v-1.2h1.41v-2.48h1.36v2.48z"/><path class="cls-7" d="M255.88 255.5h188a5 5 0 0 1 5 5V350a5 5 0 0 1-5 5h-188a5 5 0 0 1-5-5v-89.5a5 5 0 0 1 5-5zm0 0"/><path d="M304.83 301.22a3.53 3.53 0 0 0-2.07-.61 3.71 3.71 0 0 0-1.76.39 3.45 3.45 0 0 0-1.2 1 4.45 4.45 0 0 0-.7 1.48 6.61 6.61 0 0 0-.22 1.73 7.39 7.39 0 0 0 .22 1.85 4.41 4.41 0 0 0 .7 1.52 3.44 3.44 0 0 0 1.21 1 3.76 3.76 0 0 0 1.76.38 3.39 3.39 0 0 0 1.34-.25 3 3 0 0 0 1-.69 3.17 3.17 0 0 0 .66-1 4.36 4.36 0 0 0 .29-1.31h1.52a5.19 5.19 0 0 1-1.49 3.36 4.81 4.81 0 0 1-3.46 1.2 5.51 5.51 0 0 1-2.32-.46 4.55 4.55 0 0 1-1.65-1.26 5.39 5.39 0 0 1-1-1.89 8.05 8.05 0 0 1-.33-2.34 7.62 7.62 0 0 1 .35-2.34 5.64 5.64 0 0 1 1-1.91 4.81 4.81 0 0 1 1.7-1.29 5.47 5.47 0 0 1 2.33-.47 5.87 5.87 0 0 1 1.7.24 4.56 4.56 0 0 1 1.42.7 4 4 0 0 1 1 1.16 4.25 4.25 0 0 1 .54 1.61H306a2.83 2.83 0 0 0-1.13-1.82zm10 9.81v-1.31a2.78 2.78 0 0 1-1.1 1.13 3.31 3.31 0 0 1-1.58.36 3.71 3.71 0 0 1-1.36-.22 2.17 2.17 0 0 1-.88-.62 2.32 2.32 0 0 1-.47-1 5.12 5.12 0 0 1-.14-1.22v-5.44h1.36v5.6a1.64 1.64 0 0 0 .45 1.22 1.66 1.66 0 0 0 1.23.45 2.77 2.77 0 0 0 1.08-.19 2 2 0 0 0 .76-.54 2.35 2.35 0 0 0 .46-.82 3.35 3.35 0 0 0 .15-1v-4.67h1.36V311zm4.56-8.27v1.74a3.68 3.68 0 0 1 1.22-1.49 3.06 3.06 0 0 1 1.82-.45V304a3.85 3.85 0 0 0-1.39.22 2.19 2.19 0 0 0-.93.66 2.71 2.71 0 0 0-.51 1 5.65 5.65 0 0 0-.16 1.42v3.7h-1.34v-8.27zm5.33 0v1.74A3.68 3.68 0 0 1 326 303a3.06 3.06 0 0 1 1.82-.45V304a3.85 3.85 0 0 0-1.39.22 2.19 2.19 0 0 0-.93.66 2.71 2.71 0 0 0-.51 1 5.65 5.65 0 0 0-.16 1.42v3.7h-1.36v-8.27zm9.28 2.43a2.33 2.33 0 0 0-.5-.74 2.36 2.36 0 0 0-.74-.5 2.33 2.33 0 0 0-.94-.18 2.37 2.37 0 0 0-1 .18 2.2 2.2 0 0 0-.73.5 2.41 2.41 0 0 0-.48.74 2.83 2.83 0 0 0-.21.9h4.75a2.79 2.79 0 0 0-.22-.91zm.33 5.31a3.75 3.75 0 0 1-2.34.7 4.25 4.25 0 0 1-1.72-.32 3.39 3.39 0 0 1-1.22-.9 3.8 3.8 0 0 1-.74-1.38 6.62 6.62 0 0 1-.28-1.74 5 5 0 0 1 .29-1.73 4.13 4.13 0 0 1 .81-1.36 3.67 3.67 0 0 1 1.23-.9 3.76 3.76 0 0 1 1.56-.32 3.39 3.39 0 0 1 1.83.46 3.63 3.63 0 0 1 1.17 1.16 4.59 4.59 0 0 1 .61 1.54 6.59 6.59 0 0 1 .14 1.58h-6.19a3.28 3.28 0 0 0 .13 1 2.33 2.33 0 0 0 .46.86 2.29 2.29 0 0 0 .82.6 2.81 2.81 0 0 0 1.17.22 2.35 2.35 0 0 0 1.42-.4 1.93 1.93 0 0 0 .73-1.22h1.34a3.31 3.31 0 0 1-1.2 2.1zm4-7.74v1.31a2.86 2.86 0 0 1 2.69-1.5 3.59 3.59 0 0 1 1.36.22 2.24 2.24 0 0 1 .88.62 2.32 2.32 0 0 1 .47 1 5.13 5.13 0 0 1 .14 1.22V311h-1.27v-5.6a1.64 1.64 0 0 0-.45-1.22 1.67 1.67 0 0 0-1.23-.45 2.77 2.77 0 0 0-1.08.19 2 2 0 0 0-.76.54 2.34 2.34 0 0 0-.46.82 3.35 3.35 0 0 0-.15 1V311h-1.36v-8.27zm11.15 0V304h-1.58v5.14a1.48 1.48 0 0 0 0 .38.39.39 0 0 0 .15.22.67.67 0 0 0 .31.1h1.14V311h-1a4.88 4.88 0 0 1-.9-.07 1.33 1.33 0 0 1-.61-.26 1.13 1.13 0 0 1-.34-.54 3.14 3.14 0 0 1-.11-.93V304h-1.41v-1.2h1.41v-2.48h1.36v2.48zm7.7-3.15v10.14h6V311h-7.57v-11.4zm14.48 10.34a1.64 1.64 0 0 1-.42.06q-.32 0-.38-.22a3.16 3.16 0 0 1-.06-.7v-4.25a2.22 2.22 0 0 0-.27-1.17 1.92 1.92 0 0 0-.72-.69 2.91 2.91 0 0 0-1-.33 7.75 7.75 0 0 0-1.11-.08 5.79 5.79 0 0 0-1.32.14 3.22 3.22 0 0 0-1.1.47 2.43 2.43 0 0 0-.77.86 2.94 2.94 0 0 0-.32 1.3h1.36a1.39 1.39 0 0 1 .62-1.24 2.88 2.88 0 0 1 1.44-.33 4.47 4.47 0 0 1 .65 0 1.76 1.76 0 0 1 .59.19 1.15 1.15 0 0 1 .43.42 1.36 1.36 0 0 1 .17.72.74.74 0 0 1-.22.58 1.48 1.48 0 0 1-.61.3 5.9 5.9 0 0 1-.89.16q-.5.06-1.06.17t-1 .24a2.9 2.9 0 0 0-.9.42 2.09 2.09 0 0 0-.63.73 2.43 2.43 0 0 0-.24 1.15 2.4 2.4 0 0 0 .22 1.06 1.92 1.92 0 0 0 .58.71 2.47 2.47 0 0 0 .87.4 4.5 4.5 0 0 0 2.67-.17 3.25 3.25 0 0 0 1.3-1 1.29 1.29 0 0 0 .31 1 1.17 1.17 0 0 0 .84.3 1.93 1.93 0 0 0 1-.21v-1.06zm-2.21-1.8a1.52 1.52 0 0 1-.14.61 1.83 1.83 0 0 1-.45.6 2.42 2.42 0 0 1-.78.46 3.24 3.24 0 0 1-1.08.18 2.81 2.81 0 0 1-.61-.06 1.48 1.48 0 0 1-.5-.21 1.13 1.13 0 0 1-.35-.37 1.1 1.1 0 0 1-.14-.57 1.27 1.27 0 0 1 .23-.8 1.51 1.51 0 0 1 .6-.45 3.4 3.4 0 0 1 .83-.23l.92-.13q.46-.06.87-.14a1.7 1.7 0 0 0 .67-.28v1.39zm10.32-5.39h-1.44l-2.32 6.77-2.42-6.77h-1.54l3.28 8.22-.56 1.39a1.23 1.23 0 0 1-.42.57 1.17 1.17 0 0 1-.7.2 1.72 1.72 0 0 1-.39-.06 2.3 2.3 0 0 1-.41-.14v1.25a2.28 2.28 0 0 0 .46.11 3.64 3.64 0 0 0 .48 0 2.4 2.4 0 0 0 .79-.12 1.74 1.74 0 0 0 .62-.38 2.81 2.81 0 0 0 .51-.68 8.69 8.69 0 0 0 .47-1l3.6-9.38zm2.34 5.48a2.79 2.79 0 0 0 .55 1 2.39 2.39 0 0 0 .82.6 2.51 2.51 0 0 0 2 0 2.39 2.39 0 0 0 .82-.6 2.8 2.8 0 0 0 .55-1 4.56 4.56 0 0 0 0-2.67 2.89 2.89 0 0 0-.55-1 2.36 2.36 0 0 0-.82-.61 2.51 2.51 0 0 0-2 0 2.35 2.35 0 0 0-.82.61 2.88 2.88 0 0 0-.55 1 4.56 4.56 0 0 0 0 2.67zm-1.38-3a3.86 3.86 0 0 1 .77-1.38 3.62 3.62 0 0 1 1.26-.92 4.63 4.63 0 0 1 3.46 0 3.64 3.64 0 0 1 1.26.92 3.86 3.86 0 0 1 .77 1.38 5.51 5.51 0 0 1 .26 1.7 5.44 5.44 0 0 1-.26 1.7 3.87 3.87 0 0 1-.77 1.37 3.55 3.55 0 0 1-1.26.91 4.74 4.74 0 0 1-3.46 0 3.53 3.53 0 0 1-1.26-.91 3.87 3.87 0 0 1-.77-1.37 5.43 5.43 0 0 1-.26-1.7 5.51 5.51 0 0 1 .26-1.7zm15.01 5.76v-1.31a2.78 2.78 0 0 1-1.1 1.13 3.31 3.31 0 0 1-1.58.36 3.71 3.71 0 0 1-1.36-.22 2.17 2.17 0 0 1-.88-.62 2.32 2.32 0 0 1-.47-1 5.12 5.12 0 0 1-.14-1.22v-5.44h1.36v5.6a1.64 1.64 0 0 0 .45 1.22 1.66 1.66 0 0 0 1.23.45 2.77 2.77 0 0 0 1.08-.19 2 2 0 0 0 .76-.54 2.35 2.35 0 0 0 .46-.82 3.35 3.35 0 0 0 .15-1v-4.67h1.3V311zm6.86-8.27V304H401v5.14a1.48 1.48 0 0 0 0 .38.39.39 0 0 0 .15.22.67.67 0 0 0 .31.1h1.14V311h-1a4.88 4.88 0 0 1-.9-.07 1.33 1.33 0 0 1-.61-.26 1.13 1.13 0 0 1-.34-.54 3.14 3.14 0 0 1-.11-.93V304h-1.41v-1.2h1.41v-2.48H401v2.48z"/><path class="cls-7" d="M55.38 357.5h188a5 5 0 0 1 5 5V452a5 5 0 0 1-5 5h-188a5 5 0 0 1-5-5v-89.5a5 5 0 0 1 5-5zm0 0"/><path d="M104.33 403.22a3.53 3.53 0 0 0-2.07-.61 3.71 3.71 0 0 0-1.75.38 3.46 3.46 0 0 0-1.2 1 4.45 4.45 0 0 0-.7 1.48 6.61 6.61 0 0 0-.22 1.73 7.39 7.39 0 0 0 .22 1.85 4.42 4.42 0 0 0 .7 1.52 3.43 3.43 0 0 0 1.21 1 3.76 3.76 0 0 0 1.76.38 3.39 3.39 0 0 0 1.34-.25 3 3 0 0 0 1-.69 3.17 3.17 0 0 0 .66-1 4.36 4.36 0 0 0 .29-1.31h1.52a5.19 5.19 0 0 1-1.49 3.36 4.81 4.81 0 0 1-3.46 1.2 5.51 5.51 0 0 1-2.32-.46 4.55 4.55 0 0 1-1.65-1.26 5.39 5.39 0 0 1-1-1.89 8.05 8.05 0 0 1-.33-2.34 7.62 7.62 0 0 1 .35-2.34 5.64 5.64 0 0 1 1-1.91 4.81 4.81 0 0 1 1.7-1.29 5.47 5.47 0 0 1 2.33-.47 5.87 5.87 0 0 1 1.7.24 4.56 4.56 0 0 1 1.42.7 4 4 0 0 1 1 1.16 4.25 4.25 0 0 1 .66 1.6h-1.52a2.83 2.83 0 0 0-1.13-1.82zm10 9.81v-1.31a2.78 2.78 0 0 1-1.1 1.13 3.31 3.31 0 0 1-1.58.36 3.71 3.71 0 0 1-1.36-.22 2.17 2.17 0 0 1-.88-.62 2.31 2.31 0 0 1-.47-1 5.11 5.11 0 0 1-.14-1.22v-5.44h1.36v5.6a1.64 1.64 0 0 0 .45 1.22 1.66 1.66 0 0 0 1.23.45 2.77 2.77 0 0 0 1.08-.19 2 2 0 0 0 .76-.54 2.35 2.35 0 0 0 .46-.82 3.35 3.35 0 0 0 .15-1v-4.67h1.36V413zm4.56-8.27v1.74a3.68 3.68 0 0 1 1.22-1.49 3.06 3.06 0 0 1 1.82-.45V406a3.85 3.85 0 0 0-1.39.22 2.19 2.19 0 0 0-.93.66 2.71 2.71 0 0 0-.51 1 5.65 5.65 0 0 0-.16 1.42v3.7h-1.34v-8.27zm5.33 0v1.74a3.68 3.68 0 0 1 1.22-1.49 3.06 3.06 0 0 1 1.82-.45V406a3.85 3.85 0 0 0-1.39.22 2.19 2.19 0 0 0-.93.66 2.71 2.71 0 0 0-.51 1 5.65 5.65 0 0 0-.16 1.42v3.7h-1.36v-8.27zm9.33 2.43a2.33 2.33 0 0 0-.5-.74 2.36 2.36 0 0 0-.74-.5 2.33 2.33 0 0 0-.94-.18 2.37 2.37 0 0 0-1 .18 2.2 2.2 0 0 0-.73.5 2.41 2.41 0 0 0-.48.74 2.83 2.83 0 0 0-.21.9h4.75a2.79 2.79 0 0 0-.22-.91zm.33 5.31a3.75 3.75 0 0 1-2.34.7 4.25 4.25 0 0 1-1.72-.32 3.39 3.39 0 0 1-1.22-.9 3.8 3.8 0 0 1-.74-1.38 6.62 6.62 0 0 1-.28-1.74 5 5 0 0 1 .29-1.73 4.13 4.13 0 0 1 .81-1.36 3.67 3.67 0 0 1 1.23-.9 3.76 3.76 0 0 1 1.56-.32 3.39 3.39 0 0 1 1.83.46 3.63 3.63 0 0 1 1.17 1.16 4.59 4.59 0 0 1 .61 1.54 6.59 6.59 0 0 1 .14 1.58H129a3.28 3.28 0 0 0 .13 1 2.33 2.33 0 0 0 .46.86 2.29 2.29 0 0 0 .82.6 2.81 2.81 0 0 0 1.17.22 2.35 2.35 0 0 0 1.42-.4 1.93 1.93 0 0 0 .73-1.22h1.34a3.31 3.31 0 0 1-1.2 2.1zm4-7.74v1.31a2.86 2.86 0 0 1 2.69-1.5 3.59 3.59 0 0 1 1.36.22 2.24 2.24 0 0 1 .88.62 2.32 2.32 0 0 1 .47 1 5.13 5.13 0 0 1 .14 1.22V413h-1.32v-5.6a1.64 1.64 0 0 0-.45-1.22 1.67 1.67 0 0 0-1.23-.45 2.77 2.77 0 0 0-1.08.19 2 2 0 0 0-.76.54 2.34 2.34 0 0 0-.46.82 3.35 3.35 0 0 0-.15 1V413h-1.36v-8.27zm11.15 0V406h-1.63v5.14a1.48 1.48 0 0 0 0 .38.39.39 0 0 0 .15.22.67.67 0 0 0 .31.1H149V413h-1a4.88 4.88 0 0 1-.9-.07 1.33 1.33 0 0 1-.61-.26 1.13 1.13 0 0 1-.34-.54 3.14 3.14 0 0 1-.11-.93V406h-1.41v-1.2H146v-2.48h1.36v2.48zm7.7-3.15v10.14h6V413h-7.57v-11.4zm14.48 10.34a1.65 1.65 0 0 1-.42.06q-.32 0-.38-.22a3.16 3.16 0 0 1-.06-.7v-4.25a2.22 2.22 0 0 0-.27-1.17 1.92 1.92 0 0 0-.72-.69 2.91 2.91 0 0 0-1-.33 7.76 7.76 0 0 0-1.11-.08 5.79 5.79 0 0 0-1.32.14 3.22 3.22 0 0 0-1.1.47 2.43 2.43 0 0 0-.77.86 2.94 2.94 0 0 0-.32 1.3h1.36a1.39 1.39 0 0 1 .62-1.24 2.88 2.88 0 0 1 1.44-.33 4.47 4.47 0 0 1 .65 0 1.76 1.76 0 0 1 .59.19 1.15 1.15 0 0 1 .43.42 1.36 1.36 0 0 1 .17.72.74.74 0 0 1-.22.58 1.48 1.48 0 0 1-.61.3 5.9 5.9 0 0 1-.89.16q-.5.06-1.06.17t-1 .24a2.9 2.9 0 0 0-.9.42 2.09 2.09 0 0 0-.63.73 2.43 2.43 0 0 0-.24 1.15 2.4 2.4 0 0 0 .22 1.06 1.92 1.92 0 0 0 .58.71 2.47 2.47 0 0 0 .87.4 4.5 4.5 0 0 0 2.67-.17 3.25 3.25 0 0 0 1.3-1 1.29 1.29 0 0 0 .31 1 1.17 1.17 0 0 0 .84.3 1.93 1.93 0 0 0 1-.21v-1.06zm-2.21-1.8a1.52 1.52 0 0 1-.14.61 1.83 1.83 0 0 1-.45.6 2.43 2.43 0 0 1-.78.46 3.24 3.24 0 0 1-1.15.18 2.81 2.81 0 0 1-.61-.06 1.48 1.48 0 0 1-.5-.21 1.13 1.13 0 0 1-.35-.37 1.1 1.1 0 0 1-.14-.57 1.27 1.27 0 0 1 .23-.8 1.51 1.51 0 0 1 .6-.45 3.4 3.4 0 0 1 .83-.23l.92-.13q.46-.06.87-.14a1.7 1.7 0 0 0 .67-.28v1.39zm10.32-5.39h-1.44l-2.32 6.77-2.42-6.77h-1.54l3.28 8.22-.56 1.39a1.23 1.23 0 0 1-.42.57 1.17 1.17 0 0 1-.7.2 1.72 1.72 0 0 1-.39-.06 2.3 2.3 0 0 1-.41-.14v1.25a2.28 2.28 0 0 0 .46.11 3.64 3.64 0 0 0 .48 0 2.4 2.4 0 0 0 .79-.12 1.74 1.74 0 0 0 .62-.38 2.81 2.81 0 0 0 .51-.68 8.69 8.69 0 0 0 .47-1l3.6-9.38zm2.34 5.48a2.79 2.79 0 0 0 .55 1 2.39 2.39 0 0 0 .82.6 2.51 2.51 0 0 0 2 0 2.39 2.39 0 0 0 .82-.6 2.8 2.8 0 0 0 .55-1 4.56 4.56 0 0 0 0-2.67 2.89 2.89 0 0 0-.55-1 2.36 2.36 0 0 0-.82-.61 2.51 2.51 0 0 0-2 0 2.35 2.35 0 0 0-.82.61 2.88 2.88 0 0 0-.55 1 4.56 4.56 0 0 0 0 2.67zm-1.38-3a3.86 3.86 0 0 1 .77-1.38 3.62 3.62 0 0 1 1.26-.92 4.63 4.63 0 0 1 3.46 0 3.64 3.64 0 0 1 1.26.92 3.86 3.86 0 0 1 .77 1.38 5.51 5.51 0 0 1 .26 1.7 5.44 5.44 0 0 1-.26 1.7 3.87 3.87 0 0 1-.8 1.36 3.55 3.55 0 0 1-1.26.91 4.74 4.74 0 0 1-3.46 0 3.53 3.53 0 0 1-1.26-.91 3.86 3.86 0 0 1-.77-1.37 5.43 5.43 0 0 1-.26-1.7 5.51 5.51 0 0 1 .26-1.7zm14.96 5.76v-1.31a2.78 2.78 0 0 1-1.1 1.13 3.31 3.31 0 0 1-1.58.36 3.71 3.71 0 0 1-1.36-.22 2.17 2.17 0 0 1-.88-.62 2.31 2.31 0 0 1-.47-1 5.11 5.11 0 0 1-.14-1.22v-5.44H191v5.6a1.64 1.64 0 0 0 .45 1.22 1.66 1.66 0 0 0 1.23.45 2.77 2.77 0 0 0 1.08-.19 2 2 0 0 0 .76-.54 2.35 2.35 0 0 0 .46-.82 3.35 3.35 0 0 0 .15-1v-4.67h1.36V413zm6.86-8.27V406h-1.65v5.14a1.48 1.48 0 0 0 0 .38.39.39 0 0 0 .15.22.67.67 0 0 0 .31.1h1.14V413h-1a4.88 4.88 0 0 1-.9-.07 1.33 1.33 0 0 1-.61-.26 1.13 1.13 0 0 1-.34-.54 3.14 3.14 0 0 1-.11-.93V406h-1.41v-1.2h1.41v-2.48h1.36v2.48z"/><path class="cls-7" d="M255.88 357.5h188a5 5 0 0 1 5 5V452a5 5 0 0 1-5 5h-188a5 5 0 0 1-5-5v-89.5a5 5 0 0 1 5-5zm0 0"/><path d="M304.83 403.22a3.53 3.53 0 0 0-2.07-.61 3.71 3.71 0 0 0-1.76.39 3.46 3.46 0 0 0-1.2 1 4.45 4.45 0 0 0-.7 1.48 6.61 6.61 0 0 0-.22 1.73 7.39 7.39 0 0 0 .22 1.85 4.41 4.41 0 0 0 .7 1.52 3.44 3.44 0 0 0 1.21 1 3.76 3.76 0 0 0 1.76.38 3.39 3.39 0 0 0 1.34-.25 3 3 0 0 0 1-.69 3.17 3.17 0 0 0 .66-1 4.36 4.36 0 0 0 .29-1.31h1.52a5.19 5.19 0 0 1-1.49 3.36 4.82 4.82 0 0 1-3.46 1.2 5.51 5.51 0 0 1-2.32-.46 4.55 4.55 0 0 1-1.65-1.26 5.39 5.39 0 0 1-1-1.89 8.05 8.05 0 0 1-.33-2.34 7.62 7.62 0 0 1 .35-2.34 5.64 5.64 0 0 1 1-1.91 4.81 4.81 0 0 1 1.7-1.29 5.47 5.47 0 0 1 2.33-.47 5.87 5.87 0 0 1 1.7.24 4.56 4.56 0 0 1 1.42.7 4 4 0 0 1 1 1.16 4.25 4.25 0 0 1 .54 1.61H306a2.83 2.83 0 0 0-1.13-1.82zm10 9.81v-1.31a2.78 2.78 0 0 1-1.1 1.13 3.31 3.31 0 0 1-1.58.36 3.71 3.71 0 0 1-1.36-.22 2.17 2.17 0 0 1-.88-.62 2.32 2.32 0 0 1-.47-1 5.12 5.12 0 0 1-.14-1.22v-5.44h1.36v5.6a1.64 1.64 0 0 0 .45 1.22 1.66 1.66 0 0 0 1.23.45 2.77 2.77 0 0 0 1.08-.19 2 2 0 0 0 .76-.54 2.35 2.35 0 0 0 .46-.82 3.35 3.35 0 0 0 .15-1v-4.67h1.36V413zm4.56-8.27v1.74a3.68 3.68 0 0 1 1.22-1.49 3.06 3.06 0 0 1 1.82-.45V406a3.85 3.85 0 0 0-1.39.22 2.19 2.19 0 0 0-.93.66 2.71 2.71 0 0 0-.51 1 5.65 5.65 0 0 0-.16 1.42v3.7h-1.34v-8.27zm5.33 0v1.74A3.68 3.68 0 0 1 326 405a3.06 3.06 0 0 1 1.82-.45V406a3.85 3.85 0 0 0-1.39.22 2.19 2.19 0 0 0-.93.66 2.71 2.71 0 0 0-.51 1 5.65 5.65 0 0 0-.16 1.42v3.7h-1.36v-8.27zm9.28 2.43a2.33 2.33 0 0 0-.5-.74 2.36 2.36 0 0 0-.74-.5 2.33 2.33 0 0 0-.94-.18 2.37 2.37 0 0 0-1 .18 2.2 2.2 0 0 0-.73.5 2.41 2.41 0 0 0-.48.74 2.83 2.83 0 0 0-.21.9h4.75a2.79 2.79 0 0 0-.22-.91zm.33 5.31a3.75 3.75 0 0 1-2.34.7 4.25 4.25 0 0 1-1.72-.32 3.39 3.39 0 0 1-1.22-.9 3.8 3.8 0 0 1-.74-1.38 6.62 6.62 0 0 1-.28-1.74 5 5 0 0 1 .29-1.73 4.13 4.13 0 0 1 .81-1.36 3.67 3.67 0 0 1 1.23-.9 3.76 3.76 0 0 1 1.56-.32 3.39 3.39 0 0 1 1.83.46 3.63 3.63 0 0 1 1.17 1.16 4.59 4.59 0 0 1 .61 1.54 6.59 6.59 0 0 1 .14 1.58h-6.19a3.28 3.28 0 0 0 .13 1 2.33 2.33 0 0 0 .46.86 2.29 2.29 0 0 0 .82.6 2.81 2.81 0 0 0 1.17.22 2.35 2.35 0 0 0 1.42-.4 1.93 1.93 0 0 0 .73-1.22h1.34a3.31 3.31 0 0 1-1.2 2.1zm4-7.74v1.31a2.86 2.86 0 0 1 2.69-1.5 3.59 3.59 0 0 1 1.36.22 2.24 2.24 0 0 1 .88.62 2.32 2.32 0 0 1 .47 1 5.13 5.13 0 0 1 .14 1.22V413h-1.27v-5.6a1.64 1.64 0 0 0-.45-1.22 1.67 1.67 0 0 0-1.23-.45 2.77 2.77 0 0 0-1.08.19 2 2 0 0 0-.76.54 2.34 2.34 0 0 0-.46.82 3.35 3.35 0 0 0-.15 1V413h-1.36v-8.27zm11.15 0V406h-1.58v5.14a1.48 1.48 0 0 0 0 .38.39.39 0 0 0 .15.22.67.67 0 0 0 .31.1h1.14V413h-1a4.88 4.88 0 0 1-.9-.07 1.33 1.33 0 0 1-.61-.26 1.13 1.13 0 0 1-.34-.54 3.14 3.14 0 0 1-.11-.93V406h-1.41v-1.2h1.41v-2.48h1.36v2.48zm7.7-3.15v10.14h6V413h-7.57v-11.4zm14.48 10.34a1.65 1.65 0 0 1-.42.06q-.32 0-.38-.22a3.16 3.16 0 0 1-.06-.7v-4.25a2.22 2.22 0 0 0-.27-1.17 1.92 1.92 0 0 0-.72-.69 2.91 2.91 0 0 0-1-.33 7.76 7.76 0 0 0-1.11-.08 5.79 5.79 0 0 0-1.32.14 3.22 3.22 0 0 0-1.1.47 2.43 2.43 0 0 0-.77.86 2.94 2.94 0 0 0-.32 1.3h1.36a1.39 1.39 0 0 1 .62-1.24 2.88 2.88 0 0 1 1.44-.33 4.47 4.47 0 0 1 .65 0 1.76 1.76 0 0 1 .59.19 1.15 1.15 0 0 1 .43.42 1.36 1.36 0 0 1 .17.72.74.74 0 0 1-.22.58 1.48 1.48 0 0 1-.61.3 5.9 5.9 0 0 1-.89.16q-.5.06-1.06.17t-1 .24a2.9 2.9 0 0 0-.9.42 2.09 2.09 0 0 0-.63.73 2.43 2.43 0 0 0-.24 1.15 2.4 2.4 0 0 0 .22 1.06 1.92 1.92 0 0 0 .58.71 2.47 2.47 0 0 0 .87.4 4.5 4.5 0 0 0 2.67-.17 3.25 3.25 0 0 0 1.3-1 1.29 1.29 0 0 0 .31 1 1.17 1.17 0 0 0 .84.3 1.93 1.93 0 0 0 1-.21v-1.06zm-2.21-1.8a1.52 1.52 0 0 1-.14.61 1.83 1.83 0 0 1-.45.6 2.43 2.43 0 0 1-.78.46 3.24 3.24 0 0 1-1.08.18 2.81 2.81 0 0 1-.61-.06 1.48 1.48 0 0 1-.5-.21 1.13 1.13 0 0 1-.35-.37 1.1 1.1 0 0 1-.14-.57 1.27 1.27 0 0 1 .23-.8 1.51 1.51 0 0 1 .6-.45 3.4 3.4 0 0 1 .83-.23l.92-.13q.46-.06.87-.14a1.7 1.7 0 0 0 .67-.28v1.39zm10.32-5.39h-1.44l-2.32 6.77-2.42-6.77h-1.54l3.28 8.22-.56 1.39a1.23 1.23 0 0 1-.42.57 1.17 1.17 0 0 1-.7.2 1.72 1.72 0 0 1-.39-.06 2.3 2.3 0 0 1-.41-.14v1.25a2.28 2.28 0 0 0 .46.11 3.64 3.64 0 0 0 .48 0 2.4 2.4 0 0 0 .79-.12 1.74 1.74 0 0 0 .62-.38 2.81 2.81 0 0 0 .51-.68 8.69 8.69 0 0 0 .47-1l3.6-9.38zm2.34 5.48a2.79 2.79 0 0 0 .55 1 2.39 2.39 0 0 0 .82.6 2.51 2.51 0 0 0 2 0 2.39 2.39 0 0 0 .82-.6 2.8 2.8 0 0 0 .55-1 4.56 4.56 0 0 0 0-2.67 2.89 2.89 0 0 0-.55-1 2.36 2.36 0 0 0-.82-.61 2.51 2.51 0 0 0-2 0 2.35 2.35 0 0 0-.82.61 2.88 2.88 0 0 0-.55 1 4.56 4.56 0 0 0 0 2.67zm-1.38-3a3.86 3.86 0 0 1 .77-1.38 3.62 3.62 0 0 1 1.26-.92 4.63 4.63 0 0 1 3.46 0 3.64 3.64 0 0 1 1.26.92 3.86 3.86 0 0 1 .77 1.38 5.51 5.51 0 0 1 .26 1.7 5.44 5.44 0 0 1-.26 1.7 3.87 3.87 0 0 1-.77 1.37 3.55 3.55 0 0 1-1.26.91 4.74 4.74 0 0 1-3.46 0 3.53 3.53 0 0 1-1.26-.91 3.87 3.87 0 0 1-.77-1.37 5.43 5.43 0 0 1-.26-1.7 5.51 5.51 0 0 1 .26-1.7zm15.01 5.76v-1.31a2.78 2.78 0 0 1-1.1 1.13 3.31 3.31 0 0 1-1.58.36 3.71 3.71 0 0 1-1.36-.22 2.17 2.17 0 0 1-.88-.62 2.32 2.32 0 0 1-.47-1 5.12 5.12 0 0 1-.14-1.22v-5.44h1.36v5.6a1.64 1.64 0 0 0 .45 1.22 1.66 1.66 0 0 0 1.23.45 2.77 2.77 0 0 0 1.08-.19 2 2 0 0 0 .76-.54 2.35 2.35 0 0 0 .46-.82 3.35 3.35 0 0 0 .15-1v-4.67h1.3V413zm6.86-8.27V406H401v5.14a1.48 1.48 0 0 0 0 .38.39.39 0 0 0 .15.22.67.67 0 0 0 .31.1h1.14V413h-1a4.88 4.88 0 0 1-.9-.07 1.33 1.33 0 0 1-.61-.26 1.13 1.13 0 0 1-.34-.54 3.14 3.14 0 0 1-.11-.93V406h-1.41v-1.2h1.41v-2.48H401v2.48z"/><path class="cls-7" d="M55.38 459.5h188a5 5 0 0 1 5 5V554a5 5 0 0 1-5 5h-188a5 5 0 0 1-5-5v-89.5a5 5 0 0 1 5-5zm0 0"/><path d="M104.33 505.22a3.53 3.53 0 0 0-2.07-.61 3.71 3.71 0 0 0-1.75.38 3.46 3.46 0 0 0-1.2 1 4.45 4.45 0 0 0-.7 1.48 6.61 6.61 0 0 0-.22 1.73 7.39 7.39 0 0 0 .22 1.85 4.42 4.42 0 0 0 .7 1.52 3.43 3.43 0 0 0 1.21 1 3.76 3.76 0 0 0 1.76.38 3.39 3.39 0 0 0 1.34-.25 3 3 0 0 0 1-.69 3.17 3.17 0 0 0 .66-1 4.36 4.36 0 0 0 .29-1.31h1.52a5.19 5.19 0 0 1-1.49 3.36 4.81 4.81 0 0 1-3.46 1.2 5.51 5.51 0 0 1-2.32-.46 4.55 4.55 0 0 1-1.65-1.26 5.39 5.39 0 0 1-1-1.89 8.05 8.05 0 0 1-.33-2.34 7.62 7.62 0 0 1 .35-2.34 5.64 5.64 0 0 1 1-1.91 4.81 4.81 0 0 1 1.7-1.29 5.47 5.47 0 0 1 2.33-.47 5.87 5.87 0 0 1 1.7.24 4.56 4.56 0 0 1 1.42.7 4 4 0 0 1 1 1.16 4.25 4.25 0 0 1 .66 1.6h-1.52a2.83 2.83 0 0 0-1.13-1.82zm10 9.81v-1.31a2.78 2.78 0 0 1-1.1 1.13 3.31 3.31 0 0 1-1.58.36 3.71 3.71 0 0 1-1.36-.22 2.17 2.17 0 0 1-.88-.62 2.31 2.31 0 0 1-.47-1 5.11 5.11 0 0 1-.14-1.22v-5.44h1.36v5.6a1.64 1.64 0 0 0 .45 1.22 1.66 1.66 0 0 0 1.23.45 2.77 2.77 0 0 0 1.08-.19 2 2 0 0 0 .76-.54 2.35 2.35 0 0 0 .46-.82 3.35 3.35 0 0 0 .15-1v-4.67h1.36V515zm4.56-8.27v1.74a3.68 3.68 0 0 1 1.22-1.49 3.06 3.06 0 0 1 1.82-.45V508a3.85 3.85 0 0 0-1.39.22 2.19 2.19 0 0 0-.93.66 2.71 2.71 0 0 0-.51 1 5.65 5.65 0 0 0-.16 1.42v3.7h-1.34v-8.27zm5.33 0v1.74a3.68 3.68 0 0 1 1.22-1.49 3.06 3.06 0 0 1 1.82-.45V508a3.85 3.85 0 0 0-1.39.22 2.19 2.19 0 0 0-.93.66 2.71 2.71 0 0 0-.51 1 5.65 5.65 0 0 0-.16 1.42v3.7h-1.36v-8.27zm9.33 2.43a2.33 2.33 0 0 0-.5-.74 2.36 2.36 0 0 0-.74-.5 2.33 2.33 0 0 0-.94-.18 2.37 2.37 0 0 0-1 .18 2.2 2.2 0 0 0-.73.5 2.41 2.41 0 0 0-.48.74 2.83 2.83 0 0 0-.21.9h4.75a2.79 2.79 0 0 0-.22-.91zm.33 5.31a3.75 3.75 0 0 1-2.34.7 4.25 4.25 0 0 1-1.72-.32 3.39 3.39 0 0 1-1.22-.9 3.8 3.8 0 0 1-.74-1.38 6.62 6.62 0 0 1-.28-1.74 5 5 0 0 1 .29-1.73 4.13 4.13 0 0 1 .81-1.36 3.67 3.67 0 0 1 1.23-.9 3.76 3.76 0 0 1 1.56-.32 3.39 3.39 0 0 1 1.83.46 3.63 3.63 0 0 1 1.17 1.16 4.59 4.59 0 0 1 .61 1.54 6.59 6.59 0 0 1 .14 1.58H129a3.28 3.28 0 0 0 .13 1 2.33 2.33 0 0 0 .46.86 2.29 2.29 0 0 0 .82.6 2.81 2.81 0 0 0 1.17.22 2.35 2.35 0 0 0 1.42-.4 1.93 1.93 0 0 0 .73-1.22h1.34a3.31 3.31 0 0 1-1.2 2.1zm4-7.74v1.31a2.86 2.86 0 0 1 2.69-1.5 3.59 3.59 0 0 1 1.36.22 2.24 2.24 0 0 1 .88.62 2.32 2.32 0 0 1 .47 1 5.13 5.13 0 0 1 .14 1.22V515h-1.32v-5.6a1.64 1.64 0 0 0-.45-1.22 1.67 1.67 0 0 0-1.23-.45 2.77 2.77 0 0 0-1.08.19 2 2 0 0 0-.76.54 2.34 2.34 0 0 0-.46.82 3.35 3.35 0 0 0-.15 1V515h-1.36v-8.27zm11.15 0V508h-1.63v5.14a1.48 1.48 0 0 0 0 .38.39.39 0 0 0 .15.22.67.67 0 0 0 .31.1H149V515h-1a4.88 4.88 0 0 1-.9-.07 1.33 1.33 0 0 1-.61-.26 1.13 1.13 0 0 1-.34-.54 3.14 3.14 0 0 1-.11-.93V508h-1.41v-1.2H146v-2.48h1.36v2.48zm7.7-3.15v10.14h6V515h-7.57v-11.4zm14.48 10.34a1.65 1.65 0 0 1-.42.06q-.32 0-.38-.22a3.16 3.16 0 0 1-.06-.7v-4.25a2.22 2.22 0 0 0-.27-1.17 1.92 1.92 0 0 0-.72-.69 2.91 2.91 0 0 0-1-.33 7.76 7.76 0 0 0-1.11-.08 5.79 5.79 0 0 0-1.32.14 3.22 3.22 0 0 0-1.1.47 2.43 2.43 0 0 0-.77.86 2.94 2.94 0 0 0-.32 1.3h1.36a1.39 1.39 0 0 1 .62-1.24 2.88 2.88 0 0 1 1.44-.33 4.47 4.47 0 0 1 .65 0 1.76 1.76 0 0 1 .59.19 1.15 1.15 0 0 1 .43.42 1.36 1.36 0 0 1 .17.72.74.74 0 0 1-.22.58 1.48 1.48 0 0 1-.61.3 5.9 5.9 0 0 1-.89.16q-.5.06-1.06.17t-1 .24a2.9 2.9 0 0 0-.9.42 2.09 2.09 0 0 0-.63.73 2.43 2.43 0 0 0-.24 1.15 2.4 2.4 0 0 0 .22 1.06 1.92 1.92 0 0 0 .58.71 2.47 2.47 0 0 0 .87.4 4.5 4.5 0 0 0 2.67-.17 3.25 3.25 0 0 0 1.3-1 1.29 1.29 0 0 0 .31 1 1.17 1.17 0 0 0 .84.3 1.93 1.93 0 0 0 1-.21v-1.06zm-2.21-1.8a1.52 1.52 0 0 1-.14.61 1.83 1.83 0 0 1-.45.6 2.43 2.43 0 0 1-.78.46 3.24 3.24 0 0 1-1.15.18 2.81 2.81 0 0 1-.61-.06 1.48 1.48 0 0 1-.5-.21 1.13 1.13 0 0 1-.35-.37 1.1 1.1 0 0 1-.14-.57 1.27 1.27 0 0 1 .23-.8 1.51 1.51 0 0 1 .6-.45 3.4 3.4 0 0 1 .83-.23l.92-.13q.46-.06.87-.14a1.7 1.7 0 0 0 .67-.28v1.39zm10.32-5.39h-1.44l-2.32 6.77-2.42-6.77h-1.54l3.28 8.22-.56 1.39a1.23 1.23 0 0 1-.42.57 1.17 1.17 0 0 1-.7.2 1.72 1.72 0 0 1-.39-.06 2.3 2.3 0 0 1-.41-.14v1.25a2.28 2.28 0 0 0 .46.11 3.64 3.64 0 0 0 .48 0 2.4 2.4 0 0 0 .79-.12 1.74 1.74 0 0 0 .62-.38 2.81 2.81 0 0 0 .51-.68 8.69 8.69 0 0 0 .47-1l3.6-9.38zm2.34 5.48a2.79 2.79 0 0 0 .55 1 2.39 2.39 0 0 0 .82.6 2.51 2.51 0 0 0 2 0 2.39 2.39 0 0 0 .82-.6 2.8 2.8 0 0 0 .55-1 4.56 4.56 0 0 0 0-2.67 2.89 2.89 0 0 0-.55-1 2.36 2.36 0 0 0-.82-.61 2.51 2.51 0 0 0-2 0 2.35 2.35 0 0 0-.82.61 2.88 2.88 0 0 0-.55 1 4.56 4.56 0 0 0 0 2.67zm-1.38-3a3.86 3.86 0 0 1 .77-1.38 3.62 3.62 0 0 1 1.26-.92 4.63 4.63 0 0 1 3.46 0 3.64 3.64 0 0 1 1.26.92 3.86 3.86 0 0 1 .77 1.38 5.51 5.51 0 0 1 .26 1.7 5.44 5.44 0 0 1-.26 1.7 3.87 3.87 0 0 1-.8 1.36 3.55 3.55 0 0 1-1.26.91 4.74 4.74 0 0 1-3.46 0 3.53 3.53 0 0 1-1.26-.91 3.86 3.86 0 0 1-.77-1.37 5.43 5.43 0 0 1-.26-1.7 5.51 5.51 0 0 1 .26-1.7zm14.96 5.76v-1.31a2.78 2.78 0 0 1-1.1 1.13 3.31 3.31 0 0 1-1.58.36 3.71 3.71 0 0 1-1.36-.22 2.17 2.17 0 0 1-.88-.62 2.31 2.31 0 0 1-.47-1 5.11 5.11 0 0 1-.14-1.22v-5.44H191v5.6a1.64 1.64 0 0 0 .45 1.22 1.66 1.66 0 0 0 1.23.45 2.77 2.77 0 0 0 1.08-.19 2 2 0 0 0 .76-.54 2.35 2.35 0 0 0 .46-.82 3.35 3.35 0 0 0 .15-1v-4.67h1.36V515zm6.86-8.27V508h-1.65v5.14a1.48 1.48 0 0 0 0 .38.39.39 0 0 0 .15.22.67.67 0 0 0 .31.1h1.14V515h-1a4.88 4.88 0 0 1-.9-.07 1.33 1.33 0 0 1-.61-.26 1.13 1.13 0 0 1-.34-.54 3.14 3.14 0 0 1-.11-.93V508h-1.41v-1.2h1.41v-2.48h1.36v2.48z"/><path class="cls-7" d="M255.88 459.5h188a5 5 0 0 1 5 5V554a5 5 0 0 1-5 5h-188a5 5 0 0 1-5-5v-89.5a5 5 0 0 1 5-5zm0 0"/><path d="M304.83 505.22a3.53 3.53 0 0 0-2.07-.61 3.71 3.71 0 0 0-1.76.39 3.46 3.46 0 0 0-1.2 1 4.45 4.45 0 0 0-.7 1.48 6.61 6.61 0 0 0-.22 1.73 7.39 7.39 0 0 0 .22 1.85 4.41 4.41 0 0 0 .7 1.52 3.44 3.44 0 0 0 1.21 1 3.76 3.76 0 0 0 1.76.38 3.39 3.39 0 0 0 1.34-.25 3 3 0 0 0 1-.69 3.17 3.17 0 0 0 .66-1 4.36 4.36 0 0 0 .29-1.31h1.52a5.19 5.19 0 0 1-1.49 3.36 4.82 4.82 0 0 1-3.46 1.2 5.51 5.51 0 0 1-2.32-.46 4.55 4.55 0 0 1-1.65-1.26 5.39 5.39 0 0 1-1-1.89 8.05 8.05 0 0 1-.33-2.34 7.62 7.62 0 0 1 .35-2.34 5.64 5.64 0 0 1 1-1.91 4.81 4.81 0 0 1 1.7-1.29 5.47 5.47 0 0 1 2.33-.47 5.87 5.87 0 0 1 1.7.24 4.56 4.56 0 0 1 1.42.7 4 4 0 0 1 1 1.16 4.25 4.25 0 0 1 .54 1.61H306a2.83 2.83 0 0 0-1.13-1.82zm10 9.81v-1.31a2.78 2.78 0 0 1-1.1 1.13 3.31 3.31 0 0 1-1.58.36 3.71 3.71 0 0 1-1.36-.22 2.17 2.17 0 0 1-.88-.62 2.32 2.32 0 0 1-.47-1 5.12 5.12 0 0 1-.14-1.22v-5.44h1.36v5.6a1.64 1.64 0 0 0 .45 1.22 1.66 1.66 0 0 0 1.23.45 2.77 2.77 0 0 0 1.08-.19 2 2 0 0 0 .76-.54 2.35 2.35 0 0 0 .46-.82 3.35 3.35 0 0 0 .15-1v-4.67h1.36V515zm4.56-8.27v1.74a3.68 3.68 0 0 1 1.22-1.49 3.06 3.06 0 0 1 1.82-.45V508a3.85 3.85 0 0 0-1.39.22 2.19 2.19 0 0 0-.93.66 2.71 2.71 0 0 0-.51 1 5.65 5.65 0 0 0-.16 1.42v3.7h-1.34v-8.27zm5.33 0v1.74A3.68 3.68 0 0 1 326 507a3.06 3.06 0 0 1 1.82-.45V508a3.85 3.85 0 0 0-1.39.22 2.19 2.19 0 0 0-.93.66 2.71 2.71 0 0 0-.51 1 5.65 5.65 0 0 0-.16 1.42v3.7h-1.36v-8.27zm9.28 2.43a2.33 2.33 0 0 0-.5-.74 2.36 2.36 0 0 0-.74-.5 2.33 2.33 0 0 0-.94-.18 2.37 2.37 0 0 0-1 .18 2.2 2.2 0 0 0-.73.5 2.41 2.41 0 0 0-.48.74 2.83 2.83 0 0 0-.21.9h4.75a2.79 2.79 0 0 0-.22-.91zm.33 5.31a3.75 3.75 0 0 1-2.34.7 4.25 4.25 0 0 1-1.72-.32 3.39 3.39 0 0 1-1.22-.9 3.8 3.8 0 0 1-.74-1.38 6.62 6.62 0 0 1-.28-1.74 5 5 0 0 1 .29-1.73 4.13 4.13 0 0 1 .81-1.36 3.67 3.67 0 0 1 1.23-.9 3.76 3.76 0 0 1 1.56-.32 3.39 3.39 0 0 1 1.83.46 3.63 3.63 0 0 1 1.17 1.16 4.59 4.59 0 0 1 .61 1.54 6.59 6.59 0 0 1 .14 1.58h-6.19a3.28 3.28 0 0 0 .13 1 2.33 2.33 0 0 0 .46.86 2.29 2.29 0 0 0 .82.6 2.81 2.81 0 0 0 1.17.22 2.35 2.35 0 0 0 1.42-.4 1.93 1.93 0 0 0 .73-1.22h1.34a3.31 3.31 0 0 1-1.2 2.1zm4-7.74v1.31a2.86 2.86 0 0 1 2.69-1.5 3.59 3.59 0 0 1 1.36.22 2.24 2.24 0 0 1 .88.62 2.32 2.32 0 0 1 .47 1 5.13 5.13 0 0 1 .14 1.22V515h-1.27v-5.6a1.64 1.64 0 0 0-.45-1.22 1.67 1.67 0 0 0-1.23-.45 2.77 2.77 0 0 0-1.08.19 2 2 0 0 0-.76.54 2.34 2.34 0 0 0-.46.82 3.35 3.35 0 0 0-.15 1V515h-1.36v-8.27zm11.15 0V508h-1.58v5.14a1.48 1.48 0 0 0 0 .38.39.39 0 0 0 .15.22.67.67 0 0 0 .31.1h1.14V515h-1a4.88 4.88 0 0 1-.9-.07 1.33 1.33 0 0 1-.61-.26 1.13 1.13 0 0 1-.34-.54 3.14 3.14 0 0 1-.11-.93V508h-1.41v-1.2h1.41v-2.48h1.36v2.48zm7.7-3.15v10.14h6V515h-7.57v-11.4zm14.48 10.34a1.65 1.65 0 0 1-.42.06q-.32 0-.38-.22a3.16 3.16 0 0 1-.06-.7v-4.25a2.22 2.22 0 0 0-.27-1.17 1.92 1.92 0 0 0-.72-.69 2.91 2.91 0 0 0-1-.33 7.76 7.76 0 0 0-1.11-.08 5.79 5.79 0 0 0-1.32.14 3.22 3.22 0 0 0-1.1.47 2.43 2.43 0 0 0-.77.86 2.94 2.94 0 0 0-.32 1.3h1.36a1.39 1.39 0 0 1 .62-1.24 2.88 2.88 0 0 1 1.44-.33 4.47 4.47 0 0 1 .65 0 1.76 1.76 0 0 1 .59.19 1.15 1.15 0 0 1 .43.42 1.36 1.36 0 0 1 .17.72.74.74 0 0 1-.22.58 1.48 1.48 0 0 1-.61.3 5.9 5.9 0 0 1-.89.16q-.5.06-1.06.17t-1 .24a2.9 2.9 0 0 0-.9.42 2.09 2.09 0 0 0-.63.73 2.43 2.43 0 0 0-.24 1.15 2.4 2.4 0 0 0 .22 1.06 1.92 1.92 0 0 0 .58.71 2.47 2.47 0 0 0 .87.4 4.5 4.5 0 0 0 2.67-.17 3.25 3.25 0 0 0 1.3-1 1.29 1.29 0 0 0 .31 1 1.17 1.17 0 0 0 .84.3 1.93 1.93 0 0 0 1-.21v-1.06zm-2.21-1.8a1.52 1.52 0 0 1-.14.61 1.83 1.83 0 0 1-.45.6 2.43 2.43 0 0 1-.78.46 3.24 3.24 0 0 1-1.08.18 2.81 2.81 0 0 1-.61-.06 1.48 1.48 0 0 1-.5-.21 1.13 1.13 0 0 1-.35-.37 1.1 1.1 0 0 1-.14-.57 1.27 1.27 0 0 1 .23-.8 1.51 1.51 0 0 1 .6-.45 3.4 3.4 0 0 1 .83-.23l.92-.13q.46-.06.87-.14a1.7 1.7 0 0 0 .67-.28v1.39zm10.32-5.39h-1.44l-2.32 6.77-2.42-6.77h-1.54l3.28 8.22-.56 1.39a1.23 1.23 0 0 1-.42.57 1.17 1.17 0 0 1-.7.2 1.72 1.72 0 0 1-.39-.06 2.3 2.3 0 0 1-.41-.14v1.25a2.28 2.28 0 0 0 .46.11 3.64 3.64 0 0 0 .48 0 2.4 2.4 0 0 0 .79-.12 1.74 1.74 0 0 0 .62-.38 2.81 2.81 0 0 0 .51-.68 8.69 8.69 0 0 0 .47-1l3.6-9.38zm2.34 5.48a2.79 2.79 0 0 0 .55 1 2.39 2.39 0 0 0 .82.6 2.51 2.51 0 0 0 2 0 2.39 2.39 0 0 0 .82-.6 2.8 2.8 0 0 0 .55-1 4.56 4.56 0 0 0 0-2.67 2.89 2.89 0 0 0-.55-1 2.36 2.36 0 0 0-.82-.61 2.51 2.51 0 0 0-2 0 2.35 2.35 0 0 0-.82.61 2.88 2.88 0 0 0-.55 1 4.56 4.56 0 0 0 0 2.67zm-1.38-3a3.86 3.86 0 0 1 .77-1.38 3.62 3.62 0 0 1 1.26-.92 4.63 4.63 0 0 1 3.46 0 3.64 3.64 0 0 1 1.26.92 3.86 3.86 0 0 1 .77 1.38 5.51 5.51 0 0 1 .26 1.7 5.44 5.44 0 0 1-.26 1.7 3.87 3.87 0 0 1-.77 1.37 3.55 3.55 0 0 1-1.26.91 4.74 4.74 0 0 1-3.46 0 3.53 3.53 0 0 1-1.26-.91 3.87 3.87 0 0 1-.77-1.37 5.43 5.43 0 0 1-.26-1.7 5.51 5.51 0 0 1 .26-1.7zm15.01 5.76v-1.31a2.78 2.78 0 0 1-1.1 1.13 3.31 3.31 0 0 1-1.58.36 3.71 3.71 0 0 1-1.36-.22 2.17 2.17 0 0 1-.88-.62 2.32 2.32 0 0 1-.47-1 5.12 5.12 0 0 1-.14-1.22v-5.44h1.36v5.6a1.64 1.64 0 0 0 .45 1.22 1.66 1.66 0 0 0 1.23.45 2.77 2.77 0 0 0 1.08-.19 2 2 0 0 0 .76-.54 2.35 2.35 0 0 0 .46-.82 3.35 3.35 0 0 0 .15-1v-4.67h1.3V515zm6.86-8.27V508H401v5.14a1.48 1.48 0 0 0 0 .38.39.39 0 0 0 .15.22.67.67 0 0 0 .31.1h1.14V515h-1a4.88 4.88 0 0 1-.9-.07 1.33 1.33 0 0 1-.61-.26 1.13 1.13 0 0 1-.34-.54 3.14 3.14 0 0 1-.11-.93V508h-1.41v-1.2h1.41v-2.48H401v2.48z"/><g class="cls-2"><path class="cls-9" d="M568.38 153.5h188a5 5 0 0 1 5 5V248a5 5 0 0 1-5 5h-188a5 5 0 0 1-5-5v-89.5a5 5 0 0 1 5-5zm0 0"/></g><path d="M625.48 199.22a3.53 3.53 0 0 0-2.07-.61 3.71 3.71 0 0 0-1.75.38 3.46 3.46 0 0 0-1.2 1 4.45 4.45 0 0 0-.7 1.48 6.61 6.61 0 0 0-.22 1.73 7.39 7.39 0 0 0 .22 1.85 4.42 4.42 0 0 0 .7 1.52 3.44 3.44 0 0 0 1.21 1 3.76 3.76 0 0 0 1.76.38 3.39 3.39 0 0 0 1.34-.25 3 3 0 0 0 1-.69 3.17 3.17 0 0 0 .66-1 4.36 4.36 0 0 0 .29-1.31h1.52a5.19 5.19 0 0 1-1.49 3.36 4.82 4.82 0 0 1-3.46 1.2 5.51 5.51 0 0 1-2.32-.46 4.55 4.55 0 0 1-1.65-1.26 5.39 5.39 0 0 1-1-1.89 8.05 8.05 0 0 1-.33-2.34 7.62 7.62 0 0 1 .35-2.34 5.64 5.64 0 0 1 1-1.91 4.81 4.81 0 0 1 1.7-1.29 5.47 5.47 0 0 1 2.33-.47 5.87 5.87 0 0 1 1.7.24 4.56 4.56 0 0 1 1.42.7 4 4 0 0 1 1 1.16 4.25 4.25 0 0 1 .54 1.61h-1.52a2.83 2.83 0 0 0-1.13-1.82zm5.78-1.62v4.4a1.81 1.81 0 0 1 .45-.65 2.55 2.55 0 0 1 .65-.43 3.37 3.37 0 0 1 .75-.25 3.8 3.8 0 0 1 .76-.08 3.59 3.59 0 0 1 1.36.22 2.24 2.24 0 0 1 .88.62 2.32 2.32 0 0 1 .47 1 5.13 5.13 0 0 1 .14 1.22V209h-1.32v-5.6a1.64 1.64 0 0 0-.45-1.22 1.67 1.67 0 0 0-1.23-.45 2.77 2.77 0 0 0-1.08.19 2 2 0 0 0-.76.54 2.34 2.34 0 0 0-.46.82 3.35 3.35 0 0 0-.15 1V209h-1.36v-11.4zm7.62 1.66v-1.66h1.36v1.66zm1.36 1.49V209h-1.36v-8.27zm3.55-3.15V209h-1.36v-11.4zm3.26 8.49a3 3 0 0 0 .46 1 2.27 2.27 0 0 0 .8.69 2.43 2.43 0 0 0 1.14.26 2.25 2.25 0 0 0 2-1 3 3 0 0 0 .44-1 4.84 4.84 0 0 0 0-2.31 2.91 2.91 0 0 0-.46-1 2.33 2.33 0 0 0-.81-.7 2.52 2.52 0 0 0-1.2-.26 2.34 2.34 0 0 0-1.17.27 2.17 2.17 0 0 0-.77.72 3.13 3.13 0 0 0-.42 1 5.43 5.43 0 0 0-.13 1.18 4.22 4.22 0 0 0 .15 1.13zm4.89 2.94v-1.12a2 2 0 0 1-1.06 1 4 4 0 0 1-1.58.3 3.73 3.73 0 0 1-1.67-.35 3.44 3.44 0 0 1-1.18-.94 4.11 4.11 0 0 1-.71-1.38 5.65 5.65 0 0 1-.24-1.66 5.83 5.83 0 0 1 .23-1.66 3.91 3.91 0 0 1 .7-1.37 3.4 3.4 0 0 1 1.18-.93 3.77 3.77 0 0 1 1.66-.34 4 4 0 0 1 .69.06 3.51 3.51 0 0 1 .74.22 3.15 3.15 0 0 1 .7.4 2.2 2.2 0 0 1 .55.62v-4.28h1.36V209zm9.65-11.42v10.14h6V209h-7.57v-11.4zm14.48 10.34a1.65 1.65 0 0 1-.42.06q-.32 0-.38-.22a3.16 3.16 0 0 1-.06-.7v-4.25a2.22 2.22 0 0 0-.27-1.17 1.92 1.92 0 0 0-.72-.69 2.91 2.91 0 0 0-1-.33 7.76 7.76 0 0 0-1.11-.08 5.79 5.79 0 0 0-1.32.14 3.22 3.22 0 0 0-1.1.47 2.43 2.43 0 0 0-.77.86 2.94 2.94 0 0 0-.32 1.3h1.4a1.39 1.39 0 0 1 .62-1.24 2.88 2.88 0 0 1 1.44-.33 4.47 4.47 0 0 1 .65 0 1.76 1.76 0 0 1 .59.19 1.15 1.15 0 0 1 .43.42 1.36 1.36 0 0 1 .17.72.74.74 0 0 1-.22.58 1.48 1.48 0 0 1-.61.3 5.9 5.9 0 0 1-.89.16q-.5.06-1.06.17t-1 .24a2.9 2.9 0 0 0-.9.42 2.09 2.09 0 0 0-.63.73 2.43 2.43 0 0 0-.24 1.15 2.4 2.4 0 0 0 .22 1.06 1.92 1.92 0 0 0 .58.71 2.47 2.47 0 0 0 .87.4 4.5 4.5 0 0 0 2.67-.17 3.25 3.25 0 0 0 1.3-1 1.29 1.29 0 0 0 .31 1 1.17 1.17 0 0 0 .84.3 1.93 1.93 0 0 0 1-.21v-1.06zm-2.21-1.8a1.52 1.52 0 0 1-.14.61 1.83 1.83 0 0 1-.45.61 2.43 2.43 0 0 1-.78.46 3.24 3.24 0 0 1-1.15.18 2.81 2.81 0 0 1-.61-.06 1.48 1.48 0 0 1-.5-.21 1.13 1.13 0 0 1-.35-.37 1.1 1.1 0 0 1-.14-.57 1.27 1.27 0 0 1 .23-.8 1.51 1.51 0 0 1 .6-.45 3.4 3.4 0 0 1 .83-.23l.92-.13q.46-.06.87-.14a1.7 1.7 0 0 0 .67-.28v1.39zm10.32-5.39h-1.44l-2.32 6.77-2.42-6.78h-1.54l3.28 8.22-.56 1.39a1.23 1.23 0 0 1-.42.57 1.17 1.17 0 0 1-.7.2 1.72 1.72 0 0 1-.39-.06 2.3 2.3 0 0 1-.41-.14v1.25a2.28 2.28 0 0 0 .46.11 3.64 3.64 0 0 0 .48 0 2.4 2.4 0 0 0 .79-.12 1.74 1.74 0 0 0 .62-.38 2.81 2.81 0 0 0 .51-.68 8.68 8.68 0 0 0 .47-1l3.6-9.38zm2.34 5.48a2.79 2.79 0 0 0 .55 1 2.39 2.39 0 0 0 .82.6 2.51 2.51 0 0 0 2 0 2.39 2.39 0 0 0 .82-.6 2.8 2.8 0 0 0 .55-1 4.56 4.56 0 0 0 0-2.67 2.89 2.89 0 0 0-.55-1 2.36 2.36 0 0 0-.82-.61 2.51 2.51 0 0 0-2 0 2.35 2.35 0 0 0-.82.61 2.88 2.88 0 0 0-.55 1 4.56 4.56 0 0 0 0 2.67zm-1.38-3a3.86 3.86 0 0 1 .77-1.38 3.62 3.62 0 0 1 1.26-.92 4.63 4.63 0 0 1 3.46 0 3.64 3.64 0 0 1 1.26.92 3.86 3.86 0 0 1 .77 1.38 5.51 5.51 0 0 1 .26 1.7 5.44 5.44 0 0 1-.26 1.7 3.87 3.87 0 0 1-.77 1.37 3.55 3.55 0 0 1-1.26.91 4.74 4.74 0 0 1-3.46 0 3.53 3.53 0 0 1-1.26-.91 3.87 3.87 0 0 1-.77-1.37 5.43 5.43 0 0 1-.26-1.7 5.51 5.51 0 0 1 .26-1.7zm14.94 5.76v-1.31a2.78 2.78 0 0 1-1.1 1.13 3.31 3.31 0 0 1-1.58.36 3.71 3.71 0 0 1-1.4-.18 2.17 2.17 0 0 1-.88-.62 2.32 2.32 0 0 1-.47-1 5.12 5.12 0 0 1-.14-1.22v-5.44h1.36v5.6a1.64 1.64 0 0 0 .45 1.22 1.66 1.66 0 0 0 1.23.45 2.77 2.77 0 0 0 1.08-.19 2 2 0 0 0 .76-.54 2.35 2.35 0 0 0 .46-.82 3.35 3.35 0 0 0 .15-1v-4.67h1.36V209zm6.86-8.27V202h-1.64v5.14a1.48 1.48 0 0 0 0 .38.39.39 0 0 0 .15.22.67.67 0 0 0 .31.1h1.14V209h-1a4.88 4.88 0 0 1-.9-.07 1.33 1.33 0 0 1-.61-.26 1.13 1.13 0 0 1-.34-.54 3.14 3.14 0 0 1-.11-.93V202h-1.41v-1.2h1.41v-2.48h1.36v2.48z"/><path class="cls-4" d="M449.38 203.25h103.6"/><path d="M561 203.25l-8-3v6zm0 0"/><path class="cls-10" d="M561 203.25l-8-3v6zm0 0"/><g class="cls-2"><path class="cls-11" d="M568.38 319h188a5 5 0 0 1 5 5v54.5a5 5 0 0 1-5 5h-188a5 5 0 0 1-5-5V324a5 5 0 0 1 5-5zm0 0"/></g><text class="cls-6" transform="translate(609.58 357.25)">LayoutChild</text><g class="cls-2"><path class="cls-12" d="M568.38 1.5h188a5 5 0 0 1 5 5V61a5 5 0 0 1-5 5h-188a5 5 0 0 1-5-5V6.5a5 5 0 0 1 5-5zm0 0"/></g><text class="cls-6" transform="translate(609.58 39.75)">LayoutEdges</text><path class="cls-13" d="M605.13 449.5h114.5a5 5 0 0 1 5 5V509a5 5 0 0 1-5 5h-114.5a5 5 0 0 1-5-5v-54.5a5 5 0 0 1 5-5zm0 0"/><text class="cls-6" transform="translate(623.98 487.74)">Fragment</text><path class="cls-4" d="M662.38 253.5v55.1"/><path d="M662.38 316.6l3-8h-6zm0 0"/><path class="cls-10" d="M662.38 316.6l3-8h-6zm0 0"/><path class="cls-4" d="M662.38 384v55.1"/><path d="M662.38 447.1l3-8h-6zm0 0"/><path class="cls-10" d="M662.38 447.1l3-8h-6zm0 0"/><path class="cls-4" d="M475.88 154.6l127.65-82.72"/><path d="M610.24 67.53l-8.35 1.83 3.26 5zm0 0"/><path class="cls-10" d="M610.24 67.53l-8.35 1.83 3.26 5zm0 0"/></svg>