<svg id="Layer_1" data-name="Layer 1" xmlns="http://www.w3.org/2000/svg" xmlns:xlink="http://www.w3.org/1999/xlink" viewBox="0 0 1001.38 615"><defs><style>.cls-1,.cls-10,.cls-3,.cls-4,.cls-6,.cls-7,.cls-8,.cls-9{fill:none;}.cls-2{clip-path:url(#clip-path);}.cls-3,.cls-8{stroke:#000;}.cls-10,.cls-3,.cls-4,.cls-6,.cls-7,.cls-9{stroke-linecap:round;stroke-linejoin:round;}.cls-4{stroke:#ff5050;stroke-dasharray:8 8;}.cls-10,.cls-4,.cls-6,.cls-7,.cls-9{stroke-width:2px;}.cls-5{font-size:16px;font-family:SourceCodePro-Regular, Source Code Pro;}.cls-6{stroke:#ff3eff;}.cls-10,.cls-7,.cls-9{stroke:#ff9200;}.cls-8{stroke-miterlimit:10;}.cls-9{stroke-dasharray:40 10 8 10;}.cls-10{stroke-dasharray:40 10 8 10 8 10;}</style><clipPath id="clip-path"><rect class="cls-1" width="1001.38" height="615"/></clipPath></defs><title>Artboard 1</title><g class="cls-2"><path class="cls-3" d="M.38.5h475v614H.38Zm0,0"/></g><path d="M193.83,14.55a2.71,2.71,0,0,0,1.9-.53,2,2,0,0,0,.6-1.57,2,2,0,0,0-.6-1.56,2.8,2.8,0,0,0-1.9-.54h-3v4.19Zm.51-5.47A3.55,3.55,0,0,1,197,10a3.36,3.36,0,0,1,.89,2.49,3.39,3.39,0,0,1-.89,2.5,3.48,3.48,0,0,1-2.62.88h-3.49V20.5h-1.52V9.08Zm12.46,10.34a1.64,1.64,0,0,1-.42.06q-.32,0-.38-.22a3.16,3.16,0,0,1-.06-.7V14.3a2.22,2.22,0,0,0-.27-1.17,1.92,1.92,0,0,0-.72-.69,2.91,2.91,0,0,0-1-.33,7.75,7.75,0,0,0-1.11-.08,5.79,5.79,0,0,0-1.32.14,3.22,3.22,0,0,0-1.1.47,2.43,2.43,0,0,0-.77.86,2.94,2.94,0,0,0-.32,1.3h1.36a1.39,1.39,0,0,1,.62-1.24,2.88,2.88,0,0,1,1.44-.33,4.47,4.47,0,0,1,.65,0,1.76,1.76,0,0,1,.59.19,1.15,1.15,0,0,1,.43.42,1.36,1.36,0,0,1,.17.72.74.74,0,0,1-.22.58,1.48,1.48,0,0,1-.61.3,5.9,5.9,0,0,1-.89.16q-.5.06-1.06.17t-1,.24a2.9,2.9,0,0,0-.9.42,2.09,2.09,0,0,0-.63.73,2.43,2.43,0,0,0-.24,1.15,2.4,2.4,0,0,0,.22,1.06,1.92,1.92,0,0,0,.58.71,2.47,2.47,0,0,0,.87.4,4.5,4.5,0,0,0,2.67-.17,3.25,3.25,0,0,0,1.3-1,1.29,1.29,0,0,0,.31,1,1.17,1.17,0,0,0,.84.3,1.93,1.93,0,0,0,1-.21V19.41Zm-2.21-1.8a1.52,1.52,0,0,1-.14.61,1.83,1.83,0,0,1-.45.6,2.42,2.42,0,0,1-.78.46,3.24,3.24,0,0,1-1.15.18,2.8,2.8,0,0,1-.61-.06,1.48,1.48,0,0,1-.5-.21,1.13,1.13,0,0,1-.35-.37,1.1,1.1,0,0,1-.14-.57,1.27,1.27,0,0,1,.23-.8,1.51,1.51,0,0,1,.6-.45,3.4,3.4,0,0,1,.83-.23l.92-.13q.46-.06.87-.14a1.7,1.7,0,0,0,.67-.28v1.39Zm4.7-5.39V14h0a3.68,3.68,0,0,1,1.22-1.49,3.06,3.06,0,0,1,1.82-.45v1.44a3.85,3.85,0,0,0-1.39.22,2.19,2.19,0,0,0-.93.66,2.71,2.71,0,0,0-.51,1,5.65,5.65,0,0,0-.16,1.42V20.5H208V12.23Z"/><path d="M218.64,14.66a2.33,2.33,0,0,0-.5-.74,2.36,2.36,0,0,0-.74-.5,2.33,2.33,0,0,0-.94-.18,2.37,2.37,0,0,0-1,.18,2.2,2.2,0,0,0-.73.5,2.41,2.41,0,0,0-.48.74,2.83,2.83,0,0,0-.21.9h4.75a2.79,2.79,0,0,0-.22-.91ZM219,20a3.75,3.75,0,0,1-2.34.7,4.25,4.25,0,0,1-1.72-.32,3.39,3.39,0,0,1-1.22-.9,3.8,3.8,0,0,1-.74-1.38,6.62,6.62,0,0,1-.28-1.74,5,5,0,0,1,.29-1.73,4.13,4.13,0,0,1,.81-1.36,3.67,3.67,0,0,1,1.23-.9,3.76,3.76,0,0,1,1.56-.32,3.39,3.39,0,0,1,1.83.46,3.63,3.63,0,0,1,1.17,1.16,4.59,4.59,0,0,1,.61,1.54,6.59,6.59,0,0,1,.14,1.58H214.1a3.28,3.28,0,0,0,.13,1,2.33,2.33,0,0,0,.46.86,2.29,2.29,0,0,0,.82.6,2.81,2.81,0,0,0,1.17.22,2.35,2.35,0,0,0,1.42-.4,1.93,1.93,0,0,0,.73-1.22h1.34A3.31,3.31,0,0,1,219,20Zm4-7.74v1.31h0A2.86,2.86,0,0,1,225.7,12a3.59,3.59,0,0,1,1.36.22,2.24,2.24,0,0,1,.88.62,2.32,2.32,0,0,1,.47,1,5.13,5.13,0,0,1,.14,1.22V20.5h-1.36V14.9a1.64,1.64,0,0,0-.45-1.22,1.67,1.67,0,0,0-1.23-.45,2.77,2.77,0,0,0-1.08.19,2,2,0,0,0-.76.54,2.34,2.34,0,0,0-.46.82,3.35,3.35,0,0,0-.15,1V20.5H221.7V12.23Zm11.15,0v1.2h-1.65v5.14a1.48,1.48,0,0,0,0,.38.39.39,0,0,0,.15.22.67.67,0,0,0,.31.1l.52,0h.62v1.2h-1a4.88,4.88,0,0,1-.9-.07,1.33,1.33,0,0,1-.61-.26,1.13,1.13,0,0,1-.34-.54,3.14,3.14,0,0,1-.11-.93V13.43h-1.41v-1.2h1.41V9.75h1.36v2.48Zm7.7-3.15V19.22h6V20.5h-7.57V9.08Zm14.48,10.34a1.64,1.64,0,0,1-.42.06q-.32,0-.38-.22a3.16,3.16,0,0,1-.06-.7V14.3a2.22,2.22,0,0,0-.27-1.17,1.92,1.92,0,0,0-.72-.69,2.91,2.91,0,0,0-1-.33,7.75,7.75,0,0,0-1.11-.08,5.79,5.79,0,0,0-1.32.14,3.22,3.22,0,0,0-1.1.47,2.43,2.43,0,0,0-.77.86,2.94,2.94,0,0,0-.32,1.3h1.36a1.39,1.39,0,0,1,.62-1.24,2.88,2.88,0,0,1,1.44-.33,4.47,4.47,0,0,1,.65,0,1.76,1.76,0,0,1,.59.19,1.15,1.15,0,0,1,.43.42,1.36,1.36,0,0,1,.17.72.74.74,0,0,1-.22.58,1.48,1.48,0,0,1-.61.3,5.9,5.9,0,0,1-.89.16q-.5.06-1.06.17t-1,.24a2.9,2.9,0,0,0-.9.42,2.09,2.09,0,0,0-.63.73,2.43,2.43,0,0,0-.24,1.15,2.4,2.4,0,0,0,.22,1.06,1.92,1.92,0,0,0,.58.71,2.47,2.47,0,0,0,.87.4,4.5,4.5,0,0,0,2.67-.17,3.25,3.25,0,0,0,1.3-1,1.29,1.29,0,0,0,.31,1,1.17,1.17,0,0,0,.84.3,1.93,1.93,0,0,0,1-.21V19.41Zm-2.21-1.8a1.52,1.52,0,0,1-.14.61,1.83,1.83,0,0,1-.45.6,2.42,2.42,0,0,1-.78.46,3.24,3.24,0,0,1-1.15.18,2.8,2.8,0,0,1-.61-.06,1.48,1.48,0,0,1-.5-.21,1.13,1.13,0,0,1-.35-.37,1.1,1.1,0,0,1-.14-.57,1.27,1.27,0,0,1,.23-.8,1.51,1.51,0,0,1,.6-.45,3.4,3.4,0,0,1,.83-.23l.92-.13q.46-.06.87-.14a1.7,1.7,0,0,0,.67-.28v1.39Zm10.32-5.39H263L260.66,19h0l-2.42-6.77h-1.54L260,20.45l-.56,1.39a1.23,1.23,0,0,1-.42.57,1.17,1.17,0,0,1-.7.2,1.72,1.72,0,0,1-.39-.06,2.3,2.3,0,0,1-.41-.14v1.25a2.28,2.28,0,0,0,.46.11,3.64,3.64,0,0,0,.48,0,2.4,2.4,0,0,0,.79-.12,1.74,1.74,0,0,0,.62-.38,2.81,2.81,0,0,0,.51-.68,8.69,8.69,0,0,0,.47-1l3.6-9.38Zm2.34,5.48a2.79,2.79,0,0,0,.55,1,2.39,2.39,0,0,0,.82.6,2.51,2.51,0,0,0,2,0,2.39,2.39,0,0,0,.82-.6,2.8,2.8,0,0,0,.55-1,4.56,4.56,0,0,0,0-2.67,2.89,2.89,0,0,0-.55-1,2.36,2.36,0,0,0-.82-.61,2.51,2.51,0,0,0-2,0,2.35,2.35,0,0,0-.82.61,2.88,2.88,0,0,0-.55,1,4.56,4.56,0,0,0,0,2.67Zm-1.38-3a3.86,3.86,0,0,1,.77-1.38,3.62,3.62,0,0,1,1.26-.92,4.63,4.63,0,0,1,3.46,0,3.64,3.64,0,0,1,1.26.92,3.86,3.86,0,0,1,.77,1.38,5.51,5.51,0,0,1,.26,1.7,5.44,5.44,0,0,1-.26,1.7,3.87,3.87,0,0,1-.77,1.37,3.55,3.55,0,0,1-1.26.91,4.74,4.74,0,0,1-3.46,0,3.53,3.53,0,0,1-1.26-.91,3.86,3.86,0,0,1-.77-1.37,5.43,5.43,0,0,1-.26-1.7,5.51,5.51,0,0,1,.26-1.7Zm14.94,5.83V19.19h0a2.78,2.78,0,0,1-1.1,1.13,3.31,3.31,0,0,1-1.58.36,3.71,3.71,0,0,1-1.36-.22,2.17,2.17,0,0,1-.88-.62,2.31,2.31,0,0,1-.47-1,5.11,5.11,0,0,1-.14-1.22V12.23h1.36v5.6a1.64,1.64,0,0,0,.45,1.22,1.66,1.66,0,0,0,1.23.45,2.77,2.77,0,0,0,1.08-.19,2,2,0,0,0,.76-.54,2.35,2.35,0,0,0,.46-.82,3.35,3.35,0,0,0,.15-1V12.23h1.36V20.5Zm6.86-8.27v1.2h-1.65v5.14a1.48,1.48,0,0,0,0,.38.39.39,0,0,0,.15.22.67.67,0,0,0,.31.1l.52,0h.62v1.2h-1a4.88,4.88,0,0,1-.9-.07,1.33,1.33,0,0,1-.61-.26,1.13,1.13,0,0,1-.34-.54,3.14,3.14,0,0,1-.11-.93V13.43h-1.41v-1.2h1.41V9.75h1.36v2.48Z"/><path class="cls-4" d="M46.88,114h404.5V594H46.88Zm0,0"/><text class="cls-5" transform="translate(177.13 135)">ConstraintSpace</text><path class="cls-6" d="M54.88,152.5h188a5,5,0,0,1,5,5V247a5,5,0,0,1-5,5h-188a5,5,0,0,1-5-5V157.5a5,5,0,0,1,5-5Zm0,0"/><path d="M103.83,198.22a3.53,3.53,0,0,0-2.07-.61A3.71,3.71,0,0,0,100,198a3.46,3.46,0,0,0-1.2,1,4.45,4.45,0,0,0-.7,1.48,6.61,6.61,0,0,0-.22,1.73,7.39,7.39,0,0,0,.22,1.85,4.42,4.42,0,0,0,.7,1.52,3.43,3.43,0,0,0,1.21,1,3.76,3.76,0,0,0,1.76.38,3.39,3.39,0,0,0,1.34-.25,3,3,0,0,0,1-.69,3.17,3.17,0,0,0,.66-1,4.36,4.36,0,0,0,.29-1.31h1.52a5.19,5.19,0,0,1-1.49,3.36,4.81,4.81,0,0,1-3.46,1.2,5.51,5.51,0,0,1-2.32-.46,4.55,4.55,0,0,1-1.65-1.26,5.39,5.39,0,0,1-1-1.89,8.05,8.05,0,0,1-.33-2.34,7.62,7.62,0,0,1,.35-2.34,5.64,5.64,0,0,1,1-1.91,4.81,4.81,0,0,1,1.7-1.29,5.47,5.47,0,0,1,2.33-.47,5.87,5.87,0,0,1,1.7.24,4.56,4.56,0,0,1,1.42.7,4,4,0,0,1,1,1.16,4.25,4.25,0,0,1,.54,1.61H105a2.83,2.83,0,0,0-1.13-1.82Zm10,9.81v-1.31h0a2.78,2.78,0,0,1-1.1,1.13,3.31,3.31,0,0,1-1.58.36,3.71,3.71,0,0,1-1.36-.22,2.17,2.17,0,0,1-.88-.62,2.32,2.32,0,0,1-.47-1,5.11,5.11,0,0,1-.14-1.22v-5.44h1.36v5.6a1.64,1.64,0,0,0,.45,1.22,1.66,1.66,0,0,0,1.23.45,2.77,2.77,0,0,0,1.08-.19,2,2,0,0,0,.76-.54,2.35,2.35,0,0,0,.46-.82,3.35,3.35,0,0,0,.15-1v-4.67h1.36V208Zm4.56-8.27v1.74h0a3.68,3.68,0,0,1,1.22-1.49,3.06,3.06,0,0,1,1.82-.45V201a3.85,3.85,0,0,0-1.39.22,2.2,2.2,0,0,0-.93.66,2.71,2.71,0,0,0-.51,1,5.65,5.65,0,0,0-.16,1.42V208H117.1v-8.27Zm5.33,0v1.74h0A3.68,3.68,0,0,1,125,200a3.06,3.06,0,0,1,1.82-.45V201a3.85,3.85,0,0,0-1.39.22,2.2,2.2,0,0,0-.93.66,2.71,2.71,0,0,0-.51,1,5.65,5.65,0,0,0-.16,1.42V208h-1.36v-8.27Z"/><path d="M133,202.19a2.33,2.33,0,0,0-.5-.74,2.36,2.36,0,0,0-.74-.5,2.33,2.33,0,0,0-.94-.18,2.37,2.37,0,0,0-1,.18,2.2,2.2,0,0,0-.73.5,2.41,2.41,0,0,0-.48.74,2.83,2.83,0,0,0-.21.9h4.75a2.79,2.79,0,0,0-.22-.91Zm.33,5.31a3.75,3.75,0,0,1-2.34.7,4.25,4.25,0,0,1-1.72-.32,3.39,3.39,0,0,1-1.22-.9,3.8,3.8,0,0,1-.74-1.38,6.62,6.62,0,0,1-.28-1.74,5,5,0,0,1,.29-1.73,4.13,4.13,0,0,1,.81-1.36,3.67,3.67,0,0,1,1.23-.9,3.76,3.76,0,0,1,1.56-.32,3.39,3.39,0,0,1,1.83.46,3.63,3.63,0,0,1,1.17,1.16,4.59,4.59,0,0,1,.61,1.54,6.59,6.59,0,0,1,.14,1.58h-6.19a3.28,3.28,0,0,0,.13,1,2.33,2.33,0,0,0,.46.86,2.29,2.29,0,0,0,.82.6,2.81,2.81,0,0,0,1.17.22,2.35,2.35,0,0,0,1.42-.4,1.93,1.93,0,0,0,.73-1.22h1.34a3.31,3.31,0,0,1-1.2,2.1Zm4-7.74v1.31h0a2.86,2.86,0,0,1,2.69-1.5,3.59,3.59,0,0,1,1.36.22,2.24,2.24,0,0,1,.88.62,2.32,2.32,0,0,1,.47,1,5.13,5.13,0,0,1,.14,1.22V208H141.6v-5.6a1.64,1.64,0,0,0-.45-1.22,1.67,1.67,0,0,0-1.23-.45,2.77,2.77,0,0,0-1.08.19,2,2,0,0,0-.76.54,2.34,2.34,0,0,0-.46.82,3.35,3.35,0,0,0-.15,1V208h-1.36v-8.27Zm11.15,0V201H146.9v5.14a1.48,1.48,0,0,0,0,.38.39.39,0,0,0,.15.22.67.67,0,0,0,.31.1l.52,0h.62V208h-1a4.88,4.88,0,0,1-.9-.07,1.33,1.33,0,0,1-.61-.26,1.13,1.13,0,0,1-.34-.54,3.14,3.14,0,0,1-.11-.93V201h-1.41v-1.2h1.41v-2.48h1.36v2.48Zm7.7-3.15v10.14h6V208h-7.57V196.6Zm14.48,10.34a1.65,1.65,0,0,1-.42.06q-.32,0-.38-.22a3.16,3.16,0,0,1-.06-.7v-4.25a2.22,2.22,0,0,0-.27-1.17,1.92,1.92,0,0,0-.72-.69,2.91,2.91,0,0,0-1-.33,7.76,7.76,0,0,0-1.11-.08,5.79,5.79,0,0,0-1.32.14,3.22,3.22,0,0,0-1.1.47,2.43,2.43,0,0,0-.77.86,2.94,2.94,0,0,0-.32,1.3h1.36a1.39,1.39,0,0,1,.62-1.24,2.88,2.88,0,0,1,1.44-.33,4.47,4.47,0,0,1,.65,0,1.76,1.76,0,0,1,.59.19,1.15,1.15,0,0,1,.43.42,1.36,1.36,0,0,1,.17.72.74.74,0,0,1-.22.58,1.48,1.48,0,0,1-.61.3,5.9,5.9,0,0,1-.89.16q-.5.06-1.06.17t-1,.24a2.9,2.9,0,0,0-.9.42,2.09,2.09,0,0,0-.63.73,2.43,2.43,0,0,0-.24,1.15,2.4,2.4,0,0,0,.22,1.06,1.92,1.92,0,0,0,.58.71,2.47,2.47,0,0,0,.87.4,4.5,4.5,0,0,0,2.67-.17,3.25,3.25,0,0,0,1.3-1,1.29,1.29,0,0,0,.31,1,1.17,1.17,0,0,0,.84.3,1.93,1.93,0,0,0,1-.21v-1.06Zm-2.21-1.8a1.52,1.52,0,0,1-.14.61,1.83,1.83,0,0,1-.45.61,2.43,2.43,0,0,1-.78.46A3.24,3.24,0,0,1,166,207a2.81,2.81,0,0,1-.61-.06,1.48,1.48,0,0,1-.5-.21,1.13,1.13,0,0,1-.35-.37,1.1,1.1,0,0,1-.14-.57,1.27,1.27,0,0,1,.23-.8,1.51,1.51,0,0,1,.6-.45,3.4,3.4,0,0,1,.83-.23l.92-.13q.46-.06.87-.14a1.7,1.7,0,0,0,.67-.28v1.39Zm10.32-5.39h-1.44l-2.32,6.77h0l-2.42-6.77h-1.54l3.28,8.22-.56,1.39a1.23,1.23,0,0,1-.42.57,1.17,1.17,0,0,1-.7.2,1.72,1.72,0,0,1-.39-.06,2.3,2.3,0,0,1-.41-.14v1.25a2.28,2.28,0,0,0,.46.11,3.64,3.64,0,0,0,.48,0,2.4,2.4,0,0,0,.79-.12,1.74,1.74,0,0,0,.62-.38,2.81,2.81,0,0,0,.51-.68,8.69,8.69,0,0,0,.47-1l3.6-9.38Zm2.34,5.48a2.79,2.79,0,0,0,.55,1,2.39,2.39,0,0,0,.82.6,2.51,2.51,0,0,0,2,0,2.39,2.39,0,0,0,.82-.6,2.8,2.8,0,0,0,.55-1,4.56,4.56,0,0,0,0-2.67,2.89,2.89,0,0,0-.55-1,2.36,2.36,0,0,0-.82-.61,2.51,2.51,0,0,0-2,0,2.35,2.35,0,0,0-.82.61,2.88,2.88,0,0,0-.55,1,4.56,4.56,0,0,0,0,2.67Zm-1.38-3a3.86,3.86,0,0,1,.77-1.38,3.62,3.62,0,0,1,1.26-.92,4.63,4.63,0,0,1,3.46,0,3.64,3.64,0,0,1,1.26.92,3.86,3.86,0,0,1,.77,1.38,5.51,5.51,0,0,1,.26,1.7,5.44,5.44,0,0,1-.26,1.7,3.87,3.87,0,0,1-.77,1.37,3.55,3.55,0,0,1-1.26.91,4.74,4.74,0,0,1-3.46,0,3.53,3.53,0,0,1-1.26-.91,3.86,3.86,0,0,1-.77-1.37,5.43,5.43,0,0,1-.26-1.7,5.51,5.51,0,0,1,.26-1.7ZM194.74,208v-1.31h0a2.78,2.78,0,0,1-1.1,1.13,3.31,3.31,0,0,1-1.58.36,3.71,3.71,0,0,1-1.36-.22,2.17,2.17,0,0,1-.88-.62,2.32,2.32,0,0,1-.47-1,5.11,5.11,0,0,1-.14-1.22v-5.44h1.36v5.6a1.64,1.64,0,0,0,.45,1.22,1.66,1.66,0,0,0,1.23.45,2.77,2.77,0,0,0,1.08-.19,2,2,0,0,0,.76-.54,2.35,2.35,0,0,0,.46-.82,3.35,3.35,0,0,0,.15-1v-4.67H196V208Zm6.86-8.27V201H200v5.14a1.48,1.48,0,0,0,0,.38.39.39,0,0,0,.15.22.67.67,0,0,0,.31.1l.52,0h.62V208h-1a4.88,4.88,0,0,1-.9-.07,1.33,1.33,0,0,1-.61-.26,1.13,1.13,0,0,1-.34-.54,3.14,3.14,0,0,1-.11-.93V201h-1.41v-1.2h1.41v-2.48H200v2.48Z"/><path class="cls-7" d="M255.38,152.5h188a5,5,0,0,1,5,5V247a5,5,0,0,1-5,5h-188a5,5,0,0,1-5-5V157.5a5,5,0,0,1,5-5Zm0,0"/><path d="M304.33,198.22a3.53,3.53,0,0,0-2.07-.61,3.71,3.71,0,0,0-1.75.38,3.46,3.46,0,0,0-1.2,1,4.45,4.45,0,0,0-.7,1.48,6.61,6.61,0,0,0-.22,1.73,7.4,7.4,0,0,0,.22,1.85,4.42,4.42,0,0,0,.7,1.52,3.43,3.43,0,0,0,1.21,1,3.76,3.76,0,0,0,1.76.38,3.39,3.39,0,0,0,1.34-.25,3,3,0,0,0,1-.69,3.17,3.17,0,0,0,.66-1,4.36,4.36,0,0,0,.29-1.31h1.52a5.19,5.19,0,0,1-1.49,3.36,4.81,4.81,0,0,1-3.46,1.2,5.51,5.51,0,0,1-2.32-.46,4.55,4.55,0,0,1-1.65-1.26,5.39,5.39,0,0,1-1-1.89,8.05,8.05,0,0,1-.33-2.34,7.62,7.62,0,0,1,.35-2.34,5.64,5.64,0,0,1,1-1.91,4.81,4.81,0,0,1,1.7-1.29,5.47,5.47,0,0,1,2.33-.47,5.87,5.87,0,0,1,1.7.24,4.56,4.56,0,0,1,1.42.7,4,4,0,0,1,1,1.16A4.26,4.26,0,0,1,307,200h-1.52a2.83,2.83,0,0,0-1.13-1.82Zm10,9.81v-1.31h0a2.78,2.78,0,0,1-1.1,1.13,3.31,3.31,0,0,1-1.58.36,3.71,3.71,0,0,1-1.36-.22,2.17,2.17,0,0,1-.88-.62,2.31,2.31,0,0,1-.47-1,5.11,5.11,0,0,1-.14-1.22v-5.44h1.36v5.6a1.64,1.64,0,0,0,.45,1.22,1.66,1.66,0,0,0,1.23.45,2.77,2.77,0,0,0,1.08-.19,2,2,0,0,0,.76-.54,2.35,2.35,0,0,0,.46-.82,3.35,3.35,0,0,0,.15-1v-4.67h1.36V208Zm4.56-8.27v1.74h0a3.68,3.68,0,0,1,1.22-1.49,3.06,3.06,0,0,1,1.82-.45V201a3.85,3.85,0,0,0-1.39.22,2.19,2.19,0,0,0-.93.66,2.71,2.71,0,0,0-.51,1,5.65,5.65,0,0,0-.16,1.42V208H317.6v-8.27Zm5.33,0v1.74h0a3.68,3.68,0,0,1,1.22-1.49,3.06,3.06,0,0,1,1.82-.45V201a3.85,3.85,0,0,0-1.39.22,2.19,2.19,0,0,0-.93.66,2.71,2.71,0,0,0-.51,1,5.65,5.65,0,0,0-.16,1.42V208h-1.36v-8.27Z"/><path d="M333.55,202.19a2.33,2.33,0,0,0-.5-.74,2.36,2.36,0,0,0-.74-.5,2.33,2.33,0,0,0-.94-.18,2.37,2.37,0,0,0-1,.18,2.2,2.2,0,0,0-.73.5,2.41,2.41,0,0,0-.48.74,2.83,2.83,0,0,0-.21.9h4.75a2.79,2.79,0,0,0-.22-.91Zm.33,5.31a3.75,3.75,0,0,1-2.34.7,4.25,4.25,0,0,1-1.72-.32,3.39,3.39,0,0,1-1.22-.9,3.8,3.8,0,0,1-.74-1.38,6.62,6.62,0,0,1-.28-1.74,5,5,0,0,1,.29-1.73,4.13,4.13,0,0,1,.81-1.36,3.67,3.67,0,0,1,1.23-.9,3.76,3.76,0,0,1,1.56-.32,3.39,3.39,0,0,1,1.83.46,3.63,3.63,0,0,1,1.17,1.16,4.59,4.59,0,0,1,.61,1.54,6.59,6.59,0,0,1,.14,1.58H329a3.28,3.28,0,0,0,.13,1,2.33,2.33,0,0,0,.46.86,2.29,2.29,0,0,0,.82.6,2.81,2.81,0,0,0,1.17.22,2.35,2.35,0,0,0,1.42-.4,1.93,1.93,0,0,0,.73-1.22h1.34a3.31,3.31,0,0,1-1.2,2.1Zm4-7.74v1.31h0a2.86,2.86,0,0,1,2.69-1.5,3.59,3.59,0,0,1,1.36.22,2.24,2.24,0,0,1,.88.62,2.32,2.32,0,0,1,.47,1,5.13,5.13,0,0,1,.14,1.22V208H342.1v-5.6a1.64,1.64,0,0,0-.45-1.22,1.67,1.67,0,0,0-1.23-.45,2.77,2.77,0,0,0-1.08.19,2,2,0,0,0-.76.54,2.34,2.34,0,0,0-.46.82,3.35,3.35,0,0,0-.15,1V208h-1.36v-8.27Zm11.15,0V201H347.4v5.14a1.48,1.48,0,0,0,0,.38.39.39,0,0,0,.15.22.67.67,0,0,0,.31.1l.52,0H349V208h-1a4.88,4.88,0,0,1-.9-.07,1.33,1.33,0,0,1-.61-.26,1.13,1.13,0,0,1-.34-.54,3.14,3.14,0,0,1-.11-.93V201h-1.41v-1.2H346v-2.48h1.36v2.48Zm7.7-3.15v10.14h6V208h-7.57V196.6Zm14.48,10.34a1.65,1.65,0,0,1-.42.06q-.32,0-.38-.22a3.16,3.16,0,0,1-.06-.7v-4.25a2.22,2.22,0,0,0-.27-1.17,1.92,1.92,0,0,0-.72-.69,2.91,2.91,0,0,0-1-.33,7.76,7.76,0,0,0-1.11-.08,5.79,5.79,0,0,0-1.32.14,3.22,3.22,0,0,0-1.1.47,2.43,2.43,0,0,0-.77.86,2.94,2.94,0,0,0-.32,1.3h1.36a1.39,1.39,0,0,1,.62-1.24,2.88,2.88,0,0,1,1.44-.33,4.47,4.47,0,0,1,.65,0,1.76,1.76,0,0,1,.59.19,1.15,1.15,0,0,1,.43.42,1.36,1.36,0,0,1,.17.72.74.74,0,0,1-.22.58,1.48,1.48,0,0,1-.61.3,5.9,5.9,0,0,1-.89.16q-.5.06-1.06.17t-1,.24a2.9,2.9,0,0,0-.9.42,2.09,2.09,0,0,0-.63.73,2.43,2.43,0,0,0-.24,1.15,2.4,2.4,0,0,0,.22,1.06,1.92,1.92,0,0,0,.58.71,2.47,2.47,0,0,0,.87.4,4.5,4.5,0,0,0,2.67-.17,3.25,3.25,0,0,0,1.3-1,1.29,1.29,0,0,0,.31,1,1.17,1.17,0,0,0,.84.3,1.93,1.93,0,0,0,1-.21v-1.06Zm-2.21-1.8a1.52,1.52,0,0,1-.14.61,1.83,1.83,0,0,1-.45.61,2.43,2.43,0,0,1-.78.46,3.24,3.24,0,0,1-1.15.18,2.81,2.81,0,0,1-.61-.06,1.48,1.48,0,0,1-.5-.21,1.13,1.13,0,0,1-.35-.37,1.1,1.1,0,0,1-.14-.57,1.27,1.27,0,0,1,.23-.8,1.51,1.51,0,0,1,.6-.45,3.4,3.4,0,0,1,.83-.23l.92-.13q.46-.06.87-.14a1.7,1.7,0,0,0,.67-.28v1.39Zm10.32-5.39h-1.44l-2.32,6.77h0l-2.42-6.77h-1.54l3.28,8.22-.56,1.39a1.23,1.23,0,0,1-.42.57,1.17,1.17,0,0,1-.7.2,1.72,1.72,0,0,1-.39-.06,2.3,2.3,0,0,1-.41-.14v1.25a2.28,2.28,0,0,0,.46.11,3.64,3.64,0,0,0,.48,0,2.4,2.4,0,0,0,.79-.12,1.74,1.74,0,0,0,.62-.38,2.81,2.81,0,0,0,.51-.68,8.69,8.69,0,0,0,.47-1l3.6-9.38Zm2.34,5.48a2.79,2.79,0,0,0,.55,1,2.39,2.39,0,0,0,.82.6,2.51,2.51,0,0,0,2,0,2.39,2.39,0,0,0,.82-.6,2.8,2.8,0,0,0,.55-1,4.56,4.56,0,0,0,0-2.67,2.89,2.89,0,0,0-.55-1,2.36,2.36,0,0,0-.82-.61,2.51,2.51,0,0,0-2,0,2.35,2.35,0,0,0-.82.61,2.88,2.88,0,0,0-.55,1,4.56,4.56,0,0,0,0,2.67Zm-1.38-3a3.86,3.86,0,0,1,.77-1.38,3.62,3.62,0,0,1,1.26-.92,4.63,4.63,0,0,1,3.46,0,3.64,3.64,0,0,1,1.26.92,3.86,3.86,0,0,1,.77,1.38,5.51,5.51,0,0,1,.26,1.7,5.44,5.44,0,0,1-.26,1.7A3.87,3.87,0,0,1,387,207a3.55,3.55,0,0,1-1.26.91,4.74,4.74,0,0,1-3.46,0,3.53,3.53,0,0,1-1.26-.91,3.87,3.87,0,0,1-.77-1.37,5.43,5.43,0,0,1-.26-1.7,5.51,5.51,0,0,1,.26-1.7ZM395.24,208v-1.31h0a2.78,2.78,0,0,1-1.1,1.13,3.31,3.31,0,0,1-1.58.36,3.71,3.71,0,0,1-1.36-.22,2.17,2.17,0,0,1-.88-.62,2.32,2.32,0,0,1-.47-1,5.12,5.12,0,0,1-.14-1.22v-5.44H391v5.6a1.64,1.64,0,0,0,.45,1.22,1.66,1.66,0,0,0,1.23.45,2.77,2.77,0,0,0,1.08-.19,2,2,0,0,0,.76-.54,2.35,2.35,0,0,0,.46-.82,3.35,3.35,0,0,0,.15-1v-4.67h1.36V208Zm6.86-8.27V201h-1.65v5.14a1.48,1.48,0,0,0,0,.38.39.39,0,0,0,.15.22.67.67,0,0,0,.31.1l.52,0h.62V208h-1a4.88,4.88,0,0,1-.9-.07,1.33,1.33,0,0,1-.61-.26,1.13,1.13,0,0,1-.34-.54,3.14,3.14,0,0,1-.11-.93V201h-1.41v-1.2h1.41v-2.48h1.36v2.48Z"/><path class="cls-6" d="M54.88,254.5h188a5,5,0,0,1,5,5V349a5,5,0,0,1-5,5h-188a5,5,0,0,1-5-5V259.5a5,5,0,0,1,5-5Zm0,0"/><path d="M103.83,300.22a3.53,3.53,0,0,0-2.07-.61A3.71,3.71,0,0,0,100,300a3.45,3.45,0,0,0-1.2,1,4.45,4.45,0,0,0-.7,1.48,6.61,6.61,0,0,0-.22,1.73,7.39,7.39,0,0,0,.22,1.85,4.42,4.42,0,0,0,.7,1.52,3.44,3.44,0,0,0,1.21,1,3.76,3.76,0,0,0,1.76.38,3.39,3.39,0,0,0,1.34-.25,3,3,0,0,0,1-.69,3.17,3.17,0,0,0,.66-1,4.36,4.36,0,0,0,.29-1.31h1.52a5.19,5.19,0,0,1-1.49,3.36,4.81,4.81,0,0,1-3.46,1.2,5.51,5.51,0,0,1-2.32-.46,4.55,4.55,0,0,1-1.65-1.26,5.39,5.39,0,0,1-1-1.89,8.05,8.05,0,0,1-.33-2.34,7.62,7.62,0,0,1,.35-2.34,5.64,5.64,0,0,1,1-1.91,4.81,4.81,0,0,1,1.7-1.29,5.47,5.47,0,0,1,2.33-.47,5.87,5.87,0,0,1,1.7.24,4.56,4.56,0,0,1,1.42.7,4,4,0,0,1,1,1.16,4.25,4.25,0,0,1,.54,1.61H105a2.83,2.83,0,0,0-1.13-1.82Zm10,9.81v-1.31h0a2.78,2.78,0,0,1-1.1,1.13,3.31,3.31,0,0,1-1.58.36,3.71,3.71,0,0,1-1.36-.22,2.17,2.17,0,0,1-.88-.62,2.31,2.31,0,0,1-.47-1,5.12,5.12,0,0,1-.14-1.22v-5.44h1.36v5.6a1.64,1.64,0,0,0,.45,1.22,1.66,1.66,0,0,0,1.23.45,2.77,2.77,0,0,0,1.08-.19,2,2,0,0,0,.76-.54,2.35,2.35,0,0,0,.46-.82,3.35,3.35,0,0,0,.15-1v-4.67h1.36V310Zm4.56-8.27v1.74h0a3.68,3.68,0,0,1,1.22-1.49,3.06,3.06,0,0,1,1.82-.45V303a3.85,3.85,0,0,0-1.39.22,2.19,2.19,0,0,0-.93.66,2.71,2.71,0,0,0-.51,1,5.65,5.65,0,0,0-.16,1.42V310H117.1v-8.27Zm5.33,0v1.74h0A3.68,3.68,0,0,1,125,302a3.06,3.06,0,0,1,1.82-.45V303a3.85,3.85,0,0,0-1.39.22,2.19,2.19,0,0,0-.93.66,2.71,2.71,0,0,0-.51,1,5.65,5.65,0,0,0-.16,1.42V310h-1.36v-8.27Z"/><path d="M133,304.19a2.33,2.33,0,0,0-.5-.74,2.36,2.36,0,0,0-.74-.5,2.33,2.33,0,0,0-.94-.18,2.37,2.37,0,0,0-1,.18,2.2,2.2,0,0,0-.73.5,2.41,2.41,0,0,0-.48.74,2.83,2.83,0,0,0-.21.9h4.75a2.79,2.79,0,0,0-.22-.91Zm.33,5.31a3.75,3.75,0,0,1-2.34.7,4.25,4.25,0,0,1-1.72-.32,3.39,3.39,0,0,1-1.22-.9,3.8,3.8,0,0,1-.74-1.38,6.62,6.62,0,0,1-.28-1.74,5,5,0,0,1,.29-1.73,4.13,4.13,0,0,1,.81-1.36,3.67,3.67,0,0,1,1.23-.9,3.76,3.76,0,0,1,1.56-.32,3.39,3.39,0,0,1,1.83.46,3.63,3.63,0,0,1,1.17,1.16,4.59,4.59,0,0,1,.61,1.54,6.59,6.59,0,0,1,.14,1.58h-6.19a3.28,3.28,0,0,0,.13,1,2.33,2.33,0,0,0,.46.86,2.29,2.29,0,0,0,.82.6,2.81,2.81,0,0,0,1.17.22,2.35,2.35,0,0,0,1.42-.4,1.93,1.93,0,0,0,.73-1.22h1.34a3.31,3.31,0,0,1-1.2,2.1Zm4-7.74v1.31h0a2.86,2.86,0,0,1,2.69-1.5,3.59,3.59,0,0,1,1.36.22,2.24,2.24,0,0,1,.88.62,2.32,2.32,0,0,1,.47,1,5.13,5.13,0,0,1,.14,1.22V310H141.6v-5.6a1.64,1.64,0,0,0-.45-1.22,1.67,1.67,0,0,0-1.23-.45,2.77,2.77,0,0,0-1.08.19,2,2,0,0,0-.76.54,2.34,2.34,0,0,0-.46.82,3.35,3.35,0,0,0-.15,1V310h-1.36v-8.27Zm11.15,0V303H146.9v5.14a1.48,1.48,0,0,0,0,.38.39.39,0,0,0,.15.22.67.67,0,0,0,.31.1l.52,0h.62V310h-1a4.88,4.88,0,0,1-.9-.07,1.33,1.33,0,0,1-.61-.26,1.13,1.13,0,0,1-.34-.54,3.14,3.14,0,0,1-.11-.93V303h-1.41v-1.2h1.41v-2.48h1.36v2.48Zm7.7-3.15v10.14h6V310h-7.57V298.6Zm14.48,10.34a1.64,1.64,0,0,1-.42.06q-.32,0-.38-.22a3.16,3.16,0,0,1-.06-.7v-4.25a2.22,2.22,0,0,0-.27-1.17,1.92,1.92,0,0,0-.72-.69,2.91,2.91,0,0,0-1-.33,7.75,7.75,0,0,0-1.11-.08,5.79,5.79,0,0,0-1.32.14,3.22,3.22,0,0,0-1.1.47,2.43,2.43,0,0,0-.77.86,2.94,2.94,0,0,0-.32,1.3h1.36a1.39,1.39,0,0,1,.62-1.24,2.88,2.88,0,0,1,1.44-.33,4.47,4.47,0,0,1,.65,0,1.76,1.76,0,0,1,.59.19,1.15,1.15,0,0,1,.43.42,1.36,1.36,0,0,1,.17.72.74.74,0,0,1-.22.58,1.48,1.48,0,0,1-.61.3,5.9,5.9,0,0,1-.89.16q-.5.06-1.06.17t-1,.24a2.9,2.9,0,0,0-.9.42,2.09,2.09,0,0,0-.63.73,2.43,2.43,0,0,0-.24,1.15,2.4,2.4,0,0,0,.22,1.06,1.92,1.92,0,0,0,.58.71,2.47,2.47,0,0,0,.87.4,4.5,4.5,0,0,0,2.67-.17,3.25,3.25,0,0,0,1.3-1,1.29,1.29,0,0,0,.31,1,1.17,1.17,0,0,0,.84.3,1.93,1.93,0,0,0,1-.21v-1.06Zm-2.21-1.8a1.52,1.52,0,0,1-.14.61,1.83,1.83,0,0,1-.45.6,2.42,2.42,0,0,1-.78.46A3.24,3.24,0,0,1,166,309a2.81,2.81,0,0,1-.61-.06,1.48,1.48,0,0,1-.5-.21,1.13,1.13,0,0,1-.35-.37,1.1,1.1,0,0,1-.14-.57,1.27,1.27,0,0,1,.23-.8,1.51,1.51,0,0,1,.6-.45,3.4,3.4,0,0,1,.83-.23l.92-.13q.46-.06.87-.14a1.7,1.7,0,0,0,.67-.28v1.39Zm10.32-5.39h-1.44l-2.32,6.77h0l-2.42-6.77h-1.54l3.28,8.22-.56,1.39a1.23,1.23,0,0,1-.42.57,1.17,1.17,0,0,1-.7.2,1.72,1.72,0,0,1-.39-.06,2.3,2.3,0,0,1-.41-.14v1.25a2.28,2.28,0,0,0,.46.11,3.64,3.64,0,0,0,.48,0,2.4,2.4,0,0,0,.79-.12,1.74,1.74,0,0,0,.62-.38,2.81,2.81,0,0,0,.51-.68,8.69,8.69,0,0,0,.47-1l3.6-9.38Zm2.34,5.48a2.79,2.79,0,0,0,.55,1,2.39,2.39,0,0,0,.82.6,2.51,2.51,0,0,0,2,0,2.39,2.39,0,0,0,.82-.6,2.8,2.8,0,0,0,.55-1,4.56,4.56,0,0,0,0-2.67,2.89,2.89,0,0,0-.55-1,2.36,2.36,0,0,0-.82-.61,2.51,2.51,0,0,0-2,0,2.35,2.35,0,0,0-.82.61,2.88,2.88,0,0,0-.55,1,4.56,4.56,0,0,0,0,2.67Zm-1.38-3a3.86,3.86,0,0,1,.77-1.38,3.62,3.62,0,0,1,1.26-.92,4.63,4.63,0,0,1,3.46,0,3.64,3.64,0,0,1,1.26.92,3.86,3.86,0,0,1,.77,1.38,5.51,5.51,0,0,1,.26,1.7,5.44,5.44,0,0,1-.26,1.7,3.87,3.87,0,0,1-.77,1.37,3.55,3.55,0,0,1-1.26.91,4.74,4.74,0,0,1-3.46,0,3.53,3.53,0,0,1-1.26-.91,3.86,3.86,0,0,1-.77-1.37,5.43,5.43,0,0,1-.26-1.7,5.51,5.51,0,0,1,.26-1.7ZM194.74,310v-1.31h0a2.78,2.78,0,0,1-1.1,1.13,3.31,3.31,0,0,1-1.58.36,3.71,3.71,0,0,1-1.36-.22,2.17,2.17,0,0,1-.88-.62,2.31,2.31,0,0,1-.47-1,5.12,5.12,0,0,1-.14-1.22v-5.44h1.36v5.6a1.64,1.64,0,0,0,.45,1.22,1.66,1.66,0,0,0,1.23.45,2.77,2.77,0,0,0,1.08-.19,2,2,0,0,0,.76-.54,2.35,2.35,0,0,0,.46-.82,3.35,3.35,0,0,0,.15-1v-4.67H196V310Zm6.86-8.27V303H200v5.14a1.48,1.48,0,0,0,0,.38.39.39,0,0,0,.15.22.67.67,0,0,0,.31.1l.52,0h.62V310h-1a4.88,4.88,0,0,1-.9-.07,1.33,1.33,0,0,1-.61-.26,1.13,1.13,0,0,1-.34-.54,3.14,3.14,0,0,1-.11-.93V303h-1.41v-1.2h1.41v-2.48H200v2.48Z"/><path class="cls-6" d="M255.38,254.5h188a5,5,0,0,1,5,5V349a5,5,0,0,1-5,5h-188a5,5,0,0,1-5-5V259.5a5,5,0,0,1,5-5Zm0,0"/><path d="M304.33,300.22a3.53,3.53,0,0,0-2.07-.61,3.71,3.71,0,0,0-1.75.38,3.45,3.45,0,0,0-1.2,1,4.45,4.45,0,0,0-.7,1.48,6.61,6.61,0,0,0-.22,1.73,7.4,7.4,0,0,0,.22,1.85,4.42,4.42,0,0,0,.7,1.52,3.43,3.43,0,0,0,1.21,1,3.76,3.76,0,0,0,1.76.38,3.39,3.39,0,0,0,1.34-.25,3,3,0,0,0,1-.69,3.17,3.17,0,0,0,.66-1,4.36,4.36,0,0,0,.29-1.31h1.52a5.19,5.19,0,0,1-1.49,3.36,4.81,4.81,0,0,1-3.46,1.2,5.51,5.51,0,0,1-2.32-.46,4.55,4.55,0,0,1-1.65-1.26,5.39,5.39,0,0,1-1-1.89,8.05,8.05,0,0,1-.33-2.34,7.62,7.62,0,0,1,.35-2.34,5.64,5.64,0,0,1,1-1.91,4.81,4.81,0,0,1,1.7-1.29,5.47,5.47,0,0,1,2.33-.47,5.87,5.87,0,0,1,1.7.24,4.56,4.56,0,0,1,1.42.7,4,4,0,0,1,1,1.16A4.26,4.26,0,0,1,307,302h-1.52a2.83,2.83,0,0,0-1.13-1.82Zm10,9.81v-1.31h0a2.78,2.78,0,0,1-1.1,1.13,3.31,3.31,0,0,1-1.58.36,3.71,3.71,0,0,1-1.36-.22,2.17,2.17,0,0,1-.88-.62,2.31,2.31,0,0,1-.47-1,5.11,5.11,0,0,1-.14-1.22v-5.44h1.36v5.6a1.64,1.64,0,0,0,.45,1.22,1.66,1.66,0,0,0,1.23.45,2.77,2.77,0,0,0,1.08-.19,2,2,0,0,0,.76-.54,2.35,2.35,0,0,0,.46-.82,3.35,3.35,0,0,0,.15-1v-4.67h1.36V310Zm4.56-8.27v1.74h0a3.68,3.68,0,0,1,1.22-1.49,3.06,3.06,0,0,1,1.82-.45V303a3.85,3.85,0,0,0-1.39.22,2.19,2.19,0,0,0-.93.66,2.71,2.71,0,0,0-.51,1,5.65,5.65,0,0,0-.16,1.42V310H317.6v-8.27Zm5.33,0v1.74h0a3.68,3.68,0,0,1,1.22-1.49,3.06,3.06,0,0,1,1.82-.45V303a3.85,3.85,0,0,0-1.39.22,2.19,2.19,0,0,0-.93.66,2.71,2.71,0,0,0-.51,1,5.65,5.65,0,0,0-.16,1.42V310h-1.36v-8.27Z"/><path d="M333.55,304.19a2.33,2.33,0,0,0-.5-.74,2.36,2.36,0,0,0-.74-.5,2.33,2.33,0,0,0-.94-.18,2.37,2.37,0,0,0-1,.18,2.2,2.2,0,0,0-.73.5,2.41,2.41,0,0,0-.48.74,2.83,2.83,0,0,0-.21.9h4.75a2.79,2.79,0,0,0-.22-.91Zm.33,5.31a3.75,3.75,0,0,1-2.34.7,4.25,4.25,0,0,1-1.72-.32,3.39,3.39,0,0,1-1.22-.9,3.8,3.8,0,0,1-.74-1.38,6.62,6.62,0,0,1-.28-1.74,5,5,0,0,1,.29-1.73,4.13,4.13,0,0,1,.81-1.36,3.67,3.67,0,0,1,1.23-.9,3.76,3.76,0,0,1,1.56-.32,3.39,3.39,0,0,1,1.83.46,3.63,3.63,0,0,1,1.17,1.16,4.59,4.59,0,0,1,.61,1.54,6.59,6.59,0,0,1,.14,1.58H329a3.28,3.28,0,0,0,.13,1,2.33,2.33,0,0,0,.46.86,2.29,2.29,0,0,0,.82.6,2.81,2.81,0,0,0,1.17.22,2.35,2.35,0,0,0,1.42-.4,1.93,1.93,0,0,0,.73-1.22h1.34a3.31,3.31,0,0,1-1.2,2.1Zm4-7.74v1.31h0a2.86,2.86,0,0,1,2.69-1.5,3.59,3.59,0,0,1,1.36.22,2.24,2.24,0,0,1,.88.62,2.32,2.32,0,0,1,.47,1,5.13,5.13,0,0,1,.14,1.22V310H342.1v-5.6a1.64,1.64,0,0,0-.45-1.22,1.67,1.67,0,0,0-1.23-.45,2.77,2.77,0,0,0-1.08.19,2,2,0,0,0-.76.54,2.34,2.34,0,0,0-.46.82,3.35,3.35,0,0,0-.15,1V310h-1.36v-8.27Zm11.15,0V303H347.4v5.14a1.48,1.48,0,0,0,0,.38.39.39,0,0,0,.15.22.67.67,0,0,0,.31.1l.52,0H349V310h-1a4.88,4.88,0,0,1-.9-.07,1.33,1.33,0,0,1-.61-.26,1.13,1.13,0,0,1-.34-.54,3.14,3.14,0,0,1-.11-.93V303h-1.41v-1.2H346v-2.48h1.36v2.48Zm7.7-3.15v10.14h6V310h-7.57V298.6Zm14.48,10.34a1.64,1.64,0,0,1-.42.06q-.32,0-.38-.22a3.16,3.16,0,0,1-.06-.7v-4.25a2.22,2.22,0,0,0-.27-1.17,1.92,1.92,0,0,0-.72-.69,2.91,2.91,0,0,0-1-.33,7.75,7.75,0,0,0-1.11-.08,5.79,5.79,0,0,0-1.32.14,3.22,3.22,0,0,0-1.1.47,2.43,2.43,0,0,0-.77.86,2.94,2.94,0,0,0-.32,1.3h1.36a1.39,1.39,0,0,1,.62-1.24,2.88,2.88,0,0,1,1.44-.33,4.47,4.47,0,0,1,.65,0,1.76,1.76,0,0,1,.59.19,1.15,1.15,0,0,1,.43.42,1.36,1.36,0,0,1,.17.72.74.74,0,0,1-.22.58,1.48,1.48,0,0,1-.61.3,5.9,5.9,0,0,1-.89.16q-.5.06-1.06.17t-1,.24a2.9,2.9,0,0,0-.9.42,2.09,2.09,0,0,0-.63.73,2.43,2.43,0,0,0-.24,1.15,2.4,2.4,0,0,0,.22,1.06,1.92,1.92,0,0,0,.58.71,2.47,2.47,0,0,0,.87.4,4.5,4.5,0,0,0,2.67-.17,3.25,3.25,0,0,0,1.3-1,1.29,1.29,0,0,0,.31,1,1.17,1.17,0,0,0,.84.3,1.93,1.93,0,0,0,1-.21v-1.06Zm-2.21-1.8a1.52,1.52,0,0,1-.14.61,1.83,1.83,0,0,1-.45.6,2.42,2.42,0,0,1-.78.46,3.24,3.24,0,0,1-1.15.18,2.81,2.81,0,0,1-.61-.06,1.48,1.48,0,0,1-.5-.21,1.13,1.13,0,0,1-.35-.37,1.1,1.1,0,0,1-.14-.57,1.27,1.27,0,0,1,.23-.8,1.51,1.51,0,0,1,.6-.45,3.4,3.4,0,0,1,.83-.23l.92-.13q.46-.06.87-.14a1.7,1.7,0,0,0,.67-.28v1.39Zm10.32-5.39h-1.44l-2.32,6.77h0l-2.42-6.77h-1.54l3.28,8.22-.56,1.39a1.23,1.23,0,0,1-.42.57,1.17,1.17,0,0,1-.7.2,1.72,1.72,0,0,1-.39-.06,2.3,2.3,0,0,1-.41-.14v1.25a2.28,2.28,0,0,0,.46.11,3.64,3.64,0,0,0,.48,0,2.4,2.4,0,0,0,.79-.12,1.74,1.74,0,0,0,.62-.38,2.81,2.81,0,0,0,.51-.68,8.69,8.69,0,0,0,.47-1l3.6-9.38Zm2.34,5.48a2.79,2.79,0,0,0,.55,1,2.39,2.39,0,0,0,.82.6,2.51,2.51,0,0,0,2,0,2.39,2.39,0,0,0,.82-.6,2.8,2.8,0,0,0,.55-1,4.56,4.56,0,0,0,0-2.67,2.89,2.89,0,0,0-.55-1,2.36,2.36,0,0,0-.82-.61,2.51,2.51,0,0,0-2,0,2.35,2.35,0,0,0-.82.61,2.88,2.88,0,0,0-.55,1,4.56,4.56,0,0,0,0,2.67Zm-1.38-3a3.86,3.86,0,0,1,.77-1.38,3.62,3.62,0,0,1,1.26-.92,4.63,4.63,0,0,1,3.46,0,3.64,3.64,0,0,1,1.26.92,3.86,3.86,0,0,1,.77,1.38,5.51,5.51,0,0,1,.26,1.7,5.44,5.44,0,0,1-.26,1.7A3.87,3.87,0,0,1,387,309a3.55,3.55,0,0,1-1.26.91,4.74,4.74,0,0,1-3.46,0,3.53,3.53,0,0,1-1.26-.91,3.87,3.87,0,0,1-.77-1.37,5.43,5.43,0,0,1-.26-1.7,5.51,5.51,0,0,1,.26-1.7ZM395.24,310v-1.31h0a2.78,2.78,0,0,1-1.1,1.13,3.31,3.31,0,0,1-1.58.36,3.71,3.71,0,0,1-1.36-.22,2.17,2.17,0,0,1-.88-.62,2.32,2.32,0,0,1-.47-1,5.12,5.12,0,0,1-.14-1.22v-5.44H391v5.6a1.64,1.64,0,0,0,.45,1.22,1.66,1.66,0,0,0,1.23.45,2.77,2.77,0,0,0,1.08-.19,2,2,0,0,0,.76-.54,2.35,2.35,0,0,0,.46-.82,3.35,3.35,0,0,0,.15-1v-4.67h1.36V310Zm6.86-8.27V303h-1.65v5.14a1.48,1.48,0,0,0,0,.38.39.39,0,0,0,.15.22.67.67,0,0,0,.31.1l.52,0h.62V310h-1a4.88,4.88,0,0,1-.9-.07,1.33,1.33,0,0,1-.61-.26,1.13,1.13,0,0,1-.34-.54,3.14,3.14,0,0,1-.11-.93V303h-1.41v-1.2h1.41v-2.48h1.36v2.48Z"/><path class="cls-6" d="M54.88,356.5h188a5,5,0,0,1,5,5V451a5,5,0,0,1-5,5h-188a5,5,0,0,1-5-5V361.5a5,5,0,0,1,5-5Zm0,0"/><path d="M103.83,402.22a3.53,3.53,0,0,0-2.07-.61A3.71,3.71,0,0,0,100,402a3.46,3.46,0,0,0-1.2,1,4.45,4.45,0,0,0-.7,1.48,6.61,6.61,0,0,0-.22,1.73,7.39,7.39,0,0,0,.22,1.85,4.42,4.42,0,0,0,.7,1.52,3.43,3.43,0,0,0,1.21,1,3.76,3.76,0,0,0,1.76.38,3.39,3.39,0,0,0,1.34-.25,3,3,0,0,0,1-.69,3.17,3.17,0,0,0,.66-1,4.36,4.36,0,0,0,.29-1.31h1.52a5.19,5.19,0,0,1-1.49,3.36,4.81,4.81,0,0,1-3.46,1.2,5.51,5.51,0,0,1-2.32-.46,4.55,4.55,0,0,1-1.65-1.26,5.39,5.39,0,0,1-1-1.89,8.05,8.05,0,0,1-.33-2.34,7.62,7.62,0,0,1,.35-2.34,5.64,5.64,0,0,1,1-1.91,4.81,4.81,0,0,1,1.7-1.29,5.47,5.47,0,0,1,2.33-.47,5.87,5.87,0,0,1,1.7.24,4.56,4.56,0,0,1,1.42.7,4,4,0,0,1,1,1.16,4.25,4.25,0,0,1,.54,1.61H105a2.83,2.83,0,0,0-1.13-1.82Zm10,9.81v-1.31h0a2.78,2.78,0,0,1-1.1,1.13,3.31,3.31,0,0,1-1.58.36,3.71,3.71,0,0,1-1.36-.22,2.17,2.17,0,0,1-.88-.62,2.31,2.31,0,0,1-.47-1,5.11,5.11,0,0,1-.14-1.22v-5.44h1.36v5.6a1.64,1.64,0,0,0,.45,1.22,1.66,1.66,0,0,0,1.23.45,2.77,2.77,0,0,0,1.08-.19,2,2,0,0,0,.76-.54,2.35,2.35,0,0,0,.46-.82,3.35,3.35,0,0,0,.15-1v-4.67h1.36V412Zm4.56-8.27v1.74h0a3.68,3.68,0,0,1,1.22-1.49,3.06,3.06,0,0,1,1.82-.45V405a3.85,3.85,0,0,0-1.39.22,2.19,2.19,0,0,0-.93.66,2.71,2.71,0,0,0-.51,1,5.65,5.65,0,0,0-.16,1.42V412H117.1v-8.27Zm5.33,0v1.74h0A3.68,3.68,0,0,1,125,404a3.06,3.06,0,0,1,1.82-.45V405a3.85,3.85,0,0,0-1.39.22,2.19,2.19,0,0,0-.93.66,2.71,2.71,0,0,0-.51,1,5.65,5.65,0,0,0-.16,1.42V412h-1.36v-8.27Z"/><path d="M133,406.19a2.33,2.33,0,0,0-.5-.74,2.36,2.36,0,0,0-.74-.5,2.33,2.33,0,0,0-.94-.18,2.37,2.37,0,0,0-1,.18,2.2,2.2,0,0,0-.73.5,2.41,2.41,0,0,0-.48.74,2.83,2.83,0,0,0-.21.9h4.75a2.79,2.79,0,0,0-.22-.91Zm.33,5.31a3.75,3.75,0,0,1-2.34.7,4.25,4.25,0,0,1-1.72-.32,3.39,3.39,0,0,1-1.22-.9,3.8,3.8,0,0,1-.74-1.38,6.62,6.62,0,0,1-.28-1.74,5,5,0,0,1,.29-1.73,4.13,4.13,0,0,1,.81-1.36,3.67,3.67,0,0,1,1.23-.9,3.76,3.76,0,0,1,1.56-.32,3.39,3.39,0,0,1,1.83.46,3.63,3.63,0,0,1,1.17,1.16,4.59,4.59,0,0,1,.61,1.54,6.59,6.59,0,0,1,.14,1.58h-6.19a3.28,3.28,0,0,0,.13,1,2.33,2.33,0,0,0,.46.86,2.29,2.29,0,0,0,.82.6,2.81,2.81,0,0,0,1.17.22,2.35,2.35,0,0,0,1.42-.4,1.93,1.93,0,0,0,.73-1.22h1.34a3.31,3.31,0,0,1-1.2,2.1Zm4-7.74v1.31h0a2.86,2.86,0,0,1,2.69-1.5,3.59,3.59,0,0,1,1.36.22,2.24,2.24,0,0,1,.88.62,2.32,2.32,0,0,1,.47,1,5.13,5.13,0,0,1,.14,1.22V412H141.6v-5.6a1.64,1.64,0,0,0-.45-1.22,1.67,1.67,0,0,0-1.23-.45,2.77,2.77,0,0,0-1.08.19,2,2,0,0,0-.76.54,2.34,2.34,0,0,0-.46.82,3.35,3.35,0,0,0-.15,1V412h-1.36v-8.27Zm11.15,0V405H146.9v5.14a1.48,1.48,0,0,0,0,.38.39.39,0,0,0,.15.22.67.67,0,0,0,.31.1l.52,0h.62V412h-1a4.88,4.88,0,0,1-.9-.07,1.33,1.33,0,0,1-.61-.26,1.13,1.13,0,0,1-.34-.54,3.14,3.14,0,0,1-.11-.93V405h-1.41v-1.2h1.41v-2.48h1.36v2.48Zm7.7-3.15v10.14h6V412h-7.57V400.6Zm14.48,10.34a1.65,1.65,0,0,1-.42.06q-.32,0-.38-.22a3.16,3.16,0,0,1-.06-.7v-4.25a2.22,2.22,0,0,0-.27-1.17,1.92,1.92,0,0,0-.72-.69,2.91,2.91,0,0,0-1-.33,7.76,7.76,0,0,0-1.11-.08,5.79,5.79,0,0,0-1.32.14,3.22,3.22,0,0,0-1.1.47,2.43,2.43,0,0,0-.77.86,2.94,2.94,0,0,0-.32,1.3h1.36a1.39,1.39,0,0,1,.62-1.24,2.88,2.88,0,0,1,1.44-.33,4.47,4.47,0,0,1,.65,0,1.76,1.76,0,0,1,.59.19,1.15,1.15,0,0,1,.43.42,1.36,1.36,0,0,1,.17.72.74.74,0,0,1-.22.58,1.48,1.48,0,0,1-.61.3,5.9,5.9,0,0,1-.89.16q-.5.06-1.06.17t-1,.24a2.9,2.9,0,0,0-.9.42,2.09,2.09,0,0,0-.63.73,2.43,2.43,0,0,0-.24,1.15,2.4,2.4,0,0,0,.22,1.06,1.92,1.92,0,0,0,.58.71,2.47,2.47,0,0,0,.87.4,4.5,4.5,0,0,0,2.67-.17,3.25,3.25,0,0,0,1.3-1,1.29,1.29,0,0,0,.31,1,1.17,1.17,0,0,0,.84.3,1.93,1.93,0,0,0,1-.21v-1.06Zm-2.21-1.8a1.52,1.52,0,0,1-.14.61,1.83,1.83,0,0,1-.45.6,2.43,2.43,0,0,1-.78.46A3.24,3.24,0,0,1,166,411a2.81,2.81,0,0,1-.61-.06,1.48,1.48,0,0,1-.5-.21,1.13,1.13,0,0,1-.35-.37,1.1,1.1,0,0,1-.14-.57,1.27,1.27,0,0,1,.23-.8,1.51,1.51,0,0,1,.6-.45,3.4,3.4,0,0,1,.83-.23l.92-.13q.46-.06.87-.14a1.7,1.7,0,0,0,.67-.28v1.39Zm10.32-5.39h-1.44l-2.32,6.77h0l-2.42-6.77h-1.54l3.28,8.22-.56,1.39a1.23,1.23,0,0,1-.42.57,1.17,1.17,0,0,1-.7.2,1.72,1.72,0,0,1-.39-.06,2.3,2.3,0,0,1-.41-.14v1.25a2.28,2.28,0,0,0,.46.11,3.64,3.64,0,0,0,.48,0,2.4,2.4,0,0,0,.79-.12,1.74,1.74,0,0,0,.62-.38,2.81,2.81,0,0,0,.51-.68,8.69,8.69,0,0,0,.47-1l3.6-9.38Zm2.34,5.48a2.79,2.79,0,0,0,.55,1,2.39,2.39,0,0,0,.82.6,2.51,2.51,0,0,0,2,0,2.39,2.39,0,0,0,.82-.6,2.8,2.8,0,0,0,.55-1,4.56,4.56,0,0,0,0-2.67,2.89,2.89,0,0,0-.55-1,2.36,2.36,0,0,0-.82-.61,2.51,2.51,0,0,0-2,0,2.35,2.35,0,0,0-.82.61,2.88,2.88,0,0,0-.55,1,4.56,4.56,0,0,0,0,2.67Zm-1.38-3a3.86,3.86,0,0,1,.77-1.38,3.62,3.62,0,0,1,1.26-.92,4.63,4.63,0,0,1,3.46,0,3.64,3.64,0,0,1,1.26.92,3.86,3.86,0,0,1,.77,1.38,5.51,5.51,0,0,1,.26,1.7,5.44,5.44,0,0,1-.26,1.7,3.87,3.87,0,0,1-.77,1.37,3.55,3.55,0,0,1-1.26.91,4.74,4.74,0,0,1-3.46,0,3.53,3.53,0,0,1-1.26-.91,3.86,3.86,0,0,1-.77-1.37,5.43,5.43,0,0,1-.26-1.7,5.51,5.51,0,0,1,.26-1.7ZM194.74,412v-1.31h0a2.78,2.78,0,0,1-1.1,1.13,3.31,3.31,0,0,1-1.58.36,3.71,3.71,0,0,1-1.36-.22,2.17,2.17,0,0,1-.88-.62,2.31,2.31,0,0,1-.47-1,5.11,5.11,0,0,1-.14-1.22v-5.44h1.36v5.6a1.64,1.64,0,0,0,.45,1.22,1.66,1.66,0,0,0,1.23.45,2.77,2.77,0,0,0,1.08-.19,2,2,0,0,0,.76-.54,2.35,2.35,0,0,0,.46-.82,3.35,3.35,0,0,0,.15-1v-4.67H196V412Zm6.86-8.27V405H200v5.14a1.48,1.48,0,0,0,0,.38.39.39,0,0,0,.15.22.67.67,0,0,0,.31.1l.52,0h.62V412h-1a4.88,4.88,0,0,1-.9-.07,1.33,1.33,0,0,1-.61-.26,1.13,1.13,0,0,1-.34-.54,3.14,3.14,0,0,1-.11-.93V405h-1.41v-1.2h1.41v-2.48H200v2.48Z"/><path class="cls-6" d="M255.38,356.5h188a5,5,0,0,1,5,5V451a5,5,0,0,1-5,5h-188a5,5,0,0,1-5-5V361.5a5,5,0,0,1,5-5Zm0,0"/><path d="M304.33,402.22a3.53,3.53,0,0,0-2.07-.61,3.71,3.71,0,0,0-1.75.38,3.46,3.46,0,0,0-1.2,1,4.45,4.45,0,0,0-.7,1.48,6.61,6.61,0,0,0-.22,1.73,7.4,7.4,0,0,0,.22,1.85,4.42,4.42,0,0,0,.7,1.52,3.43,3.43,0,0,0,1.21,1,3.76,3.76,0,0,0,1.76.38,3.39,3.39,0,0,0,1.34-.25,3,3,0,0,0,1-.69,3.17,3.17,0,0,0,.66-1,4.36,4.36,0,0,0,.29-1.31h1.52a5.19,5.19,0,0,1-1.49,3.36,4.81,4.81,0,0,1-3.46,1.2,5.51,5.51,0,0,1-2.32-.46,4.55,4.55,0,0,1-1.65-1.26,5.39,5.39,0,0,1-1-1.89,8.05,8.05,0,0,1-.33-2.34,7.62,7.62,0,0,1,.35-2.34,5.64,5.64,0,0,1,1-1.91,4.81,4.81,0,0,1,1.7-1.29,5.47,5.47,0,0,1,2.33-.47,5.87,5.87,0,0,1,1.7.24,4.56,4.56,0,0,1,1.42.7,4,4,0,0,1,1,1.16A4.26,4.26,0,0,1,307,404h-1.52a2.83,2.83,0,0,0-1.13-1.82Zm10,9.81v-1.31h0a2.78,2.78,0,0,1-1.1,1.13,3.31,3.31,0,0,1-1.58.36,3.71,3.71,0,0,1-1.36-.22,2.17,2.17,0,0,1-.88-.62,2.31,2.31,0,0,1-.47-1,5.11,5.11,0,0,1-.14-1.22v-5.44h1.36v5.6a1.64,1.64,0,0,0,.45,1.22,1.66,1.66,0,0,0,1.23.45,2.77,2.77,0,0,0,1.08-.19,2,2,0,0,0,.76-.54,2.35,2.35,0,0,0,.46-.82,3.35,3.35,0,0,0,.15-1v-4.67h1.36V412Zm4.56-8.27v1.74h0a3.68,3.68,0,0,1,1.22-1.49,3.06,3.06,0,0,1,1.82-.45V405a3.85,3.85,0,0,0-1.39.22,2.19,2.19,0,0,0-.93.66,2.71,2.71,0,0,0-.51,1,5.65,5.65,0,0,0-.16,1.42V412H317.6v-8.27Zm5.33,0v1.74h0a3.68,3.68,0,0,1,1.22-1.49,3.06,3.06,0,0,1,1.82-.45V405a3.85,3.85,0,0,0-1.39.22,2.19,2.19,0,0,0-.93.66,2.71,2.71,0,0,0-.51,1,5.65,5.65,0,0,0-.16,1.42V412h-1.36v-8.27Z"/><path d="M333.55,406.19a2.33,2.33,0,0,0-.5-.74,2.36,2.36,0,0,0-.74-.5,2.33,2.33,0,0,0-.94-.18,2.37,2.37,0,0,0-1,.18,2.2,2.2,0,0,0-.73.5,2.41,2.41,0,0,0-.48.74,2.83,2.83,0,0,0-.21.9h4.75a2.79,2.79,0,0,0-.22-.91Zm.33,5.31a3.75,3.75,0,0,1-2.34.7,4.25,4.25,0,0,1-1.72-.32,3.39,3.39,0,0,1-1.22-.9,3.8,3.8,0,0,1-.74-1.38,6.62,6.62,0,0,1-.28-1.74,5,5,0,0,1,.29-1.73,4.13,4.13,0,0,1,.81-1.36,3.67,3.67,0,0,1,1.23-.9,3.76,3.76,0,0,1,1.56-.32,3.39,3.39,0,0,1,1.83.46,3.63,3.63,0,0,1,1.17,1.16,4.59,4.59,0,0,1,.61,1.54,6.59,6.59,0,0,1,.14,1.58H329a3.28,3.28,0,0,0,.13,1,2.33,2.33,0,0,0,.46.86,2.29,2.29,0,0,0,.82.6,2.81,2.81,0,0,0,1.17.22,2.35,2.35,0,0,0,1.42-.4,1.93,1.93,0,0,0,.73-1.22h1.34a3.31,3.31,0,0,1-1.2,2.1Zm4-7.74v1.31h0a2.86,2.86,0,0,1,2.69-1.5,3.59,3.59,0,0,1,1.36.22,2.24,2.24,0,0,1,.88.62,2.32,2.32,0,0,1,.47,1,5.13,5.13,0,0,1,.14,1.22V412H342.1v-5.6a1.64,1.64,0,0,0-.45-1.22,1.67,1.67,0,0,0-1.23-.45,2.77,2.77,0,0,0-1.08.19,2,2,0,0,0-.76.54,2.34,2.34,0,0,0-.46.82,3.35,3.35,0,0,0-.15,1V412h-1.36v-8.27Zm11.15,0V405H347.4v5.14a1.48,1.48,0,0,0,0,.38.39.39,0,0,0,.15.22.67.67,0,0,0,.31.1l.52,0H349V412h-1a4.88,4.88,0,0,1-.9-.07,1.33,1.33,0,0,1-.61-.26,1.13,1.13,0,0,1-.34-.54,3.14,3.14,0,0,1-.11-.93V405h-1.41v-1.2H346v-2.48h1.36v2.48Zm7.7-3.15v10.14h6V412h-7.57V400.6Zm14.48,10.34a1.65,1.65,0,0,1-.42.06q-.32,0-.38-.22a3.16,3.16,0,0,1-.06-.7v-4.25a2.22,2.22,0,0,0-.27-1.17,1.92,1.92,0,0,0-.72-.69,2.91,2.91,0,0,0-1-.33,7.76,7.76,0,0,0-1.11-.08,5.79,5.79,0,0,0-1.32.14,3.22,3.22,0,0,0-1.1.47,2.43,2.43,0,0,0-.77.86,2.94,2.94,0,0,0-.32,1.3h1.36a1.39,1.39,0,0,1,.62-1.24,2.88,2.88,0,0,1,1.44-.33,4.47,4.47,0,0,1,.65,0,1.76,1.76,0,0,1,.59.19,1.15,1.15,0,0,1,.43.42,1.36,1.36,0,0,1,.17.72.74.74,0,0,1-.22.58,1.48,1.48,0,0,1-.61.3,5.9,5.9,0,0,1-.89.16q-.5.06-1.06.17t-1,.24a2.9,2.9,0,0,0-.9.42,2.09,2.09,0,0,0-.63.73,2.43,2.43,0,0,0-.24,1.15,2.4,2.4,0,0,0,.22,1.06,1.92,1.92,0,0,0,.58.71,2.47,2.47,0,0,0,.87.4,4.5,4.5,0,0,0,2.67-.17,3.25,3.25,0,0,0,1.3-1,1.29,1.29,0,0,0,.31,1,1.17,1.17,0,0,0,.84.3,1.93,1.93,0,0,0,1-.21v-1.06Zm-2.21-1.8a1.52,1.52,0,0,1-.14.61,1.83,1.83,0,0,1-.45.6,2.43,2.43,0,0,1-.78.46,3.24,3.24,0,0,1-1.15.18,2.81,2.81,0,0,1-.61-.06,1.48,1.48,0,0,1-.5-.21,1.13,1.13,0,0,1-.35-.37,1.1,1.1,0,0,1-.14-.57,1.27,1.27,0,0,1,.23-.8,1.51,1.51,0,0,1,.6-.45,3.4,3.4,0,0,1,.83-.23l.92-.13q.46-.06.87-.14a1.7,1.7,0,0,0,.67-.28v1.39Zm10.32-5.39h-1.44l-2.32,6.77h0l-2.42-6.77h-1.54l3.28,8.22-.56,1.39a1.23,1.23,0,0,1-.42.57,1.17,1.17,0,0,1-.7.2,1.72,1.72,0,0,1-.39-.06,2.3,2.3,0,0,1-.41-.14v1.25a2.28,2.28,0,0,0,.46.11,3.64,3.64,0,0,0,.48,0,2.4,2.4,0,0,0,.79-.12,1.74,1.74,0,0,0,.62-.38,2.81,2.81,0,0,0,.51-.68,8.69,8.69,0,0,0,.47-1l3.6-9.38Zm2.34,5.48a2.79,2.79,0,0,0,.55,1,2.39,2.39,0,0,0,.82.6,2.51,2.51,0,0,0,2,0,2.39,2.39,0,0,0,.82-.6,2.8,2.8,0,0,0,.55-1,4.56,4.56,0,0,0,0-2.67,2.89,2.89,0,0,0-.55-1,2.36,2.36,0,0,0-.82-.61,2.51,2.51,0,0,0-2,0,2.35,2.35,0,0,0-.82.61,2.88,2.88,0,0,0-.55,1,4.56,4.56,0,0,0,0,2.67Zm-1.38-3a3.86,3.86,0,0,1,.77-1.38,3.62,3.62,0,0,1,1.26-.92,4.63,4.63,0,0,1,3.46,0,3.64,3.64,0,0,1,1.26.92,3.86,3.86,0,0,1,.77,1.38,5.51,5.51,0,0,1,.26,1.7,5.44,5.44,0,0,1-.26,1.7A3.87,3.87,0,0,1,387,411a3.55,3.55,0,0,1-1.26.91,4.74,4.74,0,0,1-3.46,0,3.53,3.53,0,0,1-1.26-.91,3.87,3.87,0,0,1-.77-1.37,5.43,5.43,0,0,1-.26-1.7,5.51,5.51,0,0,1,.26-1.7ZM395.24,412v-1.31h0a2.78,2.78,0,0,1-1.1,1.13,3.31,3.31,0,0,1-1.58.36,3.71,3.71,0,0,1-1.36-.22,2.17,2.17,0,0,1-.88-.62,2.32,2.32,0,0,1-.47-1,5.12,5.12,0,0,1-.14-1.22v-5.44H391v5.6a1.64,1.64,0,0,0,.45,1.22,1.66,1.66,0,0,0,1.23.45,2.77,2.77,0,0,0,1.08-.19,2,2,0,0,0,.76-.54,2.35,2.35,0,0,0,.46-.82,3.35,3.35,0,0,0,.15-1v-4.67h1.36V412Zm6.86-8.27V405h-1.65v5.14a1.48,1.48,0,0,0,0,.38.39.39,0,0,0,.15.22.67.67,0,0,0,.31.1l.52,0h.62V412h-1a4.88,4.88,0,0,1-.9-.07,1.33,1.33,0,0,1-.61-.26,1.13,1.13,0,0,1-.34-.54,3.14,3.14,0,0,1-.11-.93V405h-1.41v-1.2h1.41v-2.48h1.36v2.48Z"/><path class="cls-6" d="M54.88,458.5h188a5,5,0,0,1,5,5V553a5,5,0,0,1-5,5h-188a5,5,0,0,1-5-5V463.5a5,5,0,0,1,5-5Zm0,0"/><path d="M103.83,504.22a3.53,3.53,0,0,0-2.07-.61A3.71,3.71,0,0,0,100,504a3.46,3.46,0,0,0-1.2,1,4.45,4.45,0,0,0-.7,1.48,6.61,6.61,0,0,0-.22,1.73,7.39,7.39,0,0,0,.22,1.85,4.42,4.42,0,0,0,.7,1.52,3.43,3.43,0,0,0,1.21,1,3.76,3.76,0,0,0,1.76.38,3.39,3.39,0,0,0,1.34-.25,3,3,0,0,0,1-.69,3.17,3.17,0,0,0,.66-1,4.36,4.36,0,0,0,.29-1.31h1.52a5.19,5.19,0,0,1-1.49,3.36,4.81,4.81,0,0,1-3.46,1.2,5.51,5.51,0,0,1-2.32-.46,4.55,4.55,0,0,1-1.65-1.26,5.39,5.39,0,0,1-1-1.89,8.05,8.05,0,0,1-.33-2.34,7.62,7.62,0,0,1,.35-2.34,5.64,5.64,0,0,1,1-1.91,4.81,4.81,0,0,1,1.7-1.29,5.47,5.47,0,0,1,2.33-.47,5.87,5.87,0,0,1,1.7.24,4.56,4.56,0,0,1,1.42.7,4,4,0,0,1,1,1.16,4.25,4.25,0,0,1,.54,1.61H105a2.83,2.83,0,0,0-1.13-1.82Zm10,9.81v-1.31h0a2.78,2.78,0,0,1-1.1,1.13,3.31,3.31,0,0,1-1.58.36,3.71,3.71,0,0,1-1.36-.22,2.17,2.17,0,0,1-.88-.62,2.31,2.31,0,0,1-.47-1,5.11,5.11,0,0,1-.14-1.22v-5.44h1.36v5.6a1.64,1.64,0,0,0,.45,1.22,1.66,1.66,0,0,0,1.23.45,2.77,2.77,0,0,0,1.08-.19,2,2,0,0,0,.76-.54,2.35,2.35,0,0,0,.46-.82,3.35,3.35,0,0,0,.15-1v-4.67h1.36V514Zm4.56-8.27v1.74h0a3.68,3.68,0,0,1,1.22-1.49,3.06,3.06,0,0,1,1.82-.45V507a3.85,3.85,0,0,0-1.39.22,2.19,2.19,0,0,0-.93.66,2.71,2.71,0,0,0-.51,1,5.65,5.65,0,0,0-.16,1.42V514H117.1v-8.27Zm5.33,0v1.74h0A3.68,3.68,0,0,1,125,506a3.06,3.06,0,0,1,1.82-.45V507a3.85,3.85,0,0,0-1.39.22,2.19,2.19,0,0,0-.93.66,2.71,2.71,0,0,0-.51,1,5.65,5.65,0,0,0-.16,1.42V514h-1.36v-8.27Z"/><path d="M133,508.19a2.33,2.33,0,0,0-.5-.74,2.36,2.36,0,0,0-.74-.5,2.33,2.33,0,0,0-.94-.18,2.37,2.37,0,0,0-1,.18,2.2,2.2,0,0,0-.73.5,2.41,2.41,0,0,0-.48.74,2.83,2.83,0,0,0-.21.9h4.75a2.79,2.79,0,0,0-.22-.91Zm.33,5.31a3.75,3.75,0,0,1-2.34.7,4.25,4.25,0,0,1-1.72-.32,3.39,3.39,0,0,1-1.22-.9,3.8,3.8,0,0,1-.74-1.38,6.62,6.62,0,0,1-.28-1.74,5,5,0,0,1,.29-1.73,4.13,4.13,0,0,1,.81-1.36,3.67,3.67,0,0,1,1.23-.9,3.76,3.76,0,0,1,1.56-.32,3.39,3.39,0,0,1,1.83.46,3.63,3.63,0,0,1,1.17,1.16,4.59,4.59,0,0,1,.61,1.54,6.59,6.59,0,0,1,.14,1.58h-6.19a3.28,3.28,0,0,0,.13,1,2.33,2.33,0,0,0,.46.86,2.29,2.29,0,0,0,.82.6,2.81,2.81,0,0,0,1.17.22,2.35,2.35,0,0,0,1.42-.4,1.93,1.93,0,0,0,.73-1.22h1.34a3.31,3.31,0,0,1-1.2,2.1Zm4-7.74v1.31h0a2.86,2.86,0,0,1,2.69-1.5,3.59,3.59,0,0,1,1.36.22,2.24,2.24,0,0,1,.88.62,2.32,2.32,0,0,1,.47,1,5.13,5.13,0,0,1,.14,1.22V514H141.6v-5.6a1.64,1.64,0,0,0-.45-1.22,1.67,1.67,0,0,0-1.23-.45,2.77,2.77,0,0,0-1.08.19,2,2,0,0,0-.76.54,2.34,2.34,0,0,0-.46.82,3.35,3.35,0,0,0-.15,1V514h-1.36v-8.27Zm11.15,0V507H146.9v5.14a1.48,1.48,0,0,0,0,.38.39.39,0,0,0,.15.22.67.67,0,0,0,.31.1l.52,0h.62V514h-1a4.88,4.88,0,0,1-.9-.07,1.33,1.33,0,0,1-.61-.26,1.13,1.13,0,0,1-.34-.54,3.14,3.14,0,0,1-.11-.93V507h-1.41v-1.2h1.41v-2.48h1.36v2.48Zm7.7-3.15v10.14h6V514h-7.57V502.6Zm14.48,10.34a1.65,1.65,0,0,1-.42.06q-.32,0-.38-.22a3.16,3.16,0,0,1-.06-.7v-4.25a2.22,2.22,0,0,0-.27-1.17,1.92,1.92,0,0,0-.72-.69,2.91,2.91,0,0,0-1-.33,7.76,7.76,0,0,0-1.11-.08,5.79,5.79,0,0,0-1.32.14,3.22,3.22,0,0,0-1.1.47,2.43,2.43,0,0,0-.77.86,2.94,2.94,0,0,0-.32,1.3h1.36a1.39,1.39,0,0,1,.62-1.24,2.88,2.88,0,0,1,1.44-.33,4.47,4.47,0,0,1,.65,0,1.76,1.76,0,0,1,.59.19,1.15,1.15,0,0,1,.43.42,1.36,1.36,0,0,1,.17.72.74.74,0,0,1-.22.58,1.48,1.48,0,0,1-.61.3,5.9,5.9,0,0,1-.89.16q-.5.06-1.06.17t-1,.24a2.9,2.9,0,0,0-.9.42,2.09,2.09,0,0,0-.63.73,2.43,2.43,0,0,0-.24,1.15,2.4,2.4,0,0,0,.22,1.06,1.92,1.92,0,0,0,.58.71,2.47,2.47,0,0,0,.87.4,4.5,4.5,0,0,0,2.67-.17,3.25,3.25,0,0,0,1.3-1,1.29,1.29,0,0,0,.31,1,1.17,1.17,0,0,0,.84.3,1.93,1.93,0,0,0,1-.21v-1.06Zm-2.21-1.8a1.52,1.52,0,0,1-.14.61,1.83,1.83,0,0,1-.45.6,2.43,2.43,0,0,1-.78.46A3.24,3.24,0,0,1,166,513a2.81,2.81,0,0,1-.61-.06,1.48,1.48,0,0,1-.5-.21,1.13,1.13,0,0,1-.35-.37,1.1,1.1,0,0,1-.14-.57,1.27,1.27,0,0,1,.23-.8,1.51,1.51,0,0,1,.6-.45,3.4,3.4,0,0,1,.83-.23l.92-.13q.46-.06.87-.14a1.7,1.7,0,0,0,.67-.28v1.39Zm10.32-5.39h-1.44l-2.32,6.77h0l-2.42-6.77h-1.54l3.28,8.22-.56,1.39a1.23,1.23,0,0,1-.42.57,1.17,1.17,0,0,1-.7.2,1.72,1.72,0,0,1-.39-.06,2.3,2.3,0,0,1-.41-.14v1.25a2.28,2.28,0,0,0,.46.11,3.64,3.64,0,0,0,.48,0,2.4,2.4,0,0,0,.79-.12,1.74,1.74,0,0,0,.62-.38,2.81,2.81,0,0,0,.51-.68,8.69,8.69,0,0,0,.47-1l3.6-9.38Zm2.34,5.48a2.79,2.79,0,0,0,.55,1,2.39,2.39,0,0,0,.82.6,2.51,2.51,0,0,0,2,0,2.39,2.39,0,0,0,.82-.6,2.8,2.8,0,0,0,.55-1,4.56,4.56,0,0,0,0-2.67,2.89,2.89,0,0,0-.55-1,2.36,2.36,0,0,0-.82-.61,2.51,2.51,0,0,0-2,0,2.35,2.35,0,0,0-.82.61,2.88,2.88,0,0,0-.55,1,4.56,4.56,0,0,0,0,2.67Zm-1.38-3a3.86,3.86,0,0,1,.77-1.38,3.62,3.62,0,0,1,1.26-.92,4.63,4.63,0,0,1,3.46,0,3.64,3.64,0,0,1,1.26.92,3.86,3.86,0,0,1,.77,1.38,5.51,5.51,0,0,1,.26,1.7,5.44,5.44,0,0,1-.26,1.7,3.87,3.87,0,0,1-.77,1.37,3.55,3.55,0,0,1-1.26.91,4.74,4.74,0,0,1-3.46,0,3.53,3.53,0,0,1-1.26-.91,3.86,3.86,0,0,1-.77-1.37,5.43,5.43,0,0,1-.26-1.7,5.51,5.51,0,0,1,.26-1.7ZM194.74,514v-1.31h0a2.78,2.78,0,0,1-1.1,1.13,3.31,3.31,0,0,1-1.58.36,3.71,3.71,0,0,1-1.36-.22,2.17,2.17,0,0,1-.88-.62,2.31,2.31,0,0,1-.47-1,5.11,5.11,0,0,1-.14-1.22v-5.44h1.36v5.6a1.64,1.64,0,0,0,.45,1.22,1.66,1.66,0,0,0,1.23.45,2.77,2.77,0,0,0,1.08-.19,2,2,0,0,0,.76-.54,2.35,2.35,0,0,0,.46-.82,3.35,3.35,0,0,0,.15-1v-4.67H196V514Zm6.86-8.27V507H200v5.14a1.48,1.48,0,0,0,0,.38.39.39,0,0,0,.15.22.67.67,0,0,0,.31.1l.52,0h.62V514h-1a4.88,4.88,0,0,1-.9-.07,1.33,1.33,0,0,1-.61-.26,1.13,1.13,0,0,1-.34-.54,3.14,3.14,0,0,1-.11-.93V507h-1.41v-1.2h1.41v-2.48H200v2.48Z"/><path class="cls-6" d="M255.38,458.5h188a5,5,0,0,1,5,5V553a5,5,0,0,1-5,5h-188a5,5,0,0,1-5-5V463.5a5,5,0,0,1,5-5Zm0,0"/><path d="M304.33,504.22a3.53,3.53,0,0,0-2.07-.61,3.71,3.71,0,0,0-1.75.38,3.46,3.46,0,0,0-1.2,1,4.45,4.45,0,0,0-.7,1.48,6.61,6.61,0,0,0-.22,1.73,7.4,7.4,0,0,0,.22,1.85,4.42,4.42,0,0,0,.7,1.52,3.43,3.43,0,0,0,1.21,1,3.76,3.76,0,0,0,1.76.38,3.39,3.39,0,0,0,1.34-.25,3,3,0,0,0,1-.69,3.17,3.17,0,0,0,.66-1,4.36,4.36,0,0,0,.29-1.31h1.52a5.19,5.19,0,0,1-1.49,3.36,4.81,4.81,0,0,1-3.46,1.2,5.51,5.51,0,0,1-2.32-.46,4.55,4.55,0,0,1-1.65-1.26,5.39,5.39,0,0,1-1-1.89,8.05,8.05,0,0,1-.33-2.34,7.62,7.62,0,0,1,.35-2.34,5.64,5.64,0,0,1,1-1.91,4.81,4.81,0,0,1,1.7-1.29,5.47,5.47,0,0,1,2.33-.47,5.87,5.87,0,0,1,1.7.24,4.56,4.56,0,0,1,1.42.7,4,4,0,0,1,1,1.16A4.26,4.26,0,0,1,307,506h-1.52a2.83,2.83,0,0,0-1.13-1.82Zm10,9.81v-1.31h0a2.78,2.78,0,0,1-1.1,1.13,3.31,3.31,0,0,1-1.58.36,3.71,3.71,0,0,1-1.36-.22,2.17,2.17,0,0,1-.88-.62,2.31,2.31,0,0,1-.47-1,5.11,5.11,0,0,1-.14-1.22v-5.44h1.36v5.6a1.64,1.64,0,0,0,.45,1.22,1.66,1.66,0,0,0,1.23.45,2.77,2.77,0,0,0,1.08-.19,2,2,0,0,0,.76-.54,2.35,2.35,0,0,0,.46-.82,3.35,3.35,0,0,0,.15-1v-4.67h1.36V514Zm4.56-8.27v1.74h0a3.68,3.68,0,0,1,1.22-1.49,3.06,3.06,0,0,1,1.82-.45V507a3.85,3.85,0,0,0-1.39.22,2.19,2.19,0,0,0-.93.66,2.71,2.71,0,0,0-.51,1,5.65,5.65,0,0,0-.16,1.42V514H317.6v-8.27Zm5.33,0v1.74h0a3.68,3.68,0,0,1,1.22-1.49,3.06,3.06,0,0,1,1.82-.45V507a3.85,3.85,0,0,0-1.39.22,2.19,2.19,0,0,0-.93.66,2.71,2.71,0,0,0-.51,1,5.65,5.65,0,0,0-.16,1.42V514h-1.36v-8.27Z"/><path d="M333.55,508.19a2.33,2.33,0,0,0-.5-.74,2.36,2.36,0,0,0-.74-.5,2.33,2.33,0,0,0-.94-.18,2.37,2.37,0,0,0-1,.18,2.2,2.2,0,0,0-.73.5,2.41,2.41,0,0,0-.48.74,2.83,2.83,0,0,0-.21.9h4.75a2.79,2.79,0,0,0-.22-.91Zm.33,5.31a3.75,3.75,0,0,1-2.34.7,4.25,4.25,0,0,1-1.72-.32,3.39,3.39,0,0,1-1.22-.9,3.8,3.8,0,0,1-.74-1.38,6.62,6.62,0,0,1-.28-1.74,5,5,0,0,1,.29-1.73,4.13,4.13,0,0,1,.81-1.36,3.67,3.67,0,0,1,1.23-.9,3.76,3.76,0,0,1,1.56-.32,3.39,3.39,0,0,1,1.83.46,3.63,3.63,0,0,1,1.17,1.16,4.59,4.59,0,0,1,.61,1.54,6.59,6.59,0,0,1,.14,1.58H329a3.28,3.28,0,0,0,.13,1,2.33,2.33,0,0,0,.46.86,2.29,2.29,0,0,0,.82.6,2.81,2.81,0,0,0,1.17.22,2.35,2.35,0,0,0,1.42-.4,1.93,1.93,0,0,0,.73-1.22h1.34a3.31,3.31,0,0,1-1.2,2.1Zm4-7.74v1.31h0a2.86,2.86,0,0,1,2.69-1.5,3.59,3.59,0,0,1,1.36.22,2.24,2.24,0,0,1,.88.62,2.32,2.32,0,0,1,.47,1,5.13,5.13,0,0,1,.14,1.22V514H342.1v-5.6a1.64,1.64,0,0,0-.45-1.22,1.67,1.67,0,0,0-1.23-.45,2.77,2.77,0,0,0-1.08.19,2,2,0,0,0-.76.54,2.34,2.34,0,0,0-.46.82,3.35,3.35,0,0,0-.15,1V514h-1.36v-8.27Zm11.15,0V507H347.4v5.14a1.48,1.48,0,0,0,0,.38.39.39,0,0,0,.15.22.67.67,0,0,0,.31.1l.52,0H349V514h-1a4.88,4.88,0,0,1-.9-.07,1.33,1.33,0,0,1-.61-.26,1.13,1.13,0,0,1-.34-.54,3.14,3.14,0,0,1-.11-.93V507h-1.41v-1.2H346v-2.48h1.36v2.48Zm7.7-3.15v10.14h6V514h-7.57V502.6Zm14.48,10.34a1.65,1.65,0,0,1-.42.06q-.32,0-.38-.22a3.16,3.16,0,0,1-.06-.7v-4.25a2.22,2.22,0,0,0-.27-1.17,1.92,1.92,0,0,0-.72-.69,2.91,2.91,0,0,0-1-.33,7.76,7.76,0,0,0-1.11-.08,5.79,5.79,0,0,0-1.32.14,3.22,3.22,0,0,0-1.1.47,2.43,2.43,0,0,0-.77.86,2.94,2.94,0,0,0-.32,1.3h1.36a1.39,1.39,0,0,1,.62-1.24,2.88,2.88,0,0,1,1.44-.33,4.47,4.47,0,0,1,.65,0,1.76,1.76,0,0,1,.59.19,1.15,1.15,0,0,1,.43.42,1.36,1.36,0,0,1,.17.72.74.74,0,0,1-.22.58,1.48,1.48,0,0,1-.61.3,5.9,5.9,0,0,1-.89.16q-.5.06-1.06.17t-1,.24a2.9,2.9,0,0,0-.9.42,2.09,2.09,0,0,0-.63.73,2.43,2.43,0,0,0-.24,1.15,2.4,2.4,0,0,0,.22,1.06,1.92,1.92,0,0,0,.58.71,2.47,2.47,0,0,0,.87.4,4.5,4.5,0,0,0,2.67-.17,3.25,3.25,0,0,0,1.3-1,1.29,1.29,0,0,0,.31,1,1.17,1.17,0,0,0,.84.3,1.93,1.93,0,0,0,1-.21v-1.06Zm-2.21-1.8a1.52,1.52,0,0,1-.14.61,1.83,1.83,0,0,1-.45.6,2.43,2.43,0,0,1-.78.46,3.24,3.24,0,0,1-1.15.18,2.81,2.81,0,0,1-.61-.06,1.48,1.48,0,0,1-.5-.21,1.13,1.13,0,0,1-.35-.37,1.1,1.1,0,0,1-.14-.57,1.27,1.27,0,0,1,.23-.8,1.51,1.51,0,0,1,.6-.45,3.4,3.4,0,0,1,.83-.23l.92-.13q.46-.06.87-.14a1.7,1.7,0,0,0,.67-.28v1.39Zm10.32-5.39h-1.44l-2.32,6.77h0l-2.42-6.77h-1.54l3.28,8.22-.56,1.39a1.23,1.23,0,0,1-.42.57,1.17,1.17,0,0,1-.7.2,1.72,1.72,0,0,1-.39-.06,2.3,2.3,0,0,1-.41-.14v1.25a2.28,2.28,0,0,0,.46.11,3.64,3.64,0,0,0,.48,0,2.4,2.4,0,0,0,.79-.12,1.74,1.74,0,0,0,.62-.38,2.81,2.81,0,0,0,.51-.68,8.69,8.69,0,0,0,.47-1l3.6-9.38Zm2.34,5.48a2.79,2.79,0,0,0,.55,1,2.39,2.39,0,0,0,.82.6,2.51,2.51,0,0,0,2,0,2.39,2.39,0,0,0,.82-.6,2.8,2.8,0,0,0,.55-1,4.56,4.56,0,0,0,0-2.67,2.89,2.89,0,0,0-.55-1,2.36,2.36,0,0,0-.82-.61,2.51,2.51,0,0,0-2,0,2.35,2.35,0,0,0-.82.61,2.88,2.88,0,0,0-.55,1,4.56,4.56,0,0,0,0,2.67Zm-1.38-3a3.86,3.86,0,0,1,.77-1.38,3.62,3.62,0,0,1,1.26-.92,4.63,4.63,0,0,1,3.46,0,3.64,3.64,0,0,1,1.26.92,3.86,3.86,0,0,1,.77,1.38,5.51,5.51,0,0,1,.26,1.7,5.44,5.44,0,0,1-.26,1.7A3.87,3.87,0,0,1,387,513a3.55,3.55,0,0,1-1.26.91,4.74,4.74,0,0,1-3.46,0,3.53,3.53,0,0,1-1.26-.91,3.87,3.87,0,0,1-.77-1.37,5.43,5.43,0,0,1-.26-1.7,5.51,5.51,0,0,1,.26-1.7ZM395.24,514v-1.31h0a2.78,2.78,0,0,1-1.1,1.13,3.31,3.31,0,0,1-1.58.36,3.71,3.71,0,0,1-1.36-.22,2.17,2.17,0,0,1-.88-.62,2.32,2.32,0,0,1-.47-1,5.12,5.12,0,0,1-.14-1.22v-5.44H391v5.6a1.64,1.64,0,0,0,.45,1.22,1.66,1.66,0,0,0,1.23.45,2.77,2.77,0,0,0,1.08-.19,2,2,0,0,0,.76-.54,2.35,2.35,0,0,0,.46-.82,3.35,3.35,0,0,0,.15-1v-4.67h1.36V514Zm6.86-8.27V507h-1.65v5.14a1.48,1.48,0,0,0,0,.38.39.39,0,0,0,.15.22.67.67,0,0,0,.31.1l.52,0h.62V514h-1a4.88,4.88,0,0,1-.9-.07,1.33,1.33,0,0,1-.61-.26,1.13,1.13,0,0,1-.34-.54,3.14,3.14,0,0,1-.11-.93V507h-1.41v-1.2h1.41v-2.48h1.36v2.48Z"/><path class="cls-7" d="M675.38,53.5h188a5,5,0,0,1,5,5V148a5,5,0,0,1-5,5h-188a5,5,0,0,1-5-5V58.5a5,5,0,0,1,5-5Zm0,0"/><path d="M732.48,99.22a3.53,3.53,0,0,0-2.07-.61,3.71,3.71,0,0,0-1.75.38,3.45,3.45,0,0,0-1.2,1,4.45,4.45,0,0,0-.7,1.48,6.61,6.61,0,0,0-.22,1.73,7.39,7.39,0,0,0,.22,1.85,4.41,4.41,0,0,0,.7,1.52,3.44,3.44,0,0,0,1.21,1,3.76,3.76,0,0,0,1.76.38,3.39,3.39,0,0,0,1.34-.25,3,3,0,0,0,1-.69,3.17,3.17,0,0,0,.66-1,4.36,4.36,0,0,0,.29-1.31h1.52a5.19,5.19,0,0,1-1.49,3.36,4.82,4.82,0,0,1-3.46,1.2,5.51,5.51,0,0,1-2.32-.46,4.55,4.55,0,0,1-1.65-1.26,5.39,5.39,0,0,1-1-1.89,8.05,8.05,0,0,1-.33-2.34,7.62,7.62,0,0,1,.35-2.34,5.64,5.64,0,0,1,1-1.91,4.81,4.81,0,0,1,1.7-1.29,5.47,5.47,0,0,1,2.33-.47,5.87,5.87,0,0,1,1.7.24,4.56,4.56,0,0,1,1.42.7,4,4,0,0,1,1,1.16,4.25,4.25,0,0,1,.54,1.61h-1.52a2.83,2.83,0,0,0-1.13-1.82Zm5.78-1.62V102h0a1.81,1.81,0,0,1,.45-.65,2.54,2.54,0,0,1,.65-.43,3.37,3.37,0,0,1,.75-.25,3.8,3.8,0,0,1,.76-.08,3.59,3.59,0,0,1,1.36.22,2.24,2.24,0,0,1,.88.62,2.32,2.32,0,0,1,.47,1,5.13,5.13,0,0,1,.14,1.22V109H742.4v-5.6a1.64,1.64,0,0,0-.45-1.22,1.67,1.67,0,0,0-1.23-.45,2.77,2.77,0,0,0-1.08.19,2,2,0,0,0-.76.54,2.34,2.34,0,0,0-.46.82,3.35,3.35,0,0,0-.15,1V109h-1.36V97.6Zm7.62,1.66V97.6h1.36v1.66Zm1.36,1.49V109h-1.36v-8.27Zm3.55-3.15V109h-1.36V97.6Zm3.26,8.49a3,3,0,0,0,.46,1,2.27,2.27,0,0,0,.8.69,2.43,2.43,0,0,0,1.14.26,2.25,2.25,0,0,0,2-1,3,3,0,0,0,.44-1,4.84,4.84,0,0,0,0-2.31,2.91,2.91,0,0,0-.46-1,2.33,2.33,0,0,0-.81-.7,2.52,2.52,0,0,0-1.2-.26,2.34,2.34,0,0,0-1.17.27,2.17,2.17,0,0,0-.77.72,3.13,3.13,0,0,0-.42,1,5.43,5.43,0,0,0-.13,1.18,4.22,4.22,0,0,0,.15,1.13Zm4.89,2.94v-1.12h0a2,2,0,0,1-1.06,1,4,4,0,0,1-1.58.3,3.73,3.73,0,0,1-1.67-.35,3.43,3.43,0,0,1-1.18-.94,4.11,4.11,0,0,1-.71-1.38,5.65,5.65,0,0,1-.24-1.66,5.83,5.83,0,0,1,.23-1.66,3.92,3.92,0,0,1,.7-1.37,3.4,3.4,0,0,1,1.18-.93,3.77,3.77,0,0,1,1.66-.34,4,4,0,0,1,.69.06,3.51,3.51,0,0,1,.74.22,3.15,3.15,0,0,1,.7.4,2.2,2.2,0,0,1,.55.62h0V97.6h1.36V109Zm9.65-11.42v10.14h6V109h-7.57V97.6Zm14.48,10.34a1.64,1.64,0,0,1-.42.06q-.32,0-.38-.22a3.16,3.16,0,0,1-.06-.7v-4.25a2.22,2.22,0,0,0-.27-1.17,1.92,1.92,0,0,0-.72-.69,2.91,2.91,0,0,0-1-.33,7.75,7.75,0,0,0-1.11-.08,5.79,5.79,0,0,0-1.32.14,3.22,3.22,0,0,0-1.1.47,2.43,2.43,0,0,0-.77.86,2.94,2.94,0,0,0-.32,1.3H777a1.39,1.39,0,0,1,.62-1.24,2.88,2.88,0,0,1,1.44-.33,4.47,4.47,0,0,1,.65,0,1.76,1.76,0,0,1,.59.19,1.15,1.15,0,0,1,.43.42,1.36,1.36,0,0,1,.17.72.74.74,0,0,1-.22.58,1.48,1.48,0,0,1-.61.3,5.9,5.9,0,0,1-.89.16q-.5.06-1.06.17t-1,.24a2.9,2.9,0,0,0-.9.42,2.09,2.09,0,0,0-.63.73,2.43,2.43,0,0,0-.24,1.15,2.4,2.4,0,0,0,.22,1.06,1.92,1.92,0,0,0,.58.71,2.47,2.47,0,0,0,.87.4,4.5,4.5,0,0,0,2.67-.17,3.25,3.25,0,0,0,1.3-1,1.29,1.29,0,0,0,.31,1,1.17,1.17,0,0,0,.84.3,1.93,1.93,0,0,0,1-.21v-1.06Zm-2.21-1.8a1.52,1.52,0,0,1-.14.61,1.83,1.83,0,0,1-.45.6,2.42,2.42,0,0,1-.78.46,3.24,3.24,0,0,1-1.15.18,2.81,2.81,0,0,1-.61-.06,1.48,1.48,0,0,1-.5-.21,1.13,1.13,0,0,1-.35-.37,1.1,1.1,0,0,1-.14-.57,1.27,1.27,0,0,1,.23-.8,1.51,1.51,0,0,1,.6-.45,3.4,3.4,0,0,1,.83-.23l.92-.13q.46-.06.87-.14a1.7,1.7,0,0,0,.67-.28v1.39Zm10.32-5.39h-1.44l-2.32,6.77h0L785,100.75h-1.54l3.28,8.22-.56,1.39a1.23,1.23,0,0,1-.42.57,1.17,1.17,0,0,1-.7.2,1.72,1.72,0,0,1-.39-.06,2.3,2.3,0,0,1-.41-.14v1.25a2.28,2.28,0,0,0,.46.11,3.64,3.64,0,0,0,.48,0,2.4,2.4,0,0,0,.79-.12,1.74,1.74,0,0,0,.62-.38,2.81,2.81,0,0,0,.51-.68,8.69,8.69,0,0,0,.47-1l3.6-9.38Zm2.34,5.48a2.79,2.79,0,0,0,.55,1,2.39,2.39,0,0,0,.82.6,2.51,2.51,0,0,0,2,0,2.39,2.39,0,0,0,.82-.6,2.8,2.8,0,0,0,.55-1,4.56,4.56,0,0,0,0-2.67,2.89,2.89,0,0,0-.55-1,2.36,2.36,0,0,0-.82-.61,2.51,2.51,0,0,0-2,0,2.35,2.35,0,0,0-.82.61,2.88,2.88,0,0,0-.55,1,4.56,4.56,0,0,0,0,2.67Zm-1.38-3a3.86,3.86,0,0,1,.77-1.38,3.62,3.62,0,0,1,1.26-.92,4.63,4.63,0,0,1,3.46,0,3.64,3.64,0,0,1,1.26.92,3.87,3.87,0,0,1,.77,1.38,5.51,5.51,0,0,1,.26,1.7,5.44,5.44,0,0,1-.26,1.7,3.87,3.87,0,0,1-.77,1.37,3.55,3.55,0,0,1-1.26.91,4.74,4.74,0,0,1-3.46,0,3.53,3.53,0,0,1-1.26-.91,3.87,3.87,0,0,1-.77-1.37,5.43,5.43,0,0,1-.26-1.7,5.51,5.51,0,0,1,.26-1.7ZM807.08,109v-1.31h0a2.78,2.78,0,0,1-1.1,1.13,3.31,3.31,0,0,1-1.58.36A3.71,3.71,0,0,1,803,109a2.17,2.17,0,0,1-.88-.62,2.32,2.32,0,0,1-.47-1,5.12,5.12,0,0,1-.14-1.22v-5.44h1.36v5.6a1.64,1.64,0,0,0,.45,1.22,1.66,1.66,0,0,0,1.23.45,2.77,2.77,0,0,0,1.08-.19,2,2,0,0,0,.76-.54,2.35,2.35,0,0,0,.46-.82,3.35,3.35,0,0,0,.15-1v-4.67h1.36V109Zm6.86-8.27V102H812.3v5.14a1.48,1.48,0,0,0,0,.38.39.39,0,0,0,.15.22.67.67,0,0,0,.31.1l.52,0h.62V109h-1a4.88,4.88,0,0,1-.9-.07,1.33,1.33,0,0,1-.61-.26,1.13,1.13,0,0,1-.34-.54,3.14,3.14,0,0,1-.11-.93V102h-1.41v-1.2h1.41V98.27h1.36v2.48Z"/><line class="cls-3" x1="448.88" y1="178.8" x2="660.24" y2="128.97"/><path d="M668,127.14l-8.47-1.08,1.38,5.84Zm0,0"/><path class="cls-8" d="M668,127.14l-8.47-1.08,1.38,5.84Zm0,0"/><path class="cls-9" d="M532.88,219h188a5,5,0,0,1,5,5v54.5a5,5,0,0,1-5,5h-188a5,5,0,0,1-5-5V224a5,5,0,0,1,5-5Zm0,0"/><text class="cls-5" transform="translate(574.08 257.24)">LayoutChild</text><g class="cls-2"><path class="cls-9" d="M807.38,219h188a5,5,0,0,1,5,5v54.5a5,5,0,0,1-5,5h-188a5,5,0,0,1-5-5V224a5,5,0,0,1,5-5Zm0,0"/></g><text class="cls-5" transform="translate(848.58 257.24)">LayoutEdges</text><path class="cls-10" d="M569.63,349.5h114.5a5,5,0,0,1,5,5V409a5,5,0,0,1-5,5H569.63a5,5,0,0,1-5-5V354.5a5,5,0,0,1,5-5Zm0,0"/><text class="cls-5" transform="translate(588.48 387.75)">Fragment</text><line class="cls-3" x1="721" y1="153.5" x2="665.28" y2="211.37"/><path d="M659.73,217.13l7.71-3.68-4.32-4.16Zm0,0"/><path class="cls-8" d="M659.73,217.13l7.71-3.68-4.32-4.16Zm0,0"/><line class="cls-3" x1="814.2" y1="153.5" x2="865.58" y2="211.11"/><path d="M870.91,217.08l-3.09-8-4.48,4Zm0,0"/><path class="cls-8" d="M870.91,217.08l-3.09-8-4.48,4Zm0,0"/><line class="cls-3" x1="626.88" y1="284" x2="626.88" y2="339.1"/><path d="M626.88,347.1l3-8h-6Zm0,0"/><path class="cls-8" d="M626.88,347.1l3-8h-6Zm0,0"/></svg>