<svg id="Layer_1" data-name="Layer 1" xmlns="http://www.w3.org/2000/svg" xmlns:xlink="http://www.w3.org/1999/xlink" viewBox="0 0 501.5 266.6"><defs><style>.cls-1,.cls-10,.cls-12,.cls-4,.cls-6,.cls-7,.cls-8{fill:none;}.cls-2{clip-path:url(#clip-path);}.cls-3{fill:#fff;}.cls-4{stroke:#ff9200;stroke-dasharray:16 8 2 8;}.cls-10,.cls-12,.cls-4,.cls-6,.cls-7,.cls-8{stroke-linecap:round;stroke-linejoin:round;}.cls-4,.cls-7{stroke-width:2px;}.cls-11,.cls-5,.cls-9{font-size:16px;}.cls-11,.cls-13,.cls-5,.cls-9{font-family:SourceCodePro-Regular, Source Code Pro;}.cls-6{stroke:#000;}.cls-10,.cls-7{stroke:#0030fd;}.cls-12,.cls-8{stroke:#fd1c00;}.cls-8{stroke-width:5px;}.cls-9{fill:#0433ff;}.cls-11{fill:#ff2600;}.cls-13{font-size:10px;}</style><clipPath id="clip-path"><rect class="cls-1" width="501.5" height="266.6"/></clipPath></defs><title>LayoutEdges</title><g class="cls-2"><rect class="cls-3" width="501.5" height="266.6"/><path class="cls-3" d="M-922.3-698.2h3148v2152h-3148Zm0,0"/></g><path class="cls-4" d="M71,57.8H363.5V165.3H71Zm0,0"/><text class="cls-5" transform="translate(164.45 117.55)">LayoutEdges</text><polyline class="cls-6" points="71 54.55 71 23.55 81.7 23.55 363.5 23.55 363.5 55.3"/><path class="cls-3" d="M182.14,8.05h68v31h-68Zm0,0"/><text class="cls-5" transform="translate(187.34 29.55)">inline</text><polyline class="cls-6" points="362.6 165.05 369.6 165.05 431.5 165.05 431.5 146.79 431.5 58.79 401.2 58.79 363.5 58.79 363.5 48.54"/><path class="cls-3" d="M402.5,96.62h58v31h-58Zm0,0"/><text class="cls-5" transform="translate(407.5 118.11)">block</text><path class="cls-7" d="M73.45,59.8H360.3V163.3H73.45Zm0,0"/><path class="cls-8" d="M77.3,63.5h279v95.7H77.3Zm0,0"/><text class="cls-9" transform="translate(278.36 257.1)">border</text><polyline class="cls-10" points="216.88 163.8 216.88 253.22 223.86 253.22 273.16 253.22"/><text class="cls-11" transform="translate(298.8 232.1)">padding</text><line class="cls-12" x1="332.42" y1="160.45" x2="332.4" y2="210.6"/><path d="M360.3,57.8h4.6V163.3h-4.6Zm0,0"/><path class="cls-6" d="M360.3,57.8h4.6V163.3h-4.6Zm0,0"/><text class="cls-5" transform="translate(372.8 209.5)">scrollbar</text><polyline class="cls-6" points="362.6 163.3 362.6 207.59 364.52 207.59 367.5 207.59"/><text class="cls-13" transform="translate(49.09 15)">inlineStart</text><text class="cls-13" transform="translate(330.5 15)">inlineEnd</text><text class="cls-13" transform="translate(436.5 72.8)">blockStart</text><text class="cls-13" transform="translate(436.5 157.3)">blockEnd</text><path class="cls-6" d="M352.55,171.8l-.35,14.88h13.55V172.43m-293.1-.62-.35,14.88h8.64l.16-14.25m271.1,14.25H80.94"/><path class="cls-3" d="M94.41,171.18h106v31h-106Zm0,0"/><text class="cls-5" transform="translate(99.41 192.68)">all.inline</text><path class="cls-6" d="M64.3,59.2H48.5v9H64.32m0,86.39H48.5v9H64.32M48.5,68.18v86.39"/><path class="cls-3" d="M0,96H97v31H0Zm0,0"/><text class="cls-5" transform="translate(5.3 117.53)">all.block</text></svg>