<svg id="Layer_1" data-name="Layer 1" xmlns="http://www.w3.org/2000/svg" viewBox="0 0 849.09 505.5"><defs><style>.cls-1,.cls-11,.cls-4,.cls-5,.cls-6,.cls-7,.cls-8,.cls-9{fill:none}.cls-2{clip-path:url(#clip-path)}.cls-3{fill:#fff}.cls-4{stroke:#247000}.cls-11,.cls-4,.cls-5,.cls-7,.cls-8,.cls-9{stroke-linecap:round;stroke-linejoin:round}.cls-4,.cls-7,.cls-8{stroke-width:2px}.cls-11,.cls-5,.cls-6{stroke:#000}.cls-6{stroke-miterlimit:10}.cls-7{stroke:#fffa00}.cls-8,.cls-9{stroke:#901b90}.cls-8{stroke-dasharray:16 8 2 8}.cls-9{stroke-dasharray:8 4 1 4}.cls-10{font-size:16px;font-family:SourceCodePro-Regular,Source Code Pro}.cls-11{stroke-width:3px}</style><clipPath id="clip-path"><path class="cls-1" d="M0 0h849.09v505.5H0z"/></clipPath></defs><title>Artboard 1</title><g class="cls-2"><path class="cls-3" d="M0 0h849.09v505.5H0z"/><path class="cls-3" d="M-922.5-698.5h2694v1902h-2694zm0 0"/><path class="cls-4" d="M1 133.5h186.5v141H1zm0 0"/></g><path d="M48.27 198.35a3.76 3.76 0 0 1 2.55.8 2.75 2.75 0 0 1 .92 2.19 3.47 3.47 0 0 1-.47 1.82 2.43 2.43 0 0 1-1.51 1.07 2 2 0 0 1 .81.32 1.76 1.76 0 0 1 .5.54 2.44 2.44 0 0 1 .27.7 7.4 7.4 0 0 1 .14.8v.85a7.31 7.31 0 0 0 .08.85 5.18 5.18 0 0 0 .18.79 2 2 0 0 0 .36.66h-1.7a1 1 0 0 1-.22-.48 4.87 4.87 0 0 1-.07-.68v-.81A5.6 5.6 0 0 0 50 207q-.06-.42-.16-.79a1.86 1.86 0 0 0-.3-.66 1.5 1.5 0 0 0-.54-.45 2 2 0 0 0-.9-.17h-3.68v4.88H42.9v-11.46zm.32 5.18a2.2 2.2 0 0 0 .84-.31 1.71 1.71 0 0 0 .58-.62 2.1 2.1 0 0 0 .22-1 2 2 0 0 0-.48-1.41 2 2 0 0 0-1.55-.54h-3.78v4h3.17a6.11 6.11 0 0 0 1-.08zm10.57.4a2.33 2.33 0 0 0-.5-.74 2.36 2.36 0 0 0-.74-.5 2.33 2.33 0 0 0-.94-.18 2.37 2.37 0 0 0-1 .18 2.2 2.2 0 0 0-.73.5 2.41 2.41 0 0 0-.48.74 2.83 2.83 0 0 0-.21.9h4.75a2.79 2.79 0 0 0-.22-.91zm.33 5.31a3.75 3.75 0 0 1-2.34.7 4.25 4.25 0 0 1-1.72-.32 3.39 3.39 0 0 1-1.22-.9 3.8 3.8 0 0 1-.74-1.38 6.62 6.62 0 0 1-.28-1.74 5 5 0 0 1 .29-1.73 4.13 4.13 0 0 1 .81-1.36 3.67 3.67 0 0 1 1.23-.9 3.76 3.76 0 0 1 1.56-.32 3.39 3.39 0 0 1 1.83.46 3.63 3.63 0 0 1 1.17 1.16 4.59 4.59 0 0 1 .61 1.54 6.59 6.59 0 0 1 .14 1.58h-6.2a3.28 3.28 0 0 0 .13 1 2.33 2.33 0 0 0 .46.86 2.29 2.29 0 0 0 .82.6 2.81 2.81 0 0 0 1.17.22 2.35 2.35 0 0 0 1.42-.4 1.93 1.93 0 0 0 .73-1.22h1.34a3.31 3.31 0 0 1-1.2 2.1zm4-7.74v1.31a2.86 2.86 0 0 1 2.69-1.5 3.59 3.59 0 0 1 1.36.22 2.24 2.24 0 0 1 .88.62 2.32 2.32 0 0 1 .47 1 5.13 5.13 0 0 1 .14 1.22v5.44h-1.32v-5.6a1.64 1.64 0 0 0-.45-1.22 1.67 1.67 0 0 0-1.23-.45 2.77 2.77 0 0 0-1.08.19 2 2 0 0 0-.76.54 2.34 2.34 0 0 0-.46.82 3.35 3.35 0 0 0-.15 1v4.67h-1.35v-8.26zm8.76 5.34a3 3 0 0 0 .46 1 2.27 2.27 0 0 0 .8.69 2.43 2.43 0 0 0 1.14.26 2.25 2.25 0 0 0 2-1 3 3 0 0 0 .44-1 4.84 4.84 0 0 0 0-2.31 2.91 2.91 0 0 0-.46-1 2.33 2.33 0 0 0-.81-.7 2.52 2.52 0 0 0-1.2-.26 2.34 2.34 0 0 0-1.17.27 2.17 2.17 0 0 0-.77.72 3.13 3.13 0 0 0-.42 1 5.43 5.43 0 0 0-.13 1.18 4.22 4.22 0 0 0 .15 1.13zm4.89 2.94v-1.12a2 2 0 0 1-1.06 1 4 4 0 0 1-1.58.3 3.73 3.73 0 0 1-1.67-.35 3.44 3.44 0 0 1-1.18-.94 4.11 4.11 0 0 1-.71-1.38 5.65 5.65 0 0 1-.24-1.66 5.83 5.83 0 0 1 .23-1.66 3.92 3.92 0 0 1 .7-1.37 3.4 3.4 0 0 1 1.18-.93 3.77 3.77 0 0 1 1.66-.34 4 4 0 0 1 .69.06 3.51 3.51 0 0 1 .74.22 3.15 3.15 0 0 1 .7.4 2.2 2.2 0 0 1 .55.62v-4.26h1.36v11.42zm9-5.84a2.33 2.33 0 0 0-.5-.74 2.36 2.36 0 0 0-.74-.5 2.33 2.33 0 0 0-.94-.18 2.37 2.37 0 0 0-1 .18 2.2 2.2 0 0 0-.73.5 2.41 2.41 0 0 0-.48.74 2.83 2.83 0 0 0-.21.9h4.75a2.79 2.79 0 0 0-.22-.91zm.33 5.31a3.75 3.75 0 0 1-2.34.7 4.25 4.25 0 0 1-1.72-.32 3.39 3.39 0 0 1-1.22-.9 3.8 3.8 0 0 1-.74-1.38 6.62 6.62 0 0 1-.28-1.74 5 5 0 0 1 .29-1.73 4.13 4.13 0 0 1 .81-1.36 3.67 3.67 0 0 1 1.23-.9 3.76 3.76 0 0 1 1.56-.32 3.39 3.39 0 0 1 1.83.46 3.63 3.63 0 0 1 1.11 1.17 4.59 4.59 0 0 1 .61 1.54 6.59 6.59 0 0 1 .14 1.58H81.6a3.28 3.28 0 0 0 .13 1 2.33 2.33 0 0 0 .46.86 2.29 2.29 0 0 0 .82.6 2.81 2.81 0 0 0 1.17.22 2.35 2.35 0 0 0 1.42-.4 1.93 1.93 0 0 0 .73-1.22h1.34a3.31 3.31 0 0 1-1.2 2.1zm4-7.74v1.74a3.68 3.68 0 0 1 1.22-1.49 3.06 3.06 0 0 1 1.82-.45v1.44a3.85 3.85 0 0 0-1.39.22 2.2 2.2 0 0 0-.93.66 2.71 2.71 0 0 0-.51 1 5.65 5.65 0 0 0-.16 1.42v3.68h-1.37v-8.23zm16.66-3.15v1.28h-6.37v3.63h5.94v1.28h-5.94v4h6.42v1.28H99.2v-11.48zm2.87 3.14v1.31a2.86 2.86 0 0 1 2.69-1.5 3.59 3.59 0 0 1 1.36.22 2.24 2.24 0 0 1 .88.62 2.32 2.32 0 0 1 .47 1 5.13 5.13 0 0 1 .14 1.22v5.44h-1.36v-5.6a1.64 1.64 0 0 0-.45-1.22 1.67 1.67 0 0 0-1.23-.45 2.77 2.77 0 0 0-1.08.19 2 2 0 0 0-.76.54 2.34 2.34 0 0 0-.46.82 3.35 3.35 0 0 0-.15 1v4.67h-1.36v-8.26zm13.82 10.61a3.78 3.78 0 0 1-2.91 1 5.63 5.63 0 0 1-1.18-.13 3.61 3.61 0 0 1-1.09-.42 2.53 2.53 0 0 1-.81-.75 2.14 2.14 0 0 1-.35-1.14h1.36a1 1 0 0 0 .23.62 1.7 1.7 0 0 0 .53.42 2.56 2.56 0 0 0 .68.23 3.67 3.67 0 0 0 .7.07 2.52 2.52 0 0 0 1.14-.23 2.13 2.13 0 0 0 .77-.64 2.64 2.64 0 0 0 .44-1 5.51 5.51 0 0 0 .14-1.26v-.54a2.29 2.29 0 0 1-1.06 1.13 3.31 3.31 0 0 1-1.51.36 3.64 3.64 0 0 1-1.62-.34 3.38 3.38 0 0 1-1.15-.9 3.84 3.84 0 0 1-.7-1.33 5.47 5.47 0 0 1-.23-1.61 6.29 6.29 0 0 1 .19-1.51 4.12 4.12 0 0 1 .64-1.41 3.51 3.51 0 0 1 1.18-1 3.68 3.68 0 0 1 1.81-.41 3.06 3.06 0 0 1 1.44.34 2.42 2.42 0 0 1 1 1v-1.16h1.28v7.57a4.36 4.36 0 0 1-.93 3zm-1.74-3.72a2.23 2.23 0 0 0 .76-.74 3.37 3.37 0 0 0 .42-1 5 5 0 0 0 .14-1.15 4.54 4.54 0 0 0-.13-1.07 3 3 0 0 0-.41-1 2.12 2.12 0 0 0-.73-.68 2.16 2.16 0 0 0-1.09-.26 2.35 2.35 0 0 0-1.12.25 2.18 2.18 0 0 0-.76.66 2.81 2.81 0 0 0-.43 1 4.66 4.66 0 0 0-.14 1.14 5.69 5.69 0 0 0 .11 1.12 3.18 3.18 0 0 0 .38 1 2.16 2.16 0 0 0 .72.74 2.08 2.08 0 0 0 1.12.28 2.2 2.2 0 0 0 1.14-.28zm4.79-8.38v-1.66h1.36V200zm1.36 1.49v8.27h-1.36v-8.27zm3.39 0v1.31a2.86 2.86 0 0 1 2.69-1.5 3.59 3.59 0 0 1 1.36.22 2.24 2.24 0 0 1 .88.62 2.32 2.32 0 0 1 .47 1 5.13 5.13 0 0 1 .14 1.22v5.44h-1.36v-5.6a1.64 1.64 0 0 0-.45-1.22 1.67 1.67 0 0 0-1.23-.45 2.77 2.77 0 0 0-1.08.19 2 2 0 0 0-.76.54 2.34 2.34 0 0 0-.46.82 3.35 3.35 0 0 0-.15 1v4.67h-1.36v-8.26zm13.14 2.43a2.33 2.33 0 0 0-.5-.74 2.36 2.36 0 0 0-.74-.5 2.33 2.33 0 0 0-.94-.18 2.37 2.37 0 0 0-1 .18 2.2 2.2 0 0 0-.73.5 2.41 2.41 0 0 0-.48.74 2.83 2.83 0 0 0-.21.9H145a2.79 2.79 0 0 0-.22-.91zm.33 5.31a3.75 3.75 0 0 1-2.34.7 4.25 4.25 0 0 1-1.72-.32 3.39 3.39 0 0 1-1.22-.9 3.8 3.8 0 0 1-.74-1.38 6.62 6.62 0 0 1-.28-1.74 5 5 0 0 1 .29-1.73 4.13 4.13 0 0 1 .81-1.36 3.67 3.67 0 0 1 1.23-.9 3.76 3.76 0 0 1 1.56-.32 3.39 3.39 0 0 1 1.83.46 3.63 3.63 0 0 1 1.17 1.16 4.59 4.59 0 0 1 .61 1.54 6.59 6.59 0 0 1 .14 1.58h-6.19a3.28 3.28 0 0 0 .13 1 2.33 2.33 0 0 0 .46.86 2.29 2.29 0 0 0 .82.6 2.81 2.81 0 0 0 1.17.22 2.35 2.35 0 0 0 1.42-.4 1.93 1.93 0 0 0 .73-1.22h1.34a3.31 3.31 0 0 1-1.2 2.1z"/><path class="cls-5" d="M366 108.38h198.5v42H366zm0 0"/><path d="M417.17 135.15l-2.61-9.6h-.03l-2.64 9.6h-1.58l-2.93-11.42h1.55l2.24 9.5h.03l2.56-9.5h1.65l2.53 9.5h.03l2.32-9.5h1.52l-3.06 11.42h-1.58zm6.14-2.79a2.79 2.79 0 0 0 .55 1 2.39 2.39 0 0 0 .82.6 2.51 2.51 0 0 0 2 0 2.39 2.39 0 0 0 .82-.6 2.8 2.8 0 0 0 .55-1 4.56 4.56 0 0 0 0-2.67 2.89 2.89 0 0 0-.55-1 2.36 2.36 0 0 0-.82-.61 2.51 2.51 0 0 0-2 0 2.35 2.35 0 0 0-.82.61 2.88 2.88 0 0 0-.55 1 4.56 4.56 0 0 0 0 2.67zm-1.38-3a3.86 3.86 0 0 1 .77-1.38 3.62 3.62 0 0 1 1.3-.98 4.63 4.63 0 0 1 3.46 0 3.64 3.64 0 0 1 1.26.92 3.86 3.86 0 0 1 .77 1.38 5.51 5.51 0 0 1 .26 1.7 5.44 5.44 0 0 1-.26 1.7 3.87 3.87 0 0 1-.77 1.37 3.55 3.55 0 0 1-1.26.91 4.74 4.74 0 0 1-3.46 0 3.53 3.53 0 0 1-1.26-.91 3.86 3.86 0 0 1-.77-1.37 5.43 5.43 0 0 1-.26-1.7 5.51 5.51 0 0 1 .26-1.7zm10.61-2.44v1.74a3.68 3.68 0 0 1 1.22-1.49 3.06 3.06 0 0 1 1.82-.45v1.44a3.85 3.85 0 0 0-1.39.22 2.19 2.19 0 0 0-.93.66 2.71 2.71 0 0 0-.51 1 5.65 5.65 0 0 0-.16 1.42v3.68h-1.36v-8.27zm5.54-3.15v6.77l3.78-3.62h1.82l-3.28 3 3.52 5.26h-1.73l-2.83-4.32-1.29 1.14v3.14h-1.36v-11.41zm8.3 0v11.42H445v-11.46zm7.64 5.58a2.33 2.33 0 0 0-.5-.74 2.36 2.36 0 0 0-.74-.5 2.33 2.33 0 0 0-.94-.18 2.37 2.37 0 0 0-1 .18 2.2 2.2 0 0 0-.73.5 2.41 2.41 0 0 0-.48.74 2.83 2.83 0 0 0-.21.9h4.75a2.79 2.79 0 0 0-.22-.91zm.33 5.31a3.75 3.75 0 0 1-2.34.7 4.25 4.25 0 0 1-1.72-.32 3.39 3.39 0 0 1-1.22-.9 3.8 3.8 0 0 1-.74-1.38A6.62 6.62 0 0 1 448 131a5 5 0 0 1 .29-1.73 4.13 4.13 0 0 1 .81-1.36 3.67 3.67 0 0 1 1.23-.9 3.76 3.76 0 0 1 1.56-.32 3.39 3.39 0 0 1 1.83.46 3.63 3.63 0 0 1 1.17 1.16 4.59 4.59 0 0 1 .61 1.54 6.59 6.59 0 0 1 .14 1.58h-6.19a3.28 3.28 0 0 0 .13 1 2.33 2.33 0 0 0 .46.86 2.29 2.29 0 0 0 .82.6 2.81 2.81 0 0 0 1.17.22 2.35 2.35 0 0 0 1.42-.4 1.93 1.93 0 0 0 .73-1.22h1.34a3.31 3.31 0 0 1-1.2 2.1zm6.27-7.74v1.2H459v5.14a1.48 1.48 0 0 0 0 .38.39.39 0 0 0 .15.22.67.67 0 0 0 .31.1h1.14v1.2h-1a4.88 4.88 0 0 1-.9-.07 1.33 1.33 0 0 1-.61-.26 1.13 1.13 0 0 1-.34-.54 3.14 3.14 0 0 1-.11-.93v-5.26h-1.41v-1.2h1.41v-2.5H459v2.48zm10.67 2.32a2.71 2.71 0 0 0 1.9-.53 2 2 0 0 0 .6-1.57 2 2 0 0 0-.6-1.56 2.8 2.8 0 0 0-1.9-.54h-3v4.19zm.51-5.47a3.55 3.55 0 0 1 2.62.89 3.94 3.94 0 0 1 0 5 3.48 3.48 0 0 1-2.62.88h-3.49v4.67h-1.52v-11.48zm6.37 3.15v1.74a3.68 3.68 0 0 1 1.22-1.49 3.06 3.06 0 0 1 1.82-.45v1.44a3.85 3.85 0 0 0-1.39.22 2.19 2.19 0 0 0-.93.66 2.71 2.71 0 0 0-.51 1 5.65 5.65 0 0 0-.16 1.42v3.68h-1.36v-8.27zm4.99 5.44a2.79 2.79 0 0 0 .55 1 2.39 2.39 0 0 0 .82.6 2.51 2.51 0 0 0 2 0 2.39 2.39 0 0 0 .82-.6 2.8 2.8 0 0 0 .55-1 4.56 4.56 0 0 0 0-2.67 2.89 2.89 0 0 0-.55-1 2.36 2.36 0 0 0-.82-.61 2.51 2.51 0 0 0-2 0 2.35 2.35 0 0 0-.82.61 2.88 2.88 0 0 0-.55 1 4.56 4.56 0 0 0 0 2.67zm-1.38-3a3.86 3.86 0 0 1 .77-1.38 3.62 3.62 0 0 1 1.26-.92 4.63 4.63 0 0 1 3.46 0 3.64 3.64 0 0 1 1.26.92 3.86 3.86 0 0 1 .77 1.38 5.51 5.51 0 0 1 .26 1.7 5.44 5.44 0 0 1-.26 1.7 3.87 3.87 0 0 1-.77 1.37 3.55 3.55 0 0 1-1.26.91 4.74 4.74 0 0 1-3.46 0 3.53 3.53 0 0 1-1.26-.91 3.87 3.87 0 0 1-.77-1.37 5.43 5.43 0 0 1-.26-1.7 5.51 5.51 0 0 1 .26-1.7zm14.32-1a2.06 2.06 0 0 0-1.38-.43 2.54 2.54 0 0 0-1.23.27 2.2 2.2 0 0 0-.79.72 3 3 0 0 0-.42 1 5.62 5.62 0 0 0-.13 1.21 4.6 4.6 0 0 0 .14 1.12 3 3 0 0 0 .42 1 2.14 2.14 0 0 0 .75.68 2.25 2.25 0 0 0 1.1.26 2.23 2.23 0 0 0 1.58-.53 2.39 2.39 0 0 0 .7-1.49h1.39a3.81 3.81 0 0 1-1.14 2.37 3.59 3.59 0 0 1-2.5.83 4.31 4.31 0 0 1-1.67-.3 3.24 3.24 0 0 1-1.22-.86 3.73 3.73 0 0 1-.74-1.34 5.57 5.57 0 0 1-.25-1.7 6.07 6.07 0 0 1 .24-1.74 4 4 0 0 1 .73-1.41 3.42 3.42 0 0 1 1.22-.94 4 4 0 0 1 1.71-.34 5 5 0 0 1 1.32.17 3.22 3.22 0 0 1 1.09.52 2.84 2.84 0 0 1 .78.89 3.28 3.28 0 0 1 .38 1.27h-1.41a2.07 2.07 0 0 0-.67-1.22zm9.18 1a2.33 2.33 0 0 0-.5-.74 2.36 2.36 0 0 0-.74-.5 2.33 2.33 0 0 0-.94-.18 2.37 2.37 0 0 0-1 .18 2.2 2.2 0 0 0-.73.5 2.41 2.41 0 0 0-.48.74 2.83 2.83 0 0 0-.21.9h4.75a2.79 2.79 0 0 0-.22-.91zm.33 5.31a3.75 3.75 0 0 1-2.34.7 4.25 4.25 0 0 1-1.72-.32 3.39 3.39 0 0 1-1.22-.9 3.8 3.8 0 0 1-.74-1.38 6.62 6.62 0 0 1-.28-1.74 5 5 0 0 1 .29-1.73 4.13 4.13 0 0 1 .81-1.36 3.67 3.67 0 0 1 1.23-.9 3.76 3.76 0 0 1 1.56-.32 3.39 3.39 0 0 1 1.83.46 3.63 3.63 0 0 1 1.17 1.16 4.59 4.59 0 0 1 .61 1.54 6.59 6.59 0 0 1 .14 1.58h-6.19a3.28 3.28 0 0 0 .13 1 2.33 2.33 0 0 0 .46.86 2.29 2.29 0 0 0 .82.6 2.81 2.81 0 0 0 1.17.22 2.35 2.35 0 0 0 1.42-.4 1.93 1.93 0 0 0 .73-1.22h1.34a3.31 3.31 0 0 1-1.2 2.1zm3.78-1.32a1.45 1.45 0 0 0 .5.5 2.26 2.26 0 0 0 .7.26 4 4 0 0 0 .81.08 5 5 0 0 0 .67 0 2.46 2.46 0 0 0 .65-.18 1.21 1.21 0 0 0 .49-.38 1 1 0 0 0 .19-.63.91.91 0 0 0-.4-.8 3.41 3.41 0 0 0-1-.44q-.6-.17-1.3-.3a6.74 6.74 0 0 1-1.3-.38 2.7 2.7 0 0 1-1-.7 1.81 1.81 0 0 1-.4-1.38 2 2 0 0 1 .28-1.07 2.29 2.29 0 0 1 .72-.73 3.31 3.31 0 0 1 1-.42 4.58 4.58 0 0 1 1.1-.14 6.53 6.53 0 0 1 1.3.12 3 3 0 0 1 1 .42 2.16 2.16 0 0 1 .73.8 3 3 0 0 1 .32 1.26h-1.36a1.38 1.38 0 0 0-.21-.66 1.36 1.36 0 0 0-.45-.42 2 2 0 0 0-.6-.23 3.09 3.09 0 0 0-.66-.07 4 4 0 0 0-.62 0 2.07 2.07 0 0 0-.57.17 1.14 1.14 0 0 0-.42.32.81.81 0 0 0-.16.52.76.76 0 0 0 .25.58 2 2 0 0 0 .63.38 5.51 5.51 0 0 0 .86.26l1 .22a10.3 10.3 0 0 1 1 .27 3.27 3.27 0 0 1 .86.42 2.08 2.08 0 0 1 .61.66 2 2 0 0 1 .23 1 2.3 2.3 0 0 1-.31 1.25 2.44 2.44 0 0 1-.82.8 3.41 3.41 0 0 1-1.14.42 6.72 6.72 0 0 1-1.26.12 5.82 5.82 0 0 1-1.31-.14 3.22 3.22 0 0 1-1.1-.47 2.4 2.4 0 0 1-.77-.86 3 3 0 0 1-.32-1.3h1.36a1.53 1.53 0 0 0 .21.76zm8 0a1.45 1.45 0 0 0 .5.5 2.26 2.26 0 0 0 .7.26 4 4 0 0 0 .81.08 5 5 0 0 0 .67 0 2.46 2.46 0 0 0 .65-.18 1.21 1.21 0 0 0 .49-.38 1 1 0 0 0 .19-.63.91.91 0 0 0-.4-.8 3.41 3.41 0 0 0-1-.44q-.6-.17-1.3-.3a6.74 6.74 0 0 1-1.3-.38 2.7 2.7 0 0 1-1-.7 1.81 1.81 0 0 1-.4-1.38 2 2 0 0 1 .28-1.07 2.29 2.29 0 0 1 .72-.73 3.31 3.31 0 0 1 1-.42 4.58 4.58 0 0 1 1.1-.14 6.53 6.53 0 0 1 1.3.12 3 3 0 0 1 1 .42 2.16 2.16 0 0 1 .73.8 3 3 0 0 1 .32 1.26h-1.36a1.38 1.38 0 0 0-.21-.66 1.36 1.36 0 0 0-.45-.42 2 2 0 0 0-.6-.23 3.09 3.09 0 0 0-.66-.07 4 4 0 0 0-.62 0 2.07 2.07 0 0 0-.57.17 1.14 1.14 0 0 0-.42.32.81.81 0 0 0-.16.52.76.76 0 0 0 .25.58 2 2 0 0 0 .63.38 5.51 5.51 0 0 0 .86.26l1 .22a10.3 10.3 0 0 1 1 .27 3.27 3.27 0 0 1 .86.42 2.08 2.08 0 0 1 .61.66 2 2 0 0 1 .23 1 2.3 2.3 0 0 1-.31 1.25 2.44 2.44 0 0 1-.82.8 3.41 3.41 0 0 1-1.14.42 6.72 6.72 0 0 1-1.26.12 5.82 5.82 0 0 1-1.31-.14 3.22 3.22 0 0 1-1.1-.47 2.4 2.4 0 0 1-.77-.86 3 3 0 0 1-.32-1.3h1.36a1.53 1.53 0 0 0 .21.76z"/><path class="cls-5" d="M366 158.13h198.5v42H366zm0 0"/><path d="M417.17 184.9l-2.61-9.6h-.03l-2.64 9.6h-1.58l-2.93-11.42h1.55l2.24 9.5h.03l2.56-9.5h1.65l2.53 9.5h.03l2.32-9.5h1.52l-3.06 11.42h-1.58zm6.14-2.79a2.79 2.79 0 0 0 .55 1 2.39 2.39 0 0 0 .82.6 2.51 2.51 0 0 0 2 0 2.39 2.39 0 0 0 .82-.6 2.8 2.8 0 0 0 .55-1 4.56 4.56 0 0 0 0-2.67 2.89 2.89 0 0 0-.55-1 2.36 2.36 0 0 0-.82-.61 2.51 2.51 0 0 0-2 0 2.35 2.35 0 0 0-.82.61 2.88 2.88 0 0 0-.55 1 4.56 4.56 0 0 0 0 2.67zm-1.38-3a3.86 3.86 0 0 1 .77-1.38 3.62 3.62 0 0 1 1.26-.92 4.63 4.63 0 0 1 3.46 0 3.64 3.64 0 0 1 1.26.92 3.86 3.86 0 0 1 .77 1.38 5.51 5.51 0 0 1 .26 1.7 5.44 5.44 0 0 1-.26 1.7 3.87 3.87 0 0 1-.77 1.37 3.55 3.55 0 0 1-1.26.91 4.74 4.74 0 0 1-3.46 0 3.53 3.53 0 0 1-1.26-.91 3.86 3.86 0 0 1-.77-1.37 5.43 5.43 0 0 1-.26-1.7 5.51 5.51 0 0 1 .26-1.7zm10.61-2.44v1.74a3.68 3.68 0 0 1 1.22-1.49 3.06 3.06 0 0 1 1.82-.45v1.44a3.85 3.85 0 0 0-1.39.22 2.19 2.19 0 0 0-.93.66 2.71 2.71 0 0 0-.51 1 5.65 5.65 0 0 0-.16 1.42v3.68h-1.36v-8.27zm5.54-3.15v6.77l3.78-3.62h1.82l-3.28 3 3.52 5.26h-1.73l-2.83-4.32-1.28 1.18v3.14h-1.36v-11.45zm8.3 0v11.38H445v-11.42zm7.64 5.58a2.33 2.33 0 0 0-.5-.74 2.36 2.36 0 0 0-.74-.5 2.33 2.33 0 0 0-.94-.18 2.37 2.37 0 0 0-1 .18 2.2 2.2 0 0 0-.73.5 2.41 2.41 0 0 0-.48.74 2.83 2.83 0 0 0-.21.9h4.75a2.79 2.79 0 0 0-.22-.91zm.33 5.31a3.75 3.75 0 0 1-2.34.7 4.25 4.25 0 0 1-1.72-.32 3.39 3.39 0 0 1-1.22-.9 3.8 3.8 0 0 1-.74-1.38 6.62 6.62 0 0 1-.28-1.74 5 5 0 0 1 .29-1.73 4.13 4.13 0 0 1 .81-1.36 3.67 3.67 0 0 1 1.23-.9 3.76 3.76 0 0 1 1.56-.32 3.39 3.39 0 0 1 1.83.46 3.63 3.63 0 0 1 1.17 1.16 4.59 4.59 0 0 1 .61 1.54 6.59 6.59 0 0 1 .14 1.58h-6.19a3.28 3.28 0 0 0 .13 1 2.33 2.33 0 0 0 .46.86 2.29 2.29 0 0 0 .82.6 2.81 2.81 0 0 0 1.17.22 2.35 2.35 0 0 0 1.42-.4 1.93 1.93 0 0 0 .73-1.22h1.34a3.31 3.31 0 0 1-1.2 2.1zm6.27-7.74v1.2H459V183a1.48 1.48 0 0 0 0 .38.39.39 0 0 0 .15.22.67.67 0 0 0 .31.1h1.14v1.2h-1a4.88 4.88 0 0 1-.9-.07 1.33 1.33 0 0 1-.61-.26 1.13 1.13 0 0 1-.34-.54 3.14 3.14 0 0 1-.11-.93v-5.26h-1.41v-1.2h1.41v-2.48H459v2.48zm10.67 2.32a2.71 2.71 0 0 0 1.9-.53 2 2 0 0 0 .6-1.57 2 2 0 0 0-.6-1.56 2.8 2.8 0 0 0-1.9-.54h-3v4.19zm.51-5.47a3.55 3.55 0 0 1 2.62.89 3.94 3.94 0 0 1 0 5 3.48 3.48 0 0 1-2.62.88h-3.49v4.67h-1.52v-11.48zm6.37 3.15v1.74a3.68 3.68 0 0 1 1.22-1.49 3.06 3.06 0 0 1 1.82-.45v1.44a3.85 3.85 0 0 0-1.39.22 2.19 2.19 0 0 0-.93.66 2.71 2.71 0 0 0-.51 1 5.65 5.65 0 0 0-.16 1.42v3.68h-1.36v-8.27zm4.99 5.44a2.79 2.79 0 0 0 .55 1 2.39 2.39 0 0 0 .82.6 2.51 2.51 0 0 0 2 0 2.39 2.39 0 0 0 .82-.6 2.8 2.8 0 0 0 .55-1 4.56 4.56 0 0 0 0-2.67 2.89 2.89 0 0 0-.55-1 2.36 2.36 0 0 0-.82-.61 2.51 2.51 0 0 0-2 0 2.35 2.35 0 0 0-.82.61 2.88 2.88 0 0 0-.55 1 4.56 4.56 0 0 0 0 2.67zm-1.38-3a3.86 3.86 0 0 1 .77-1.38 3.62 3.62 0 0 1 1.26-.92 4.63 4.63 0 0 1 3.46 0 3.64 3.64 0 0 1 1.26.92 3.86 3.86 0 0 1 .77 1.38 5.51 5.51 0 0 1 .26 1.7 5.44 5.44 0 0 1-.26 1.7 3.87 3.87 0 0 1-.77 1.37 3.55 3.55 0 0 1-1.26.91 4.74 4.74 0 0 1-3.46 0 3.53 3.53 0 0 1-1.26-.91 3.87 3.87 0 0 1-.77-1.37 5.43 5.43 0 0 1-.26-1.7 5.51 5.51 0 0 1 .26-1.7zm14.32-1a2.06 2.06 0 0 0-1.38-.43 2.54 2.54 0 0 0-1.23.27 2.2 2.2 0 0 0-.79.72 3 3 0 0 0-.42 1 5.62 5.62 0 0 0-.13 1.21 4.6 4.6 0 0 0 .14 1.12 3 3 0 0 0 .42 1 2.15 2.15 0 0 0 .75.68 2.25 2.25 0 0 0 1.1.26 2.23 2.23 0 0 0 1.58-.53 2.39 2.39 0 0 0 .7-1.49h1.39a3.81 3.81 0 0 1-1.14 2.37 3.59 3.59 0 0 1-2.5.83 4.31 4.31 0 0 1-1.67-.3 3.24 3.24 0 0 1-1.22-.86 3.73 3.73 0 0 1-.74-1.34 5.57 5.57 0 0 1-.25-1.7 6.07 6.07 0 0 1 .24-1.74 4 4 0 0 1 .73-1.41 3.42 3.42 0 0 1 1.22-.94 4 4 0 0 1 1.71-.34 5 5 0 0 1 1.32.17 3.22 3.22 0 0 1 1.09.52 2.84 2.84 0 0 1 .78.89 3.28 3.28 0 0 1 .38 1.27h-1.41a2.07 2.07 0 0 0-.67-1.22zm9.18 1a2.33 2.33 0 0 0-.5-.74 2.36 2.36 0 0 0-.74-.5 2.33 2.33 0 0 0-.94-.18 2.37 2.37 0 0 0-1 .18 2.2 2.2 0 0 0-.73.5 2.41 2.41 0 0 0-.48.74 2.83 2.83 0 0 0-.21.9h4.75a2.79 2.79 0 0 0-.22-.91zm.33 5.31a3.75 3.75 0 0 1-2.34.7 4.25 4.25 0 0 1-1.72-.32 3.39 3.39 0 0 1-1.22-.9 3.8 3.8 0 0 1-.74-1.38 6.62 6.62 0 0 1-.28-1.74 5 5 0 0 1 .29-1.73 4.13 4.13 0 0 1 .81-1.36 3.67 3.67 0 0 1 1.23-.9 3.76 3.76 0 0 1 1.56-.32 3.39 3.39 0 0 1 1.83.46 3.63 3.63 0 0 1 1.17 1.16 4.59 4.59 0 0 1 .61 1.54 6.59 6.59 0 0 1 .14 1.58h-6.19a3.28 3.28 0 0 0 .13 1 2.33 2.33 0 0 0 .46.86 2.29 2.29 0 0 0 .82.6 2.81 2.81 0 0 0 1.17.22 2.35 2.35 0 0 0 1.42-.4 1.93 1.93 0 0 0 .73-1.22h1.34a3.31 3.31 0 0 1-1.2 2.1zm3.78-1.32a1.45 1.45 0 0 0 .5.5 2.26 2.26 0 0 0 .7.26 4 4 0 0 0 .81.08 5 5 0 0 0 .67 0 2.46 2.46 0 0 0 .65-.18 1.22 1.22 0 0 0 .49-.38 1 1 0 0 0 .19-.63.91.91 0 0 0-.4-.8 3.41 3.41 0 0 0-1-.44q-.6-.17-1.3-.3a6.74 6.74 0 0 1-1.3-.38 2.7 2.7 0 0 1-1-.7 1.81 1.81 0 0 1-.4-1.25 2 2 0 0 1 .28-1.07 2.29 2.29 0 0 1 .72-.81 3.31 3.31 0 0 1 1-.42 4.58 4.58 0 0 1 1.1-.14 6.53 6.53 0 0 1 1.3.12 3 3 0 0 1 1 .42 2.15 2.15 0 0 1 .73.8 3 3 0 0 1 .32 1.26h-1.36a1.38 1.38 0 0 0-.21-.66 1.37 1.37 0 0 0-.45-.42 2 2 0 0 0-.6-.23 3.09 3.09 0 0 0-.66-.07 4 4 0 0 0-.62 0 2.07 2.07 0 0 0-.57.17 1.14 1.14 0 0 0-.42.32.81.81 0 0 0-.16.52.76.76 0 0 0 .25.58 2 2 0 0 0 .63.38 5.51 5.51 0 0 0 .86.26l1 .22a10.31 10.31 0 0 1 1 .27 3.27 3.27 0 0 1 .86.42 2.08 2.08 0 0 1 .61.66 2 2 0 0 1 .23 1 2.3 2.3 0 0 1-.31 1.25 2.44 2.44 0 0 1-.82.8 3.41 3.41 0 0 1-1.14.42 6.72 6.72 0 0 1-1.26.12 5.82 5.82 0 0 1-1.31-.14 3.22 3.22 0 0 1-1.1-.47 2.4 2.4 0 0 1-.77-.86 3 3 0 0 1-.32-1.3h1.36a1.53 1.53 0 0 0 .21.76zm8 0a1.45 1.45 0 0 0 .5.5 2.26 2.26 0 0 0 .7.26 4 4 0 0 0 .81.08 5 5 0 0 0 .67 0 2.46 2.46 0 0 0 .65-.18 1.22 1.22 0 0 0 .49-.38 1 1 0 0 0 .19-.63.91.91 0 0 0-.4-.8 3.41 3.41 0 0 0-1-.44q-.6-.17-1.3-.3a6.74 6.74 0 0 1-1.3-.38 2.7 2.7 0 0 1-1-.7 1.81 1.81 0 0 1-.4-1.25 2 2 0 0 1 .28-1.07 2.29 2.29 0 0 1 .72-.81 3.31 3.31 0 0 1 1-.42 4.58 4.58 0 0 1 1.1-.14 6.53 6.53 0 0 1 1.3.12 3 3 0 0 1 1 .42 2.15 2.15 0 0 1 .73.8 3 3 0 0 1 .32 1.26h-1.36a1.38 1.38 0 0 0-.21-.66 1.37 1.37 0 0 0-.45-.42 2 2 0 0 0-.6-.23 3.09 3.09 0 0 0-.66-.07 4 4 0 0 0-.62 0 2.07 2.07 0 0 0-.57.17 1.14 1.14 0 0 0-.42.32.81.81 0 0 0-.16.52.76.76 0 0 0 .25.58 2 2 0 0 0 .63.38 5.51 5.51 0 0 0 .86.26l1 .22a10.31 10.31 0 0 1 1 .27 3.27 3.27 0 0 1 .86.42 2.08 2.08 0 0 1 .61.66 2 2 0 0 1 .23 1 2.3 2.3 0 0 1-.31 1.25 2.44 2.44 0 0 1-.82.8 3.41 3.41 0 0 1-1.14.42 6.72 6.72 0 0 1-1.26.12 5.82 5.82 0 0 1-1.31-.14 3.22 3.22 0 0 1-1.1-.47 2.4 2.4 0 0 1-.77-.86 3 3 0 0 1-.32-1.3h1.36a1.53 1.53 0 0 0 .21.76z"/><path class="cls-5" d="M366 207.87h198.5v42H366zm0 0"/><path d="M417.17 234.65l-2.61-9.6h-.03l-2.64 9.6h-1.58l-2.93-11.42h1.55l2.24 9.5h.03l2.56-9.5h1.65l2.53 9.5h.03l2.32-9.5h1.52l-3.06 11.42h-1.58zm6.14-2.79a2.79 2.79 0 0 0 .55 1 2.39 2.39 0 0 0 .82.6 2.51 2.51 0 0 0 2 0 2.39 2.39 0 0 0 .82-.6 2.8 2.8 0 0 0 .55-1 4.56 4.56 0 0 0 0-2.67 2.89 2.89 0 0 0-.55-1 2.36 2.36 0 0 0-.82-.61 2.51 2.51 0 0 0-2 0 2.35 2.35 0 0 0-.82.61 2.88 2.88 0 0 0-.55 1 4.56 4.56 0 0 0 0 2.67zm-1.38-3a3.86 3.86 0 0 1 .77-1.38 3.62 3.62 0 0 1 1.26-.92 4.63 4.63 0 0 1 3.46 0 3.64 3.64 0 0 1 1.26.92 3.86 3.86 0 0 1 .77 1.38 5.51 5.51 0 0 1 .26 1.7 5.44 5.44 0 0 1-.26 1.7 3.87 3.87 0 0 1-.77 1.37 3.55 3.55 0 0 1-1.26.91 4.74 4.74 0 0 1-3.46 0 3.53 3.53 0 0 1-1.26-.91 3.86 3.86 0 0 1-.77-1.37 5.43 5.43 0 0 1-.26-1.7 5.51 5.51 0 0 1 .26-1.7zm10.61-2.44v1.74a3.68 3.68 0 0 1 1.22-1.49 3.06 3.06 0 0 1 1.82-.45v1.44a3.85 3.85 0 0 0-1.39.22 2.19 2.19 0 0 0-.93.66 2.71 2.71 0 0 0-.51 1 5.65 5.65 0 0 0-.16 1.42v3.68h-1.36v-8.27zm5.54-3.15V230l3.78-3.62h1.82l-3.28 3 3.52 5.26h-1.73l-2.83-4.32-1.28 1.18v3.14h-1.36v-11.41zm8.3 0v11.42H445v-11.46zm7.64 5.58a2.33 2.33 0 0 0-.5-.74 2.36 2.36 0 0 0-.74-.5 2.33 2.33 0 0 0-.94-.18 2.37 2.37 0 0 0-1 .18 2.2 2.2 0 0 0-.73.5 2.41 2.41 0 0 0-.48.74 2.83 2.83 0 0 0-.21.9h4.75a2.79 2.79 0 0 0-.22-.91zm.33 5.31a3.75 3.75 0 0 1-2.34.7 4.25 4.25 0 0 1-1.72-.32 3.39 3.39 0 0 1-1.22-.9 3.8 3.8 0 0 1-.74-1.38 6.62 6.62 0 0 1-.28-1.74 5 5 0 0 1 .29-1.73 4.13 4.13 0 0 1 .81-1.36 3.67 3.67 0 0 1 1.23-.9 3.76 3.76 0 0 1 1.56-.32 3.39 3.39 0 0 1 1.83.46 3.63 3.63 0 0 1 1.17 1.16 4.59 4.59 0 0 1 .61 1.54 6.59 6.59 0 0 1 .14 1.58h-6.19a3.28 3.28 0 0 0 .13 1 2.33 2.33 0 0 0 .46.86 2.29 2.29 0 0 0 .82.6 2.81 2.81 0 0 0 1.17.22 2.35 2.35 0 0 0 1.42-.4 1.93 1.93 0 0 0 .73-1.22h1.34a3.31 3.31 0 0 1-1.2 2.1zm6.27-7.74v1.2H459v5.14a1.48 1.48 0 0 0 0 .38.39.39 0 0 0 .15.22.67.67 0 0 0 .31.1h1.14v1.2h-1a4.88 4.88 0 0 1-.9-.07 1.33 1.33 0 0 1-.61-.26 1.13 1.13 0 0 1-.34-.54 3.14 3.14 0 0 1-.11-.93v-5.26h-1.41v-1.2h1.41v-2.5H459v2.48zm10.67 2.32a2.71 2.71 0 0 0 1.9-.53 2 2 0 0 0 .6-1.57 2 2 0 0 0-.6-1.56 2.8 2.8 0 0 0-1.9-.54h-3v4.19zm.51-5.47a3.55 3.55 0 0 1 2.62.89 3.94 3.94 0 0 1 0 5 3.48 3.48 0 0 1-2.62.88h-3.49v4.67h-1.52v-11.48zm6.37 3.15v1.74a3.68 3.68 0 0 1 1.22-1.49 3.06 3.06 0 0 1 1.82-.45v1.44a3.85 3.85 0 0 0-1.39.22 2.19 2.19 0 0 0-.93.66 2.71 2.71 0 0 0-.51 1 5.65 5.65 0 0 0-.16 1.42v3.68h-1.36v-8.27zm4.99 5.44a2.79 2.79 0 0 0 .55 1 2.39 2.39 0 0 0 .82.6 2.51 2.51 0 0 0 2 0 2.39 2.39 0 0 0 .82-.6 2.8 2.8 0 0 0 .55-1 4.56 4.56 0 0 0 0-2.67 2.89 2.89 0 0 0-.55-1 2.36 2.36 0 0 0-.82-.61 2.51 2.51 0 0 0-2 0 2.35 2.35 0 0 0-.82.61 2.88 2.88 0 0 0-.55 1 4.56 4.56 0 0 0 0 2.67zm-1.38-3a3.86 3.86 0 0 1 .77-1.38 3.62 3.62 0 0 1 1.26-.92 4.63 4.63 0 0 1 3.46 0 3.64 3.64 0 0 1 1.26.92 3.86 3.86 0 0 1 .77 1.38 5.51 5.51 0 0 1 .26 1.7 5.44 5.44 0 0 1-.26 1.7 3.87 3.87 0 0 1-.77 1.37 3.55 3.55 0 0 1-1.26.91 4.74 4.74 0 0 1-3.46 0 3.53 3.53 0 0 1-1.26-.91 3.87 3.87 0 0 1-.77-1.37 5.43 5.43 0 0 1-.26-1.7 5.51 5.51 0 0 1 .26-1.7zm14.32-1a2.06 2.06 0 0 0-1.38-.43 2.54 2.54 0 0 0-1.23.27 2.2 2.2 0 0 0-.79.72 3 3 0 0 0-.42 1 5.62 5.62 0 0 0-.13 1.21 4.6 4.6 0 0 0 .14 1.12 3 3 0 0 0 .42 1 2.14 2.14 0 0 0 .75.68 2.25 2.25 0 0 0 1.1.26 2.23 2.23 0 0 0 1.58-.53 2.39 2.39 0 0 0 .7-1.49h1.39a3.81 3.81 0 0 1-1.14 2.37 3.59 3.59 0 0 1-2.5.83 4.31 4.31 0 0 1-1.67-.3 3.24 3.24 0 0 1-1.22-.86 3.73 3.73 0 0 1-.74-1.34 5.57 5.57 0 0 1-.25-1.7 6.07 6.07 0 0 1 .24-1.74 4 4 0 0 1 .73-1.41 3.42 3.42 0 0 1 1.22-.94 4 4 0 0 1 1.71-.34 5 5 0 0 1 1.32.17 3.22 3.22 0 0 1 1.09.52 2.84 2.84 0 0 1 .78.89 3.28 3.28 0 0 1 .38 1.27h-1.41a2.07 2.07 0 0 0-.67-1.22zm9.18 1a2.33 2.33 0 0 0-.5-.74 2.36 2.36 0 0 0-.74-.5 2.33 2.33 0 0 0-.94-.18 2.37 2.37 0 0 0-1 .18 2.2 2.2 0 0 0-.73.5 2.41 2.41 0 0 0-.48.74 2.83 2.83 0 0 0-.21.9h4.75a2.79 2.79 0 0 0-.22-.91zm.33 5.31a3.75 3.75 0 0 1-2.34.7 4.25 4.25 0 0 1-1.72-.32 3.39 3.39 0 0 1-1.22-.9 3.8 3.8 0 0 1-.74-1.38 6.62 6.62 0 0 1-.28-1.74 5 5 0 0 1 .29-1.73 4.13 4.13 0 0 1 .81-1.36 3.67 3.67 0 0 1 1.23-.9 3.76 3.76 0 0 1 1.56-.32 3.39 3.39 0 0 1 1.83.46 3.63 3.63 0 0 1 1.17 1.16 4.59 4.59 0 0 1 .61 1.54 6.59 6.59 0 0 1 .14 1.58h-6.19a3.28 3.28 0 0 0 .13 1 2.33 2.33 0 0 0 .46.86 2.29 2.29 0 0 0 .82.6 2.81 2.81 0 0 0 1.17.22 2.35 2.35 0 0 0 1.42-.4 1.93 1.93 0 0 0 .73-1.22h1.34a3.31 3.31 0 0 1-1.2 2.1zm3.78-1.32a1.45 1.45 0 0 0 .5.5 2.26 2.26 0 0 0 .7.26 4 4 0 0 0 .81.08 5 5 0 0 0 .67 0 2.46 2.46 0 0 0 .65-.18 1.21 1.21 0 0 0 .49-.38 1 1 0 0 0 .19-.63.91.91 0 0 0-.4-.8 3.41 3.41 0 0 0-1-.44q-.6-.17-1.3-.3a6.74 6.74 0 0 1-1.3-.38 2.7 2.7 0 0 1-1-.7 1.81 1.81 0 0 1-.4-1.25 2 2 0 0 1 .28-1.07 2.29 2.29 0 0 1 .72-.73 3.31 3.31 0 0 1 1-.42 4.58 4.58 0 0 1 1.1-.14 6.53 6.53 0 0 1 1.3.12 3 3 0 0 1 1 .42 2.16 2.16 0 0 1 .73.8 3 3 0 0 1 .32 1.26h-1.36a1.38 1.38 0 0 0-.21-.66 1.36 1.36 0 0 0-.45-.42 2 2 0 0 0-.6-.23 3.09 3.09 0 0 0-.66-.07 4 4 0 0 0-.62 0 2.07 2.07 0 0 0-.57.17 1.14 1.14 0 0 0-.42.32.81.81 0 0 0-.16.52.76.76 0 0 0 .25.58 2 2 0 0 0 .63.38 5.51 5.51 0 0 0 .86.26l1 .22a10.3 10.3 0 0 1 1 .27 3.27 3.27 0 0 1 .86.42 2.08 2.08 0 0 1 .61.66 2 2 0 0 1 .23 1 2.3 2.3 0 0 1-.31 1.25 2.44 2.44 0 0 1-.82.8 3.41 3.41 0 0 1-1.14.42 6.72 6.72 0 0 1-1.26.12 5.82 5.82 0 0 1-1.31-.14 3.22 3.22 0 0 1-1.1-.47 2.4 2.4 0 0 1-.77-.86 3 3 0 0 1-.32-1.3h1.36a1.53 1.53 0 0 0 .21.76zm8 0a1.45 1.45 0 0 0 .5.5 2.26 2.26 0 0 0 .7.26 4 4 0 0 0 .81.08 5 5 0 0 0 .67 0 2.46 2.46 0 0 0 .65-.18 1.21 1.21 0 0 0 .49-.38 1 1 0 0 0 .19-.63.91.91 0 0 0-.4-.8 3.41 3.41 0 0 0-1-.44q-.6-.17-1.3-.3a6.74 6.74 0 0 1-1.3-.38 2.7 2.7 0 0 1-1-.7 1.81 1.81 0 0 1-.4-1.25 2 2 0 0 1 .28-1.07 2.29 2.29 0 0 1 .72-.73 3.31 3.31 0 0 1 1-.42 4.58 4.58 0 0 1 1.1-.14 6.53 6.53 0 0 1 1.3.12 3 3 0 0 1 1 .42 2.16 2.16 0 0 1 .73.8 3 3 0 0 1 .32 1.26h-1.36a1.38 1.38 0 0 0-.21-.66 1.36 1.36 0 0 0-.45-.42 2 2 0 0 0-.6-.23 3.09 3.09 0 0 0-.66-.07 4 4 0 0 0-.62 0 2.07 2.07 0 0 0-.57.17 1.14 1.14 0 0 0-.42.32.81.81 0 0 0-.16.52.76.76 0 0 0 .25.58 2 2 0 0 0 .63.38 5.51 5.51 0 0 0 .86.26l1 .22a10.3 10.3 0 0 1 1 .27 3.27 3.27 0 0 1 .86.42 2.08 2.08 0 0 1 .61.66 2 2 0 0 1 .23 1 2.3 2.3 0 0 1-.31 1.25 2.44 2.44 0 0 1-.82.8 3.41 3.41 0 0 1-1.14.42 6.72 6.72 0 0 1-1.26.12 5.82 5.82 0 0 1-1.31-.14 3.22 3.22 0 0 1-1.1-.47 2.4 2.4 0 0 1-.77-.86 3 3 0 0 1-.32-1.3h1.36a1.53 1.53 0 0 0 .21.76z"/><path class="cls-5" d="M366 257.62h198.5v42H366zm0 0"/><path d="M417.17 284.4l-2.61-9.6h-.03l-2.64 9.6h-1.58l-2.93-11.42h1.55l2.24 9.5h.03l2.56-9.5h1.65l2.53 9.5h.03l2.32-9.5h1.52l-3.06 11.42h-1.58zm6.14-2.79a2.79 2.79 0 0 0 .55 1 2.39 2.39 0 0 0 .82.6 2.51 2.51 0 0 0 2 0 2.39 2.39 0 0 0 .82-.6 2.8 2.8 0 0 0 .55-1 4.56 4.56 0 0 0 0-2.67 2.89 2.89 0 0 0-.55-1 2.36 2.36 0 0 0-.82-.61 2.51 2.51 0 0 0-2 0 2.35 2.35 0 0 0-.82.61 2.88 2.88 0 0 0-.55 1 4.56 4.56 0 0 0 0 2.67zm-1.38-3a3.86 3.86 0 0 1 .77-1.38 3.62 3.62 0 0 1 1.26-.92 4.63 4.63 0 0 1 3.46 0 3.64 3.64 0 0 1 1.26.92 3.86 3.86 0 0 1 .77 1.38 5.51 5.51 0 0 1 .26 1.7 5.44 5.44 0 0 1-.26 1.7 3.87 3.87 0 0 1-.77 1.37 3.55 3.55 0 0 1-1.26.91 4.74 4.74 0 0 1-3.46 0 3.53 3.53 0 0 1-1.26-.91 3.86 3.86 0 0 1-.77-1.37 5.43 5.43 0 0 1-.26-1.7 5.51 5.51 0 0 1 .26-1.7zm10.61-2.44v1.74a3.68 3.68 0 0 1 1.22-1.49 3.06 3.06 0 0 1 1.82-.45v1.44a3.85 3.85 0 0 0-1.39.22 2.19 2.19 0 0 0-.93.66 2.71 2.71 0 0 0-.51 1 5.65 5.65 0 0 0-.16 1.42v3.68h-1.36v-8.27zm5.54-3.15v6.77l3.78-3.62h1.82l-3.28 3 3.52 5.26h-1.73l-2.83-4.32-1.28 1.18v3.14h-1.36V273zm8.3 0v11.38H445V273zm7.64 5.58a2.33 2.33 0 0 0-.5-.74 2.36 2.36 0 0 0-.74-.5 2.33 2.33 0 0 0-.94-.18 2.37 2.37 0 0 0-1 .18 2.2 2.2 0 0 0-.73.5 2.41 2.41 0 0 0-.48.74 2.83 2.83 0 0 0-.21.9h4.75a2.79 2.79 0 0 0-.22-.91zm.33 5.31a3.75 3.75 0 0 1-2.34.7 4.25 4.25 0 0 1-1.72-.32 3.39 3.39 0 0 1-1.22-.9 3.8 3.8 0 0 1-.74-1.38 6.62 6.62 0 0 1-.28-1.74 5 5 0 0 1 .29-1.73 4.13 4.13 0 0 1 .81-1.36 3.67 3.67 0 0 1 1.23-.9 3.76 3.76 0 0 1 1.56-.32 3.39 3.39 0 0 1 1.83.46 3.63 3.63 0 0 1 1.17 1.16 4.59 4.59 0 0 1 .61 1.54 6.59 6.59 0 0 1 .14 1.58h-6.19a3.28 3.28 0 0 0 .13 1 2.33 2.33 0 0 0 .46.86 2.29 2.29 0 0 0 .82.6 2.81 2.81 0 0 0 1.17.22 2.35 2.35 0 0 0 1.42-.4 1.93 1.93 0 0 0 .73-1.22h1.34a3.31 3.31 0 0 1-1.2 2.1zm6.27-7.74v1.2H459v5.14a1.48 1.48 0 0 0 0 .38.39.39 0 0 0 .15.22.67.67 0 0 0 .31.1h1.14v1.2h-1a4.88 4.88 0 0 1-.9-.07 1.33 1.33 0 0 1-.61-.26 1.13 1.13 0 0 1-.34-.54 3.14 3.14 0 0 1-.11-.93v-5.26h-1.41v-1.2h1.41v-2.48H459v2.48zm10.67 2.32a2.71 2.71 0 0 0 1.9-.53 2 2 0 0 0 .6-1.57 2 2 0 0 0-.6-1.56 2.8 2.8 0 0 0-1.9-.54h-3v4.19zm.51-5.47a3.55 3.55 0 0 1 2.62.89 3.94 3.94 0 0 1 0 5 3.48 3.48 0 0 1-2.62.88h-3.49v4.67h-1.52V273zm6.37 3.15v1.74a3.68 3.68 0 0 1 1.22-1.49 3.06 3.06 0 0 1 1.82-.45v1.44a3.85 3.85 0 0 0-1.39.22 2.19 2.19 0 0 0-.93.66 2.71 2.71 0 0 0-.51 1 5.65 5.65 0 0 0-.16 1.42v3.68h-1.36v-8.27zm4.99 5.44a2.79 2.79 0 0 0 .55 1 2.39 2.39 0 0 0 .82.6 2.51 2.51 0 0 0 2 0 2.39 2.39 0 0 0 .82-.6 2.8 2.8 0 0 0 .55-1 4.56 4.56 0 0 0 0-2.67 2.89 2.89 0 0 0-.55-1 2.36 2.36 0 0 0-.82-.61 2.51 2.51 0 0 0-2 0 2.35 2.35 0 0 0-.82.61 2.88 2.88 0 0 0-.55 1 4.56 4.56 0 0 0 0 2.67zm-1.38-3a3.86 3.86 0 0 1 .77-1.38 3.62 3.62 0 0 1 1.26-.92 4.63 4.63 0 0 1 3.46 0 3.64 3.64 0 0 1 1.26.92 3.86 3.86 0 0 1 .77 1.38 5.51 5.51 0 0 1 .26 1.7 5.44 5.44 0 0 1-.26 1.7 3.87 3.87 0 0 1-.77 1.37 3.55 3.55 0 0 1-1.26.91 4.74 4.74 0 0 1-3.46 0 3.53 3.53 0 0 1-1.26-.91 3.87 3.87 0 0 1-.77-1.37 5.43 5.43 0 0 1-.26-1.7 5.51 5.51 0 0 1 .26-1.7zm14.32-1a2.06 2.06 0 0 0-1.38-.43 2.54 2.54 0 0 0-1.23.27 2.2 2.2 0 0 0-.79.72 3 3 0 0 0-.42 1 5.62 5.62 0 0 0-.13 1.21 4.6 4.6 0 0 0 .14 1.12 3 3 0 0 0 .42 1 2.14 2.14 0 0 0 .75.68 2.25 2.25 0 0 0 1.1.26 2.23 2.23 0 0 0 1.58-.53 2.39 2.39 0 0 0 .7-1.49h1.39a3.81 3.81 0 0 1-1.14 2.37 3.59 3.59 0 0 1-2.5.83 4.31 4.31 0 0 1-1.67-.3 3.24 3.24 0 0 1-1.22-.86 3.73 3.73 0 0 1-.74-1.34 5.57 5.57 0 0 1-.25-1.7 6.07 6.07 0 0 1 .24-1.74 4 4 0 0 1 .73-1.41 3.42 3.42 0 0 1 1.22-.94 4 4 0 0 1 1.71-.34 5 5 0 0 1 1.32.17 3.22 3.22 0 0 1 1.09.52 2.84 2.84 0 0 1 .78.89 3.28 3.28 0 0 1 .38 1.27h-1.41a2.07 2.07 0 0 0-.67-1.22zm9.18 1a2.33 2.33 0 0 0-.5-.74 2.36 2.36 0 0 0-.74-.5 2.33 2.33 0 0 0-.94-.18 2.37 2.37 0 0 0-1 .18 2.2 2.2 0 0 0-.73.5 2.41 2.41 0 0 0-.48.74 2.83 2.83 0 0 0-.21.9h4.75a2.79 2.79 0 0 0-.22-.91zm.33 5.31a3.75 3.75 0 0 1-2.34.7 4.25 4.25 0 0 1-1.72-.32 3.39 3.39 0 0 1-1.22-.9 3.8 3.8 0 0 1-.74-1.38 6.62 6.62 0 0 1-.28-1.74 5 5 0 0 1 .29-1.73 4.13 4.13 0 0 1 .81-1.36 3.67 3.67 0 0 1 1.23-.9 3.76 3.76 0 0 1 1.56-.32 3.39 3.39 0 0 1 1.83.46 3.63 3.63 0 0 1 1.17 1.16 4.59 4.59 0 0 1 .61 1.54 6.59 6.59 0 0 1 .14 1.58h-6.19a3.28 3.28 0 0 0 .13 1 2.33 2.33 0 0 0 .46.86 2.29 2.29 0 0 0 .82.6 2.81 2.81 0 0 0 1.17.22 2.35 2.35 0 0 0 1.42-.4 1.93 1.93 0 0 0 .73-1.22h1.34a3.31 3.31 0 0 1-1.2 2.1zm3.78-1.32a1.45 1.45 0 0 0 .5.5 2.26 2.26 0 0 0 .7.26 4 4 0 0 0 .81.08 5 5 0 0 0 .67 0 2.46 2.46 0 0 0 .65-.18 1.22 1.22 0 0 0 .49-.38 1 1 0 0 0 .19-.63.91.91 0 0 0-.4-.8 3.41 3.41 0 0 0-1-.44q-.6-.17-1.3-.3a6.74 6.74 0 0 1-1.3-.38 2.7 2.7 0 0 1-1-.7 1.81 1.81 0 0 1-.4-1.25 2 2 0 0 1 .28-1.07 2.29 2.29 0 0 1 .72-.73 3.31 3.31 0 0 1 1-.42 4.58 4.58 0 0 1 1.1-.14 6.53 6.53 0 0 1 1.3.12 3 3 0 0 1 1 .42 2.16 2.16 0 0 1 .73.8 3 3 0 0 1 .32 1.26h-1.36a1.38 1.38 0 0 0-.21-.66 1.36 1.36 0 0 0-.45-.42 2 2 0 0 0-.6-.23 3.09 3.09 0 0 0-.66-.07 4 4 0 0 0-.62 0 2.07 2.07 0 0 0-.57.17 1.14 1.14 0 0 0-.42.32.81.81 0 0 0-.16.52.76.76 0 0 0 .25.58 2 2 0 0 0 .63.38 5.51 5.51 0 0 0 .86.26l1 .22a10.3 10.3 0 0 1 1 .27 3.27 3.27 0 0 1 .86.42 2.08 2.08 0 0 1 .61.66 2 2 0 0 1 .23 1 2.3 2.3 0 0 1-.31 1.25 2.44 2.44 0 0 1-.82.8 3.41 3.41 0 0 1-1.14.42 6.72 6.72 0 0 1-1.26.12 5.82 5.82 0 0 1-1.31-.14 3.22 3.22 0 0 1-1.1-.47 2.4 2.4 0 0 1-.77-.86 3 3 0 0 1-.32-1.3h1.36a1.53 1.53 0 0 0 .21.76zm8 0a1.45 1.45 0 0 0 .5.5 2.26 2.26 0 0 0 .7.26 4 4 0 0 0 .81.08 5 5 0 0 0 .67 0 2.46 2.46 0 0 0 .65-.18 1.22 1.22 0 0 0 .49-.38 1 1 0 0 0 .19-.63.91.91 0 0 0-.4-.8 3.41 3.41 0 0 0-1-.44q-.6-.17-1.3-.3a6.74 6.74 0 0 1-1.3-.38 2.7 2.7 0 0 1-1-.7 1.81 1.81 0 0 1-.4-1.25 2 2 0 0 1 .28-1.07 2.29 2.29 0 0 1 .72-.73 3.31 3.31 0 0 1 1-.42 4.58 4.58 0 0 1 1.1-.14 6.53 6.53 0 0 1 1.3.12 3 3 0 0 1 1 .42 2.16 2.16 0 0 1 .73.8 3 3 0 0 1 .32 1.26h-1.36a1.38 1.38 0 0 0-.21-.66 1.36 1.36 0 0 0-.45-.42 2 2 0 0 0-.6-.23 3.09 3.09 0 0 0-.66-.07 4 4 0 0 0-.62 0 2.07 2.07 0 0 0-.57.17 1.14 1.14 0 0 0-.42.32.81.81 0 0 0-.16.52.76.76 0 0 0 .25.58 2 2 0 0 0 .63.38 5.51 5.51 0 0 0 .86.26l1 .22a10.3 10.3 0 0 1 1 .27 3.27 3.27 0 0 1 .86.42 2.08 2.08 0 0 1 .61.66 2 2 0 0 1 .23 1 2.3 2.3 0 0 1-.31 1.25 2.44 2.44 0 0 1-.82.8 3.41 3.41 0 0 1-1.14.42 6.72 6.72 0 0 1-1.26.12 5.82 5.82 0 0 1-1.31-.14 3.22 3.22 0 0 1-1.1-.47 2.4 2.4 0 0 1-.77-.86 3 3 0 0 1-.32-1.3h1.36a1.53 1.53 0 0 0 .21.76z"/><path class="cls-5" d="M188 185.14l168.29-33.85"/><path d="M364.14 149.71l-8.43-1.36 1.18 5.88zm0 0"/><path class="cls-6" d="M364.14 149.71l-8.43-1.36 1.18 5.88zm0 0"/><path class="cls-5" d="M188 197.71l168.12-11.27"/><path d="M364.1 185.91l-8.18-2.46.4 6zm0 0"/><path class="cls-6" d="M364.1 185.91l-8.18-2.46.4 6zm0 0"/><path class="cls-5" d="M188 210.29l168.12 11.27"/><path d="M364.1 222.09l-7.78-3.53-.4 6zm0 0"/><path class="cls-6" d="M364.1 222.09l-7.78-3.53-.4 6zm0 0"/><path class="cls-5" d="M188 222.86l168.29 33.85"/><path d="M364.14 258.29l-7.25-4.52-1.18 5.88zm0 0"/><path class="cls-6" d="M364.14 258.29l-7.25-4.52-1.18 5.88zm0 0"/><g class="cls-2"><path class="cls-7" d="M1 351.5h186.5v141H1zm0 0"/></g><path d="M58.88 421.26a3 3 0 0 0 1.86-.46 1.65 1.65 0 0 0 .57-1.37 2 2 0 0 0-.19-1 1.37 1.37 0 0 0-.53-.54 2.08 2.08 0 0 0-.78-.25 7.44 7.44 0 0 0-.94-.06h-3v3.63zm-.42-4.91h1.63a6.44 6.44 0 0 1 .78.12 2 2 0 0 1 .62.24 3 3 0 0 1 1 .93 2.58 2.58 0 0 1 .39 1.46 2.79 2.79 0 0 1-.44 1.58 2.59 2.59 0 0 1-1.26 1 2.63 2.63 0 0 1 1.62 1 2.87 2.87 0 0 1 .56 1.79 3.41 3.41 0 0 1-.22 1.22 3 3 0 0 1-.66 1 3.32 3.32 0 0 1-1.09.74 3.74 3.74 0 0 1-1.5.28h-5.57v-11.36zm1.18 10.14a2.18 2.18 0 0 0 1.58-.54 2 2 0 0 0 .57-1.5 1.87 1.87 0 0 0-.21-.93 1.62 1.62 0 0 0-.55-.58 2.32 2.32 0 0 0-.79-.3 4.82 4.82 0 0 0-.93-.09h-3.47v4zm6.64-7v1.74a3.68 3.68 0 0 1 1.22-1.49 3.06 3.06 0 0 1 1.82-.45v1.44A3.85 3.85 0 0 0 68 421a2.19 2.19 0 0 0-.93.66 2.71 2.71 0 0 0-.51 1 5.65 5.65 0 0 0-.16 1.42v3.68H65v-8.26zm5.01 5.51a2.79 2.79 0 0 0 .55 1 2.39 2.39 0 0 0 .82.6 2.51 2.51 0 0 0 2 0 2.39 2.39 0 0 0 .82-.6 2.8 2.8 0 0 0 .55-1 4.56 4.56 0 0 0 0-2.67 2.89 2.89 0 0 0-.55-1 2.36 2.36 0 0 0-.82-.61 2.51 2.51 0 0 0-2 0 2.35 2.35 0 0 0-.82.61 2.88 2.88 0 0 0-.55 1 4.56 4.56 0 0 0 0 2.67zm-1.38-3a3.86 3.86 0 0 1 .77-1.38 3.62 3.62 0 0 1 1.26-.92 4.63 4.63 0 0 1 3.46 0 3.64 3.64 0 0 1 1.26.92 3.86 3.86 0 0 1 .77 1.38 5.51 5.51 0 0 1 .26 1.7 5.44 5.44 0 0 1-.26 1.7 3.87 3.87 0 0 1-.77 1.37 3.55 3.55 0 0 1-1.26.91 4.74 4.74 0 0 1-3.46 0 3.53 3.53 0 0 1-1.26-.91 3.86 3.86 0 0 1-.77-1.37 5.43 5.43 0 0 1-.26-1.7 5.51 5.51 0 0 1 .26-1.7zM86 427.78l-1.68-6.58-1.66 6.58h-1.47l-2.66-8.27H80l1.87 6.77 1.66-6.77h1.49l1.73 6.77 1.86-6.77h1.41l-2.64 8.27zm6.42-1.85a1.45 1.45 0 0 0 .5.5 2.26 2.26 0 0 0 .7.26 4 4 0 0 0 .81.08 5 5 0 0 0 .67 0 2.46 2.46 0 0 0 .65-.18 1.22 1.22 0 0 0 .49-.38 1 1 0 0 0 .19-.63.91.91 0 0 0-.4-.8 3.41 3.41 0 0 0-1-.44q-.6-.17-1.3-.3a6.74 6.74 0 0 1-1.3-.38 2.7 2.7 0 0 1-1-.7 1.81 1.81 0 0 1-.4-1.25 2 2 0 0 1 .28-1.07 2.29 2.29 0 0 1 .72-.73 3.31 3.31 0 0 1 1-.42 4.58 4.58 0 0 1 1.1-.14 6.53 6.53 0 0 1 1.3.12 3 3 0 0 1 1 .42 2.16 2.16 0 0 1 .73.8 3 3 0 0 1 .32 1.26h-1.3a1.38 1.38 0 0 0-.21-.66 1.37 1.37 0 0 0-.45-.42 2 2 0 0 0-.6-.23 3.09 3.09 0 0 0-.66-.07 4 4 0 0 0-.62 0 2.07 2.07 0 0 0-.57.17 1.14 1.14 0 0 0-.42.32.81.81 0 0 0-.16.52.76.76 0 0 0 .25.58 2 2 0 0 0 .63.38 5.51 5.51 0 0 0 .86.26l1 .22a10.3 10.3 0 0 1 1 .27 3.27 3.27 0 0 1 .86.42 2.08 2.08 0 0 1 .61.66 2 2 0 0 1 .23 1 2.3 2.3 0 0 1-.31 1.25 2.44 2.44 0 0 1-.82.8 3.41 3.41 0 0 1-1.14.42 6.72 6.72 0 0 1-1.26.12 5.82 5.82 0 0 1-1.31-.14 3.22 3.22 0 0 1-1.1-.47 2.4 2.4 0 0 1-.77-.86 3 3 0 0 1-.32-1.3h1.36a1.53 1.53 0 0 0 .21.76zm12.49-4a2.33 2.33 0 0 0-.5-.74 2.36 2.36 0 0 0-.74-.5 2.33 2.33 0 0 0-.94-.18 2.37 2.37 0 0 0-1 .18 2.2 2.2 0 0 0-.73.5 2.41 2.41 0 0 0-.48.74 2.83 2.83 0 0 0-.21.9h4.75a2.79 2.79 0 0 0-.22-.91zm.33 5.31a3.75 3.75 0 0 1-2.34.7 4.25 4.25 0 0 1-1.72-.32 3.39 3.39 0 0 1-1.22-.9 3.8 3.8 0 0 1-.74-1.38 6.62 6.62 0 0 1-.28-1.74 5 5 0 0 1 .29-1.73 4.13 4.13 0 0 1 .81-1.36 3.67 3.67 0 0 1 1.23-.9 3.76 3.76 0 0 1 1.56-.32 3.39 3.39 0 0 1 1.83.46 3.63 3.63 0 0 1 1.17 1.16 4.59 4.59 0 0 1 .61 1.54 6.59 6.59 0 0 1 .14 1.58h-6.18a3.28 3.28 0 0 0 .13 1 2.33 2.33 0 0 0 .46.86 2.29 2.29 0 0 0 .82.6 2.81 2.81 0 0 0 1.17.22 2.35 2.35 0 0 0 1.42-.4 1.93 1.93 0 0 0 .73-1.22h1.34a3.31 3.31 0 0 1-1.2 2.1zm4-7.74v1.74a3.68 3.68 0 0 1 1.22-1.49 3.06 3.06 0 0 1 1.82-.45v1.44a3.85 3.85 0 0 0-1.39.22 2.19 2.19 0 0 0-.93.66 2.71 2.71 0 0 0-.51 1 5.65 5.65 0 0 0-.16 1.42v3.68H108v-8.22zm14.41 6.56a2.62 2.62 0 0 1-.56 1 2.76 2.76 0 0 1-1 .7 4.28 4.28 0 0 1-1.61.26 3.39 3.39 0 0 1-2.46-.84 3.3 3.3 0 0 1-.86-2.47V424h1.52v.48a4.82 4.82 0 0 0 .08.91 2 2 0 0 0 .28.72 1.32 1.32 0 0 0 .56.47 2.18 2.18 0 0 0 .92.17 1.63 1.63 0 0 0 1.43-.56 2.58 2.58 0 0 0 .39-1.5v-8.35h1.52v8.58a3.93 3.93 0 0 1-.17 1.14zm8.38-8.15a3.23 3.23 0 0 0-1.94-.55 4.65 4.65 0 0 0-.94.1 2.51 2.51 0 0 0-.82.32 1.68 1.68 0 0 0-.58.6 1.86 1.86 0 0 0-.22.94 1.19 1.19 0 0 0 .31.86 2.31 2.31 0 0 0 .83.54 7 7 0 0 0 1.18.34l1.34.3q.68.16 1.34.38a4.41 4.41 0 0 1 1.18.58 2.78 2.78 0 0 1 .83.93 3.25 3.25 0 0 1-.1 3 3.36 3.36 0 0 1-1 1.06 4.56 4.56 0 0 1-1.43.59 7 7 0 0 1-1.58.18 6.7 6.7 0 0 1-1.82-.24 4.48 4.48 0 0 1-1.5-.73 3.45 3.45 0 0 1-1-1.25 4 4 0 0 1-.38-1.8h1.44a2.58 2.58 0 0 0 .28 1.24 2.54 2.54 0 0 0 .74.86 3.1 3.1 0 0 0 1.06.5 4.88 4.88 0 0 0 1.25.16 5.68 5.68 0 0 0 1-.1 3 3 0 0 0 .94-.33 1.76 1.76 0 0 0 .93-1.66 1.43 1.43 0 0 0-.31-1 2.3 2.3 0 0 0-.83-.6 6.11 6.11 0 0 0-1.18-.38l-1.34-.3q-.68-.15-1.34-.35a4.82 4.82 0 0 1-1.18-.53 2.53 2.53 0 0 1-.83-.85 2.5 2.5 0 0 1-.31-1.3 3 3 0 0 1 .35-1.5 3.07 3.07 0 0 1 .94-1 4.2 4.2 0 0 1 1.33-.61 5.86 5.86 0 0 1 1.53-.2 6.11 6.11 0 0 1 1.63.21 3.7 3.7 0 0 1 1.32.66 3.17 3.17 0 0 1 .9 1.13 4 4 0 0 1 .36 1.62h-1.44a2.38 2.38 0 0 0-.89-1.78z"/><g class="cls-2"><path class="cls-8" d="M401 406.88h137.5v97.62H401zm0 0"/></g><path d="M452.78 461.46l-2.61-9.6h-.03l-2.64 9.6h-1.58l-2.93-11.42h1.55l2.24 9.5h.03l2.56-9.5h1.65l2.53 9.5h.03l2.32-9.5h1.52l-3.05 11.42h-1.59zm6.14-2.79a2.79 2.79 0 0 0 .55 1 2.39 2.39 0 0 0 .82.6 2.51 2.51 0 0 0 2 0 2.39 2.39 0 0 0 .82-.6 2.8 2.8 0 0 0 .55-1 4.56 4.56 0 0 0 0-2.67 2.89 2.89 0 0 0-.55-1 2.36 2.36 0 0 0-.82-.61 2.51 2.51 0 0 0-2 0 2.35 2.35 0 0 0-.82.61 2.88 2.88 0 0 0-.55 1 4.56 4.56 0 0 0 0 2.67zm-1.38-3a3.86 3.86 0 0 1 .77-1.38 3.62 3.62 0 0 1 1.26-.92 4.63 4.63 0 0 1 3.46 0 3.64 3.64 0 0 1 1.26.92 3.86 3.86 0 0 1 .77 1.38 5.51 5.51 0 0 1 .26 1.7 5.44 5.44 0 0 1-.26 1.7 3.87 3.87 0 0 1-.77 1.37 3.55 3.55 0 0 1-1.26.91 4.74 4.74 0 0 1-3.46 0 3.53 3.53 0 0 1-1.26-.91 3.86 3.86 0 0 1-.77-1.37 5.43 5.43 0 0 1-.26-1.7 5.51 5.51 0 0 1 .26-1.7zm10.61-2.44v1.74a3.68 3.68 0 0 1 1.22-1.49 3.06 3.06 0 0 1 1.82-.45v1.44a3.85 3.85 0 0 0-1.39.22 2.19 2.19 0 0 0-.93.66 2.71 2.71 0 0 0-.51 1 5.65 5.65 0 0 0-.16 1.42v3.68h-1.36v-8.27zm5.54-3.15v6.77l3.78-3.62h1.82l-3.28 3 3.52 5.26h-1.73l-2.8-4.35-1.28 1.18v3.14h-1.36V450zm8.3 0v11.42h-1.36V450zm7.64 5.58a2.33 2.33 0 0 0-.5-.74 2.36 2.36 0 0 0-.74-.5 2.33 2.33 0 0 0-.94-.18 2.37 2.37 0 0 0-1 .18 2.2 2.2 0 0 0-.73.5 2.41 2.41 0 0 0-.48.74 2.83 2.83 0 0 0-.21.9h4.75a2.79 2.79 0 0 0-.22-.91zm.33 5.31a3.75 3.75 0 0 1-2.34.7 4.25 4.25 0 0 1-1.72-.32 3.39 3.39 0 0 1-1.22-.9 3.8 3.8 0 0 1-.74-1.38 6.62 6.62 0 0 1-.28-1.74 5 5 0 0 1 .29-1.73 4.13 4.13 0 0 1 .81-1.36 3.67 3.67 0 0 1 1.23-.9 3.76 3.76 0 0 1 1.56-.32 3.39 3.39 0 0 1 1.83.46 3.63 3.63 0 0 1 1.17 1.16 4.59 4.59 0 0 1 .61 1.54 6.59 6.59 0 0 1 .14 1.58h-6.19a3.28 3.28 0 0 0 .13 1 2.33 2.33 0 0 0 .46.86 2.29 2.29 0 0 0 .82.6 2.81 2.81 0 0 0 1.17.22 2.35 2.35 0 0 0 1.42-.4 1.93 1.93 0 0 0 .73-1.22h1.34a3.31 3.31 0 0 1-1.2 2.1zm6.27-7.74v1.2h-1.65v5.14a1.48 1.48 0 0 0 0 .38.39.39 0 0 0 .15.22.67.67 0 0 0 .31.1h1.14v1.2h-1a4.88 4.88 0 0 1-.9-.07 1.33 1.33 0 0 1-.61-.26 1.13 1.13 0 0 1-.34-.54 3.14 3.14 0 0 1-.11-.93v-5.26h-1.41v-1.2h1.41v-2.48h1.36v2.48z"/><path class="cls-9" d="M668 114.5h137.5V144H668zm0 0"/><path d="M719.78 135.03l-2.61-9.6h-.03l-2.64 9.6h-1.58l-2.93-11.43h1.55l2.24 9.51h.03l2.56-9.51h1.65l2.53 9.51h.03l2.32-9.51h1.52l-3.05 11.43h-1.59zm6.14-2.8a2.79 2.79 0 0 0 .55 1 2.39 2.39 0 0 0 .82.6 2.51 2.51 0 0 0 2 0 2.39 2.39 0 0 0 .82-.6 2.8 2.8 0 0 0 .55-1 4.56 4.56 0 0 0 0-2.67 2.89 2.89 0 0 0-.55-1 2.36 2.36 0 0 0-.82-.61 2.51 2.51 0 0 0-2 0 2.35 2.35 0 0 0-.82.61 2.88 2.88 0 0 0-.55 1 4.56 4.56 0 0 0 0 2.67zm-1.38-3a3.86 3.86 0 0 1 .77-1.38 3.62 3.62 0 0 1 1.26-.92 4.63 4.63 0 0 1 3.46 0 3.64 3.64 0 0 1 1.26.92 3.86 3.86 0 0 1 .77 1.38 5.51 5.51 0 0 1 .26 1.7 5.44 5.44 0 0 1-.26 1.7 3.87 3.87 0 0 1-.77 1.37 3.55 3.55 0 0 1-1.26.91 4.74 4.74 0 0 1-3.46 0 3.53 3.53 0 0 1-1.26-.91 3.87 3.87 0 0 1-.77-1.37 5.43 5.43 0 0 1-.26-1.7 5.51 5.51 0 0 1 .26-1.7zm10.61-2.44v1.74a3.68 3.68 0 0 1 1.22-1.49 3.06 3.06 0 0 1 1.82-.45V128a3.85 3.85 0 0 0-1.39.22 2.19 2.19 0 0 0-.93.66 2.71 2.71 0 0 0-.51 1 5.65 5.65 0 0 0-.16 1.42v3.7h-1.36v-8.27zm5.54-3.15v6.77l3.78-3.62h1.82l-3.28 3 3.52 5.26h-1.73l-2.8-4.34-1.28 1.18V135h-1.36v-11.4zm8.3 0V135h-1.36v-11.4zm7.64 5.58a2.33 2.33 0 0 0-.5-.74 2.36 2.36 0 0 0-.74-.5 2.33 2.33 0 0 0-.94-.18 2.37 2.37 0 0 0-1 .18 2.2 2.2 0 0 0-.73.5 2.41 2.41 0 0 0-.48.74 2.83 2.83 0 0 0-.21.9h4.75a2.79 2.79 0 0 0-.22-.91zm.33 5.31a3.75 3.75 0 0 1-2.34.7 4.25 4.25 0 0 1-1.72-.32 3.39 3.39 0 0 1-1.22-.9 3.8 3.8 0 0 1-.74-1.38 6.62 6.62 0 0 1-.28-1.74 5 5 0 0 1 .29-1.73 4.13 4.13 0 0 1 .81-1.36 3.67 3.67 0 0 1 1.23-.9 3.76 3.76 0 0 1 1.56-.32 3.39 3.39 0 0 1 1.83.46 3.63 3.63 0 0 1 1.17 1.16 4.59 4.59 0 0 1 .61 1.54 6.59 6.59 0 0 1 .14 1.58h-6.19a3.28 3.28 0 0 0 .13 1 2.33 2.33 0 0 0 .46.86 2.29 2.29 0 0 0 .82.6 2.81 2.81 0 0 0 1.17.22 2.35 2.35 0 0 0 1.42-.4 1.93 1.93 0 0 0 .73-1.22h1.34a3.31 3.31 0 0 1-1.2 2.1zm6.27-7.74V128h-1.65v5.14a1.48 1.48 0 0 0 0 .38.39.39 0 0 0 .15.22.67.67 0 0 0 .31.1h1.14V135h-1a4.88 4.88 0 0 1-.9-.07 1.33 1.33 0 0 1-.61-.26 1.13 1.13 0 0 1-.34-.54 3.14 3.14 0 0 1-.11-.93V128h-1.41v-1.2h1.41v-2.48h1.36v2.48z"/><path class="cls-9" d="M668 164.25h137.5v29.5H668zm0 0"/><path d="M719.78 184.78l-2.61-9.6h-.03l-2.64 9.6h-1.58l-2.93-11.43h1.55l2.24 9.51h.03l2.56-9.51h1.65l2.53 9.51h.03l2.32-9.51h1.52l-3.05 11.43h-1.59zm6.14-2.78a2.79 2.79 0 0 0 .55 1 2.39 2.39 0 0 0 .82.6 2.51 2.51 0 0 0 2 0 2.39 2.39 0 0 0 .82-.6 2.8 2.8 0 0 0 .55-1 4.56 4.56 0 0 0 0-2.67 2.89 2.89 0 0 0-.55-1 2.36 2.36 0 0 0-.82-.61 2.51 2.51 0 0 0-2 0 2.35 2.35 0 0 0-.82.61 2.88 2.88 0 0 0-.55 1 4.56 4.56 0 0 0 0 2.67zm-1.38-3a3.86 3.86 0 0 1 .77-1.38 3.62 3.62 0 0 1 1.26-.92 4.63 4.63 0 0 1 3.46 0 3.64 3.64 0 0 1 1.26.92 3.86 3.86 0 0 1 .77 1.38 5.51 5.51 0 0 1 .26 1.7 5.44 5.44 0 0 1-.26 1.7 3.87 3.87 0 0 1-.77 1.37 3.55 3.55 0 0 1-1.26.91 4.74 4.74 0 0 1-3.46 0 3.53 3.53 0 0 1-1.26-.91 3.87 3.87 0 0 1-.77-1.37 5.43 5.43 0 0 1-.26-1.7 5.51 5.51 0 0 1 .26-1.7zm10.61-2.44v1.74a3.68 3.68 0 0 1 1.22-1.49 3.06 3.06 0 0 1 1.82-.45v1.44a3.85 3.85 0 0 0-1.39.22 2.19 2.19 0 0 0-.93.66 2.71 2.71 0 0 0-.51 1 5.65 5.65 0 0 0-.16 1.42v3.68h-1.36v-8.28zm5.54-3.15v6.77l3.78-3.62h1.82l-3.28 3 3.52 5.26h-1.73l-2.8-4.36-1.28 1.18v3.14h-1.36v-11.43zm8.3 0v11.42h-1.36v-11.48zm7.64 5.58a2.33 2.33 0 0 0-.5-.74 2.36 2.36 0 0 0-.74-.5 2.33 2.33 0 0 0-.94-.18 2.37 2.37 0 0 0-1 .18 2.2 2.2 0 0 0-.73.5 2.41 2.41 0 0 0-.48.74 2.83 2.83 0 0 0-.21.9h4.75a2.79 2.79 0 0 0-.22-.91zm.33 5.31a3.75 3.75 0 0 1-2.34.7 4.25 4.25 0 0 1-1.72-.32 3.39 3.39 0 0 1-1.22-.9 3.8 3.8 0 0 1-.74-1.38 6.62 6.62 0 0 1-.28-1.74 5 5 0 0 1 .29-1.73 4.13 4.13 0 0 1 .81-1.36 3.67 3.67 0 0 1 1.23-.9 3.76 3.76 0 0 1 1.56-.32 3.39 3.39 0 0 1 1.83.46 3.63 3.63 0 0 1 1.17 1.16 4.59 4.59 0 0 1 .61 1.54 6.59 6.59 0 0 1 .14 1.58h-6.19a3.28 3.28 0 0 0 .13 1 2.33 2.33 0 0 0 .46.86 2.29 2.29 0 0 0 .82.6 2.81 2.81 0 0 0 1.17.22 2.35 2.35 0 0 0 1.42-.4 1.93 1.93 0 0 0 .73-1.22h1.34a3.31 3.31 0 0 1-1.2 2.1zm6.27-7.74v1.2h-1.65v5.14a1.48 1.48 0 0 0 0 .38.39.39 0 0 0 .15.22.67.67 0 0 0 .31.1h1.14v1.2h-1a4.88 4.88 0 0 1-.9-.07 1.33 1.33 0 0 1-.61-.26 1.13 1.13 0 0 1-.34-.54 3.14 3.14 0 0 1-.11-.93v-5.3h-1.41v-1.2h1.41V174h1.36v2.48z"/><path class="cls-9" d="M668 214h137.5v29.5H668zm0 0"/><path d="M719.78 234.53l-2.61-9.6h-.03l-2.64 9.6h-1.58l-2.93-11.43h1.55l2.24 9.51h.03l2.56-9.51h1.65l2.53 9.51h.03l2.32-9.51h1.52l-3.05 11.43h-1.59zm6.14-2.8a2.79 2.79 0 0 0 .55 1 2.39 2.39 0 0 0 .82.6 2.51 2.51 0 0 0 2 0 2.39 2.39 0 0 0 .82-.6 2.8 2.8 0 0 0 .55-1 4.56 4.56 0 0 0 0-2.67 2.89 2.89 0 0 0-.55-1 2.36 2.36 0 0 0-.82-.61 2.51 2.51 0 0 0-2 0 2.35 2.35 0 0 0-.82.61 2.88 2.88 0 0 0-.55 1 4.56 4.56 0 0 0 0 2.67zm-1.38-3a3.86 3.86 0 0 1 .77-1.38 3.62 3.62 0 0 1 1.26-.92 4.63 4.63 0 0 1 3.46 0 3.64 3.64 0 0 1 1.26.92 3.86 3.86 0 0 1 .77 1.38 5.52 5.52 0 0 1 .26 1.7 5.44 5.44 0 0 1-.26 1.7 3.87 3.87 0 0 1-.77 1.37 3.55 3.55 0 0 1-1.26.91 4.74 4.74 0 0 1-3.46 0 3.53 3.53 0 0 1-1.26-.91 3.87 3.87 0 0 1-.77-1.37 5.43 5.43 0 0 1-.26-1.7 5.51 5.51 0 0 1 .26-1.7zm10.61-2.44V228a3.68 3.68 0 0 1 1.22-1.49 3.06 3.06 0 0 1 1.82-.45v1.44a3.85 3.85 0 0 0-1.39.22 2.2 2.2 0 0 0-.93.66 2.71 2.71 0 0 0-.51 1 5.65 5.65 0 0 0-.16 1.42v3.68h-1.36v-8.27zm5.54-3.15v6.77l3.78-3.62h1.82l-3.28 3 3.52 5.26h-1.73l-2.8-4.34-1.28 1.18v3.14h-1.36V223.1zm8.3 0v11.42h-1.36V223.1zm7.64 5.58a2.33 2.33 0 0 0-.5-.74 2.36 2.36 0 0 0-.74-.5 2.33 2.33 0 0 0-.94-.18 2.37 2.37 0 0 0-1 .18 2.2 2.2 0 0 0-.73.5 2.41 2.41 0 0 0-.48.74 2.83 2.83 0 0 0-.21.9h4.75a2.79 2.79 0 0 0-.22-.91zm.33 5.31a3.75 3.75 0 0 1-2.34.7 4.25 4.25 0 0 1-1.72-.32 3.39 3.39 0 0 1-1.22-.9 3.8 3.8 0 0 1-.74-1.38 6.62 6.62 0 0 1-.28-1.74 5 5 0 0 1 .29-1.73 4.13 4.13 0 0 1 .81-1.36 3.67 3.67 0 0 1 1.23-.9 3.76 3.76 0 0 1 1.56-.32 3.39 3.39 0 0 1 1.83.46 3.63 3.63 0 0 1 1.17 1.16 4.59 4.59 0 0 1 .61 1.54 6.59 6.59 0 0 1 .14 1.58h-6.19a3.28 3.28 0 0 0 .13 1 2.33 2.33 0 0 0 .46.86 2.29 2.29 0 0 0 .82.6 2.81 2.81 0 0 0 1.17.22 2.35 2.35 0 0 0 1.42-.4 1.93 1.93 0 0 0 .73-1.22h1.34a3.31 3.31 0 0 1-1.2 2.1zm6.27-7.74v1.2h-1.65v5.14a1.48 1.48 0 0 0 0 .38.39.39 0 0 0 .15.22.67.67 0 0 0 .31.1h1.14v1.2h-1a4.88 4.88 0 0 1-.9-.07 1.33 1.33 0 0 1-.61-.26 1.13 1.13 0 0 1-.34-.54 3.14 3.14 0 0 1-.11-.93v-5.26h-1.41v-1.2h1.41v-2.48h1.36v2.48z"/><path class="cls-9" d="M668 263.75h137.5v29.5H668zm0 0"/><path d="M719.78 284.28l-2.61-9.6h-.03l-2.64 9.6h-1.58l-2.93-11.43h1.55l2.24 9.51h.03l2.56-9.51h1.65l2.53 9.51h.03l2.32-9.51h1.52l-3.05 11.43h-1.59zm6.14-2.8a2.79 2.79 0 0 0 .55 1 2.39 2.39 0 0 0 .82.6 2.51 2.51 0 0 0 2 0 2.39 2.39 0 0 0 .82-.6 2.8 2.8 0 0 0 .55-1 4.56 4.56 0 0 0 0-2.67 2.89 2.89 0 0 0-.55-1 2.36 2.36 0 0 0-.82-.61 2.51 2.51 0 0 0-2 0 2.35 2.35 0 0 0-.82.61 2.88 2.88 0 0 0-.55 1 4.56 4.56 0 0 0 0 2.67zm-1.38-3a3.86 3.86 0 0 1 .77-1.38 3.62 3.62 0 0 1 1.26-.92 4.63 4.63 0 0 1 3.46 0 3.64 3.64 0 0 1 1.26.92 3.86 3.86 0 0 1 .77 1.38 5.52 5.52 0 0 1 .26 1.7 5.44 5.44 0 0 1-.26 1.7 3.87 3.87 0 0 1-.77 1.37 3.55 3.55 0 0 1-1.26.91 4.74 4.74 0 0 1-3.46 0 3.53 3.53 0 0 1-1.26-.91 3.87 3.87 0 0 1-.77-1.37 5.43 5.43 0 0 1-.26-1.7 5.51 5.51 0 0 1 .26-1.7zm10.6-2.48v1.74a3.68 3.68 0 0 1 1.22-1.49 3.06 3.06 0 0 1 1.82-.45v1.44a3.85 3.85 0 0 0-1.39.22 2.19 2.19 0 0 0-.93.66 2.71 2.71 0 0 0-.51 1 5.65 5.65 0 0 0-.16 1.42v3.68h-1.36V276zm5.54-3.15v6.77l3.78-3.62h1.82l-3.28 3 3.52 5.26h-1.73L742 280l-1.28 1.18v3.14h-1.36v-11.47zm8.3 0v11.42h-1.36v-11.42zm7.64 5.58a2.33 2.33 0 0 0-.5-.74 2.36 2.36 0 0 0-.74-.5 2.33 2.33 0 0 0-.94-.18 2.37 2.37 0 0 0-1 .18 2.2 2.2 0 0 0-.73.5 2.41 2.41 0 0 0-.48.74 2.83 2.83 0 0 0-.21.9h4.75a2.79 2.79 0 0 0-.22-.91zm.33 5.31a3.75 3.75 0 0 1-2.34.7 4.25 4.25 0 0 1-1.72-.32 3.39 3.39 0 0 1-1.22-.9 3.8 3.8 0 0 1-.74-1.38 6.62 6.62 0 0 1-.28-1.74 5 5 0 0 1 .29-1.73 4.13 4.13 0 0 1 .81-1.36 3.67 3.67 0 0 1 1.23-.9 3.76 3.76 0 0 1 1.56-.32 3.39 3.39 0 0 1 1.83.46 3.63 3.63 0 0 1 1.17 1.16 4.59 4.59 0 0 1 .61 1.54 6.59 6.59 0 0 1 .14 1.58h-6.19a3.28 3.28 0 0 0 .13 1 2.33 2.33 0 0 0 .46.86 2.29 2.29 0 0 0 .82.6 2.81 2.81 0 0 0 1.17.22 2.35 2.35 0 0 0 1.42-.4 1.93 1.93 0 0 0 .73-1.22h1.34a3.31 3.31 0 0 1-1.2 2.1zm6.27-7.74v1.2h-1.65v5.14a1.48 1.48 0 0 0 0 .38.39.39 0 0 0 .15.22.67.67 0 0 0 .31.1h1.14v1.2h-1a4.88 4.88 0 0 1-.9-.07 1.33 1.33 0 0 1-.61-.26 1.13 1.13 0 0 1-.34-.54 3.14 3.14 0 0 1-.11-.93v-5.24h-1.41V276h1.41v-2.48h1.36V276z"/><path class="cls-5" d="M188 430.41l202.64 18.18"/><path d="M398.61 449.31l-7.7-3.7-.54 6zm0 0"/><path class="cls-6" d="M398.61 449.31l-7.7-3.7-.54 6zm0 0"/><path class="cls-3" d="M209.2 424.62h174v31h-174zm0 0"/><text class="cls-10" transform="translate(214.61 446.12)">worklet.addModule</text><g class="cls-2"><path class="cls-5" d="M539 455.69h197.75V293.25M539 455.69h289v-219.6h-22.5M539 455.69h299.37V186.32H805.5M539 455.69h309.59V136.26H805.5m-137.5-7h-93.6"/></g><path d="M566.4 129.33l8 3v-6zm0 0"/><path class="cls-6" d="M566.4 129.33l8 3v-6zm0 0"/><path class="cls-5" d="M668 179.03l-93.6.04"/><path d="M566.4 179.08l8 3v-6zm0 0"/><path class="cls-6" d="M566.4 179.08l8 3v-6zm0 0"/><path class="cls-5" d="M668 228.78l-93.6.04"/><path d="M566.4 228.83l8 3v-6zm0 0"/><path class="cls-6" d="M566.4 228.83l8 3v-6zm0 0"/><path class="cls-5" d="M668 278.53l-93.6.04"/><path d="M566.4 278.58l8 3v-6zm0 0"/><path class="cls-6" d="M566.4 278.58l8 3v-6zm0 0"/><path class="cls-3" d="M544.64 443.19h221v25h-221zm0 0"/><path d="M552.21 451v7.61h4.54v1h-5.68V451zm6.26 6.47a2.09 2.09 0 0 0 .41.73 1.79 1.79 0 0 0 .62.45 1.88 1.88 0 0 0 1.5 0 1.8 1.8 0 0 0 .62-.45 2.1 2.1 0 0 0 .41-.73 3.42 3.42 0 0 0 0-2 2.17 2.17 0 0 0-.41-.74 1.77 1.77 0 0 0-.62-.46 1.88 1.88 0 0 0-1.5 0 1.76 1.76 0 0 0-.62.46 2.16 2.16 0 0 0-.41.74 3.42 3.42 0 0 0 0 2zm-1-2.28a2.89 2.89 0 0 1 .58-1 2.71 2.71 0 0 1 .95-.69 3.47 3.47 0 0 1 2.6 0 2.73 2.73 0 0 1 .94.69 2.9 2.9 0 0 1 .58 1 4.14 4.14 0 0 1 .19 1.28 4.08 4.08 0 0 1-.19 1.27 2.9 2.9 0 0 1-.58 1 2.66 2.66 0 0 1-.94.68 3.55 3.55 0 0 1-2.6 0 2.64 2.64 0 0 1-.95-.68 2.9 2.9 0 0 1-.58-1 4.07 4.07 0 0 1-.19-1.27 4.13 4.13 0 0 1 .19-1.28zM570 458.7a1.23 1.23 0 0 1-.31 0q-.24 0-.28-.17a2.37 2.37 0 0 1 0-.53v-3.19a1.66 1.66 0 0 0-.2-.87 1.44 1.44 0 0 0-.54-.52 2.18 2.18 0 0 0-.75-.25 5.82 5.82 0 0 0-.83-.06 4.34 4.34 0 0 0-1 .11 2.42 2.42 0 0 0-.82.35 1.82 1.82 0 0 0-.58.64 2.2 2.2 0 0 0-.24 1h1a1 1 0 0 1 .47-.93 2.16 2.16 0 0 1 1.08-.25 3.35 3.35 0 0 1 .49 0 1.32 1.32 0 0 1 .44.14.86.86 0 0 1 .32.31 1 1 0 0 1 .13.54.56.56 0 0 1-.17.44 1.11 1.11 0 0 1-.46.23 4.42 4.42 0 0 1-.67.12q-.38 0-.8.13t-.77.18a2.17 2.17 0 0 0-.67.32 1.57 1.57 0 0 0-.47.55 1.82 1.82 0 0 0-.18.86 1.8 1.8 0 0 0 .16.8 1.44 1.44 0 0 0 .44.53 1.85 1.85 0 0 0 .65.3 3.38 3.38 0 0 0 2-.13 2.44 2.44 0 0 0 1-.73 1 1 0 0 0 .23.73.88.88 0 0 0 .63.22 1.44 1.44 0 0 0 .73-.16v-.79zm-1.66-1.35a1.14 1.14 0 0 1-.11.46 1.37 1.37 0 0 1-.34.45 1.82 1.82 0 0 1-.59.35 2.43 2.43 0 0 1-.86.14 2.1 2.1 0 0 1-.46 0 1.11 1.11 0 0 1-.38-.16.85.85 0 0 1-.26-.28.82.82 0 0 1-.1-.42 1 1 0 0 1 .17-.6 1.13 1.13 0 0 1 .45-.34 2.55 2.55 0 0 1 .62-.17l.69-.1.65-.11a1.27 1.27 0 0 0 .5-.21v1zm3.46 0a2.28 2.28 0 0 0 .35.74 1.7 1.7 0 0 0 .6.52 1.82 1.82 0 0 0 .86.19 1.68 1.68 0 0 0 1.39-.8 2.24 2.24 0 0 0 .33-.75 3.63 3.63 0 0 0 0-1.73 2.18 2.18 0 0 0-.34-.75 1.75 1.75 0 0 0-.61-.52 1.89 1.89 0 0 0-.9-.2 1.75 1.75 0 0 0-.88.2 1.63 1.63 0 0 0-.58.54 2.35 2.35 0 0 0-.31.77 4.08 4.08 0 0 0-.1.89 3.17 3.17 0 0 0 .11.85zm3.67 2.2v-.84a1.5 1.5 0 0 1-.79.74 3 3 0 0 1-1.19.23 2.8 2.8 0 0 1-1.25-.26 2.58 2.58 0 0 1-.89-.71 3.08 3.08 0 0 1-.53-1 4.24 4.24 0 0 1-.18-1.25 4.38 4.38 0 0 1 .17-1.25 2.94 2.94 0 0 1 .53-1 2.55 2.55 0 0 1 .89-.7 2.82 2.82 0 0 1 1.24-.26 3 3 0 0 1 .52 0 2.63 2.63 0 0 1 .55.16 2.36 2.36 0 0 1 .52.3 1.65 1.65 0 0 1 .41.46V451h1v8.57zm6.74-4.38a1.75 1.75 0 0 0-.37-.56 1.77 1.77 0 0 0-.55-.37 1.75 1.75 0 0 0-.7-.14 1.78 1.78 0 0 0-.71.14 1.65 1.65 0 0 0-.55.38 1.81 1.81 0 0 0-.36.56 2.12 2.12 0 0 0-.16.68h3.56a2.09 2.09 0 0 0-.16-.68zm.25 4a2.82 2.82 0 0 1-1.75.53 3.19 3.19 0 0 1-1.29-.24 2.54 2.54 0 0 1-.92-.67 2.85 2.85 0 0 1-.56-1 5 5 0 0 1-.21-1.31 3.73 3.73 0 0 1 .22-1.3 3.1 3.1 0 0 1 .61-1 2.75 2.75 0 0 1 .92-.67 2.82 2.82 0 0 1 1.17-.24 2.55 2.55 0 0 1 1.37.34 2.72 2.72 0 0 1 .88.87 3.44 3.44 0 0 1 .46 1.15 4.94 4.94 0 0 1 .1 1.19h-4.64a2.46 2.46 0 0 0 .1.77 1.75 1.75 0 0 0 .35.65 1.71 1.71 0 0 0 .61.45 2.11 2.11 0 0 0 .88.17 1.76 1.76 0 0 0 1.06-.3 1.45 1.45 0 0 0 .55-.91h1a2.48 2.48 0 0 1-.9 1.57zm2.91-1.81a2.28 2.28 0 0 0 .35.74 1.7 1.7 0 0 0 .6.52 1.82 1.82 0 0 0 .86.19 1.68 1.68 0 0 0 1.46-.74 2.24 2.24 0 0 0 .33-.75 3.63 3.63 0 0 0 0-1.73 2.18 2.18 0 0 0-.34-.75 1.75 1.75 0 0 0-.61-.52 1.89 1.89 0 0 0-.9-.2 1.75 1.75 0 0 0-.88.2 1.63 1.63 0 0 0-.58.54 2.35 2.35 0 0 0-.31.77 4.08 4.08 0 0 0-.1.89 3.17 3.17 0 0 0 .11.85zm3.67 2.2v-.84a1.5 1.5 0 0 1-.79.74 3 3 0 0 1-1.19.23 2.8 2.8 0 0 1-1.25-.26 2.58 2.58 0 0 1-.89-.71 3.08 3.08 0 0 1-.53-1 4.24 4.24 0 0 1-.18-1.25 4.38 4.38 0 0 1 .17-1.25 2.94 2.94 0 0 1 .53-1 2.55 2.55 0 0 1 .89-.7 2.82 2.82 0 0 1 1.24-.26 3 3 0 0 1 .52 0 2.63 2.63 0 0 1 .55.16 2.36 2.36 0 0 1 .52.3 1.65 1.65 0 0 1 .41.46V451h1v8.57zm6-7.32V451h1v1.25zm1 1.12v6.2h-1v-6.2zm2.54 0v1a2.15 2.15 0 0 1 2-1.13 2.69 2.69 0 0 1 1 .17 1.68 1.68 0 0 1 .66.47 1.74 1.74 0 0 1 .35.71 3.85 3.85 0 0 1 .1.92v4.08h-1v-4.2a1.23 1.23 0 0 0-.34-.91 1.25 1.25 0 0 0-.92-.34 2.08 2.08 0 0 0-.81.14 1.52 1.52 0 0 0-.57.41 1.76 1.76 0 0 0-.34.62 2.51 2.51 0 0 0-.11.77v3.5h-1v-6.2zm11.7 0v.9H609v3.85a1.11 1.11 0 0 0 0 .29.3.3 0 0 0 .11.17.5.5 0 0 0 .23.08h.86v.9h-.78a3.66 3.66 0 0 1-.68-.05 1 1 0 0 1-.46-.2.84.84 0 0 1-.26-.41 2.35 2.35 0 0 1-.08-.7v-3.95h-1.06v-.9H608v-1.86h1v1.86zm2 4.11a2.09 2.09 0 0 0 .41.73 1.79 1.79 0 0 0 .62.45 1.88 1.88 0 0 0 1.5 0 1.8 1.8 0 0 0 .62-.45 2.1 2.1 0 0 0 .41-.73 3.42 3.42 0 0 0 0-2 2.17 2.17 0 0 0-.41-.74 1.77 1.77 0 0 0-.62-.46 1.88 1.88 0 0 0-1.5 0 1.76 1.76 0 0 0-.62.46 2.16 2.16 0 0 0-.41.74 3.42 3.42 0 0 0 0 2zm-1-2.28a2.89 2.89 0 0 1 .58-1 2.71 2.71 0 0 1 .95-.69 3.47 3.47 0 0 1 2.6 0 2.73 2.73 0 0 1 .94.69 2.9 2.9 0 0 1 .58 1 4.14 4.14 0 0 1 .19 1.28 4.08 4.08 0 0 1-.19 1.27 2.9 2.9 0 0 1-.58 1 2.66 2.66 0 0 1-.94.68 3.55 3.55 0 0 1-2.6 0 2.64 2.64 0 0 1-.95-.68 2.9 2.9 0 0 1-.58-1 4.07 4.07 0 0 1-.19-1.27 4.13 4.13 0 0 1 .19-1.28zm11.42-1.83v.84a1.53 1.53 0 0 1 .79-.75 3 3 0 0 1 1.19-.23 2.8 2.8 0 0 1 1.25.26 2.55 2.55 0 0 1 .89.71 3.16 3.16 0 0 1 .53 1 4.24 4.24 0 0 1 .18 1.25 4.38 4.38 0 0 1-.17 1.25 2.94 2.94 0 0 1-.53 1 2.49 2.49 0 0 1-.89.69 2.88 2.88 0 0 1-1.24.25 3.08 3.08 0 0 1-.51 0 2.84 2.84 0 0 1-.56-.16 2.17 2.17 0 0 1-.52-.29 1.64 1.64 0 0 1-.41-.46v3.19h-1v-8.57zm3.67 2.2a2.29 2.29 0 0 0-.35-.74 1.71 1.71 0 0 0-.6-.52 1.82 1.82 0 0 0-.86-.19 1.68 1.68 0 0 0-1.46.74 2.23 2.23 0 0 0-.33.75 3.63 3.63 0 0 0 0 1.73 2.18 2.18 0 0 0 .34.75 1.75 1.75 0 0 0 .61.52 1.89 1.89 0 0 0 .9.2 1.74 1.74 0 0 0 .88-.2 1.64 1.64 0 0 0 .5-.6 2.35 2.35 0 0 0 .31-.77 4.08 4.08 0 0 0 .1-.89 3.18 3.18 0 0 0-.11-.85zm7.89 3.19a1.23 1.23 0 0 1-.31 0q-.24 0-.28-.17a2.37 2.37 0 0 1 0-.53v-3.19a1.66 1.66 0 0 0-.2-.87 1.44 1.44 0 0 0-.54-.52 2.18 2.18 0 0 0-.75-.25 5.82 5.82 0 0 0-.83-.06 4.34 4.34 0 0 0-1 .11 2.42 2.42 0 0 0-.82.35 1.82 1.82 0 0 0-.58.64 2.2 2.2 0 0 0-.24 1h1a1 1 0 0 1 .47-.93 2.16 2.16 0 0 1 1.08-.25 3.35 3.35 0 0 1 .49 0 1.32 1.32 0 0 1 .44.14.86.86 0 0 1 .32.31 1 1 0 0 1 .13.54.56.56 0 0 1-.17.44 1.11 1.11 0 0 1-.46.23 4.42 4.42 0 0 1-.67.12q-.38 0-.8.13t-.77.18a2.17 2.17 0 0 0-.67.32 1.57 1.57 0 0 0-.47.55 1.82 1.82 0 0 0-.18.86 1.8 1.8 0 0 0 .16.8 1.44 1.44 0 0 0 .44.53 1.85 1.85 0 0 0 .65.3 3.38 3.38 0 0 0 2-.13 2.44 2.44 0 0 0 1-.73 1 1 0 0 0 .23.73.88.88 0 0 0 .63.22 1.44 1.44 0 0 0 .73-.16v-.79zm-1.66-1.35a1.14 1.14 0 0 1-.11.46 1.37 1.37 0 0 1-.34.45 1.82 1.82 0 0 1-.59.35 2.43 2.43 0 0 1-.86.14 2.1 2.1 0 0 1-.46 0 1.11 1.11 0 0 1-.38-.16.85.85 0 0 1-.26-.28.82.82 0 0 1-.1-.42 1 1 0 0 1 .17-.6 1.13 1.13 0 0 1 .45-.34 2.55 2.55 0 0 1 .62-.17l.69-.1.65-.11a1.27 1.27 0 0 0 .5-.21v1zm3.53-4v1.31a2.76 2.76 0 0 1 .91-1.12 2.29 2.29 0 0 1 1.37-.34v1.08a2.89 2.89 0 0 0-1 .17 1.65 1.65 0 0 0-.7.49 2 2 0 0 0-.38.79 4.24 4.24 0 0 0-.12 1.06v2.76h-1v-6.2zm8.57 5.39a1.23 1.23 0 0 1-.31 0q-.24 0-.28-.17a2.37 2.37 0 0 1 0-.53v-3.19a1.66 1.66 0 0 0-.2-.87 1.44 1.44 0 0 0-.54-.52 2.18 2.18 0 0 0-.75-.25 5.82 5.82 0 0 0-.83-.06 4.34 4.34 0 0 0-1 .11 2.42 2.42 0 0 0-.82.35 1.82 1.82 0 0 0-.58.64 2.2 2.2 0 0 0-.24 1h1a1 1 0 0 1 .47-.93 2.16 2.16 0 0 1 1.08-.25 3.35 3.35 0 0 1 .49 0 1.32 1.32 0 0 1 .44.14.86.86 0 0 1 .32.31 1 1 0 0 1 .13.54.56.56 0 0 1-.17.44 1.11 1.11 0 0 1-.46.23 4.42 4.42 0 0 1-.67.12q-.38 0-.8.13t-.77.18a2.17 2.17 0 0 0-.67.32 1.57 1.57 0 0 0-.47.55 1.82 1.82 0 0 0-.18.86 1.8 1.8 0 0 0 .16.8 1.44 1.44 0 0 0 .44.53 1.85 1.85 0 0 0 .65.3 3.38 3.38 0 0 0 2-.13 2.44 2.44 0 0 0 1-.73 1 1 0 0 0 .23.73.88.88 0 0 0 .63.22 1.44 1.44 0 0 0 .73-.16v-.79zm-1.7-1.44a1.14 1.14 0 0 1-.11.46 1.37 1.37 0 0 1-.34.45 1.82 1.82 0 0 1-.59.35 2.43 2.43 0 0 1-.86.14 2.1 2.1 0 0 1-.46 0 1.11 1.11 0 0 1-.38-.16.85.85 0 0 1-.26-.28.82.82 0 0 1-.1-.42 1 1 0 0 1 .17-.6 1.13 1.13 0 0 1 .45-.34 2.55 2.55 0 0 1 .62-.17l.69-.1.65-.11a1.27 1.27 0 0 0 .5-.21v1zm3.68-6.4v8.57h-1V451zm2.66 0v8.57h-1V451zm5.73 4.19a1.75 1.75 0 0 0-.37-.56 1.77 1.77 0 0 0-.55-.37 1.75 1.75 0 0 0-.7-.14 1.78 1.78 0 0 0-.71.14 1.65 1.65 0 0 0-.55.38 1.81 1.81 0 0 0-.36.56 2.12 2.12 0 0 0-.16.68h3.56a2.09 2.09 0 0 0-.16-.68zm.25 4a2.82 2.82 0 0 1-1.75.53 3.19 3.19 0 0 1-1.29-.24 2.54 2.54 0 0 1-.92-.67 2.85 2.85 0 0 1-.56-1 5 5 0 0 1-.21-1.31 3.73 3.73 0 0 1 .22-1.3 3.1 3.1 0 0 1 .61-1 2.75 2.75 0 0 1 .92-.67 2.82 2.82 0 0 1 1.17-.24 2.55 2.55 0 0 1 1.37.34 2.72 2.72 0 0 1 .88.87 3.44 3.44 0 0 1 .46 1.15 4.94 4.94 0 0 1 .1 1.19h-4.64a2.46 2.46 0 0 0 .1.77 1.75 1.75 0 0 0 .35.65 1.71 1.71 0 0 0 .61.45 2.11 2.11 0 0 0 .88.17 1.76 1.76 0 0 0 1.06-.3 1.45 1.45 0 0 0 .55-.91h1a2.48 2.48 0 0 1-.9 1.57zm3.13-8.17v8.57h-1V451zm10 8.57l-1.26-4.93-1.25 4.93h-1.1l-2-6.2h1.13l1.4 5.08 1.25-5.08h1.12l1.3 5.08 1.39-5.08h1.06l-2 6.2zm4.93-2.09a2.09 2.09 0 0 0 .41.73 1.79 1.79 0 0 0 .62.45 1.88 1.88 0 0 0 1.5 0 1.8 1.8 0 0 0 .62-.45 2.1 2.1 0 0 0 .41-.73 3.42 3.42 0 0 0 0-2 2.17 2.17 0 0 0-.41-.74 1.77 1.77 0 0 0-.62-.46 1.88 1.88 0 0 0-1.5 0 1.76 1.76 0 0 0-.62.46 2.16 2.16 0 0 0-.41.74 3.42 3.42 0 0 0 0 2zm-1-2.28a2.89 2.89 0 0 1 .58-1 2.71 2.71 0 0 1 .95-.69 3.47 3.47 0 0 1 2.6 0 2.73 2.73 0 0 1 .94.69 2.9 2.9 0 0 1 .58 1 4.14 4.14 0 0 1 .19 1.28 4.08 4.08 0 0 1-.19 1.27 2.9 2.9 0 0 1-.58 1 2.66 2.66 0 0 1-.94.68 3.55 3.55 0 0 1-2.6 0 2.64 2.64 0 0 1-.95-.68 2.9 2.9 0 0 1-.58-1 4.07 4.07 0 0 1-.19-1.27 4.13 4.13 0 0 1 .19-1.28zm8-1.83v1.31a2.76 2.76 0 0 1 .91-1.12 2.29 2.29 0 0 1 1.37-.34v1.08a2.89 2.89 0 0 0-1 .17 1.65 1.65 0 0 0-.7.49 2 2 0 0 0-.38.79 4.24 4.24 0 0 0-.12 1.06v2.76h-1v-6.2zm4.15-2.36V456l2.83-2.71h1.37l-2.46 2.26 2.64 3.95h-1.3l-2.12-3.24-1 .89v2.35h-1V451zm6.23 0v8.57h-1V451zm5.73 4.19a1.75 1.75 0 0 0-.37-.56 1.77 1.77 0 0 0-.55-.37 1.75 1.75 0 0 0-.7-.14 1.78 1.78 0 0 0-.71.14 1.65 1.65 0 0 0-.55.38 1.81 1.81 0 0 0-.36.56 2.12 2.12 0 0 0-.16.68h3.56a2.09 2.09 0 0 0-.16-.68zm.25 4a2.82 2.82 0 0 1-1.75.53 3.19 3.19 0 0 1-1.29-.24 2.54 2.54 0 0 1-.92-.67 2.85 2.85 0 0 1-.56-1 5 5 0 0 1-.21-1.31 3.73 3.73 0 0 1 .22-1.3 3.1 3.1 0 0 1 .61-1 2.75 2.75 0 0 1 .92-.67 2.82 2.82 0 0 1 1.17-.24 2.55 2.55 0 0 1 1.37.34 2.72 2.72 0 0 1 .88.87 3.44 3.44 0 0 1 .46 1.15 4.94 4.94 0 0 1 .1 1.19H693a2.46 2.46 0 0 0 .1.77 1.75 1.75 0 0 0 .35.65 1.71 1.71 0 0 0 .61.45 2.11 2.11 0 0 0 .88.17 1.76 1.76 0 0 0 1.06-.3 1.45 1.45 0 0 0 .55-.91h1a2.48 2.48 0 0 1-.9 1.57zm4.7-5.81v.9h-1.34v3.85a1.11 1.11 0 0 0 0 .29.3.3 0 0 0 .11.17.5.5 0 0 0 .23.08h.86v.9h-.78a3.66 3.66 0 0 1-.68-.05 1 1 0 0 1-.46-.2.84.84 0 0 1-.26-.41 2.35 2.35 0 0 1-.08-.7v-3.95H698v-.9h1.06v-1.86h1v1.86zm5.52 0v.84a1.53 1.53 0 0 1 .79-.75 3 3 0 0 1 1.19-.23 2.8 2.8 0 0 1 1.25.26 2.55 2.55 0 0 1 .89.71 3.16 3.16 0 0 1 .53 1 4.24 4.24 0 0 1 .18 1.25 4.38 4.38 0 0 1-.17 1.25 2.94 2.94 0 0 1-.53 1 2.49 2.49 0 0 1-.89.69 2.88 2.88 0 0 1-1.24.25 3.08 3.08 0 0 1-.51 0 2.84 2.84 0 0 1-.56-.16 2.17 2.17 0 0 1-.52-.29 1.64 1.64 0 0 1-.41-.46v3.19h-1v-8.57zm3.67 2.2a2.29 2.29 0 0 0-.35-.74 1.71 1.71 0 0 0-.6-.52 1.82 1.82 0 0 0-.86-.19 1.68 1.68 0 0 0-1.46.74 2.23 2.23 0 0 0-.33.75 3.63 3.63 0 0 0 0 1.73 2.18 2.18 0 0 0 .34.75 1.75 1.75 0 0 0 .61.52 1.89 1.89 0 0 0 .9.2 1.74 1.74 0 0 0 .88-.2 1.64 1.64 0 0 0 .57-.54 2.35 2.35 0 0 0 .31-.77 4.09 4.09 0 0 0 .1-.89 3.18 3.18 0 0 0-.11-.85zm3.32-2.2v1.31a2.76 2.76 0 0 1 .91-1.12 2.29 2.29 0 0 1 1.37-.34v1.08a2.89 2.89 0 0 0-1 .17 1.65 1.65 0 0 0-.7.49 2 2 0 0 0-.38.79 4.24 4.24 0 0 0-.12 1.06v2.76h-1v-6.2zm3.64 4.07a2.09 2.09 0 0 0 .41.73 1.79 1.79 0 0 0 .62.45 1.88 1.88 0 0 0 1.5 0 1.8 1.8 0 0 0 .62-.45 2.1 2.1 0 0 0 .41-.73 3.42 3.42 0 0 0 0-2 2.17 2.17 0 0 0-.41-.74 1.77 1.77 0 0 0-.62-.46 1.88 1.88 0 0 0-1.5 0 1.76 1.76 0 0 0-.62.46 2.16 2.16 0 0 0-.41.74 3.42 3.42 0 0 0 0 2zm-1-2.28a2.89 2.89 0 0 1 .58-1 2.71 2.71 0 0 1 .95-.69 3.47 3.47 0 0 1 2.6 0 2.73 2.73 0 0 1 .94.69 2.9 2.9 0 0 1 .58 1 4.14 4.14 0 0 1 .19 1.28 4.08 4.08 0 0 1-.19 1.27 2.9 2.9 0 0 1-.58 1 2.66 2.66 0 0 1-.94.68 3.55 3.55 0 0 1-2.6 0 2.64 2.64 0 0 1-.95-.68 2.9 2.9 0 0 1-.58-1 4.07 4.07 0 0 1-.19-1.27 4.13 4.13 0 0 1 .19-1.28zm10.74-.75a1.55 1.55 0 0 0-1-.32 1.9 1.9 0 0 0-.92.2 1.65 1.65 0 0 0-.59.54 2.27 2.27 0 0 0-.32.77 4.22 4.22 0 0 0-.1.91 3.45 3.45 0 0 0 .1.84 2.25 2.25 0 0 0 .32.73 1.61 1.61 0 0 0 .56.51 1.69 1.69 0 0 0 .83.19 1.67 1.67 0 0 0 1.18-.4 1.79 1.79 0 0 0 .52-1.12h1A2.86 2.86 0 0 1 728 459a2.7 2.7 0 0 1-1.88.62 3.23 3.23 0 0 1-1.25-.23 2.43 2.43 0 0 1-.91-.65 2.8 2.8 0 0 1-.55-1 4.18 4.18 0 0 1-.19-1.28 4.55 4.55 0 0 1 .18-1.3 3 3 0 0 1 .55-1.06 2.56 2.56 0 0 1 .92-.71 3 3 0 0 1 1.28-.26 3.75 3.75 0 0 1 1 .13 2.41 2.41 0 0 1 .82.39 2.13 2.13 0 0 1 .58.67 2.46 2.46 0 0 1 .29 1h-1.04a1.56 1.56 0 0 0-.5-.91zm6.88.74a1.75 1.75 0 0 0-.37-.56 1.77 1.77 0 0 0-.55-.37 1.75 1.75 0 0 0-.7-.14 1.78 1.78 0 0 0-.71.14 1.65 1.65 0 0 0-.55.38 1.81 1.81 0 0 0-.36.56 2.12 2.12 0 0 0-.16.68h3.56a2.09 2.09 0 0 0-.16-.68zm.25 4a2.82 2.82 0 0 1-1.75.53 3.19 3.19 0 0 1-1.29-.24 2.54 2.54 0 0 1-.92-.67 2.85 2.85 0 0 1-.56-1 5 5 0 0 1-.21-1.31 3.73 3.73 0 0 1 .22-1.3 3.1 3.1 0 0 1 .61-1 2.75 2.75 0 0 1 .92-.67 2.82 2.82 0 0 1 1.17-.24 2.55 2.55 0 0 1 1.37.34 2.72 2.72 0 0 1 .88.87 3.44 3.44 0 0 1 .46 1.15 4.94 4.94 0 0 1 .1 1.19h-4.64a2.46 2.46 0 0 0 .1.77 1.75 1.75 0 0 0 .35.65 1.71 1.71 0 0 0 .61.45 2.11 2.11 0 0 0 .88.17 1.76 1.76 0 0 0 1.06-.3 1.45 1.45 0 0 0 .55-.91h1a2.48 2.48 0 0 1-.9 1.57zm2.83-1a1.08 1.08 0 0 0 .38.37 1.7 1.7 0 0 0 .53.2 3 3 0 0 0 .61.06 3.74 3.74 0 0 0 .5 0 1.85 1.85 0 0 0 .49-.13.91.91 0 0 0 .37-.28.75.75 0 0 0 .14-.47.68.68 0 0 0-.3-.6 2.56 2.56 0 0 0-.75-.33q-.45-.13-1-.23a5.05 5.05 0 0 1-1-.29 2 2 0 0 1-.75-.52 1.36 1.36 0 0 1-.3-.94 1.49 1.49 0 0 1 .21-.8 1.72 1.72 0 0 1 .54-.55 2.48 2.48 0 0 1 .74-.31 3.43 3.43 0 0 1 .82-.1 4.9 4.9 0 0 1 1 .09 2.25 2.25 0 0 1 .79.31 1.62 1.62 0 0 1 .55.6 2.28 2.28 0 0 1 .24.94h-1a1 1 0 0 0-.16-.5 1 1 0 0 0-.34-.32 1.53 1.53 0 0 0-.45-.17 2.32 2.32 0 0 0-.5-.05 3 3 0 0 0-.46 0 1.56 1.56 0 0 0-.43.13.86.86 0 0 0-.31.24.61.61 0 0 0-.12.39.57.57 0 0 0 .19.44 1.48 1.48 0 0 0 .47.29 4.13 4.13 0 0 0 .65.19l.72.16a7.73 7.73 0 0 1 .75.2 2.45 2.45 0 0 1 .65.32 1.56 1.56 0 0 1 .46.5 1.46 1.46 0 0 1 .17.74 1.73 1.73 0 0 1-.23.94 1.83 1.83 0 0 1-.61.6 2.56 2.56 0 0 1-.85.32 5 5 0 0 1-.94.09 4.36 4.36 0 0 1-1-.11 2.41 2.41 0 0 1-.83-.35 1.8 1.8 0 0 1-.58-.65 2.24 2.24 0 0 1-.24-1h1a1.15 1.15 0 0 0 .16.57zm6 0a1.08 1.08 0 0 0 .38.37 1.7 1.7 0 0 0 .53.2 3 3 0 0 0 .61.06 3.74 3.74 0 0 0 .5 0 1.85 1.85 0 0 0 .49-.13.91.91 0 0 0 .37-.28.75.75 0 0 0 .14-.47.68.68 0 0 0-.3-.6 2.56 2.56 0 0 0-.75-.33q-.45-.13-1-.23a5.05 5.05 0 0 1-1-.29 2 2 0 0 1-.75-.52 1.36 1.36 0 0 1-.3-.94 1.49 1.49 0 0 1 .21-.8 1.72 1.72 0 0 1 .54-.55 2.48 2.48 0 0 1 .74-.31 3.43 3.43 0 0 1 .82-.1 4.9 4.9 0 0 1 1 .09 2.25 2.25 0 0 1 .79.31 1.62 1.62 0 0 1 .55.6 2.28 2.28 0 0 1 .24.94h-1a1 1 0 0 0-.16-.5 1 1 0 0 0-.34-.32 1.53 1.53 0 0 0-.45-.17 2.32 2.32 0 0 0-.5-.05 3 3 0 0 0-.46 0 1.56 1.56 0 0 0-.43.13.86.86 0 0 0-.31.24.61.61 0 0 0-.12.39.57.57 0 0 0 .19.44 1.48 1.48 0 0 0 .47.29 4.13 4.13 0 0 0 .65.19l.72.16a7.73 7.73 0 0 1 .75.2 2.45 2.45 0 0 1 .65.32 1.56 1.56 0 0 1 .46.5 1.46 1.46 0 0 1 .17.74 1.73 1.73 0 0 1-.23.94 1.83 1.83 0 0 1-.61.6 2.56 2.56 0 0 1-.85.32 5 5 0 0 1-.94.09 4.36 4.36 0 0 1-1-.11 2.41 2.41 0 0 1-.83-.35 1.8 1.8 0 0 1-.58-.65 2.24 2.24 0 0 1-.24-1h1a1.15 1.15 0 0 0 .16.57zm9.37-3a1.75 1.75 0 0 0-.37-.56 1.77 1.77 0 0 0-.55-.37 1.75 1.75 0 0 0-.7-.14 1.78 1.78 0 0 0-.71.14 1.65 1.65 0 0 0-.55.38 1.81 1.81 0 0 0-.36.56 2.12 2.12 0 0 0-.16.68h3.56a2.09 2.09 0 0 0-.16-.68zm.25 4a2.82 2.82 0 0 1-1.75.53 3.19 3.19 0 0 1-1.29-.24 2.54 2.54 0 0 1-.92-.67 2.85 2.85 0 0 1-.56-1 5 5 0 0 1-.21-1.31 3.73 3.73 0 0 1 .22-1.3 3.1 3.1 0 0 1 .61-1 2.75 2.75 0 0 1 .92-.67 2.82 2.82 0 0 1 1.17-.24 2.55 2.55 0 0 1 1.37.34 2.72 2.72 0 0 1 .88.87 3.44 3.44 0 0 1 .46 1.15 4.94 4.94 0 0 1 .1 1.19h-4.64a2.46 2.46 0 0 0 .1.77 1.75 1.75 0 0 0 .35.65 1.71 1.71 0 0 0 .61.45 2.11 2.11 0 0 0 .88.17 1.76 1.76 0 0 0 1.06-.3 1.45 1.45 0 0 0 .55-.91h1a2.48 2.48 0 0 1-.9 1.57zm2.83-1a1.08 1.08 0 0 0 .38.37 1.7 1.7 0 0 0 .53.2 3 3 0 0 0 .61.06 3.74 3.74 0 0 0 .5 0 1.85 1.85 0 0 0 .49-.13.91.91 0 0 0 .37-.28.75.75 0 0 0 .14-.47.68.68 0 0 0-.3-.6 2.56 2.56 0 0 0-.75-.33q-.45-.13-1-.23a5.05 5.05 0 0 1-1-.29 2 2 0 0 1-.75-.52 1.36 1.36 0 0 1-.3-.94 1.49 1.49 0 0 1 .21-.8 1.72 1.72 0 0 1 .54-.55 2.48 2.48 0 0 1 .74-.31 3.43 3.43 0 0 1 .82-.1 4.9 4.9 0 0 1 1 .09 2.25 2.25 0 0 1 .79.31 1.62 1.62 0 0 1 .55.6 2.28 2.28 0 0 1 .24.94h-1a1 1 0 0 0-.16-.5 1 1 0 0 0-.34-.32 1.53 1.53 0 0 0-.45-.17 2.32 2.32 0 0 0-.5-.05 3 3 0 0 0-.46 0 1.56 1.56 0 0 0-.43.13.86.86 0 0 0-.31.24.61.61 0 0 0-.12.39.57.57 0 0 0 .19.44 1.48 1.48 0 0 0 .47.29 4.13 4.13 0 0 0 .65.19l.72.16a7.73 7.73 0 0 1 .75.2 2.45 2.45 0 0 1 .65.32 1.56 1.56 0 0 1 .46.5 1.46 1.46 0 0 1 .17.74 1.73 1.73 0 0 1-.23.94 1.83 1.83 0 0 1-.61.6 2.56 2.56 0 0 1-.85.32 5 5 0 0 1-.94.09 4.36 4.36 0 0 1-1-.11 2.41 2.41 0 0 1-.83-.35 1.8 1.8 0 0 1-.58-.65 2.24 2.24 0 0 1-.24-1h1a1.15 1.15 0 0 0 .16.57z"/><path class="cls-5" d="M94.25 133V15.5h642.5v89.1"/><path d="M736.75 112.6l3-8h-6zm0 0"/><path class="cls-6" d="M736.75 112.6l3-8h-6zm0 0"/><path class="cls-3" d="M252.27 0h288v31h-288zm0 0"/><path d="M265.58 11.69a3.53 3.53 0 0 0-2.07-.61 3.71 3.71 0 0 0-1.75.38 3.46 3.46 0 0 0-1.2 1 4.45 4.45 0 0 0-.7 1.48 6.61 6.61 0 0 0-.22 1.73 7.39 7.39 0 0 0 .22 1.85 4.42 4.42 0 0 0 .7 1.52 3.43 3.43 0 0 0 1.21 1 3.76 3.76 0 0 0 1.76.38 3.39 3.39 0 0 0 1.34-.25 3 3 0 0 0 1-.69 3.17 3.17 0 0 0 .66-1 4.36 4.36 0 0 0 .29-1.31h1.52a5.19 5.19 0 0 1-1.49 3.36 4.82 4.82 0 0 1-3.46 1.2 5.51 5.51 0 0 1-2.32-.46 4.55 4.55 0 0 1-1.64-1.27 5.39 5.39 0 0 1-1-1.89 8.05 8.05 0 0 1-.33-2.34 7.62 7.62 0 0 1 .35-2.34 5.64 5.64 0 0 1 1-1.91 4.81 4.81 0 0 1 1.7-1.29 5.47 5.47 0 0 1 2.33-.47 5.87 5.87 0 0 1 1.7.24 4.56 4.56 0 0 1 1.42.7 4 4 0 0 1 1 1.16 4.25 4.25 0 0 1 .54 1.61h-1.52a2.83 2.83 0 0 0-1.13-1.82zm11.75 8.72a1.65 1.65 0 0 1-.42.06q-.32 0-.38-.22a3.16 3.16 0 0 1-.06-.7V15.3a2.22 2.22 0 0 0-.27-1.17 1.92 1.92 0 0 0-.72-.69 2.91 2.91 0 0 0-1-.33 7.76 7.76 0 0 0-1.11-.08 5.79 5.79 0 0 0-1.32.14 3.22 3.22 0 0 0-1.1.47 2.43 2.43 0 0 0-.77.86 2.94 2.94 0 0 0-.32 1.3h1.36a1.39 1.39 0 0 1 .62-1.24 2.88 2.88 0 0 1 1.44-.33 4.47 4.47 0 0 1 .65 0 1.76 1.76 0 0 1 .59.19 1.15 1.15 0 0 1 .43.42 1.36 1.36 0 0 1 .17.72.74.74 0 0 1-.22.58 1.48 1.48 0 0 1-.61.3 5.9 5.9 0 0 1-.89.16q-.5.06-1.06.17t-1 .24a2.9 2.9 0 0 0-.9.42 2.09 2.09 0 0 0-.63.73 2.43 2.43 0 0 0-.24 1.15 2.4 2.4 0 0 0 .22 1.06 1.92 1.92 0 0 0 .58.71 2.47 2.47 0 0 0 .87.4 4.5 4.5 0 0 0 2.67-.17 3.25 3.25 0 0 0 1.3-1 1.29 1.29 0 0 0 .31 1 1.17 1.17 0 0 0 .84.3 1.93 1.93 0 0 0 1-.21v-.99zm-2.21-1.8a1.52 1.52 0 0 1-.14.61 1.83 1.83 0 0 1-.45.61 2.43 2.43 0 0 1-.78.46 3.24 3.24 0 0 1-1.15.18 2.81 2.81 0 0 1-.61-.06 1.48 1.48 0 0 1-.5-.21 1.13 1.13 0 0 1-.35-.37 1.1 1.1 0 0 1-.14-.57 1.27 1.27 0 0 1 .23-.8 1.51 1.51 0 0 1 .6-.45 3.4 3.4 0 0 1 .83-.23l.92-.13q.46-.06.87-.14a1.7 1.7 0 0 0 .67-.28v1.39zm4.88-8.53V21.5h-1.36V10.08zm3.55 0V21.5h-1.36V10.08zm3.15 9.58a1.45 1.45 0 0 0 .5.5 2.26 2.26 0 0 0 .7.26 4 4 0 0 0 .81.08 5 5 0 0 0 .67 0 2.46 2.46 0 0 0 .65-.18 1.21 1.21 0 0 0 .49-.38 1 1 0 0 0 .19-.63.91.91 0 0 0-.4-.8 3.41 3.41 0 0 0-1-.44q-.6-.17-1.3-.3a6.74 6.74 0 0 1-1.3-.38 2.7 2.7 0 0 1-1-.7 1.81 1.81 0 0 1-.4-1.25 2 2 0 0 1 .28-1.07 2.29 2.29 0 0 1 .72-.73 3.31 3.31 0 0 1 1-.42 4.58 4.58 0 0 1 1.1-.14 6.53 6.53 0 0 1 1.3.12 3 3 0 0 1 1 .42 2.16 2.16 0 0 1 .73.8 3 3 0 0 1 .32 1.26h-1.36a1.38 1.38 0 0 0-.21-.66 1.36 1.36 0 0 0-.45-.42 2 2 0 0 0-.6-.23 3.09 3.09 0 0 0-.66-.07 4 4 0 0 0-.62 0 2.07 2.07 0 0 0-.57.17 1.14 1.14 0 0 0-.42.32.81.81 0 0 0-.16.52.76.76 0 0 0 .25.58 2 2 0 0 0 .63.38 5.51 5.51 0 0 0 .86.26l1 .22a10.3 10.3 0 0 1 1 .27 3.27 3.27 0 0 1 .86.42 2.08 2.08 0 0 1 .61.66 2 2 0 0 1 .23 1 2.3 2.3 0 0 1-.31 1.25 2.44 2.44 0 0 1-.82.8 3.41 3.41 0 0 1-1.14.42 6.72 6.72 0 0 1-1.26.12 5.82 5.82 0 0 1-1.31-.14 3.22 3.22 0 0 1-1.1-.47 2.4 2.4 0 0 1-.77-.86 3 3 0 0 1-.32-1.3h1.36a1.53 1.53 0 0 0 .21.76z"/><text class="cls-10" transform="translate(297.12 21.5)">process,</text><path d="M384.92 15.66a2.33 2.33 0 0 0-.5-.74 2.36 2.36 0 0 0-.74-.5 2.33 2.33 0 0 0-.94-.18 2.37 2.37 0 0 0-1 .18 2.2 2.2 0 0 0-.73.5 2.41 2.41 0 0 0-.48.74 2.83 2.83 0 0 0-.21.9h4.75a2.79 2.79 0 0 0-.22-.91zm.33 5.31a3.75 3.75 0 0 1-2.34.7 4.25 4.25 0 0 1-1.72-.32 3.39 3.39 0 0 1-1.22-.9 3.8 3.8 0 0 1-.74-1.38 6.62 6.62 0 0 1-.28-1.74 5 5 0 0 1 .29-1.73 4.13 4.13 0 0 1 .81-1.36 3.67 3.67 0 0 1 1.23-.9 3.76 3.76 0 0 1 1.56-.32 3.39 3.39 0 0 1 1.83.46 3.63 3.63 0 0 1 1.17 1.16 4.59 4.59 0 0 1 .61 1.54 6.59 6.59 0 0 1 .14 1.58h-6.19a3.28 3.28 0 0 0 .13 1 2.33 2.33 0 0 0 .46.86 2.29 2.29 0 0 0 .82.6 2.81 2.81 0 0 0 1.17.22 2.35 2.35 0 0 0 1.42-.4 1.93 1.93 0 0 0 .73-1.22h1.34a3.31 3.31 0 0 1-1.2 2.1zm2.08-7.74h1.74l2 2.9 2.06-2.9h1.63L391.91 17l3.2 4.46h-1.74l-2.3-3.42-2.3 3.42h-1.65l3.1-4.35-2.88-3.92zm14.47 2.43a2.33 2.33 0 0 0-.5-.74 2.36 2.36 0 0 0-.74-.5 2.33 2.33 0 0 0-.94-.18 2.37 2.37 0 0 0-1 .18 2.2 2.2 0 0 0-.73.5 2.41 2.41 0 0 0-.48.74 2.83 2.83 0 0 0-.21.9h4.8a2.79 2.79 0 0 0-.22-.91zm.33 5.31a3.75 3.75 0 0 1-2.34.7 4.25 4.25 0 0 1-1.72-.32 3.39 3.39 0 0 1-1.22-.9 3.8 3.8 0 0 1-.74-1.38 6.62 6.62 0 0 1-.28-1.74 5 5 0 0 1 .29-1.73 4.13 4.13 0 0 1 .81-1.36 3.67 3.67 0 0 1 1.23-.9 3.76 3.76 0 0 1 1.56-.32 3.39 3.39 0 0 1 1.83.46 3.63 3.63 0 0 1 1.17 1.16 4.59 4.59 0 0 1 .61 1.54 6.59 6.59 0 0 1 .14 1.58h-6.19a3.28 3.28 0 0 0 .13 1 2.33 2.33 0 0 0 .46.86 2.29 2.29 0 0 0 .82.6 2.81 2.81 0 0 0 1.17.22 2.35 2.35 0 0 0 1.42-.4 1.93 1.93 0 0 0 .73-1.22h1.34a3.31 3.31 0 0 1-1.2 2.1zm7.68-6.3a2.06 2.06 0 0 0-1.38-.43 2.54 2.54 0 0 0-1.23.27 2.2 2.2 0 0 0-.79.72 3 3 0 0 0-.42 1 5.62 5.62 0 0 0-.13 1.21 4.59 4.59 0 0 0 .14 1.12 3 3 0 0 0 .42 1 2.14 2.14 0 0 0 .75.68 2.25 2.25 0 0 0 1.1.26 2.23 2.23 0 0 0 1.58-.53 2.39 2.39 0 0 0 .7-1.49h1.39a3.81 3.81 0 0 1-1.14 2.37 3.59 3.59 0 0 1-2.5.83 4.31 4.31 0 0 1-1.67-.3 3.24 3.24 0 0 1-1.22-.86 3.73 3.73 0 0 1-.74-1.34 5.57 5.57 0 0 1-.25-1.7 6.07 6.07 0 0 1 .24-1.74 4 4 0 0 1 .73-1.41 3.42 3.42 0 0 1 1.22-.94 4 4 0 0 1 1.71-.34 5 5 0 0 1 1.32.17 3.22 3.22 0 0 1 1.09.52 2.84 2.84 0 0 1 .78.89 3.28 3.28 0 0 1 .38 1.27h-1.41a2.07 2.07 0 0 0-.67-1.22zM419 21.5v-1.31a2.78 2.78 0 0 1-1.1 1.13 3.31 3.31 0 0 1-1.58.36 3.71 3.71 0 0 1-1.36-.22 2.17 2.17 0 0 1-.88-.62 2.31 2.31 0 0 1-.47-1 5.11 5.11 0 0 1-.14-1.22v-5.39h1.36v5.6a1.64 1.64 0 0 0 .45 1.22 1.66 1.66 0 0 0 1.23.45 2.77 2.77 0 0 0 1.08-.19 2 2 0 0 0 .76-.54 2.35 2.35 0 0 0 .46-.82 3.35 3.35 0 0 0 .15-1v-4.72h1.36v8.27zm6.86-8.27v1.2h-1.65v5.14a1.48 1.48 0 0 0 0 .38.39.39 0 0 0 .15.22.67.67 0 0 0 .31.1h1.14v1.2h-1a4.88 4.88 0 0 1-.9-.07 1.33 1.33 0 0 1-.61-.26 1.13 1.13 0 0 1-.34-.54 3.14 3.14 0 0 1-.11-.93v-5.24h-1.41v-1.2h1.41v-2.48h1.36v2.48zm7 2.43a2.33 2.33 0 0 0-.5-.74 2.36 2.36 0 0 0-.74-.5 2.33 2.33 0 0 0-.94-.18 2.37 2.37 0 0 0-1 .18 2.2 2.2 0 0 0-.73.5 2.41 2.41 0 0 0-.48.74 2.83 2.83 0 0 0-.21.9h4.75a2.79 2.79 0 0 0-.22-.91zm.33 5.31a3.75 3.75 0 0 1-2.34.7 4.25 4.25 0 0 1-1.72-.32 3.39 3.39 0 0 1-1.22-.9 3.8 3.8 0 0 1-.74-1.38 6.62 6.62 0 0 1-.28-1.74 5 5 0 0 1 .29-1.73 4.13 4.13 0 0 1 .81-1.36 3.67 3.67 0 0 1 1.23-.9 3.76 3.76 0 0 1 1.56-.32 3.39 3.39 0 0 1 1.83.46 3.63 3.63 0 0 1 1.17 1.16 4.59 4.59 0 0 1 .61 1.54 6.59 6.59 0 0 1 .14 1.58h-6.19a3.28 3.28 0 0 0 .13 1 2.33 2.33 0 0 0 .46.86 2.29 2.29 0 0 0 .82.6 2.81 2.81 0 0 0 1.17.22 2.35 2.35 0 0 0 1.42-.4 1.93 1.93 0 0 0 .73-1.22h1.34a3.31 3.31 0 0 1-1.2 2.1zm3.81-1.32a1.45 1.45 0 0 0 .5.5 2.26 2.26 0 0 0 .7.26 4 4 0 0 0 .81.08 5 5 0 0 0 .67 0 2.46 2.46 0 0 0 .65-.18 1.21 1.21 0 0 0 .49-.38 1 1 0 0 0 .19-.63.91.91 0 0 0-.4-.8 3.41 3.41 0 0 0-1-.44q-.6-.17-1.3-.3a6.74 6.74 0 0 1-1.3-.38 2.7 2.7 0 0 1-1-.7 1.81 1.81 0 0 1-.4-1.25 2 2 0 0 1 .28-1.07 2.29 2.29 0 0 1 .72-.73 3.31 3.31 0 0 1 1-.42 4.58 4.58 0 0 1 1.1-.14 6.53 6.53 0 0 1 1.3.12 3 3 0 0 1 1 .42 2.16 2.16 0 0 1 .73.8 3 3 0 0 1 .32 1.26h-1.36a1.38 1.38 0 0 0-.21-.66 1.37 1.37 0 0 0-.45-.42 2 2 0 0 0-.6-.23 3.09 3.09 0 0 0-.66-.07 4 4 0 0 0-.62 0 2.07 2.07 0 0 0-.57.17 1.14 1.14 0 0 0-.42.32.81.81 0 0 0-.16.52.76.76 0 0 0 .25.58 2 2 0 0 0 .63.38 5.51 5.51 0 0 0 .86.26l1 .22a10.3 10.3 0 0 1 1 .27 3.27 3.27 0 0 1 .86.42 2.08 2.08 0 0 1 .61.66 2 2 0 0 1 .23 1 2.3 2.3 0 0 1-.31 1.25 2.44 2.44 0 0 1-.82.8 3.41 3.41 0 0 1-1.14.42 6.72 6.72 0 0 1-1.26.12 5.82 5.82 0 0 1-1.31-.14 3.22 3.22 0 0 1-1.1-.47 2.4 2.4 0 0 1-.77-.86 3 3 0 0 1-.32-1.3h1.36a1.53 1.53 0 0 0 .21.76zm12.6-.94a2.79 2.79 0 0 0 .55 1 2.39 2.39 0 0 0 .82.6 2.51 2.51 0 0 0 2 0 2.39 2.39 0 0 0 .82-.6 2.8 2.8 0 0 0 .55-1 4.56 4.56 0 0 0 0-2.67 2.89 2.89 0 0 0-.55-1 2.36 2.36 0 0 0-.82-.61 2.51 2.51 0 0 0-2 0 2.35 2.35 0 0 0-.82.61 2.88 2.88 0 0 0-.55 1 4.56 4.56 0 0 0 0 2.67zm-1.38-3a3.86 3.86 0 0 1 .77-1.38 3.62 3.62 0 0 1 1.26-.92 4.63 4.63 0 0 1 3.46 0 3.64 3.64 0 0 1 1.26.92 3.86 3.86 0 0 1 .77 1.38 5.51 5.51 0 0 1 .26 1.7 5.44 5.44 0 0 1-.26 1.7 3.87 3.87 0 0 1-.77 1.37 3.55 3.55 0 0 1-1.26.91 4.74 4.74 0 0 1-3.46 0 3.53 3.53 0 0 1-1.26-.91 3.86 3.86 0 0 1-.77-1.37 5.43 5.43 0 0 1-.26-1.7 5.51 5.51 0 0 1 .26-1.7zm10.66-2.44v1.31a2.86 2.86 0 0 1 2.69-1.5 3.59 3.59 0 0 1 1.36.22 2.24 2.24 0 0 1 .88.62 2.32 2.32 0 0 1 .47 1 5.13 5.13 0 0 1 .14 1.22v5.36h-1.36v-5.6a1.64 1.64 0 0 0-.45-1.22 1.67 1.67 0 0 0-1.23-.45 2.77 2.77 0 0 0-1.08.19 2 2 0 0 0-.76.54 2.34 2.34 0 0 0-.46.82 3.35 3.35 0 0 0-.15 1v4.72h-1.36v-8.27zm19.39 7.18a1.65 1.65 0 0 1-.42.06q-.32 0-.38-.22a3.16 3.16 0 0 1-.06-.7V15.3a2.22 2.22 0 0 0-.27-1.17 1.92 1.92 0 0 0-.72-.69 2.91 2.91 0 0 0-1-.33 7.76 7.76 0 0 0-1.11-.08 5.79 5.79 0 0 0-1.32.14 3.22 3.22 0 0 0-1.1.47 2.43 2.43 0 0 0-.77.86 2.94 2.94 0 0 0-.32 1.3h1.36a1.39 1.39 0 0 1 .62-1.24 2.88 2.88 0 0 1 1.44-.33 4.47 4.47 0 0 1 .65 0 1.76 1.76 0 0 1 .59.19 1.15 1.15 0 0 1 .43.42 1.36 1.36 0 0 1 .17.72.74.74 0 0 1-.22.58 1.48 1.48 0 0 1-.61.3 5.89 5.89 0 0 1-.89.16q-.5.06-1.06.17t-1 .24a2.9 2.9 0 0 0-.9.42 2.09 2.09 0 0 0-.63.73 2.43 2.43 0 0 0-.24 1.15 2.4 2.4 0 0 0 .22 1.06 1.92 1.92 0 0 0 .58.71 2.47 2.47 0 0 0 .87.4 4.5 4.5 0 0 0 2.67-.17 3.25 3.25 0 0 0 1.3-1 1.29 1.29 0 0 0 .31 1 1.17 1.17 0 0 0 .84.3 1.93 1.93 0 0 0 1-.21v-.99zm-2.21-1.8a1.52 1.52 0 0 1-.14.61 1.83 1.83 0 0 1-.45.61 2.43 2.43 0 0 1-.78.46 3.24 3.24 0 0 1-1.15.18 2.81 2.81 0 0 1-.61-.06 1.48 1.48 0 0 1-.5-.21 1.13 1.13 0 0 1-.35-.37 1.1 1.1 0 0 1-.14-.57 1.27 1.27 0 0 1 .23-.8 1.51 1.51 0 0 1 .6-.45 3.4 3.4 0 0 1 .83-.23l.92-.13q.46-.06.87-.14a1.7 1.7 0 0 0 .67-.28v1.39zm14.67 2.89l-1.68-6.58-1.66 6.58h-1.47l-2.66-8.27h1.5l1.87 6.73 1.66-6.77h1.49l1.76 6.77 1.86-6.77h1.41l-2.64 8.27zm6.57-2.79a2.79 2.79 0 0 0 .55 1 2.39 2.39 0 0 0 .82.6 2.51 2.51 0 0 0 2 0 2.39 2.39 0 0 0 .82-.6 2.8 2.8 0 0 0 .55-1 4.56 4.56 0 0 0 0-2.67 2.89 2.89 0 0 0-.55-1 2.36 2.36 0 0 0-.82-.61 2.51 2.51 0 0 0-2 0 2.35 2.35 0 0 0-.82.61 2.88 2.88 0 0 0-.55 1 4.56 4.56 0 0 0 0 2.67zm-1.38-3a3.86 3.86 0 0 1 .77-1.38 3.62 3.62 0 0 1 1.26-.92 4.63 4.63 0 0 1 3.46 0 3.64 3.64 0 0 1 1.26.92 3.86 3.86 0 0 1 .77 1.38 5.51 5.51 0 0 1 .26 1.7 5.44 5.44 0 0 1-.26 1.7 3.87 3.87 0 0 1-.77 1.37 3.55 3.55 0 0 1-1.26.91 4.74 4.74 0 0 1-3.46 0 3.53 3.53 0 0 1-1.26-.91 3.86 3.86 0 0 1-.77-1.37 5.43 5.43 0 0 1-.26-1.7 5.51 5.51 0 0 1 .26-1.7zm10.61-2.44V15a3.68 3.68 0 0 1 1.22-1.49 3.06 3.06 0 0 1 1.82-.45v1.44a3.85 3.85 0 0 0-1.39.22 2.19 2.19 0 0 0-.93.66 2.71 2.71 0 0 0-.51 1 5.65 5.65 0 0 0-.16 1.42v3.7h-1.36v-8.27zm5.54-3.15v6.77l3.78-3.62h1.82l-3.28 3 3.52 5.26h-1.73l-2.83-4.32-1.28 1.18v3.07h-1.36V10.08zm8.3 0V21.5H519V10.08zm7.63 5.5a2.33 2.33 0 0 0-.5-.74 2.36 2.36 0 0 0-.74-.5 2.33 2.33 0 0 0-.94-.18 2.37 2.37 0 0 0-1 .18 2.2 2.2 0 0 0-.73.5 2.41 2.41 0 0 0-.48.74 2.83 2.83 0 0 0-.21.9h4.75a2.79 2.79 0 0 0-.22-.91zm.33 5.31a3.75 3.75 0 0 1-2.34.7 4.25 4.25 0 0 1-1.72-.32 3.39 3.39 0 0 1-1.22-.9 3.8 3.8 0 0 1-.74-1.38 6.62 6.62 0 0 1-.28-1.74 5 5 0 0 1 .29-1.73 4.13 4.13 0 0 1 .81-1.36 3.67 3.67 0 0 1 1.23-.9 3.76 3.76 0 0 1 1.56-.32 3.39 3.39 0 0 1 1.83.46 3.63 3.63 0 0 1 1.17 1.16 4.59 4.59 0 0 1 .61 1.54 6.59 6.59 0 0 1 .14 1.58h-6.19a3.28 3.28 0 0 0 .13 1 2.33 2.33 0 0 0 .46.86 2.29 2.29 0 0 0 .82.6 2.81 2.81 0 0 0 1.17.22 2.35 2.35 0 0 0 1.42-.4 1.93 1.93 0 0 0 .73-1.22h1.34a3.31 3.31 0 0 1-1.2 2.1zm6.27-7.74v1.2H533v5.14a1.48 1.48 0 0 0 0 .38.39.39 0 0 0 .15.22.67.67 0 0 0 .31.1h1.14v1.2h-1a4.88 4.88 0 0 1-.9-.07 1.33 1.33 0 0 1-.61-.26 1.13 1.13 0 0 1-.34-.54 3.14 3.14 0 0 1-.11-.93v-5.24h-1.41v-1.2h1.41v-2.48H533v2.48z"/><path class="cls-11" d="M366 307.38h198.5v42H366zm0 0"/><path d="M424 322.73l3.6 9.6 3.62-9.6h2.08v11.42h-1.44v-9.5l-3.57 9.5H427l-3.57-9.5v9.5h-1.44v-11.42zm18.93 10.34a1.65 1.65 0 0 1-.42.06q-.32 0-.38-.22a3.16 3.16 0 0 1-.06-.7V328a2.22 2.22 0 0 0-.27-1.17 1.92 1.92 0 0 0-.72-.69 2.91 2.91 0 0 0-1-.33 7.76 7.76 0 0 0-1.11-.08 5.79 5.79 0 0 0-1.32.14 3.22 3.22 0 0 0-1.1.47 2.43 2.43 0 0 0-.77.86 2.94 2.94 0 0 0-.32 1.3h1.36a1.39 1.39 0 0 1 .62-1.24 2.88 2.88 0 0 1 1.44-.33 4.47 4.47 0 0 1 .65 0 1.76 1.76 0 0 1 .59.19 1.15 1.15 0 0 1 .43.42 1.36 1.36 0 0 1 .17.72.74.74 0 0 1-.22.58 1.48 1.48 0 0 1-.61.3 5.9 5.9 0 0 1-.89.16q-.5.06-1.06.17t-1 .24a2.9 2.9 0 0 0-.9.42 2.09 2.09 0 0 0-.63.73 2.43 2.43 0 0 0-.24 1.15 2.4 2.4 0 0 0 .22 1.06 1.92 1.92 0 0 0 .58.71 2.47 2.47 0 0 0 .87.4 4.5 4.5 0 0 0 2.67-.17 3.25 3.25 0 0 0 1.3-1 1.29 1.29 0 0 0 .31 1 1.17 1.17 0 0 0 .84.3 1.93 1.93 0 0 0 1-.21v-1.06zm-2.21-1.8a1.52 1.52 0 0 1-.14.61 1.83 1.83 0 0 1-.45.6 2.43 2.43 0 0 1-.78.46 3.24 3.24 0 0 1-1.15.18 2.81 2.81 0 0 1-.61-.06 1.48 1.48 0 0 1-.5-.21 1.13 1.13 0 0 1-.35-.37 1.1 1.1 0 0 1-.14-.57 1.27 1.27 0 0 1 .23-.8 1.51 1.51 0 0 1 .6-.45 3.4 3.4 0 0 1 .83-.23l.92-.13q.46-.06.87-.14a1.7 1.7 0 0 0 .67-.28v1.39zm3.55-6.87v-1.66h1.36v1.66zm1.36 1.49v8.27h-1.36v-8.27zm3.39 0v1.31a2.86 2.86 0 0 1 2.69-1.5 3.59 3.59 0 0 1 1.36.22 2.24 2.24 0 0 1 .88.62 2.32 2.32 0 0 1 .47 1 5.13 5.13 0 0 1 .14 1.22v5.44h-1.36v-5.6a1.64 1.64 0 0 0-.45-1.22 1.67 1.67 0 0 0-1.23-.45 2.77 2.77 0 0 0-1.08.19 2 2 0 0 0-.76.54 2.34 2.34 0 0 0-.46.82 3.35 3.35 0 0 0-.15 1v4.67h-1.36v-8.27zM460.1 324v-1.28h9.14V324h-3.81v10.14h-1.52V324zm11.54-1.28v4.37a1.81 1.81 0 0 1 .45-.65 2.55 2.55 0 0 1 .65-.43 3.37 3.37 0 0 1 .75-.25 3.8 3.8 0 0 1 .76-.08 3.59 3.59 0 0 1 1.36.22 2.24 2.24 0 0 1 .88.62 2.32 2.32 0 0 1 .47 1 5.13 5.13 0 0 1 .14 1.22v5.44h-1.36v-5.6a1.64 1.64 0 0 0-.45-1.22 1.67 1.67 0 0 0-1.23-.45 2.77 2.77 0 0 0-1.08.19 2 2 0 0 0-.76.54 2.34 2.34 0 0 0-.46.82 3.35 3.35 0 0 0-.15 1v4.67h-1.36v-11.4zm8.77 3.15v1.74a3.68 3.68 0 0 1 1.22-1.49 3.06 3.06 0 0 1 1.82-.45v1.44a3.85 3.85 0 0 0-1.39.22 2.19 2.19 0 0 0-.93.66 2.71 2.71 0 0 0-.51 1 5.65 5.65 0 0 0-.16 1.42v3.68h-1.36v-8.27zm9.33 2.44a2.33 2.33 0 0 0-.5-.74 2.36 2.36 0 0 0-.74-.5 2.33 2.33 0 0 0-.94-.18 2.37 2.37 0 0 0-1 .18 2.2 2.2 0 0 0-.73.5 2.41 2.41 0 0 0-.48.74 2.83 2.83 0 0 0-.21.9H490a2.79 2.79 0 0 0-.22-.91zm.33 5.31a3.75 3.75 0 0 1-2.34.7A4.25 4.25 0 0 1 486 334a3.39 3.39 0 0 1-1.22-.9 3.8 3.8 0 0 1-.74-1.38 6.62 6.62 0 0 1-.28-1.74 5 5 0 0 1 .29-1.73 4.13 4.13 0 0 1 .81-1.36 3.67 3.67 0 0 1 1.23-.9 3.76 3.76 0 0 1 1.56-.32 3.39 3.39 0 0 1 1.83.46 3.63 3.63 0 0 1 1.17 1.16 4.59 4.59 0 0 1 .61 1.54 6.59 6.59 0 0 1 .14 1.58h-6.2a3.28 3.28 0 0 0 .13 1 2.33 2.33 0 0 0 .46.86 2.29 2.29 0 0 0 .82.6 2.81 2.81 0 0 0 1.17.22 2.35 2.35 0 0 0 1.42-.4 1.93 1.93 0 0 0 .73-1.22h1.34a3.31 3.31 0 0 1-1.2 2.1zm10.06-.56a1.65 1.65 0 0 1-.42.06q-.32 0-.38-.22a3.16 3.16 0 0 1-.06-.7V328a2.22 2.22 0 0 0-.27-1.17 1.92 1.92 0 0 0-.72-.69 2.91 2.91 0 0 0-1-.33 7.76 7.76 0 0 0-1.11-.08 5.79 5.79 0 0 0-1.32.14 3.22 3.22 0 0 0-1.1.47 2.43 2.43 0 0 0-.77.86 2.94 2.94 0 0 0-.32 1.3H494a1.39 1.39 0 0 1 .62-1.24 2.88 2.88 0 0 1 1.44-.33 4.47 4.47 0 0 1 .65 0 1.76 1.76 0 0 1 .59.19 1.15 1.15 0 0 1 .43.42 1.36 1.36 0 0 1 .17.72.74.74 0 0 1-.22.58 1.48 1.48 0 0 1-.61.3 5.9 5.9 0 0 1-.89.16q-.5.06-1.06.17t-1 .24a2.9 2.9 0 0 0-.9.42 2.09 2.09 0 0 0-.63.73 2.43 2.43 0 0 0-.24 1.15 2.4 2.4 0 0 0 .22 1.06 1.92 1.92 0 0 0 .58.71 2.47 2.47 0 0 0 .87.4 4.5 4.5 0 0 0 2.67-.17 3.25 3.25 0 0 0 1.3-1 1.29 1.29 0 0 0 .31 1 1.17 1.17 0 0 0 .84.3 1.93 1.93 0 0 0 1-.21v-1.06zm-2.21-1.8a1.52 1.52 0 0 1-.14.61 1.83 1.83 0 0 1-.45.6 2.43 2.43 0 0 1-.78.46 3.24 3.24 0 0 1-1.15.18 2.81 2.81 0 0 1-.61-.06 1.48 1.48 0 0 1-.5-.21 1.13 1.13 0 0 1-.35-.37 1.1 1.1 0 0 1-.14-.57 1.27 1.27 0 0 1 .23-.8 1.51 1.51 0 0 1 .6-.45 3.4 3.4 0 0 1 .83-.23l.92-.13q.46-.06.87-.14a1.7 1.7 0 0 0 .67-.28v1.39zm4.62 0a3 3 0 0 0 .46 1 2.27 2.27 0 0 0 .8.69 2.43 2.43 0 0 0 1.14.26 2.25 2.25 0 0 0 2-1 3 3 0 0 0 .44-1 4.84 4.84 0 0 0 0-2.31 2.91 2.91 0 0 0-.46-1 2.33 2.33 0 0 0-.81-.7 2.52 2.52 0 0 0-1.2-.26 2.34 2.34 0 0 0-1.17.27 2.17 2.17 0 0 0-.77.72 3.13 3.13 0 0 0-.42 1 5.43 5.43 0 0 0-.13 1.18 4.22 4.22 0 0 0 .15 1.13zm4.89 2.94V333a2 2 0 0 1-1.06 1 4 4 0 0 1-1.58.3 3.73 3.73 0 0 1-1.67-.35 3.44 3.44 0 0 1-1.18-.94 4.11 4.11 0 0 1-.71-1.38 5.65 5.65 0 0 1-.24-1.66 5.83 5.83 0 0 1 .23-1.66 3.92 3.92 0 0 1 .7-1.37 3.4 3.4 0 0 1 1.18-.93 3.77 3.77 0 0 1 1.66-.34 4 4 0 0 1 .69.06 3.51 3.51 0 0 1 .74.22 3.15 3.15 0 0 1 .7.4 2.2 2.2 0 0 1 .55.62v-4.26h1.36v11.42z"/><path class="cls-5" d="M94.25 275v52.21h261.1"/><path d="M363.35 327.21l-8-3v6zm0 0"/><path class="cls-6" d="M363.35 327.21l-8-3v6zm0 0"/><path class="cls-5" d="M379.06 350.12l-181.46 45.8"/><path d="M189.84 397.88l8.49 1-1.46-5.88zm0 0"/><path class="cls-6" d="M189.84 397.88l8.49 1-1.46-5.88zm0 0"/></svg>